<svg xmlns="http://www.w3.org/2000/svg" fill="none" width="477" height="429" viewBox="0 0 477 429"><path d="M213.913 206.471c-9.835.655-19.397-3.551-22.948-5.736h-1.64l-1.639 9.013v9.832l4.098 10.65c0 .001 3.278 4.098 4.098 4.098.82 0-11.475 25.4-11.475 25.4v45.881l-2.458 22.12 3.278 9.01c-3.005-.82-4.425-.985 13.933 4.915 18.36 5.9 26.774-12.29 28.686-22.122.82-10.925 2.46-32.118 2.46-29.496 0 2.621 11.473 7.646 17.21 9.831 13.66 4.37 42.291 13.11 47.536 13.11 5.246 0 11.474-2.187 13.933-3.279 8.196-7.374 3.279-27.857 2.46-30.315-.657-1.967-4.645-5.19-6.558-6.555-2.645-1.516-4.618-2.406-9.835-4.097L272.922 263l-1.638 4.097c-.084-.752-.596-1.294-2.46-2.458l-3.277-5.735L262.27 263l-3.279 1.639v-2.458l1.64-4.916-1.64-2.458c-.546-.273-1.803-.983-2.458-1.64-.656-.654-1.366-1.911-1.64-2.457l-.82-7.374c1.99-3.784 6.132-13.24 9.016-19.664 2.904-6.468 3.28-19.39 2.46-25.4l-6.558-9.01c-27.046 18.843-32.783 16.385-45.077 17.205Z" fill="#263238"/><path d="M194.587 235.836a.962.962 0 0 1-.77-.394c-2.574-3.605-7.28-14.125-7.77-18.975-.492-4.85 2.278-16.387 2.393-16.911a.953.953 0 0 1 1.133-.687.95.95 0 0 1 .719 1.113c-.001.131-2.804 11.765-2.361 16.386.442 4.621 5.032 14.748 7.425 18.025a.963.963 0 0 1 .17.708.957.957 0 0 1-.383.62.989.989 0 0 1-.557.115Z" fill="#263238"/><path d="m208.077 342.954-6.245-.442c6.77-1.82 10.966-12.716 13.589-20.205.492-1.409.967-2.753 1.442-3.982 2.328-6.08 2.54-25.006 2.41-32.282-.967-3.424-3.574-11.765-5.409-14.469a4.9 4.9 0 0 1-.787-3.802c.573-2.752 3.393-4.539 5.868-6.095a23.171 23.171 0 0 0 2.41-1.64c.557-3.506 4.638-4.604 7.671-5.407.95-.262 1.852-.508 2.557-.77 2.934-2.687 15.785-27.234 18.605-40.425 2.393-11.127-1.64-15.06-1.64-15.092l3.705-4.326c.69.573 6.672 6.063 3.557 20.614-2.426 11.307-16.474 42.277-21.817 44.424-1.126.42-2.276.776-3.443 1.065a17.66 17.66 0 0 0-3.557 1.196c-.36 2.294-2.59 3.704-4.917 5.195a20.45 20.45 0 0 0-3.246 2.23c2.689 4.36 5.688 14.88 6.032 16.11l.1.708c0 2.687.425 26.448-2.788 34.805-.442 1.18-.901 2.458-1.377 3.802-2.934 8.487-3.032 16.205-12.72 18.794Zm105.645-56.83c-4.475-2.194-16.13-4.488-23.113-5.963-2.983-.623-5.556-1.18-7.49-1.64a13.87 13.87 0 0 0-9.524 1.148c-.872.38-1.771.692-2.688.95-3.54.88-5.95-2.59-7.688-5.13-.197-.28-.41-.61-.64-.907-2.212 1.295-5.261 3.065-8.195 2.23a5.175 5.175 0 0 1-1.853-1.008 5.178 5.178 0 0 1-1.287-1.664 22.13 22.13 0 0 1-1.64-5.047c-.54-2.278-.918-3.72-2.05-4.62-3.867-3.083-3.85-4.54-3.933-4.918l2.902-4.736a29.176 29.176 0 0 0 4.59 5.277 12.582 12.582 0 0 1 4.032 7.767c.247 1.206.61 2.386 1.082 3.523a15.868 15.868 0 0 0 3.442-1.64 10.712 10.712 0 0 1 2.59-1.244c2.573-.64 4.147 1.64 5.655 3.818a19.06 19.06 0 0 0 2.099 2.688c.41-.13.903-.327 1.443-.557a19.336 19.336 0 0 1 13.114-1.375c1.82.46 4.344.983 7.26 1.638a92.982 92.982 0 0 1 20.196 6.293l1.705 5.112Z" fill="#fff"/><path d="M346.014 316.965c-.185 0-.367-.05-.525-.147-10.59-6.9-34.43-8.849-34.69-8.865a.96.96 0 0 1-.717-.295.949.949 0 0 1 .11-1.41.944.944 0 0 1 .753-.18c1.001 0 24.588 2 35.571 9.16a.951.951 0 0 1 .272.256.95.95 0 0 1 .15.712.952.952 0 0 1-.928.769Zm-8.524-18.648a7.827 7.827 0 0 1-2.18-.36c-3.394-.967-21.31-10.586-22.031-10.996a.951.951 0 0 1-.393-1.278.967.967 0 0 1 1.295-.393c6.376 3.44 19.096 10.11 21.637 10.848a3.8 3.8 0 0 0 2.147.213.952.952 0 0 1 1.87.213 1.644 1.644 0 0 1-.69 1.278 2.681 2.681 0 0 1-1.655.475Z" fill="#263238"/><path d="M347.505 285.65s-9.015 8.784-9.015 9.734c0 .95 6.409 6.637 6.884 8.537.476 1.9 4.754-.475 5.934 0 1.18.476.951 3.802-2.377 4.507-3.327.704-3.08 9.258-1.9 10.438 1.18 1.18 11.473 6.407 17.095 12.339 5.623 5.932 8.786 11.864 11.147 12.814 2.36.95 4.753 1.64 5.458-3.08.705-4.72 1.426-14.945-4.737-22.303-6.163-7.357-8.786-8.078-10.687-8.078-1.902 0-4.918.246-3.787-2.36 1.131-2.605 3.787-4.916 2.836-7.128-.95-2.212-8.376-16.124-16.85-15.42Z" fill="#263238"/><path d="M380.42 347.493a3.792 3.792 0 0 1-3.46-1.868.942.942 0 0 1 .133-1.039.95.95 0 0 1 1.556.187c.083.13.722 1.196 2.722.705 2.737-.69 4.917-1.475 5.475-4.72a34.405 34.405 0 0 0-4.147-20.45 42.361 42.361 0 0 0-7.508-8.554c-2.573-2.409-4.59-4.31-4.737-6.342 0-.737 0-1.474-.082-2.244a18.585 18.585 0 0 0-1.64-8.554c-2.146-4.277-7.244-9.832-12.08-11.88-4.442-1.819-6.458-1.016-8.196 3.277a.954.954 0 0 1-1.758-.004.956.956 0 0 1 .004-.727c2.213-5.276 5.328-6.554 10.737-4.31 5.41 2.246 10.786 8.194 13.113 12.8a20.175 20.175 0 0 1 1.902 9.34c0 .742.033 1.463.098 2.162.082 1.28 1.967 3.05 4.13 5.081a43.769 43.769 0 0 1 7.836 8.963 36.038 36.038 0 0 1 4.393 21.778c-.814 4.342-3.844 5.457-6.876 6.211a5.664 5.664 0 0 1-1.608.195ZM211.454 198.834c-4.671 0-13.113-.606-17.522-4.703a27.469 27.469 0 0 1-4.59-5.506 18.706 18.706 0 0 0-3.065-3.818 7.024 7.024 0 0 1-2.082-7.537.948.948 0 0 1 1.23-.525.927.927 0 0 1 .61.864.933.933 0 0 1-.07.365 5.136 5.136 0 0 0 1.64 5.441 20.782 20.782 0 0 1 3.278 4.162 25.364 25.364 0 0 0 4.294 5.162c4.557 4.227 14.753 4.276 17.671 4.178a.95.95 0 1 1 0 1.901l-1.394.016Z" fill="#263238"/><path d="M218.437 207.29a71.06 71.06 0 0 1-23.244-3.638c-10.048-3.933-9.835-8.193-9.425-9.357.125-.428.272-.849.442-1.26.394-.985.54-1.345 0-2.23-1.344-2.032-.245-6.44-.114-6.932a.952.952 0 0 1 1.147-.688.97.97 0 0 1 .689 1.164c-.443 1.638-.77 4.457-.132 5.407a3.673 3.673 0 0 1 .246 3.982c-.155.344-.281.7-.377 1.065-.442 1.64 1.459 4.408 8.196 7.08 8.196 3.277 29.112 5.997 41.488 0 20.08-9.669 21.506-13.24 21.457-14.11-.05-.868-.132-1.638-.23-2.62a17.698 17.698 0 0 1 .295-7.9c1.115-2.884 2.229-5.75 1.082-9.34a45.053 45.053 0 0 1-1.164-10.012c-.115-2.23-.213-4.343-.442-5.95a19.856 19.856 0 0 0-2.672-8.192.95.95 0 0 1-.237-.283.948.948 0 0 1-.07-.72.962.962 0 0 1 .822-.663.965.965 0 0 1 .698.208c1.377 1.163 2.786 5.72 3.278 9.455.262 1.638.36 3.85.475 6.128a43.04 43.04 0 0 0 1.082 9.537c1.344 4.228 0 7.555-1.082 10.488a16.38 16.38 0 0 0-.229 7.128c.098.95.197 1.868.246 2.72.098 2.13-2.115 6.096-22.539 15.911-5.475 2.622-12.638 3.622-19.686 3.622Z" fill="#263238"/><path d="M303.854 208.929a62.01 62.01 0 0 1-12.638-1.64c-3.82-.89-4.573-5.889-5.131-9.54a11.66 11.66 0 0 0-.9-3.69c-2.263-1.507-2.624-2.835-2.624-6.309a8.029 8.029 0 0 0-2.229-4.752 20.908 20.908 0 0 1-2.098-3.276c-1.328-2.655-5.934-15.633-4.819-19.369.786-2.606-2.394-8.505-7.64-10.537-5.703-2.228-17.096-9.274-17.57-9.57a.956.956 0 0 1-.443-.962.95.95 0 0 1 .723-.77.972.972 0 0 1 .72.11c.114 0 11.72 7.26 17.26 9.421 5.982 2.327 9.834 9.127 8.77 12.847-.804 2.72 3.032 14.65 4.687 18.025a20.036 20.036 0 0 0 2.016 2.966 9.83 9.83 0 0 1 2.607 5.9c0 3.276.31 3.752 1.786 4.735 1.05.704 1.328 2.49 1.64 4.916.508 3.277 1.13 7.374 3.67 7.964 8.787 2.015 18.721 2.54 19.77-1.033.885-2.999.508-7.75.164-11.946a40.933 40.933 0 0 1-.197-7.849c.41-2.9-4.918-23.072-8.196-35.116-1.557-5.867-2.787-10.488-3.18-12.323-1.147-5.407-34.292-29.397-42.783-32.773-7.31-2.966-18.227-6.866-28.718-6.555a.857.857 0 0 1-.737-.31 36.206 36.206 0 0 0-5.213-4.999l-.574.623c-2.262 2.442-7.556 8.193-15.146 7.21a43.425 43.425 0 0 1-12.13-3.112 3.436 3.436 0 0 1-.852 2.376l-.148.114c-.163.115-4.048 2.54-14.752 1.64-10.327-.935-15.998-1.443-25.899-11.34-2.77-2.77-5.983-6.145-9.41-9.734-7.9-8.472-16.915-17.927-20.358-19.648-3.934-1.967-11.015-2.754-13.572-2.983-.279 3-1.737 11.75-9.146 14.748 0 1.18.524 4.654 5.065 10.602l2.508 3.277c7.654 10.127 25.603 33.84 31.29 36.28 1.837.787 4.92 1.885 8.427 3.146 9.589 3.442 21.538 7.718 25.096 11.29 3.016 3 5.605 14.455 7.9 24.582 1.344 5.9 2.738 12.01 3.557 12.994a19.482 19.482 0 0 0 5.77 3.785 10.467 10.467 0 0 1 3.787 2.475.952.952 0 0 1-.279 1.311.969.969 0 0 1-1.311-.263 13.538 13.538 0 0 0-3.05-1.835 20.81 20.81 0 0 1-6.376-4.26c-1.065-1.262-2.13-5.834-3.95-13.78-1.967-8.948-4.77-21.075-7.393-23.713-3.278-3.277-15.473-7.652-24.39-10.848-3.558-1.278-6.557-2.376-8.54-3.277-6.148-2.638-23.654-25.76-32.047-36.87l-2.507-3.277c-6.262-8.193-5.492-12.24-5.377-12.667a.902.902 0 0 1 .606-.672c8.196-2.753 8.524-14.043 8.54-14.158a.942.942 0 0 1 .309-.668.946.946 0 0 1 .693-.25c.41 0 10.065.671 15.245 3.276 3.72 1.938 12.474 11.098 20.932 19.964 3.41 3.572 6.557 6.948 9.376 9.701 9.409 9.405 14.523 9.832 24.719 10.8 8.983.82 12.753-.886 13.392-1.23.195-.449.28-.938.246-1.426 0-.54 0-1.786 1.164-1.786.408.051.803.18 1.164.377a40.89 40.89 0 0 0 11.916 3.113c6.557.836 11.475-4.392 13.524-6.555a5.9 5.9 0 0 1 1.278-1.197c.557-.262 1.64-.77 7.016 5.277 10.687-.197 21.686 3.72 29.062 6.718 8.54 3.49 42.504 27.53 43.914 34.215.377 1.786 1.639 6.391 3.163 12.225 4.77 17.828 8.672 32.773 8.196 35.87a39.944 39.944 0 0 0 .213 7.44c.345 4.36.738 9.29-.245 12.617-.853 3.016-4.87 3.934-9.311 3.934Z" fill="#263238"/><path d="M206.684 108.266a26.451 26.451 0 0 1-8.606-1.393c-9.474-3.277-9.376-6.473-9.26-7.079a.954.954 0 0 1 1.884.295c0 .164.377 2.36 7.999 4.916a26.617 26.617 0 0 0 29.014-8.865.931.931 0 0 1 1.327-.148.964.964 0 0 1 .148 1.344 28.842 28.842 0 0 1-22.506 10.93Z" fill="#263238"/><path d="M123.709 33.215 6.311 12.65l108.53 3.802 8.868 16.763Z" fill="#E8E8E8"/><path d="M104.383 16.075V10.75L6.31 12.65l98.073 3.425Z" fill="#D9D9D9"/><path d="M110.743 10.635 90.483 0 6.31 12.65l104.432-2.015Z" fill="#E8E8E8"/><path d="M99.662 72.592a.886.886 0 0 1-.721-.327c-.148-.164-14.556-16.895-18.85-20.27-.886-.689-1.804-1.442-2.754-2.213a56.811 56.811 0 0 0-12.704-8.619c-5.9-2.49-13.44-14.617-13.753-15.14a.954.954 0 0 1 .68-1.438.956.956 0 0 1 .96.454c0 .114 7.54 12.11 12.9 14.387 4.688 1.983 9.18 5.653 13.113 8.881l2.721 2.196c4.46 3.49 18.523 19.828 19.13 20.533a.941.941 0 0 1 .228.684.934.934 0 0 1-.327.643.918.918 0 0 1-.623.23Z" fill="#263238"/><path d="M70.895 23.826 8.835 12.65l64.322 19.337-2.262-8.16Zm11.72 10.995 23.063 6.932 1.639-11.389-27.407-4.916s.607 3.556.95 4.916a33.838 33.838 0 0 0 1.755 4.457Z" fill="#9E9E9E"/><path d="M198.341 98.467h-.263a.962.962 0 0 1-.573-.454.949.949 0 0 1-.082-.726s1.786-6.31 0-10.651a.942.942 0 0 1-.055-.773.953.953 0 0 1 1.313-.528.943.943 0 0 1 .5.596c2.019 4.916.117 11.602 0 11.88a.955.955 0 0 1-.833.664Zm21.178-3.31a.951.951 0 0 1-.771-.393c-2.59-3.573-6.917-9.832-6.753-11.586a.965.965 0 0 1 1.032-.852.984.984 0 0 1 .87 1.033c0 1 3.28 6.128 6.392 10.29a.956.956 0 0 1 .17.708.946.946 0 0 1-.383.62.984.984 0 0 1-.557.18Zm106.07 147.61a3.31 3.31 0 0 1-.672-.082c-2.623-.573-12.884-11.077-14.753-13.634a15.183 15.183 0 0 0-5.392-4.293 10.42 10.42 0 0 0-1.902 4.916c-.197 2.425-.574 4.8-1.983 5.768a2.612 2.612 0 0 1-2.312.279c-2.917-.885-2.475-3.59-1.852-7.325l.213-1.327a28.504 28.504 0 0 1 3.28-8.308c.261-.492.54-1.033.687-1.36-.754-1.26-3.836-6.34-5.95-9.83a.965.965 0 0 1 .311-1.31.951.951 0 0 1 1.312.31c1 1.64 5.95 9.72 6.179 10.197.23.475 0 1.13-.868 2.818a26.847 26.847 0 0 0-3.066 7.734l-.23 1.327c-.638 3.9-.67 4.834.525 5.194.46.149.623 0 .705 0 .86-.572 1.089-3.407 1.17-4.341a10.572 10.572 0 0 1 2.9-6.555 1.42 1.42 0 0 1 1.18-.196 16.924 16.924 0 0 1 6.559 5.08c2.525 3.277 12.097 12.584 13.687 12.928.18 0 .492.082.574-.082.082-.163 0-1.474-1.41-2.802-1.885-1.638-8.097-9.832-7.556-11.716a1.147 1.147 0 0 1 .884-.817c.885-.18 1.77.458 6.835 4.916 2.608 2.31 6.558 5.784 7.54 5.98.38.076.76.13 1.147.165a9.468 9.468 0 0 0-.688-1.05c-.787-1.097-2.344-2.8-3.853-4.456a44.06 44.06 0 0 1-5-6.031.952.952 0 0 1 1.117-1.352c.243.07.448.232.572.45a45.178 45.178 0 0 0 4.705 5.656c1.64 1.769 3.147 3.44 4 4.62.852 1.18 1.64 2.409.967 3.278-.673.868-2 .786-3.28.508-1.277-.28-4.113-2.606-8.424-6.407-1.148-1.016-2.525-2.245-3.64-3.163a44.565 44.565 0 0 0 6 7.948c1.82 1.638 2.557 3.67 1.836 5.063a2.162 2.162 0 0 1-2.049 1.31Z" fill="#263238"/><path d="M335.195 234.836a9.098 9.098 0 0 1-3.836-1.082.95.95 0 0 1 .935-1.639 6.039 6.039 0 0 0 3.278.803l.082-.098s0-.557-1.82-2.212a96.124 96.124 0 0 1-8.195-9.832 1.113 1.113 0 0 1 0-1.295c1.13-1.376 10.802 3.147 10.9 3.278a.502.502 0 0 0 .197 0s0-.77-1.213-1.786c-1.508-1.23-9.95-4.326-22.604-8.292l-.236-.082c-2.69-.84-3.82-4.66-3.935-5.08a.953.953 0 0 1 1.82-.515c.263.884 1.23 3.277 2.67 3.785h.229c9.378 2.95 21.03 6.833 23.245 8.635 2.212 1.804 2.163 3.41 1.64 4.327a1.949 1.949 0 0 1-2.592.59c-.984-.491-4.623-1.933-7.05-2.77a78.212 78.212 0 0 0 6.558 7.62c1.72 1.639 2.442 2.737 2.409 3.72a2.052 2.052 0 0 1-.852 1.524c-.479.33-1.063.47-1.64.394ZM184.801 16.091s-11.736 3.016-13.31 9.44c-1.57 6.423.007 13.108 5.07 12.437 5.067-.672 11.706-5.064 16.13-4.753 4.427.312 3.49 1.983 1.9 4.785-1.59 2.802 1.265 7.554 9.18 5.342 7.92-2.212 8.198-6.325 13.919-4.752 5.719 1.573.507 14.55 1.835 16.387 1.328 1.835 1.64 4.424 4.622 0 2.984-4.425 7.475-10.438 12.212-8.849 4.737 1.59-4.426 10.75-9.163 12.65l-4.753 1.901s-1.902 13.273-4.754 15.174c-.001 0 18.997-2.523 26.226-9.176 7.23-6.653.95-6.555 2.213-10.11 1.262-3.557 8.54-3.737 8.54-8.047 0-4.31-.95-3.67-7.59-6.833-6.638-3.162-4.753-4.735-3.802-6.325.95-1.59 1.9-4.424-3.476-6.014-5.376-1.59-18.03-5.375-15.703-8.848 2.328-3.474 3.54-10.439-4.622-9.832-8.163.606-15.966 5.915-20.605 5.342-4.64-.574-8.917-1.803-14.064.081Z" fill="#263238"/><path d="M200.291 87.619h-.229l-2.131-.475c-5.524-1.213-17.015-3.72-23.145-8.062-7.491-5.31-6.131-18.517-4.787-22.728 1.345-4.212 4.377-18.452 4.41-18.665a.924.924 0 0 1 .426-.606.868.868 0 0 1 .72-.115c.192.018.384.018.575 0a.99.99 0 0 1 .31-.098 31.318 31.318 0 0 0 7.214-2.327c3.278-1.344 6.458-2.622 9.097-2.425 1.46.114 3.278.377 3.869 1.638.59 1.262-.148 2.737-1.197 4.59a2.603 2.603 0 0 0 .31 2.866c1.313 1.639 4.23 2.114 7.77 1.115a22.22 22.22 0 0 0 6.722-3.163c2.262-1.458 4.032-2.605 7.72-1.639 4.557 1.28 3.508 7.784 2.754 12.552a15.424 15.424 0 0 0-.393 4.294c.246.352.459.728.672 1.088.166.355.387.681.655.967a9.408 9.408 0 0 0 1.64-2.065c2.67-3.883 7.638-11.11 13.31-9.209a2.621 2.621 0 0 1 1.967 2.491c.114 3.753-6.934 10.275-11.098 11.93l-4.294 1.72c-.574 2.295-3.033 11.898-4.72 14.945l-.33.623c-1.05 2.064-3.277 6.39-7.49 8.62a.951.951 0 0 1-1.278-.395.968.968 0 0 1 .393-1.293c3.705-1.95 5.72-5.9 6.688-7.8l.36-.672c1.738-3.18 4.623-14.748 4.656-14.945a.927.927 0 0 1 .557-.655l4.754-1.9c3.655-1.46 9.982-7.555 9.835-10.128 0-.246 0-.54-.672-.754-3.787-1.262-7.59 3.278-11.13 8.505-1.46 2.114-2.476 2.9-3.46 2.867-.983-.032-1.638-1.032-2.146-1.917-.181-.31-.361-.639-.574-.95-.656-.917-.426-2.572 0-5.669.656-4.047 1.54-9.586-1.377-10.405-2.918-.82-4.032 0-6.18 1.343a23.817 23.817 0 0 1-7.015 3.54c-6.221 1.737-8.925-.656-9.843-1.77a4.438 4.438 0 0 1-.475-4.915c.574-1.032 1.36-2.425 1.164-2.786 0 0-.295-.442-2.311-.59-2.016-.146-5.278 1.083-8.196 2.296a35.907 35.907 0 0 1-7.507 2.425c-.252.094-.52.138-.787.131-.705 3.278-3.131 14.323-4.28 17.895-1.146 3.572-2.457 15.96 4.083 20.614 5.803 4.113 17.047 6.555 22.44 7.751l2.18.475a.947.947 0 0 1 .72.776.93.93 0 0 1-.35.883.937.937 0 0 1-.583.193Z" fill="#263238"/><path d="M172.392 51.929a.85.85 0 0 1-.442-.115 18.631 18.631 0 0 1-8.737-11.667 6.67 6.67 0 0 1 0-4.375 2.389 2.389 0 0 1 2.311-1.016c1.64.147 3.77 1.639 5.278 5.162a31.416 31.416 0 0 0 3.279 6.276.954.954 0 0 1-.876 1.526.95.95 0 0 1-.632-.363 31.865 31.865 0 0 1-3.59-6.686c-1.28-3.03-2.934-3.965-3.721-4.03-.377 0-.508.13-.54.18-.542 1.196 1.376 9.832 8.064 13.322a.951.951 0 0 1-.443 1.786h.05Zm38.7-2.622h-.491a2.015 2.015 0 0 1-1.64-1.639c-.261-1.114-2.621-2.703-4.228-3.474a.958.958 0 0 1-.488-.546.951.951 0 0 1 .046-.732.928.928 0 0 1 .904-.538.94.94 0 0 1 .358.096c.787.377 4.704 2.392 5.26 4.768 0 .148 0 .148.133.164a1.261 1.261 0 0 0 1.065-.524.934.934 0 0 0 0-1.049c-1.246-2.31-2.098-3.605-3.147-3.883a.944.944 0 0 1-.631-.424.947.947 0 0 1-.12-.75.964.964 0 0 1 .469-.597.955.955 0 0 1 .757-.065c1.902.492 3.05 2.393 4.344 4.834a2.764 2.764 0 0 1-.213 3.081 3.151 3.151 0 0 1-2.377 1.278Zm-34.061-6.604a1.033 1.033 0 0 1-.311 0 2.903 2.903 0 0 1-2.131-1.917 3.27 3.27 0 0 1 .787-2.687.966.966 0 0 1 1.344-.007.95.95 0 0 1 0 1.326c-.164.196-.443.671-.36.933.08.262.245.328.557.475a15.544 15.544 0 0 1 5.54-1.376 1.363 1.363 0 0 0 1.246-.95 2.69 2.69 0 0 0 .13-1.787.951.951 0 0 1-1.02-1.307.936.936 0 0 1 .496-.495 1.642 1.642 0 0 1 1.787.344 3.813 3.813 0 0 1 .41 3.85 3.279 3.279 0 0 1-2.967 2.246 13.58 13.58 0 0 0-5.131 1.343.854.854 0 0 1-.377.001Z" fill="#263238"/><path d="M179.408 48.357a20.701 20.701 0 0 0-2.95-.967 12.58 12.58 0 0 0-1.328-.279c-.508-.098-1.05-.147-1.754-.344a3.28 3.28 0 0 1 3.59-1.41 3.08 3.08 0 0 1 2.442 3Zm17.293 2.621a4.444 4.444 0 0 1 2.393-1.638 6.052 6.052 0 0 1 2.967-.099 6.134 6.134 0 0 1 2.623 1.328 5.261 5.261 0 0 1 1.64 2.376c-.935-.328-1.64-.705-2.46-.983a13.28 13.28 0 0 0-2.23-.672 11.552 11.552 0 0 0-2.294-.328c-.885 0-1.721 0-2.64.016Zm-11.753 11.29h-.18a27.569 27.569 0 0 1-4.918-1.474 2.137 2.137 0 0 1-1.213-1.393 4.602 4.602 0 0 1 .82-3.269l4.688-9.227.164-.23a3.05 3.05 0 0 1 2.54-1.065 3.693 3.693 0 0 1 2.443 1.753c.103.19.143.408.115.623 0 .002-1.066 6.982-1.18 9.834a4.49 4.49 0 0 1-3 4.457h-.28Zm.77-14.42-4.67 9.194a3.03 3.03 0 0 0-.624 1.835s0 .115.18.18c1.376.563 2.804.991 4.262 1.278a2.767 2.767 0 0 0 1.41-2.622c.115-2.621.918-8.193 1.147-9.684a1.637 1.637 0 0 0-.852-.59 1.18 1.18 0 0 0-.852.426v-.016Zm-12.342 3.081a2.787 2.787 0 0 1 2.246.23 5.59 5.59 0 0 1 2.786 5.997c-.524 1.344-2.229-.18-4.688-1.147-.803-.31-.885 0-1.64-.262l1.296-4.818Zm19.424 9.16c-.28 1.64 2.754 1.246 6.31 1.82 3.558.573 6.263 1.966 6.558.262.295-1.705-2-5.9-5.54-6.473-3.54-.574-7.049 2.687-7.328 4.392Zm-8.868 9.34c2.147-.655 3.966-.982 5.704-1.523a20.65 20.65 0 0 0 2.557-.918c.869-.344 1.639-.835 2.72-1.344a5.358 5.358 0 0 1-1.638 2.934 7.394 7.394 0 0 1-2.95 1.638 8.41 8.41 0 0 1-3.279.28 6.555 6.555 0 0 1-3.114-1.066Z" fill="#263238"/><path d="M225.6 148.708c0 9.078-3.803 16.386-17.425 16.386-9.606 0-15.392-7.341-15.392-16.386 0-9.046 3.869-16.387 15.392-16.387s17.425 7.325 17.425 16.387Z" fill="#E8E8E8"/><path d="M206.536 150.757h-.311c-.525 0-1.525 0-1.82-.902-.295-.9.377-1.327.836-1.638a4.59 4.59 0 0 0 .639-.623l-.147-.098c-1.23-.852-9.458-.59-16.703.163a.948.948 0 0 1-.37-.03.938.938 0 0 1-.679-.81.967.967 0 0 1 .852-1.05c2.573-.263 15.556-1.525 18.031.163a1.974 1.974 0 0 1 .837 2.397 1.965 1.965 0 0 1-.41.65c.786.001 1.868-.18 3.114-.327 5.49-.655 14.752-1.753 22.784.393a.95.95 0 0 1 .645 1.157.951.951 0 0 1-1.137.68c-7.753-2.05-16.703-.985-22.063-.345-1.869.032-3.229.213-4.098.213ZM74.026 39.852a.934.934 0 0 1-.87-.573 22.773 22.773 0 0 1-.95-7.161l-2.246-7.899a.967.967 0 0 1 1.082-1.196l7.933 1.393c.394 0 2.295.623 2.64 4.916.157 1.82.778 3.568 1.803 5.08a.916.916 0 0 1-.328 1.294.935.935 0 0 1-1.295-.327 12.386 12.386 0 0 1-2.066-5.891c-.23-2.835-1.147-3.277-1.163-3.277l-6.36-1.115 1.868 6.555a1.64 1.64 0 0 1 0 .278 21.723 21.723 0 0 0 .787 6.556.95.95 0 0 1-.492 1.244 1.014 1.014 0 0 1-.344.115Zm34.816 17.714a.85.85 0 0 1-.492-.131C106.186 56.157 87.14 44.719 84.582 40a.966.966 0 0 1 0-.967c.53-.96.85-2.02.934-3.114a.955.955 0 0 1 1.9.16 10.388 10.388 0 0 1-.933 3.422c2.787 3.884 17.26 12.995 22.8 16.387a.916.916 0 0 1 .329 1.294.958.958 0 0 1-.77.377Zm96.416 324.863s-.902-13.863-1.64-14.534c-.737-.672-10.162.606-12.096-.36-1.935-.968-3 4.325-4.246 4.915-1.246.59-3.868-1.934-2.082-5.227 1.787-3.294-5.556-9.21-7.392-9.062-1.836.147-13.54 4.916-22.588 5.473-9.048.557-16.244-1.147-18.736.164-2.49 1.31-4.803 2.786-1.328 6.784 3.475 3.998 11.475 11.913 22.096 12.011 10.622.099 13.114-1.638 14.425-3.18 1.312-1.539 3.28-4.341 4.705-1.474 1.426 2.868 1.46 6.752 3.934 7.489 2.475.738 19.424 4.67 24.948-3Z" fill="#263238"/><path d="M189.423 396.555c-2.48.02-4.957-.25-7.376-.803a22.497 22.497 0 0 1-9.163-5.08 49.91 49.91 0 0 0-1.868-1.475c-1.18-.868-4.033-.557-7.31-.196a47.96 47.96 0 0 1-13.115.131 39.505 39.505 0 0 1-21.302-11.881c-3.032-3.752-1.787-7.046-.262-10.11a4.413 4.413 0 0 1 4.786-2.812.954.954 0 0 1 .595 1.115.95.95 0 0 1-1.037.72c-.164 0-1.64-.263-2.656 1.835-1.392 2.802-2.277 5.178 0 8.062a37.94 37.94 0 0 0 20.179 11.21c4.184.514 8.42.465 12.589-.15 3.82-.425 6.852-.753 8.622.558.656.475 1.295 1 1.95 1.524a20.62 20.62 0 0 0 8.426 4.72c5.147 1.276 13.556 1.013 18.703-1.64 4.77-2.459 5.54-4.753 3.28-9.423a.947.947 0 0 1 .495-1.052.955.955 0 0 1 1.143.216c2.786 5.57 1.64 9.029-4.032 11.93a28.7 28.7 0 0 1-12.64 2.605Zm-8.212-31.856a.93.93 0 0 1-.495-.14.924.924 0 0 1-.341-.384.923.923 0 0 1-.064-.705.922.922 0 0 1 .457-.541c.131-.1 4.41-3.02 9.08-22.227a.952.952 0 1 1 1.837.442c-4.917 20.385-9.54 23.204-10.048 23.45a.954.954 0 0 1-.426.098Zm19.26 6.62a.931.931 0 0 1-.934-.884c-.46-7.145 8.982-26.94 9.392-27.776a.947.947 0 0 1 1.132-.213.95.95 0 0 1 .507 1.033c-.098.188-9.622 20.18-9.212 26.817a.964.964 0 0 1-.046.369.96.96 0 0 1-.48.55.953.953 0 0 1-.36.095Z" fill="#263238"/><path d="M207.88 344.117c-6.229 0-17.424-3.277-22.784-6.44-5.606-3.277-3.901-15.37-2.41-26.054.18-1.31.36-2.606.525-3.835.655-5.08.49-14.846.31-24.3-.196-11.16-.376-21.713.657-26.088 1.901-8.193 18.375-38.345 19.08-39.623a.911.911 0 0 1 .558-.463.928.928 0 0 1 .72.086.936.936 0 0 1 .49.927.904.904 0 0 1-.113.35c-.164.313-17.047 31.3-18.899 39.15-.967 4.145-.77 15.074-.59 25.627.164 9.521.344 19.37-.328 24.58a220.93 220.93 0 0 1-.54 3.85c-1.33 9.587-3 21.533 1.49 24.155 5.59 3.277 18.72 6.931 23.555 6.047 2.377-.427 10.442-2.753 14.95-14.584 3.671-9.62 4.688-41.442 4.688-44.752a21.302 21.302 0 0 0-2.705-5.424c-2.278-3.835-3.278-5.719-2.36-6.784.918-1.065 2.114-.262 2.606 0a27.566 27.566 0 0 1 5.721 3.834l1.114.87v-.28a55.346 55.346 0 0 0-1.245-3.883c-.787-2.31-1.23-3.589-.492-4.44a1.889 1.889 0 0 1 1.885-.444c2.49.492 3.852.312 4.917-.688 1.279-1.376 23.785-37.69 25.375-45.554 1.803-8.718 1.64-18.419-.344-21.598-2.328-3.72-5.147-7.49-5.18-7.52a.95.95 0 0 1 .197-1.329.938.938 0 0 1 1.052-.068.935.935 0 0 1 .275.25s2.902 3.866 5.262 7.651c2.606 4.18 2.262 14.961.606 22.941-1.655 7.98-24.636 45.178-26.046 46.587-1.836 1.836-4.213 1.64-6.557 1.213.194.812.44 1.612.738 2.392.377 1.098.852 2.458 1.278 4.015.328 1.23.574 2.474-.295 3.032-.868.557-1.95-.18-3.77-1.64a26.114 26.114 0 0 0-5.327-3.588h-.098a36.64 36.64 0 0 0 2.278 4.18c1.836 3.112 2.967 5.095 2.967 6.39 0 .327-.738 34.74-4.803 45.423-4.917 12.765-13.77 15.305-16.392 15.78a11.04 11.04 0 0 1-2.016.05Z" fill="#263238"/><path d="M294.101 314.212c-.836 0-1.64 0-2.278-.098-3.934-.295-17.605-4.785-29.669-8.734-7.245-2.376-14.08-4.62-17.49-5.523a31.605 31.605 0 0 1-15.212-9.831.955.955 0 0 1-.175-1.11.936.936 0 0 1 .252-.306.93.93 0 0 1 .355-.178.947.947 0 0 1 1.043.414 30.35 30.35 0 0 0 14.213 9.16c3.475.917 10.343 3.162 17.605 5.555 11.376 3.72 25.522 8.373 29.226 8.652 5.54.426 14.933-.754 18.03-5.735 3.099-4.982 3.591-17.124 2.739-20.107l-.115-.409c-1.016-3.589-3.393-12.028-11.147-14.6-9.703-3.278-26.636-7.883-28.44-7.571-.376 0-.786 1.016-1.032 1.556-.377.852-.77 1.72-1.64 1.737-.868.017-1.442-1-1.638-1.425a36.18 36.18 0 0 1-1.033-2.327c-.524-1.262-1.64-3.884-2.246-4.031-.781.72-1.49 1.516-2.114 2.376-1.508 1.933-2.524 3.277-3.672 2.802-1.147-.483-1.016-1.646-1.016-2.106.033-1.146.176-2.287.426-3.407.525-2.655.54-3.572-1.23-4.244-4.196-1.64-5.13-8.537-5.13-11.077a.95.95 0 1 1 1.9 0c0 1.638.674 8.095 3.903 9.307 3.23 1.213 2.885 3.982 2.426 6.375a19.2 19.2 0 0 0-.312 2.85c.41-.46.902-1.098 1.279-1.64a15.651 15.651 0 0 1 2.409-2.686 1.938 1.938 0 0 1 1.64-.36c1.508.409 2.426 2.605 3.49 5.128.296.705.59 1.409.87 2.016.442-.983 1.049-2.31 2.327-2.638 2.426-.59 23.096 5.49 29.506 7.62 8.69 2.9 11.36 12.338 12.36 15.894l.12.394c.983 3.408.623 16.026-2.951 21.646-3.393 5.293-12 6.653-17.572 6.653Zm126.692 62.007a6.953 6.953 0 0 1-1 0 .955.955 0 0 1-.803-1.082.949.949 0 0 1 1.081-.803c.132 0 11.475 1.377 21.457-17.73 8.606-16.386 9.016-21.302 8.885-22.548-.312.23-.722.607-1.099.951a11.557 11.557 0 0 1-3.376 2.392c-1.885.754-22.228 18.025-26.39 36.214a.93.93 0 0 1-.764.719.932.932 0 0 1-.368-.014.928.928 0 0 1-.6-.413.938.938 0 0 1-.12-.718c4.359-19.04 25.308-36.656 27.537-37.558a9.407 9.407 0 0 0 2.786-2.015 5.366 5.366 0 0 1 2.41-1.639 1.398 1.398 0 0 1 1.44.574c2.26 3.007-4.46 16.886-8.676 24.884-9.097 17.304-19.227 18.779-22.407 18.779Z" fill="#263238"/><path d="M422.235 373.99a.943.943 0 0 1-.721-.344.941.941 0 0 1-.222-.696.935.935 0 0 1 .337-.648c.13-.098 12.965-10.995 18.522-22.793a.949.949 0 0 1 1.727.096.95.95 0 0 1-.006.706c-5.737 12.19-18.473 22.94-19.014 23.45a.967.967 0 0 1-.623.23Zm-2.245-22.892h-.082a.922.922 0 0 1-.65-.325.935.935 0 0 1-.219-.691c1.295-15.583 8.901-31.659 22.604-47.75.574-.688.967-1.147 1.131-1.377.33-.529.63-1.076.902-1.638 1.114-2.098 2.016-3.736 3.278-3.376 1.262.361 1.64 1.64 1.295 8.193-.688 13.11-9.622 38.476-10 39.541a.942.942 0 0 1-.17.355.936.936 0 0 1-.675.37.956.956 0 0 1-1.029-.964.966.966 0 0 1 .088-.384c.099-.262 9.229-26.136 9.835-39.016.15-1.88.15-3.772 0-5.653-.344.54-.754 1.311-1.016 1.802-.262.492-.721 1.36-1.016 1.786-.295.426-.623.77-1.262 1.524-13.442 15.797-20.883 31.495-22.146 46.67a.944.944 0 0 1-.254.633.946.946 0 0 1-.614.3Z" fill="#263238"/><path d="M420.465 360.504h-.262a.953.953 0 0 1-.64-1.18c5.524-18.91 18.408-42.605 18.539-42.9a.933.933 0 0 1 .561-.456.944.944 0 0 1 .718.08.949.949 0 0 1 .457.56.933.933 0 0 1-.08.718c-.13.245-12.9 23.826-18.375 42.605a.936.936 0 0 1-.918.573Z" fill="#263238"/><path d="M414.712 374.302a.94.94 0 0 1-.656-.262c-.656-.623-15.998-15.65-14.212-34.412 1.558-16.387 5.54-31.806 8.688-33.822a1.645 1.645 0 0 1 1.475-.229c1.885.655 2.279 3.424 2.77 6.947.27 2.8.897 5.554 1.87 8.194 2.638 6.21 9.015 34.657 5.589 50.06a.95.95 0 0 1-1.853-.409c3.279-15.026-2.9-42.834-5.49-48.914a34.967 34.967 0 0 1-2-8.619c-.312-2.18-.689-4.916-1.394-5.36-1.77 1.116-6.032 14.16-7.77 32.381-1.646 17.796 13.484 32.66 13.63 32.773a.933.933 0 0 1-.654 1.64v.032Z" fill="#263238"/><path d="M416.023 372.057a.967.967 0 0 1-.87-.557c-8.195-18.124-9.523-43.572-9.523-43.818a.926.926 0 0 1 .233-.686.932.932 0 0 1 .652-.314.938.938 0 0 1 .951.902c0 .245 1.393 25.35 9.376 43.145a.95.95 0 0 1-.475 1.246.856.856 0 0 1-.344.082Zm-1.115-46.899a.95.95 0 0 1-.95-.885c-1.46-25.005 8.917-46.587 13.9-56.943a55.182 55.182 0 0 0 2.442-5.506c1.098-3.687 2.508-4.31 3.475-4.178 1.426.18 3.361 1.917 3.705 14.617.442 16.026-4.23 44.047-4.262 44.243a.972.972 0 0 1-.131.35.972.972 0 0 1-.595.425.97.97 0 0 1-.721-.12.959.959 0 0 1-.438-.966c0-.279 4.67-28.136 4.245-43.965-.31-11.815-2.065-12.782-2.08-12.798a6.543 6.543 0 0 0-1.378 2.85 52.855 52.855 0 0 1-2.557 5.786c-4.918 10.225-15.13 31.495-13.704 56.01a.933.933 0 0 1-.053.366.97.97 0 0 1-.19.32.96.96 0 0 1-.659.312l-.049.082Z" fill="#263238"/><path d="M419.629 347.051a.965.965 0 0 1-.95-.852c-.319-2.835.7-7.161 2.57-15.027a758.742 758.742 0 0 0 3.39-14.993 422.064 422.064 0 0 0 6.05-42.61.987.987 0 0 1 1.03-.87.93.93 0 0 1 .82.662c.035.12.046.246.033.37a425.128 425.128 0 0 1-6.065 42.834c-1.328 6.112-2.492 11.045-3.426 15.01-1.803 7.67-2.803 11.88-2.524 14.404a.953.953 0 0 1-.836 1.05l-.099.015Zm14.622 33.92a.97.97 0 0 1-.918-.672.95.95 0 0 1 .639-1.18l1.934-.606c-.094-.05-.18-.11-.262-.18a1.382 1.382 0 0 1-.394-1.377 9.513 9.513 0 0 1 1.427-2.72l.213-.31c-3.557 1.343-8.49 2.8-11.884 1.326a.943.943 0 0 1-.509-1.245.971.971 0 0 1 1.263-.492c3.278 1.409 8.95-.786 10.835-1.507.672-.263 1.9-.738 2.557.098.655.836 0 1.82-.885 3.18-.312.458-.656.982-.902 1.44.54-.13 1.28-.36 1.87-.54a17.848 17.848 0 0 1 4.916-1.05c1.05 0 1.362.509 1.411.936.131.884.23 1.458-11.015 4.915l-.295-.016Zm-22.654-7.227a.846.846 0 0 1-.442-.114 28.687 28.687 0 0 1-6.983-5.359c-1.557-1.638-2.705-2.08-3.28-1.933a.611.611 0 0 0-.376.524 1.36 1.36 0 0 1-.852 1.114c-.9.345-1.787-.376-2.819-1.212l-.263-.197v.328c.164 1.917.427 4.801-1.64 5.752a.963.963 0 0 1-.728.023.959.959 0 0 1-.533-.5.944.944 0 0 1-.024-.728.95.95 0 0 1 .5-.532c.835-.377.64-2.557.524-3.85-.115-1.296-.197-2.344.59-2.787.795-.442 1.728.213 2.746 1.016l.786.62a2.404 2.404 0 0 1 1.54-1.397c.837-.246 2.607-.246 5.132 2.458a27.333 27.333 0 0 0 6.458 4.916.952.952 0 0 1 .41 1.294.96.96 0 0 1-.739.557Zm-328.785-1.163a37.801 37.801 0 0 1-5.066-.344c-7.44-1-18.293-4.916-27.669-17.435-15.556-20.86-16.162-37.837-16.392-45.096 0-1.098 0-1.95-.147-2.573-.41-3.277 0-7.144 1.918-7.947.491-.23 1.491-.394 2.557.901a6.372 6.372 0 0 1 1.18 3.277c.344 2.098.738 4.49 5.377 7.194 9.703 5.62 42.028 26.366 50.978 57.173a.946.946 0 0 1-.276 1.074.952.952 0 0 1-1.544-.55c-8.753-30.119-40.57-50.52-50.11-56.058-5.425-3.147-5.933-6.26-6.294-8.52a4.765 4.765 0 0 0-.77-2.328 1.192 1.192 0 0 0-.426-.38c-.312.193-1.164 2.324-.705 5.98 0 .653.115 1.64.164 2.734.246 7.08.836 23.646 16.031 44.031 8.95 12.028 19.244 15.698 26.31 16.682a32.9 32.9 0 0 0 13.374-.787.952.952 0 0 1 .916 1.624.946.946 0 0 1-.326.177 30.86 30.86 0 0 1-9.08 1.163Z" fill="#263238"/><path d="M91.794 369.238h-.164c-.606-.114-15.097-2.704-30.718-16.632a72.178 72.178 0 0 1-20.36-33.068.953.953 0 0 1 1.854-.443 70.015 70.015 0 0 0 19.768 32.118c15.179 13.552 29.636 16.157 29.784 16.174a.965.965 0 0 1 .77 1.097.933.933 0 0 1-.934.754Zm9.278-.328a.937.937 0 1 1-.164-1.868c.18 0 18.03-3.752 18.703-36.837.82-36.492-6.557-53.977-11.13-58.549-.95-.967-1.787-1.425-2.196-1.26-1.754.687-1.902 8.733-1.984 13.534-.13 6.423-3.278 12.6-7.507 21.17a591.733 591.733 0 0 0-4.82 9.833c-6.409 13.781-2.966 37.558-2.933 37.788a.947.947 0 0 1-.407 1.045.943.943 0 0 1-.768.115.944.944 0 0 1-.597-.497.947.947 0 0 1-.097-.385c-.148-.983-3.573-24.58 3.082-38.87 1.64-3.686 3.393-6.996 4.917-9.93 4.164-8.34 7.18-14.354 7.294-20.35.148-8.522.46-14.192 3.18-15.273 1.853-.738 3.656 1.097 4.246 1.638 6.351 6.407 12.416 27.43 11.695 59.926-.788 34.74-19.474 38.508-20.26 38.656l-.247.114Zm-22.145 8.456c-5.59-.196-5.787-1.18-5.885-1.638-.098-.46.295-1.246 1.262-1.64a8.33 8.33 0 0 1 4.328-.67 8.207 8.207 0 0 0 3.278-.31c2.508-.772 2.901-1.723 2.901-1.723a.945.945 0 0 1 .431-.58.938.938 0 0 1 .707-.108.983.983 0 0 1 .705 1.163c0 .312-.606 1.967-4.18 3.065-1.29.388-2.642.522-3.983.393a8.314 8.314 0 0 0-2.114 0c.77.098 1.64.164 2.573.196a.952.952 0 0 1 .672 1.623.952.952 0 0 1-.672.278l-.016-.05Z" fill="#263238"/><path d="M107.662 371.975a.946.946 0 0 1-.69-.295.95.95 0 0 1 .001-1.344 13.4 13.4 0 0 0 1.64-1.802l-.099.098c-.672.803-1.639 1.999-3 1.327a4.7 4.7 0 0 1-2.147-2.916.948.948 0 0 1 .705-1.147.95.95 0 0 1 1.147.704 2.824 2.824 0 0 0 1.18 1.639c.19-.317.42-.6.67-.87.69-.809 1.85-2.169 3.28-1.218a1.633 1.633 0 0 1 .7 1.23c.1 1.523-1.869 3.522-2.72 4.31a1.017 1.017 0 0 1-.673.277Zm-6.705-7.21a.996.996 0 0 1-.377 0 .947.947 0 0 1-.506-.53.93.93 0 0 1 .031-.732 152.675 152.675 0 0 0 10.065-72.609.966.966 0 0 1 .836-1.065.924.924 0 0 1 .7.196.946.946 0 0 1 .35.64c4.72 39.95-10.082 73.28-10.23 73.624a.947.947 0 0 1-.869.476Zm-13.44-15.633a.947.947 0 0 1-.854-.508c-.114-.246-12.523-24.89-8.523-61.81a183.734 183.734 0 0 1 11.048-46.898c1.9-5.26 3.147-8.734 2.803-10.897-.18-1.115-1.64-10.947 1.065-12.159.54-.246 1.426-.28 2.442.967 2.853 3.506 11.475 30.053 10.966 51.961a.945.945 0 0 1-.586.878.95.95 0 0 1-1.315-.878c.508-22.089-8.343-48.03-10.54-50.798l-.262-.279c-.492 1.05-.672 5.047.115 9.98.41 2.638-.902 6.292-2.902 11.83a182.861 182.861 0 0 0-10.95 46.457c-3.933 36.33 8.197 60.5 8.328 60.745a.93.93 0 0 1-.116 1.05.94.94 0 0 1-.294.228.945.945 0 0 1-.426.131Z" fill="#263238"/><path d="M87.827 327.829a.948.948 0 0 1-.95-.917c0-.345-.214-8.325 2.884-25.596 3.098-17.272 6.557-58.156 6.557-58.582a.982.982 0 0 1 1.032-.869.929.929 0 0 1 .819.664.933.933 0 0 1 .034.37c0 .408-3.524 41.555-6.557 58.761-3.032 17.206-2.868 25.104-2.852 25.186a.983.983 0 0 1-.934.983h-.033Zm-23.44-1.262a.984.984 0 0 1-.721-.327c-.132-.164-13.737-15.944-17.064-37.132-3.328-21.188-4.737-28.25-6.885-31.299-1.246-1.786-1.295-3.703-.115-4.801.64-.606 3.28-2.212 9.098 2.573 7.72 6.31 25.915 29.496 30.505 44.62a.95.95 0 0 1-1.82.548c-4.41-14.535-22.506-37.69-29.898-43.686-3.688-3.015-5.967-3.278-6.557-2.655-.36.345-.36 1.246.394 2.312 2.393 3.392 3.753 10.258 7.196 32.101 3.278 20.647 16.506 36.05 16.637 36.181a.961.961 0 0 1 .23.693.952.952 0 0 1-1 .88Z" fill="#263238"/><path d="M85.237 343.905a.957.957 0 0 1-.737-.344c0-.099-8-9.669-18.523-24.957-10.523-15.289-16.244-43.048-16.49-44.244a.95.95 0 0 1 1.46-.969.965.965 0 0 1 .41.592c0 .295 5.818 28.447 16.194 43.539 10.376 15.092 18.342 24.711 18.424 24.81a.964.964 0 0 1-.13 1.343.952.952 0 0 1-.607.23Zm-27.669-76.559a.963.963 0 0 1-.901-.688c0-.196-6.032-20.286-7.901-33.363-.443-3.162-.87-5.75-1.213-7.882-.918-5.555-1.262-7.652-.164-8.701a2.331 2.331 0 0 1 2.147-.442c3.082.606 29.03 20.4 35.292 43.26a.95.95 0 0 1-1.678.835.958.958 0 0 1-.158-.343c-5.95-21.663-30.98-41.344-33.816-41.9a1.422 1.422 0 0 0-.508-.001c-.328.475.18 3.507.754 7.03.344 2.114.77 4.736 1.23 7.915 1.835 12.945 7.769 32.888 7.834 33.084a.95.95 0 0 1-.64 1.18.77.77 0 0 1-.278.016Z" fill="#263238"/><path d="M78.467 295.679a.932.932 0 0 1-.934-.77 59.26 59.26 0 0 0-9.196-20.352c-7.606-11.077-12.228-35.788-12.409-36.837a.95.95 0 0 1 .755-1.114.985.985 0 0 1 1.114.77c0 .246 4.721 25.366 12.097 36.05a60.049 60.049 0 0 1 9.507 21.09.932.932 0 0 1-.77 1.098l-.164.065Zm11.196-53.355a.959.959 0 0 1-.663-.301.943.943 0 0 1-.255-.682c.344-9.062-.77-15.043-3.983-21.302l-.377-.71c-6.327-12.44-13.753-27.384-14.835-32.562-.704-3.277-1.803-4.605-2.327-4.62-.115.001-1.475.115-3.13 5.604-2.82 9.275 3.802 43.834 3.884 44.244a.95.95 0 0 1-1.468.968.95.95 0 0 1-.4-.608c-.28-1.442-6.787-35.378-3.836-45.095 1.41-4.687 3.032-6.965 4.917-6.965h.017c2.458.1 3.622 3.884 4.098 6.13 1.18 5.588 10.982 24.842 14.752 32.085l.36.721c3.377 6.554 4.558 12.863 4.197 22.27a.95.95 0 0 1-.95.818Z" fill="#263238"/><path d="M82.877 257.498a.966.966 0 0 1-.95-.868c-.001-.115-.92-12.142-1.82-19.811-.902-7.669-9.835-21.795-9.967-21.926a.963.963 0 1 1 1.64-1.016c.376.59 9.31 14.748 10.244 22.712.935 7.964 1.82 19.779 1.836 19.893a.95.95 0 0 1-.868 1.016h-.115Z" fill="#263238"/><ellipse fill="#263238" cx="259.809" cy="264.643" rx=".82" ry=".819"/><circle fill="#263238" cx="270.464" cy="267.101" r="1.639"/><circle fill="#263238" cx="258.99" cy="263.824" r="1.639"/><ellipse fill="#263238" rx="1.233" ry="6.164" transform="rotate(26.486 -429.768 529.444) skewX(-.014)"/></svg>