<svg xmlns="http://www.w3.org/2000/svg" fill="none" width="371" height="247" viewBox="0 0 371 247"><path d="M298.591 151.48s-6.08-3.374-6.53 4.268c-.45 7.642-1.578 57.354-1.578 57.354" stroke="#263238" stroke-linecap="round" stroke-linejoin="round" stroke-width="2"/><path d="M288.885 156.425s4.947 11.02 2.706 56" stroke="#263238" stroke-linecap="round" stroke-linejoin="round" stroke-width="2"/><path d="M293.777 153.016s-2.33 1.482-3.65-.212c-1.321-1.694.895-4.826-1.06-6.16-1.953-1.334-5.331.7-5.331.7 0 .001 2.597.762 2.512 2.18-.084 1.418-1.335 1.976-1.484 1.334-.148-.643-1.409-3.74-3.522-2.441a5.224 5.224 0 0 0-2.428 3.31s4.912-.524 5.208 1.324c.297 1.848-2.013-.32-4.04-.44-2.03-.118-3.88.178-3.746 1.403.045 1.084-.02 2.17-.193 3.24a6.027 6.027 0 0 1 3.958-1.392c2.231.128 2.147 1.546.12 1.428-2.03-.119-3.77 1.808-3.77 1.808s1.85 3.156 4.2 4.717c2.35 1.561 3.194.988 3.462-.202.267-1.19-.357-4.288 1.063-4.204 1.42.084-2.35 5.35-.54 5.661 1.81.311 3.271-.217 3.746-1.408l.494-1.19s-.633-3.083-.356-4.288c.277-1.206.608.034.93 1.482.322 1.447.524 4.91 1.143 4.742.618-.168 2.602-2.692 3.067-3.68.465-.988-2.612-4.016-2.578-4.624.035-.608 2.41.548 2.78 1.18.27.48.512.976.728 1.483 0 0 1.484-.93 1.444-3.775-.04-2.845-2.157-1.976-2.157-1.976Z" fill="#fff"/><path d="M293.777 153.016s-2.33 1.482-3.65-.212c-1.321-1.694.895-4.826-1.06-6.16-1.953-1.334-5.331.7-5.331.7 0 .001 2.597.762 2.512 2.18-.084 1.418-1.335 1.976-1.484 1.334-.148-.643-1.409-3.74-3.522-2.441a5.224 5.224 0 0 0-2.428 3.31s4.912-.524 5.208 1.324c.297 1.848-2.013-.32-4.04-.44-2.03-.118-3.88.178-3.746 1.403.045 1.084-.02 2.17-.193 3.24a6.027 6.027 0 0 1 3.958-1.392c2.231.128 2.147 1.546.12 1.428-2.03-.119-3.77 1.808-3.77 1.808s1.85 3.156 4.2 4.717c2.35 1.561 3.194.988 3.462-.202.267-1.19-.357-4.288 1.063-4.204 1.42.084-2.35 5.35-.54 5.661 1.81.311 3.271-.217 3.746-1.408l.494-1.19s-.633-3.083-.356-4.288c.277-1.206.608.034.93 1.482.322 1.447.524 4.91 1.143 4.742.618-.168 2.602-2.692 3.067-3.68.465-.988-2.612-4.016-2.578-4.624.035-.608 2.41.548 2.78 1.18.27.48.512.976.728 1.483 0 0 1.484-.93 1.444-3.775-.04-2.845-2.157-1.976-2.157-1.976Z" fill="#263238" opacity=".3"/><path d="M281.984 159.69c1.52-1.872 3.75-4.406 5.625-5.616m-7.385 7.9s.39-.545 1.024-1.355m7.35-6.08s2.256 3.18 2.67 6.456m-5.222-4.575s.633-.365.396 3.68m1.25-7.454s1.287-1.146.61-3.418m-2.35 5.359-.92-1.68m-1.014 3.395s-2.919-2.204-4.744-2.312" stroke="#263238" stroke-linecap="round" stroke-linejoin="round"/><path d="M302.068 147.014s-.094 3.34-2.706 3.503c-2.612.163-4.224-4.18-6.896-3.137-2.67 1.042-2.928 5.809-2.928 5.809s2.533-2.079 3.898-1.027c1.365 1.052 1.05 2.667.312 2.411-.737-.257-4.71-1.142-4.843 1.852a6.32 6.32 0 0 0 1.657 4.688s2.825-5.266 4.882-4.308c2.058.96-1.696 1.794-3.2 3.74-1.504 1.946-2.473 3.996-1.143 4.703a19.609 19.609 0 0 1 3.117 2.401s-.357-2.757 1.296-4.896c1.652-2.139 3.012-1.092 1.513.855-1.499 1.946-.757 5-.757 5s4.423.305 7.589-.989c3.166-1.294 3.185-2.514 2.166-3.61-1.02-1.098-4.54-2.565-3.492-3.928 1.049-1.364 3.759 5.997 5.308 4.396 1.548-1.6 2.008-3.413 1.142-4.703l-.87-1.289s-3.522-1.482-4.54-2.564c-1.02-1.082.45-.588 2.116.074 1.667.662 5.273 2.82 5.53 2.09.258-.73-.925-4.446-1.597-5.572-.673-1.127-5.808-.13-6.392-.578-.583-.45 2.192-2.036 3.077-1.976.886.06 1.979.27 1.979.27s.08-2.108-2.8-4.015c-2.88-1.907-3.418.8-3.418.8Z" fill="#fff"/><path d="M302.068 147.014s-.094 3.34-2.706 3.503c-2.612.163-4.224-4.18-6.896-3.137-2.67 1.042-2.928 5.809-2.928 5.809s2.533-2.079 3.898-1.027c1.365 1.052 1.05 2.667.312 2.411-.737-.257-4.71-1.142-4.843 1.852a6.32 6.32 0 0 0 1.657 4.688s2.825-5.266 4.882-4.308c2.058.96-1.696 1.794-3.2 3.74-1.504 1.946-2.473 3.996-1.143 4.703a19.609 19.609 0 0 1 3.117 2.401s-.357-2.757 1.296-4.896c1.652-2.139 3.012-1.092 1.513.855-1.499 1.946-.757 5-.757 5s4.423.305 7.589-.989c3.166-1.294 3.185-2.514 2.166-3.61-1.02-1.098-4.54-2.565-3.492-3.928 1.049-1.364 3.759 5.997 5.308 4.396 1.548-1.6 2.008-3.413 1.142-4.703l-.87-1.289s-3.522-1.482-4.54-2.564c-1.02-1.082.45-.588 2.116.074 1.667.662 5.273 2.82 5.53 2.09.258-.73-.925-4.446-1.597-5.572-.673-1.127-5.808-.13-6.392-.578-.583-.45 2.192-2.036 3.077-1.976.886.06 1.979.27 1.979.27s.08-2.108-2.8-4.015c-2.88-1.907-3.418.8-3.418.8Z" fill="#263238" opacity=".2"/><path d="M300.717 163.356c-.841-2.796-1.86-6.758-1.79-9.455m2.879 12.77s-.277-.75-.658-1.936m-1.084-11.496s4.725-.084 8.29 1.729m-8.14 2.104s.058-.88 3.956 2.12m-6.61-6.33s-.266-2.07-3.011-2.94m3.76 5.998-2.31-.227m2.71 3.325s-4.2 1.422-5.55 3.17" stroke="#263238" stroke-linecap="round" stroke-linejoin="round"/><path d="M274.045 169.244s13.287 8.774 13.059 42.73" stroke="#263238" stroke-linecap="round" stroke-linejoin="round" stroke-width="2"/><path d="M290.428 166.928s-.425 3.843-3.462 3.79c-3.038-.056-4.482-5.228-7.658-4.275-3.176.954-3.932 6.422-3.932 6.422s3.121-2.158 4.6-.82c1.479 1.339.955 3.177.13 2.811-.827-.365-5.324-1.758-5.764 1.685a7.302 7.302 0 0 0 1.484 5.567s3.759-5.814 6.04-4.515c2.28 1.3-2.127 1.912-4.047 4.016-1.92 2.105-3.22 4.382-1.766 5.32a22.325 22.325 0 0 1 3.374 3.063s-.153-3.216 1.979-5.527c2.132-2.312 3.58-.988 1.667 1.126-1.915 2.114-1.346 5.7-1.346 5.7 0 .001 5.08.771 8.855-.414 3.774-1.186 3.908-2.6 2.834-3.952-1.073-1.354-4.996-3.39-3.655-4.861 1.34-1.472 3.769 7.271 5.708 5.572 1.928-1.699 2.63-3.749 1.75-5.32l-.925-1.57s-3.924-2.032-4.997-3.39c-1.074-1.359.574-.632 2.434.286 1.86.92 5.821 3.755 6.182 2.93.36-.825-.654-5.202-1.3-6.58-.65-1.378-6.69-.692-7.323-1.265s2.726-2.144 3.74-1.976c.755.126 1.503.29 2.24.494 0 0 .287-2.43-2.854-4.9s-4.004.583-4.004.583Z" fill="#fff"/><path d="M290.428 166.928s-.425 3.843-3.462 3.79c-3.038-.056-4.482-5.228-7.658-4.275-3.176.954-3.932 6.422-3.932 6.422s3.121-2.158 4.6-.82c1.479 1.339.955 3.177.13 2.811-.827-.365-5.324-1.758-5.764 1.685a7.302 7.302 0 0 0 1.484 5.567s3.759-5.814 6.04-4.515c2.28 1.3-2.127 1.912-4.047 4.016-1.92 2.105-3.22 4.382-1.766 5.32a22.325 22.325 0 0 1 3.374 3.063s-.153-3.216 1.979-5.527c2.132-2.312 3.58-.988 1.667 1.126-1.915 2.114-1.346 5.7-1.346 5.7 0 .001 5.08.771 8.855-.414 3.774-1.186 3.908-2.6 2.834-3.952-1.073-1.354-4.996-3.39-3.655-4.861 1.34-1.472 3.769 7.271 5.708 5.572 1.928-1.699 2.63-3.749 1.75-5.32l-.925-1.57s-3.924-2.032-4.997-3.39c-1.074-1.359.574-.632 2.434.286 1.86.92 5.821 3.755 6.182 2.93.36-.825-.654-5.202-1.3-6.58-.65-1.378-6.69-.692-7.323-1.265s2.726-2.144 3.74-1.976c.755.126 1.503.29 2.24.494 0 0 .287-2.43-2.854-4.9s-4.004.583-4.004.583Z" fill="#263238" opacity=".3"/><path d="M287.332 185.655c-.712-3.3-1.51-7.968-1.182-11.075m2.122 14.997s-.248-.9-.58-2.302m-.162-13.387s5.441.35 9.398 2.781m-9.59 1.665s.152-.988 4.367 2.816m-7.029-7.909s-.114-2.411-3.196-3.676m3.77 7.272-2.642-.479m2.815 4.095s-4.982 1.24-6.708 3.132" stroke="#263238" stroke-linecap="round" stroke-linejoin="round"/><path d="M279.224 196.009s8.558 6.521 9.458 16.194l-1.776-32.387m13.035 11.47c-11.259-2.025-11.259 20.917-11.259 20.917" stroke="#263238" stroke-linecap="round" stroke-linejoin="round" stroke-width="2"/><path d="M290.033 211.975s-6.53-47.453 12.367-47.453" stroke="#263238" stroke-linecap="round" stroke-linejoin="round" stroke-width="2"/><path d="M295.652 189.918c-1.538-1.724-4.808-1.724-6.727 2.693-1.92 4.416-.193 3.645-.193 3.645s3.65-1.15 5.936-1.92c2.285-.772 5.382-2.69 5.575-1.533.193 1.156-1.539 2.302-3.656 2.688-2.117.396-7.687 1.927-7.113 3.083.574 1.155 1.924 4.603 1.924 4.603a49.118 49.118 0 0 1 5.189-3.838c2.503-1.536 4.04-.958 2.696.766-1.346 1.724-5.194 3.65-4.422 5.952.771 2.302 5.401 5.187 5.401 5.187s.574-4.8 1.925-6.338c1.35-1.536 1.345.193.96 2.88a31.125 31.125 0 0 0-.387 3.458l5.382 1.918a38.604 38.604 0 0 1 2.884-3.838l.99-.96s-4.23-3.65-4.423-5.928c-.193-2.277 2.884 0 3.844.386.96.385 2.498 3.067 2.498 3.067s.965-4.412 1.157-5.93l.193-1.535s-4.04-1.536-5.58-1.536c-1.538 0-2.305 1.151-2.305-.386 0-1.536 1.54-2.494 3.27-2.302a29.52 29.52 0 0 1 4.615 1.151s1.153-.964.767-3.844c-.386-2.882-1.345-2.882-3.651-2.11-2.305.77-3.848 2.47-5.58 2.47-1.731 0-.766-2.11.386-2.689 1.153-.578 4.037-1.729 4.616-1.92.578-.194-3.077-2.88-5-3.262-1.926-.379-4.414.99-4.23 2.881.365 4.012-5.403 4.802-6.941 3.048Z" fill="#fff"/><path d="M308.029 209.688c.06.578.099 1.161.12 1.74m-3.983-15.522a50.851 50.851 0 0 1 3.62 11.9m-4.313-13.442c-.95-2.045-1.667-3.29-1.667-3.29a5.684 5.684 0 0 0 2.473-2.307 6.434 6.434 0 0 1 1.924-2.302m-11.13 11.135s6.926-2.88 6.926-2.302m3.843-1.344s3.077-1.536 5.768-1.536m-6.895 6.17a26.632 26.632 0 0 0-3.656 3.646 16.612 16.612 0 0 0-2.691 4.416m8.434-7.32c0-.001 4.04-1.152 6.153.765" stroke="#263238" stroke-linecap="round" stroke-linejoin="round"/><path d="M314.113 173.394c-2.092-1.235-4.407-1.265-5.545-2.57-1.138-1.303 1.093-1.975 2.285-1.481 1.192.494 3.958 1.912 4.477 2.223.52.311.163-4.21-.806-5.928-.97-1.719-3.626-2.692-4.947-1.304-2.795 2.934-7.158-.914-6.86-3.206.296-2.292-1.846-4.757-6.432-3.31-4.585 1.448-2.884 2.243-2.884 2.243s3.265 2.001 5.363 3.24c2.097 1.24 5.56 2.298 4.813 3.197-.747.9-2.75.35-4.428-.988-1.676-1.339-6.49-4.54-6.984-3.35-.495 1.191-2.226 4.446-2.226 4.446a49.06 49.06 0 0 1 6.307 1.398c2.8.875 3.373 2.411 1.187 2.53-2.186.118-6.164-1.522-7.42.568-1.256 2.09-.39 7.46-.39 7.46s4.006-2.713 6.05-2.703c2.042.01.736 1.14-1.549 2.613a31.929 31.929 0 0 0-2.864 1.976l2.077 5.32a38.047 38.047 0 0 1 4.793-.34l1.356.094s0-5.583 1.603-7.237c1.602-1.655 1.89 2.173 2.23 3.151.342.978-.682 3.898-.682 3.898s3.957-2.17 5.253-3.028l1.29-.865s-1.483-4.05-2.472-5.21c-.99-1.162-2.38-.989-1.222-1.977s2.9-.494 3.888.953a29.964 29.964 0 0 1 2.152 4.234s1.484.242 3.408-1.937c1.924-2.18 1.276-2.88-.82-4.11Zm-18.194 6.145c-1.538-.77 2.113-2.31 2.113-2.31 1.35-.204-.574 3.071-2.108 2.29l-.005.01Zm2.587-7.17c-.653-.33 1.311-.99 1.311-.99 2.85.53-.648 1.31-1.306.973l-.005.01Z" fill="#fff"/><path d="M295.88 183.442c-.4.425-.81.835-1.232 1.23m9.122-13.18a50.715 50.715 0 0 1-6.624 10.532m7.336-12.063c.925-2.06 1.395-3.42 1.395-3.42a5.67 5.67 0 0 0 3.383.377 6.445 6.445 0 0 1 3.003-.06m-9.453 2.584c.435-.375-6.277-3.71-6.277-3.71m9.814 5.745s3.18 1.314 4.946 3.345m-9.186-1.196a26.873 26.873 0 0 0-5.154-.36c-1.735.02-3.456.311-5.1.864m11.06 1.596s3.518 2.292 3.464 5.142" stroke="#263238" stroke-linecap="round" stroke-linejoin="round"/><path d="M284.24 199.991c-1.68-.988-3.546-1.018-4.452-2.07-.905-1.052.876-1.58 1.836-1.18.96.41 3.18 1.547 3.606 1.794.425.246.128-3.385-.653-4.753-.782-1.369-2.919-2.169-3.957-1.048-2.25 2.357-5.763-.736-5.521-2.583.242-1.848-1.484-3.829-5.189-2.663-3.705 1.166-2.32 1.808-2.32 1.808s2.627 1.61 4.313 2.603c1.687.993 4.452 1.848 3.874 2.574-.58.725-2.211.281-3.562-.8-1.35-1.083-5.224-3.657-5.624-2.698-.4.958-1.78 3.6-1.78 3.6a39.46 39.46 0 0 1 5.079 1.122c2.25.706 2.71 1.946.95 2.04-1.76.093-4.946-1.226-5.935.454-.99 1.68-.312 6.001-.312 6.001s3.226-2.179 4.868-2.175c1.642.005.594.92-1.242 2.105a25.453 25.453 0 0 0-2.31 1.588l1.673 4.283a30.374 30.374 0 0 1 3.859-.276l1.093.08c0-.003 0-4.498 1.29-5.827 1.292-1.33 1.52 1.75 1.792 2.534.272.785-.55 3.137-.55 3.137s3.196-1.744 4.23-2.44l1.038-.692s-1.197-3.26-2.01-4.194c-.81-.934-1.92-.795-.99-1.606.93-.81 2.33-.38 3.128.771a24.176 24.176 0 0 1 1.737 3.41s1.192.19 2.74-1.562c1.547-1.754.988-2.337-.69-3.33Zm-14.642 4.94c-1.236-.617 1.702-1.852 1.702-1.852 1.083-.154-.465 2.474-1.707 1.857l.005-.005Zm2.088-5.77c-.529-.262 1.053-.79 1.053-.79 2.296.444-.529 1.062-1.053.795v-.005Z" fill="#fff"/><path d="M269.593 208.083c-.321.34-.653.67-.99.988m7.312-10.602a40.983 40.983 0 0 1-5.332 8.473m5.906-9.708a37.867 37.867 0 0 0 1.12-2.751 4.56 4.56 0 0 0 2.72.3 5.21 5.21 0 0 1 2.41-.048m-12.66-.89c0 .001 5.406 2.683 5.054 2.965m2.86 1.645s2.557 1.057 3.957 2.687m-7.386-.958a21.315 21.315 0 0 0-4.144-.292 13.398 13.398 0 0 0-4.107.697m8.901 1.284s2.834 1.843 2.78 4.14" stroke="#263238" stroke-linecap="round" stroke-linejoin="round"/><path d="M277.374 168.286s-2.117 1.536-3.462 0c-1.346-1.536.578-4.61-1.35-5.76-1.93-1.151-4.997.958-4.997.958s2.498.578 2.498 1.922c0 1.344-1.153 1.917-1.345 1.344-.193-.573-1.54-3.458-3.463-2.115a4.954 4.954 0 0 0-2.112 3.266c0 .01 4.61-.77 4.996.96.386 1.73-1.924-.19-3.844-.19s-3.655.392-3.462 1.543a15.143 15.143 0 0 1 0 3.07 5.72 5.72 0 0 1 3.655-1.534c2.112 0 2.112 1.345.193 1.345s-3.463 1.92-3.463 1.92 1.925 2.88 4.23 4.225c2.305 1.344 3.077.77 3.27-.385.192-1.157-.58-4.031.766-4.031s-1.92 5.186-.193 5.374c1.727.187 3.077-.381 3.463-1.537l.386-1.15s-.772-2.88-.58-4.031c.194-1.15.58 0 .96 1.344.38 1.343.77 4.609 1.346 4.416.574-.193 2.31-2.687 2.696-3.646.386-.961-2.696-3.652-2.696-4.225s2.31.38 2.696.958c.278.435.534.883.767 1.344 0 0 1.345-.96 1.153-3.651-.193-2.692-2.108-1.724-2.108-1.724Z" fill="#fff"/><path d="M266.625 175.246c1.331-1.852 3.299-4.371 5.006-5.616m-6.564 7.869s.34-.533.89-1.334m6.604-6.155s2.305 2.88 2.884 5.953m-5.184-4.05c.01-.001.58-.386.58 3.457m.77-7.084s1.158-1.156.386-3.265m-1.921 5.182-.963-1.537m-.767 3.246s-2.884-1.922-4.615-1.922" stroke="#263238" stroke-linecap="round" stroke-linejoin="round"/><path d="M296.79 211.299h-14.865v21.365h14.865v-21.365Z" fill="#263238" stroke="#263238" stroke-linecap="round" stroke-linejoin="round" stroke-width="2"/><path d="M162.904 47.118s.18-6.314-.045-11.743c-.223-5.429.229-17.067.229-17.067m-.105 6.846-2.469-1.94m2.44 3.274.88-1.418m-1.08 7.035 2.192-1.813m-1.86-9.598-1.157-1.052m.807 13.446-1.45-1.551m1.573 7.647-3.012-2.747" stroke="#263238" stroke-miterlimit="10"/><path d="M162.938 42.568a18.442 18.442 0 0 0 2.236-1.042" stroke="#263238" stroke-miterlimit="10"/><path d="M161.261 26.128c-1.212-.934-5.278-.77-6.059 1.17-.782 1.942 1.706 5.108 4.08 4.886.936-.089 1.34-.153 1.707-.677l-3.339-3.26 3.616 2.905a3.27 3.27 0 0 0 .248-.593c.039-.143.079-.302.108-.465.253-1.16.782-3.092-.361-3.966Zm7.87-2.253v.07c-.326 1.447-1.978 2.267-3.378 2.143a3.106 3.106 0 0 1-.574-.104 3.94 3.94 0 0 0-.356 3.508c.058.163.136.32.232.464.41-.336 4.804-4.08 4.804-4.08l-4.561 4.386c1.375 1.482 4.6 1.27 5.723-1.452 1.123-2.722-.307-4.545-1.89-4.935Z" fill="#fff"/><path d="M166.896 18.811c-2.365-.494-4.482.554-4.452 3.019a3.975 3.975 0 0 0 1.325 2.87l2.439-3.32L164.16 25c.46.315.99.505 1.544.556 1.394.118 3.052-.702 3.378-2.15.341-1.615.178-4.075-2.186-4.594Zm-2.76-8.57s-.243.074-1.757.81a3.818 3.818 0 0 0-1.513 5.177 3.582 3.582 0 0 0 2.023 1.768l.608-5.873-.257 5.952c.115.012.23.012.346 0 .99-.098 2.538-1.274 2.686-3.68.15-2.406-2.136-4.154-2.136-4.154Zm-6.911 5.34 4.566 3.646c.045-.161.06-.329.044-.494-.213-2.085-2.295-3.296-3.67-3.73-1.376-.435-2.33.34-1.445 2.336.886 1.996 3.206 2.964 4.24 2.663.245-.06.466-.195.633-.385l-4.368-4.036Z" fill="#fff"/><path d="M160.366 20.254a4.642 4.642 0 0 1-3.507-2.026 1.868 1.868 0 0 0-2.028 1.636c-.465 2.173 1.108 4.446 3.378 4.17a3.017 3.017 0 0 0 1.91-.816l-4.057-3.7 4.344 3.305c.085-.153.139-.32.158-.494a3.61 3.61 0 0 0-.198-2.075Zm-.025 12.088a3.523 3.523 0 0 1-1.162.277c-1.484.138-2.998-1.023-3.75-2.386a1.98 1.98 0 0 0-1.815 1.63c-.45 2.544 1.909 5.898 4.293 5.365a3.4 3.4 0 0 0 1.658-.84l-5.204-5 5.505 4.674a2.91 2.91 0 0 0 .589-1.388 3.16 3.16 0 0 0-.114-2.332Zm10.472 5.202c-1.75-2.025-3.833-.212-3.833-.212s-1.277.42-1.76 2.227a2.79 2.79 0 0 0 .063 1.665l5.263-3.063-5.135 3.35c.495.91 1.524 1.49 2.968 1.07 2.306-.63 4.18-2.99 2.434-5.03Z" fill="#fff"/><path d="M166.451 45.21h-7.287v10.775h7.287V45.211Z" fill="#263238"/><path d="M246.873 55.896H150.77v177.46h96.103V55.896Z" fill="#fff" stroke="#263238" stroke-miterlimit="10"/><path d="M233.32 58.144h-80.552v172.51h80.552V58.144Z" fill="#263238" stroke="#263238" stroke-linecap="round" stroke-linejoin="round"/><path d="M233.32 84.899h-80.552v2.544h80.552v-2.544Zm0 29.413h-80.552v2.544h80.552v-2.544Zm-25.96-56.139h-1.712v26.72h1.711v-26.72Zm-27.385 0h-1.712v26.72h1.712v-26.72Zm27.384 58.712h-1.711v26.72h1.71v-26.72Zm-27.384 0h-1.712v26.72h1.712v-26.72Zm13.558-29.3h-1.71v26.722h1.71v-26.72Zm39.787 56.026h-80.552v2.544h80.552v-2.544Zm0 29.314h-80.552v58.628h80.552v-58.628Zm-39.787-26.726h-1.71v26.72h1.71v-26.72Z" fill="#fff" stroke="#263238" stroke-miterlimit="10"/><path d="M235.293 55.881v177.435l11.586.04V55.881h-11.59Z" fill="#263238" stroke="#263238" stroke-linecap="round" stroke-linejoin="round"/><path d="M212.682 60.248h-4.136v24.587h4.136V60.248Z" fill="#fff" stroke="#263238" stroke-miterlimit="10"/><path d="M212.682 79.554h-4.136v2.015h4.136v-2.015Zm0-16.811h-4.136v2.015h4.136v-2.015Zm4.23-2.495h-4.136v24.587h4.135V60.248Z" fill="#fff" stroke="#263238" stroke-miterlimit="10"/><path d="M216.911 79.554h-4.135v2.015h4.135v-2.015Zm0-16.811h-4.135v2.015h4.135v-2.015Zm4.235-2.495h-4.136v24.587h4.136V60.248Z" fill="#fff" stroke="#263238" stroke-miterlimit="10"/><path d="M221.146 79.554h-4.136v2.015h4.136v-2.015Zm0-16.811h-4.136v2.015h4.136v-2.015Zm4.23-2.495h-4.136v24.587h4.135V60.248Z" fill="#fff" stroke="#263238" stroke-miterlimit="10"/><path d="M232.266 60.248h-6.926v24.587h6.926V60.248Z" fill="#fff" stroke="#263238" stroke-miterlimit="10"/><path d="M225.375 79.554h-4.135v2.015h4.135v-2.015Zm0-16.811h-4.135v2.015h4.135v-2.015Zm-40.36-2.495h-4.135v24.587h4.135V60.248Z" fill="#fff" stroke="#263238" stroke-miterlimit="10"/><path d="M185.015 79.554h-4.135v2.015h4.135v-2.015Zm0-16.811h-4.135v2.015h4.135v-2.015Zm4.23-2.495h-4.136v24.587h4.136V60.248Z" fill="#fff" stroke="#263238" stroke-miterlimit="10"/><path d="M189.245 79.554h-4.136v2.015h4.136v-2.015Zm0-16.811h-4.136v2.015h4.136v-2.015Zm4.234-2.495h-4.135v24.587h4.135V60.248Z" fill="#fff" stroke="#263238" stroke-miterlimit="10"/><path d="M193.479 79.554h-4.135v2.015h4.135v-2.015Zm0-16.811h-4.135v2.015h4.135v-2.015Zm4.23-2.495h-4.136v24.587h4.136V60.248Z" fill="#fff" stroke="#263238" stroke-miterlimit="10"/><path d="M204.599 60.248h-6.925v24.587h6.925V60.248Z" fill="#fff" stroke="#263238" stroke-miterlimit="10"/><path d="M197.709 79.554h-4.136v2.015h4.136v-2.015Zm0-16.811h-4.136v2.015h4.136v-2.015Zm-12.694 56.306h-4.135v24.586h4.135v-24.586Z" fill="#fff" stroke="#263238" stroke-miterlimit="10"/><path d="M185.015 138.354h-4.135v2.016h4.135v-2.016Zm0-16.805h-4.135v2.015h4.135v-2.015Zm4.23-2.5h-4.136v24.586h4.136v-24.586Z" fill="#fff" stroke="#263238" stroke-miterlimit="10"/><path d="M189.245 138.354h-4.136v2.016h4.136v-2.016Zm0-16.805h-4.136v2.015h4.136v-2.015Zm4.234-2.5h-4.135v24.586h4.135v-24.586Z" fill="#fff" stroke="#263238" stroke-miterlimit="10"/><path d="M193.479 138.354h-4.135v2.016h4.135v-2.016Zm0-16.805h-4.135v2.015h4.135v-2.015Zm4.23-2.5h-4.136v24.586h4.136v-24.586Z" fill="#fff" stroke="#263238" stroke-miterlimit="10"/><path d="M204.599 119.049h-6.925v24.586h6.925v-24.586Z" fill="#fff" stroke="#263238" stroke-miterlimit="10"/><path d="M197.709 138.354h-4.136v2.016h4.136v-2.016Zm0-16.805h-4.136v2.015h4.136v-2.015Zm14.617-2.5h-4.136v24.586h4.136v-24.586Z" fill="#fff" stroke="#263238" stroke-miterlimit="10"/><path d="M212.326 138.354h-4.136v2.016h4.136v-2.016Zm0-16.805h-4.136v2.015h4.136v-2.015Zm4.234-2.5h-4.135v24.586h4.135v-24.586Z" fill="#fff" stroke="#263238" stroke-miterlimit="10"/><path d="M216.56 138.354h-4.135v2.016h4.135v-2.016Zm0-16.805h-4.135v2.015h4.135v-2.015Zm4.23-2.5h-4.136v24.586h4.136v-24.586Z" fill="#fff" stroke="#263238" stroke-miterlimit="10"/><path d="M220.79 138.354h-4.136v2.016h4.136v-2.016Zm0-16.805h-4.136v2.015h4.136v-2.015Zm4.234-2.5h-4.135v24.586h4.135v-24.586Z" fill="#fff" stroke="#263238" stroke-miterlimit="10"/><path d="M231.91 119.049h-6.926v24.586h6.926v-24.586Z" fill="#fff" stroke="#263238" stroke-miterlimit="10"/><path d="M225.024 138.354h-4.135v2.016h4.135v-2.016Zm0-16.805h-4.135v2.015h4.135v-2.015Zm-67.146-2.5h-4.135v24.586h4.135v-24.586Z" fill="#fff" stroke="#263238" stroke-miterlimit="10"/><path d="M157.878 138.354h-4.135v2.016h4.135v-2.016Zm0-16.805h-4.135v2.015h4.135v-2.015Zm4.234-2.5h-4.135v24.586h4.135v-24.586Z" fill="#fff" stroke="#263238" stroke-miterlimit="10"/><path d="M162.112 138.354h-4.135v2.016h4.135v-2.016Zm0-16.805h-4.135v2.015h4.135v-2.015Zm4.23-2.5h-4.136v24.586h4.135v-24.586Z" fill="#fff" stroke="#263238" stroke-miterlimit="10"/><path d="M166.341 138.354h-4.135v2.016h4.135v-2.016Zm0-16.805h-4.135v2.015h4.135v-2.015Zm4.235-2.5h-4.136v24.586h4.136v-24.586Z" fill="#fff" stroke="#263238" stroke-miterlimit="10"/><path d="M177.462 119.049h-6.925v24.586h6.925v-24.586Z" fill="#fff" stroke="#263238" stroke-miterlimit="10"/><path d="M170.576 138.354h-4.136v2.016h4.136v-2.016Zm0-16.805h-4.136v2.015h4.136v-2.015Zm-13.227-61.3h-4.136v24.58h4.136V60.244Z" fill="#fff" stroke="#263238" stroke-miterlimit="10"/><path d="M157.349 79.554h-4.136v2.015h4.136v-2.015Zm0-16.811h-4.136v2.015h4.136v-2.015Zm4.23-2.495h-4.137v24.587h4.136V60.248Z" fill="#fff" stroke="#263238" stroke-miterlimit="10"/><path d="M161.578 79.554h-4.136v2.015h4.136v-2.015Zm0-16.811h-4.136v2.015h4.136v-2.015Zm4.234-2.495h-4.135v24.587h4.135V60.248Z" fill="#fff" stroke="#263238" stroke-miterlimit="10"/><path d="M165.812 79.554h-4.135v2.015h4.135v-2.015Zm0-16.811h-4.135v2.015h4.135v-2.015Zm4.23-2.495h-4.136v24.587h4.136V60.248Z" fill="#fff" stroke="#263238" stroke-miterlimit="10"/><path d="M176.933 60.248h-6.926v24.587h6.926V60.248Z" fill="#fff" stroke="#263238" stroke-miterlimit="10"/><path d="M170.042 79.554h-4.136v2.015h4.136v-2.015Zm0-16.811h-4.136v2.015h4.136v-2.015Zm-.455 26.804h-4.136v24.587h4.136V89.547Z" fill="#fff" stroke="#263238" stroke-miterlimit="10"/><path d="M169.587 108.853h-4.136v2.015h4.136v-2.015Zm0-16.806h-4.136v2.016h4.136v-2.016Z" fill="#fff" stroke="#263238" stroke-miterlimit="10"/><path d="M165.506 89.547h-4.136v24.587h4.136V89.547Z" fill="#fff" stroke="#263238" stroke-miterlimit="10"/><path d="M165.506 108.853h-4.136v2.015h4.136v-2.015Zm0-16.806h-4.136v2.016h4.136v-2.016Z" fill="#fff" stroke="#263238" stroke-miterlimit="10"/><path d="M161.424 89.547h-4.135v24.587h4.13V89.547Z" fill="#fff" stroke="#263238" stroke-miterlimit="10"/><path d="M161.424 108.853h-4.135v2.015h4.13v-2.015Zm0-16.806h-4.135v2.016h4.13v-2.016Z" fill="#fff" stroke="#263238" stroke-miterlimit="10"/><path d="M157.349 89.547h-4.136v24.587h4.136V89.547Z" fill="#fff" stroke="#263238" stroke-miterlimit="10"/><path d="M157.349 108.853h-4.136v2.015h4.136v-2.015Zm0-16.806h-4.136v2.016h4.136v-2.016Zm16.467-2.5h-4.135v24.587h4.135V89.547Z" fill="#fff" stroke="#263238" stroke-miterlimit="10"/><path d="M173.816 108.853h-4.135v2.015h4.135v-2.015Zm0-16.806h-4.135v2.016h4.135v-2.016Zm4.23-2.5h-4.136v24.587h4.136V89.547Z" fill="#fff" stroke="#263238" stroke-miterlimit="10"/><path d="M178.046 108.853h-4.136v2.015h4.136v-2.015Zm0-16.806h-4.136v2.016h4.136v-2.016Zm4.234-2.5h-4.135v24.587h4.135V89.547Z" fill="#fff" stroke="#263238" stroke-miterlimit="10"/><path d="M189.17 89.547h-6.925v24.587h6.925V89.547Z" fill="#fff" stroke="#263238" stroke-miterlimit="10"/><path d="M182.28 108.853h-4.135v2.015h4.135v-2.015Zm0-16.806h-4.135v2.016h4.135v-2.016Zm16.71-2.5h-4.136v24.587h4.135V89.547Z" fill="#fff" stroke="#263238" stroke-miterlimit="10"/><path d="M198.989 108.853h-4.135v2.015h4.135v-2.015Zm0-16.806h-4.135v2.016h4.135v-2.016Zm4.235-2.5h-4.136v24.587h4.136V89.547Z" fill="#fff" stroke="#263238" stroke-miterlimit="10"/><path d="M203.224 108.853h-4.136v2.015h4.136v-2.015Zm0-16.806h-4.136v2.016h4.136v-2.016Zm8.467-2.506-3.856 1.626 9.696 22.932 3.855-1.625-9.695-22.933Z" fill="#fff" stroke="#263238" stroke-miterlimit="10"/><path d="m219.305 107.546-3.856 1.626.795 1.88 3.855-1.626-.794-1.88Zm-6.627-15.674-3.856 1.625.795 1.88 3.855-1.626-.794-1.868Zm4.857 22.217h8.632l3.883-1.615-8.662-.01-3.853 1.625Zm-5.842-24.557h8.107l10.25 22.942-8.662-.01-9.695-22.93Zm-4.388.015h-4.136v24.587h4.136V89.547Z" fill="#fff" stroke="#263238" stroke-miterlimit="10"/><path d="M207.305 108.853h-4.136v2.015h4.136v-2.015Zm0-16.806h-4.136v2.016h4.136v-2.016Zm0-2.5h4.388l-3.86 1.61 9.702 22.932h-10.23V89.547Zm-37.718 58.697h-4.136v24.587h4.136v-24.587Z" fill="#fff" stroke="#263238" stroke-miterlimit="10"/><path d="M169.587 167.55h-4.136v2.015h4.136v-2.015Zm0-16.811h-4.136v2.016h4.136v-2.016Z" fill="#fff" stroke="#263238" stroke-miterlimit="10"/><path d="M165.506 148.244h-4.136v24.587h4.136v-24.587Z" fill="#fff" stroke="#263238" stroke-miterlimit="10"/><path d="M165.506 167.55h-4.136v2.015h4.136v-2.015Zm0-16.811h-4.136v2.016h4.136v-2.016Z" fill="#fff" stroke="#263238" stroke-miterlimit="10"/><path d="M161.424 148.244h-4.135v24.587h4.13v-24.587Z" fill="#fff" stroke="#263238" stroke-miterlimit="10"/><path d="M161.424 167.55h-4.135v2.015h4.13v-2.015Zm0-16.811h-4.135v2.016h4.13v-2.016Z" fill="#fff" stroke="#263238" stroke-miterlimit="10"/><path d="M157.349 148.244h-4.136v24.587h4.136v-24.587Z" fill="#fff" stroke="#263238" stroke-miterlimit="10"/><path d="M157.349 167.55h-4.136v2.015h4.136v-2.015Zm0-16.811h-4.136v2.016h4.136v-2.016Zm16.467-2.495h-4.135v24.587h4.135v-24.587Z" fill="#fff" stroke="#263238" stroke-miterlimit="10"/><path d="M173.816 167.55h-4.135v2.015h4.135v-2.015Zm0-16.811h-4.135v2.016h4.135v-2.016Zm4.23-2.495h-4.136v24.587h4.136v-24.587Z" fill="#fff" stroke="#263238" stroke-miterlimit="10"/><path d="M178.046 167.55h-4.136v2.015h4.136v-2.015Zm0-16.811h-4.136v2.016h4.136v-2.016Zm4.234-2.495h-4.135v24.587h4.135v-24.587Z" fill="#fff" stroke="#263238" stroke-miterlimit="10"/><path d="M189.17 148.244h-6.925v24.587h6.925v-24.587Z" fill="#fff" stroke="#263238" stroke-miterlimit="10"/><path d="M182.28 167.55h-4.135v2.015h4.135v-2.015Zm0-16.811h-4.135v2.016h4.135v-2.016Zm16.71-2.495h-4.136v24.587h4.135v-24.587Z" fill="#fff" stroke="#263238" stroke-miterlimit="10"/><path d="M198.989 167.55h-4.135v2.015h4.135v-2.015Zm0-16.811h-4.135v2.016h4.135v-2.016Zm4.235-2.495h-4.136v24.587h4.136v-24.587Z" fill="#fff" stroke="#263238" stroke-miterlimit="10"/><path d="M203.224 167.55h-4.136v2.015h4.136v-2.015Zm0-16.811h-4.136v2.016h4.136v-2.016Zm8.463-2.504-3.855 1.626 9.695 22.932 3.856-1.625-9.696-22.933Z" fill="#fff" stroke="#263238" stroke-miterlimit="10"/><path d="m219.204 165.803-3.85 1.63.796 1.877 3.85-1.63-.796-1.877Z" fill="#fff" stroke="#263238" stroke-miterlimit="10" stroke-width=".999"/><path d="m212.674 150.566-3.855 1.626.79 1.879 3.849-1.625-.794-1.88Zm4.86 22.22h8.633l3.883-1.615-8.662-.015-3.853 1.63Z" fill="#fff" stroke="#263238" stroke-miterlimit="10"/><path d="M211.693 148.225h8.107l10.25 22.946-8.662-.015-9.695-22.931Zm-4.388.02h-4.136v24.586h4.136v-24.587Z" fill="#fff" stroke="#263238" stroke-miterlimit="10"/><path d="M207.305 167.55h-4.136v2.015h4.136v-2.015Zm0-16.811h-4.136v2.016h4.136v-2.016Zm0-2.495h4.388l-3.86 1.606 9.702 22.936h-10.23v-24.542Z" fill="#fff" stroke="#263238" stroke-miterlimit="10"/><path d="M191.822 172.92v57.649m-38.401-50.51h79.88" stroke="#263238" stroke-miterlimit="10"/><path d="M169.814 184.934v10.453m3.488-10.453v10.453m36.63-10.453v10.453m3.487-10.453v10.453" stroke="#263238" stroke-miterlimit="10" stroke-width="2"/><path d="M255.564 56.815V39.09h25.812m1.9 0h10.872v43.966h-38.584V59.502" stroke="#263238" stroke-miterlimit="10"/><path d="M280.11 77.128h-19.347v-32.11h28.181v32.11h-6.618" stroke="#263238" stroke-miterlimit="10"/><path d="M280.273 54.898h-10.838v12.35h10.838v-12.35Zm17.304 22.408V66.25h16.101m1.182 0h6.782v27.422h-24.065V78.981" stroke="#263238" stroke-miterlimit="10"/><path d="M312.886 89.977h-12.065V69.945h17.576v20.032h-4.13" stroke="#263238" stroke-miterlimit="10"/><path d="M312.99 76.11h-6.762v7.702h6.762v-7.701Z" stroke="#263238" stroke-miterlimit="10"/><path d="M42.442 233.356h278.992" stroke="#263238" stroke-linecap="round" stroke-linejoin="round"/><path d="M62.23 164.196s-2.969-39.52-1.485-43.966c1.484-4.446 10.635-4.2 12.367-4.2 1.731 0 37.842 0 43.036 2.47 5.194 2.47 5.936 63.233 5.936 63.233H64.702l-2.473-17.537Z" fill="#263238" stroke="#263238" stroke-miterlimit="10"/><path d="M124.058 160.985s-5.936 0-7.124 5.928c-1.187 5.928 3.488 30.381 3.834 37.297.346 6.916 1.563 16.549 1.563 16.549h21.023l4.7-59.78h-23.996Z" fill="#263238" stroke="#263238" stroke-miterlimit="10"/><path d="M148.054 160.985s-5.936 0-7.42 5.928 1.98 30.381 1.98 37.297c-.001 6.916.74 16.549.74 16.549h7.42c.001-.01.743-17.79.743-20.26 0-2.47 2.968-28.16 1.484-33.348-1.484-5.187-2.721-5.68-4.947-6.175Z" fill="#636363" stroke="#263238" stroke-miterlimit="10"/><path d="M85.355 118.624s-19.663 8.028-19.663 8.892c0 .865 6.678 24.083 9.151 27.664 2.474 3.582 4.205 7.534 4.947 9.016.742 1.482 3.957 5.187 6.554 5.187 2.597 0 5.69-3.088 13.975-4.323 8.285-1.235 15.705-1.11 17.189-2.223 1.484-1.11-.37-4.075-.618-4.693-.247-.617-1.237-2.84-1.237-2.84s8.04 6.67 11.254 6.916c3.215.247 5.565-1.36 6.06-3.458.494-2.1-1.361-7.163-2.597-9.88-1.237-2.717-7.05-7.04-9.646-10.374-2.597-3.335-5.936-7.287-8.286-10.004a22.5 22.5 0 0 0-7.42-5.68c-2.226-.99-7.915-3.46-11.501-3.83-3.586-.37-8.162-.37-8.162-.37Z" fill="#fff" stroke="#263238" stroke-miterlimit="10"/><path d="M123.894 147.563s-2.8 7.741-1.81 9.717c.989 1.976 3.626 2.633 3.626 2.633m-43.323-38.695 16.324 15.808 2.473-11.856" stroke="#263238" stroke-miterlimit="10"/><path d="M124.681 148.511s3.957 2.841 5.318 1.853c1.36-.988.99-2.841.123-4.817-.865-1.976-3.71-3.087-4.823-2.223-1.113.865-1.484 4.323-.618 5.187Zm-40.563-35.074.619 7.41 13.108 12.844 1.979-9.139.865-3.828s-8.532-1.482-11.253-3.335c-2.72-1.86-5.318-3.96-5.318-3.96Z" fill="#fff" stroke="#263238" stroke-miterlimit="10"/><path d="M100.689 120.724s-8.532-1.482-11.253-3.335c-2.72-1.86-5.318-3.96-5.318-3.96l.619 7.41 3.314 3.244c2.58.726 5.15 1.077 6.9.405a27.41 27.41 0 0 0 5.52-2.742l.228-1.03ZM80.2 107.717s-2.31-10.542-2.31-12.35c0-1.808 6.268-11.036 14.84-9.554 8.573 1.482 13.356 6.422 13.688 7.904.33 1.482-.99 4.446-.99 4.446.26.858.427 1.743.495 2.638 0 .988-1.484 5.266-1.484 5.266l-.5-4.446s-4.12 1.156-6.43 1.156c-2.31 0-6.27-1.482-6.27-1.482s.823 2.633 0 3.952c-.829 1.32-3.297 2.47-3.297 2.47s-.332 2.633-1.32 2.633a21.611 21.611 0 0 1-3.627-.494c-.664-.163-2.806-2.139-2.806-2.139Z" fill="#263238" stroke="#263238" stroke-miterlimit="10"/><path d="M83.994 108.868s-.331-3.952-3.63-2.964c-3.3.988-1.153 4.61.662 6.422 1.816 1.813 2.306.494 2.306.494s.494 3.79 2.968 5.928c2.473 2.139 6.267 6.09 10.224 5.597 3.958-.494 6.762-5.434 7.257-9.055.495-3.621.82-12.187.82-13.175a18.43 18.43 0 0 0-.657-3.29s-3.462 2.47-6.594 1.808c-3.13-.662-6.43-1.976-7.914-1.976s-1.158 2.144-.663 2.801c.495.657 1.815 1.976.331 2.801-1.484.825-3.462 1.645-3.462 1.645v3.458l-1.648-.494Z" fill="#fff" stroke="#263238" stroke-miterlimit="10"/><path d="m99.77 107.07-.812 8.926-4.06-1.176" stroke="#263238" stroke-miterlimit="10"/><path d="M96.342 115.542s-1.979 0-3.067.093a8.35 8.35 0 0 1-1.979.089c-.45-.089-.99-.449-.09.45.901.899 3.612 1.976 5.056 2.164 1.445.187 2.44-.272 3.518-.988 1.078-.717 1.978-1.443 1.444-1.62-.744-.133-1.5-.194-2.256-.183V116l-2.626-.458Z" fill="#263238" stroke="#263238" stroke-miterlimit="10"/><path d="M93.497 110.132c.325 0 .588-.544.588-1.215s-.263-1.215-.588-1.215c-.325 0-.589.544-.589 1.215 0 .67.264 1.215.589 1.215Zm8.8-1.393c0 .672-.262 1.216-.583 1.216-.322 0-.589-.544-.589-1.216 0-.671.262-1.22.589-1.22.326 0 .583.549.583 1.22Z" fill="#263238"/><path d="M91.286 107.07s2.439-1.715 4.422-.988m4.517.09s2.527-1.177 3.611-.095m-8.756 5.073s-.544.632-2.35 1.17m7.312-1.555c.534.368 1.11.671 1.716.904" stroke="#263238" stroke-miterlimit="10"/><path d="m107.739 134.185.865-2.223s1.113 1.112 4.081 1.112c2.968 0 7.79 2.099 7.79 2.099l.372.618s.866-2.594 2.474-3.088c1.607-.494 4.204-2.223 4.575-2.717l.37-.494 1.733 1.482-7.668 10.127-14.334-5.557-.248-1.36Z" fill="#fff" stroke="#263238" stroke-miterlimit="10"/><path d="m107.862 133.321-3.71 19.636 12.862 2.964 4.699-19.02-13.85-3.58Z" fill="#fff" stroke="#263238" stroke-miterlimit="10"/><path d="m121.713 136.902 8.286-5.928-4.947 19.02-8.038 5.927 4.699-19.02Zm-29.804 12.474 5.605-2.307c0-.011 4.946-5.277 5.441-5.77.495-.494 5.441-.99 5.441-.99l5.442 3.623s.99.825 0 1.149c-.99.328-3.131-.655-3.131-.655l-2.147-1.32-1.316.663 2.8 2.3s.826 2.145.826 3.296a5.351 5.351 0 0 1-.495 2.14l-1.647 2.307-4.947-2.471c.01 0-2.96 2.14-3.63 2.47-.66.33-6.92-.163-6.92-.163l-1.312-4.282Z" fill="#fff" stroke="#263238" stroke-miterlimit="10"/><path d="m103.737 143.606 1.751-.33 1.504.414m-4.922 3.166s3.918-1.086 4.17-1.086c.252 0 3.171 2.998 3.171 2.998l.331 3.25" stroke="#263238" stroke-miterlimit="10"/><path d="m102.238 148.936 3.166.084 2.918 1.917c.296.932.433 1.907.406 2.885" stroke="#263238" stroke-miterlimit="10"/><path d="M69.154 125.17s-3.63.494-4.125 3.62c-.495 3.128-3.79 29.478-2.8 32.442.99 2.964 19.292-2.14 19.95-2.47.658-.33 11.046-3.458 11.214-4.115.168-.657.495-6.096-.99-6.422-1.483-.326-15.665.163-15.665.163l-1.979-17.127" fill="#fff"/><path d="M69.154 125.17s-3.63.494-4.125 3.62c-.495 3.128-3.79 29.478-2.8 32.442.99 2.964 19.292-2.14 19.95-2.47.658-.33 11.046-3.458 11.214-4.115.168-.657.495-6.096-.99-6.422-1.483-.326-15.665.163-15.665.163l-1.979-17.127m1.979 17.127-8.74 1.482m-1.648-1.976 7.583.988" stroke="#263238" stroke-miterlimit="10"/><path d="M127.772 139.125s-3.339 3.458-3.215 4.323c.124.864 1.855-.494 2.226-.865.37-.37 2.102-1.358 2.102-2.346s-.37-2.1-1.113-1.112Z" fill="#fff" stroke="#263238" stroke-miterlimit="10"/><path d="M128.144 141.225s.99.988.99 1.852c0 .865-2.103 3.705-3.093 3.705-.978 0-.236-1.976.258-2.84.494-.865 1.855-2.717 1.855-2.717Z" fill="#fff" stroke="#263238" stroke-miterlimit="10"/><path d="M129.133 143.077s1.237.371 1.237 1.482c0 1.112-2.35 2.964-2.968 3.088-.619.123-.495-.988 0-1.853.494-.864 1.731-2.717 1.731-2.717Z" fill="#fff" stroke="#263238" stroke-miterlimit="10"/><path d="M130.369 144.559c.254.626.339 1.307.248 1.976-.124 1.235-1.979 1.976-2.597 1.976-.62 0-.62-.864-.62-.864a37.947 37.947 0 0 0 2.969-3.088Zm-38.895 88.797h-2.35l-1.172-15.561h4.699l-1.177 15.561Zm-21.518 0h-2.35l-1.172-15.561h4.7l-1.178 15.561Zm77.663 0h-2.35l-1.172-15.561h4.699l-1.177 15.561Zm-21.518 0h-2.35l-1.172-15.561h4.688l-1.176 15.561Z" fill="#fff" stroke="#263238" stroke-miterlimit="10"/><path d="M144.344 188.021H88.199v32.604h56.145v-32.604Z" fill="#263238" stroke="#263238" stroke-miterlimit="10"/><path d="M185.07 182.805s5.936-2.47 7.256-3.458c1.32-.988 3.132 1.15 2.306 3.458-.827 2.307-2.968 6.422-6.263 8.398-3.294 1.976-5.936 3.621-6.599 4.278-.663.657-.494 3.132-3.294 4.12s-6.268-.988-8.246-4.12a745.92 745.92 0 0 1-3.3-5.266s.168-2.307 3.463-3.458c3.294-1.151 8.904-1.65 8.904-1.65l5.773-2.302Z" fill="#fff" stroke="#263238" stroke-miterlimit="10"/><path d="M117.508 162.837s3.913-.948 4.902-.454c.99.494 4.29 3.626 4.29 3.626-.001-.011 19.949.315 21.433.977 1.484.663 16.819 12.35 20.118 13.996 3.3 1.645 6.099 3.127 6.099 3.127l-2.473 10.868v.988l.168 1.65s-8.577-2.638-10.719-3.132c-2.142-.493-11.046-5.102-11.872-5.102-.826 0-7.584-1.976-7.584-1.976s-.99-.657-11.708-1.645c-10.72-.988-22.755-2.144-27.044-2.307-4.288-.163-9.893-.494-12.035-1.32-2.142-.824-5.936-6.584-6.594-10.042-.658-3.458 6.263-6.422 9.23-7.74 2.96-1.32 14.01-2.965 15.99-2.965 1.98 0 7.79 1.442 7.79 1.442Z" fill="#fff" stroke="#263238" stroke-miterlimit="10"/><path d="m121.258 167.654-3.3 4.777 4.452-2.96" fill="#fff"/><path d="m121.258 167.654-3.3 4.777 4.452-2.96" stroke="#263238" stroke-miterlimit="10"/><path d="M171.877 181.98s4.784-3.789 5.773-4.94c.99-1.15 4.289-7.41 4.947-9.386.658-1.976 2.31-2.964 3.462-1.482 1.153 1.482 1.98 4.446 2.637 5.765.658 1.319-.327 7.736-2.305 9.88-1.979 2.144-4.714 7.336-5.278 8.398-1.484 2.796-3.794 3.127-5.278 3.29-1.484.163-5.11-3.784-5.11-3.784l1.152-7.741Z" fill="#fff" stroke="#263238" stroke-miterlimit="10"/><path d="M98.503 170.949s4.947-.988 9.4-.494c4.45.494 13.518 3.29 17.312 4.278 3.794.988 10.55 1.482 13.688 2.638 3.136 1.156 11.377 2.633 17.64 2.633 6.262 0 15.83.825 15.83.825s-1.317 9.549-.99 11.362c.325 1.46.766 2.89 1.32 4.278 0 0-12.698.988-16.324 1.482-3.626.494-18.303-1.808-20.776-2.47-2.473-.662-6.1-1.645-8.41-1.645-2.31 0-6.76.988-13.192 1.645-6.431.657-15.498-2.139-16.65-2.302-1.153-.163-5.28-1.65-6.268-2.307-.99-.657-6.762-10.868-4.783-15.151 1.978-4.283 4.452-4.94 4.452-4.94" fill="#fff"/><path d="M98.503 170.949s4.947-.988 9.4-.494c4.45.494 13.518 3.29 17.312 4.278 3.794.988 10.55 1.482 13.688 2.638 3.136 1.156 11.377 2.633 17.64 2.633 6.262 0 15.83.825 15.83.825s-1.317 9.549-.99 11.362c.325 1.46.766 2.89 1.32 4.278 0 0-12.698.988-16.324 1.482-3.626.494-18.303-1.808-20.776-2.47-2.473-.662-6.1-1.645-8.41-1.645-2.31 0-6.76.988-13.192 1.645-6.431.657-15.498-2.139-16.65-2.302-1.153-.163-5.28-1.65-6.268-2.307-.99-.657-6.762-10.868-4.783-15.151 1.978-4.283 4.452-4.94 4.452-4.94" stroke="#263238" stroke-miterlimit="10"/><path d="M128.836 187.562c3.18.632 6.549 2.559 11.105 4.342 6.08 2.376 18.248 2.16 19.817 2.376 1.568.218 5.55 0 5.55 0" fill="#fff"/><path d="M128.836 187.562c3.18.632 6.549 2.559 11.105 4.342 6.08 2.376 18.248 2.16 19.817 2.376 1.568.218 5.55 0 5.55 0" stroke="#263238" stroke-miterlimit="10"/><path d="m104.311 189.795 1.815.262c5.283.79 15.335-2.11 19.549-2.638" fill="#fff"/><path d="m104.311 189.795 1.815.262c5.283.79 15.335-2.11 19.549-2.638" stroke="#263238" stroke-miterlimit="10"/><path d="M98.993 189.266s.95 0 3.428.292Z" fill="#fff"/><path d="M98.993 189.266s.95 0 3.428.292" stroke="#263238" stroke-miterlimit="10"/><path d="M66.924 160.985s-5.936 0-7.124 5.928c-1.187 5.928 3.463 30.381 3.834 37.297.371 6.916 1.563 16.549 1.563 16.549H86.22l4.7-59.78H66.924Z" fill="#263238" stroke="#263238" stroke-miterlimit="10"/><path d="M90.92 160.985s-5.936 0-7.42 5.928 1.979 30.381 1.979 37.297c0 6.916.742 16.549.742 16.549h7.42c0-.01.742-17.79.742-20.26 0-2.47 2.968-28.16 1.484-33.348-1.484-5.187-2.72-5.68-4.947-6.175Z" fill="#636363" stroke="#263238" stroke-miterlimit="10"/><path d="M139.209 233.356h-2.35l-1.172-15.561h4.699l-1.177 15.561Zm20.034 0h-2.349l-1.173-15.561h4.7l-1.178 15.561Zm9.4 0h-2.35l-1.173-15.561h4.699l-1.18 15.561Zm19.786 0h-2.35l-1.172-15.561h4.699l-1.177 15.561Z" fill="#fff" stroke="#263238" stroke-miterlimit="10"/><path d="M136.305 197.541h51.668a3.587 3.587 0 0 1 3.587 3.581v25.318h-58.866v-25.318a3.573 3.573 0 0 1 1.06-2.541 3.597 3.597 0 0 1 2.551-1.04Z" fill="#263238" stroke="#263238" stroke-miterlimit="10"/><path d="M187.998 197.541h-18.797c-.95 0-1.863.377-2.536 1.05a3.579 3.579 0 0 0-1.05 2.531v25.318h25.97v-25.318a3.59 3.59 0 0 0-3.587-3.581Z" fill="#636363" stroke="#263238" stroke-miterlimit="10"/></svg>