<svg xmlns="http://www.w3.org/2000/svg" fill="none" width="390" height="390" viewBox="0 0 390 390"><path d="M341.897 130.533h-69.669v158.044h69.669V130.533Z" stroke="#263238" stroke-linecap="round" stroke-linejoin="round" stroke-width=".75"/><path d="M335.782 136.648h-57.439v145.813h57.439V136.648Zm-50.91 64.381-1.568 2.722m18.057-31.27-14.68 25.428m28.15-48.765-11.12 19.266m13.48-23.338-1.18 2.044m-26.46 123.216-1.334 2.31m4.423-7.66-1.412 2.457m20.25-35.085-15.812 27.394m29.81-51.644-12.377 21.45M328.54 202.8l-1.225 2.122m-20.25 47.962L295.66 272.64m25.99-45.02-12.925 22.386m15.96-27.636-1.53 2.644m-39.85-3.533-1.732 3.003m16.887-29.25-13.767 23.845m32.682-56.605-17.292 29.944m28.657-49.631-10.03 17.378m-200.937-29.632h-69.67v158.044h69.67V130.533Z" stroke="#263238" stroke-linecap="round" stroke-linejoin="round" stroke-width=".75"/><path d="M111.657 136.648h-57.44v145.813h57.44V136.648Zm-50.91 64.381-1.568 2.722m18.049-31.27-14.68 25.428m28.158-48.765L79.583 168.41m13.47-23.338-1.177 2.044M65.42 270.332l-1.335 2.31m4.422-7.66-1.42 2.457m20.257-35.085-15.818 27.394m29.82-51.644-12.387 21.45m15.452-26.754-1.233 2.122m-20.24 47.962L71.525 272.64m25.997-45.02L84.6 250.006m15.95-27.636-1.52 2.644m-39.852-3.533-1.739 3.003m16.887-29.25L60.56 219.08m32.682-56.605-17.284 29.944m28.649-49.631-10.031 17.378" stroke="#263238" stroke-linecap="round" stroke-linejoin="round" stroke-width=".75"/><path d="M23.01 354.455h343.98" stroke="#263238" stroke-linecap="round" stroke-linejoin="round"/><path d="M142.498 292.664h-5.967v20.288h5.97v-20.288Z" fill="#fff"/><path d="M142.498 292.664h-5.967v20.288h5.97v-20.288Z" fill="#000" opacity=".2"/><path d="M148.473 294.895h-5.967v18.057h5.967v-18.057Zm7.449 0h-4.212v18.057h4.212v-18.057Z" fill="#fff"/><path d="M155.922 294.895h-4.212v18.057h4.212v-18.057Z" fill="#fff" opacity=".9"/><path d="M151.718 292.991h-3.822v19.968h3.822v-19.968Z" fill="#fff"/><path d="M151.718 292.991h-3.822v19.968h3.822v-19.968Z" fill="#000" opacity=".1"/><path d="M161.897 292.664h-5.967v20.288h5.967v-20.288Z" fill="#fff"/><path d="M167.863 294.895h-5.967v18.057h5.967v-18.057Z" fill="#fff"/><path d="M167.863 294.895h-5.967v18.057h5.967v-18.057Z" fill="#263238" opacity=".2"/><path d="M175.32 294.895h-4.212v18.057h4.212v-18.057Z" fill="#fff"/><path d="M175.32 294.895h-4.212v18.057h4.212v-18.057Z" fill="#fff" opacity=".8"/><path d="M171.109 292.991h-3.822v19.968h3.822v-19.968Z" fill="#fff"/><path d="M171.109 292.991h-3.822v19.968h3.822v-19.968Z" fill="#000" opacity=".1"/><path d="M203.79 312.959h5.967v-20.287h-5.967v20.287Z" fill="#fff"/><path d="M203.79 312.959h5.967v-20.287h-5.967v20.287Z" fill="#000" opacity=".2"/><path d="M197.816 312.959h5.967v-18.057h-5.967v18.057Zm-7.45 0h4.213v-18.057h-4.212v18.057Z" fill="#fff"/><path d="M190.367 312.959h4.212v-18.057h-4.212v18.057Z" fill="#fff" opacity=".9"/><path d="M194.571 312.952h3.822v-19.968h-3.822v19.968Z" fill="#fff"/><path d="M194.571 312.952h3.822v-19.968h-3.822v19.968Z" fill="#000" opacity=".1"/><path d="M184.392 312.959h5.967v-20.287h-5.967v20.287Zm-5.967 0h5.967v-18.057h-5.967v18.057Z" fill="#fff"/><path d="M178.425 312.959h5.967v-18.057h-5.967v18.057Z" fill="#263238" opacity=".2"/><path d="M175.18 312.952h3.822v-19.968h-3.822v19.968Z" fill="#fff"/><path d="M175.18 312.952h3.822v-19.968h-3.822v19.968Z" fill="#000" opacity=".1"/><path d="M238.188 312.959h5.967v-20.287h-5.967v20.287Z" fill="#fff"/><path d="M238.188 312.959h5.967v-20.287h-5.967v20.287Z" fill="#000" opacity=".2"/><path d="M232.214 312.959h5.967v-18.057h-5.967v18.057Zm-7.45 0h4.213v-18.057h-4.212v18.057Z" fill="#fff"/><path d="M224.765 312.959h4.212v-18.057h-4.212v18.057Z" fill="#fff" opacity=".9"/><path d="M228.969 312.952h3.822v-19.968h-3.822v19.968Z" fill="#fff"/><path d="M228.969 312.952h3.822v-19.968h-3.822v19.968Z" fill="#000" opacity=".1"/><path d="M218.79 312.959h5.967v-20.287h-5.967v20.287Zm29.25-.716 3.92-1.05-5.276-19.68-3.92 1.05 5.276 19.68Zm-35.217.716h5.967v-18.057h-5.967v18.057Z" fill="#fff"/><path d="M212.823 312.959h5.967v-18.057h-5.967v18.057Z" fill="#263238" opacity=".2"/><path d="M209.578 312.952h3.822v-19.968h-3.822v19.968Z" fill="#fff"/><path d="M209.578 312.952h3.822v-19.968h-3.822v19.968Z" fill="#000" opacity=".1"/><path d="m250.038 339.313 4.008-1.074-5.25-19.597-4.009 1.074 5.251 19.597Z" fill="#fff"/><path d="m250.038 339.313 4.008-1.074-5.25-19.597-4.009 1.074 5.251 19.597Z" fill="#000" opacity=".2"/><path d="M239.741 339.113h5.967v-18.057h-5.967v18.057Zm-7.465 0h4.212v-18.057h-4.212v18.057Z" fill="#fff"/><path d="M232.276 339.113h4.212v-18.057h-4.212v18.057Z" fill="#fff" opacity=".9"/><path d="M236.488 339.121h3.822v-19.968h-3.822v19.968Z" fill="#fff"/><path d="M236.488 339.121h3.822v-19.968h-3.822v19.968Z" fill="#000" opacity=".1"/><path d="M226.317 339.121h5.967v-20.288h-5.967v20.288Zm-5.975-.008h5.967v-18.057h-5.97v18.057Z" fill="#fff"/><path d="M220.342 339.113h5.967v-18.057h-5.97v18.057Z" fill="#263238" opacity=".2"/><path d="M212.893 339.113h4.212v-18.057h-4.212v18.057Z" fill="#fff"/><path d="M212.893 339.113h4.212v-18.057h-4.212v18.057Z" fill="#fff" opacity=".8"/><path d="M217.097 339.121h3.822v-19.968h-3.822v19.968Z" fill="#fff"/><path d="M217.097 339.121h3.822v-19.968h-3.822v19.968Z" fill="#000" opacity=".1"/><path d="M184.423 318.833h-5.967v20.288h5.967v-20.288Z" fill="#fff"/><path d="M184.423 318.833h-5.967v20.288h5.967v-20.288Z" fill="#000" opacity=".2"/><path d="M190.39 321.063h-5.967v18.057h5.967v-18.057Zm7.457 0h-4.212v18.057h4.212v-18.057Z" fill="#fff"/><path d="M197.847 321.063h-4.212v18.057h4.212v-18.057Z" fill="#fff" opacity=".9"/><path d="M193.635 319.153h-3.822v19.968h3.822v-19.968Z" fill="#fff"/><path d="M193.635 319.153h-3.822v19.968h3.822v-19.968Z" fill="#000" opacity=".1"/><path d="M203.814 318.833h-5.967v20.288h5.967v-20.288Zm5.967 2.23h-5.967v18.057h5.967v-18.057Z" fill="#fff"/><path d="M209.781 321.063h-5.967v18.057h5.967v-18.057Z" fill="#263238" opacity=".2"/><path d="M213.026 319.153h-3.822v19.968h3.822v-19.968Z" fill="#fff"/><path d="M213.026 319.153h-3.822v19.968h3.822v-19.968Z" fill="#000" opacity=".1"/><path d="M150.025 318.833h-5.967v20.288h5.967v-20.288Z" fill="#fff"/><path d="M150.025 318.833h-5.967v20.288h5.967v-20.288Z" fill="#000" opacity=".2"/><path d="M155.992 321.063h-5.967v18.057h5.967v-18.057Zm7.457 0h-4.212v18.057h4.212v-18.057Z" fill="#fff"/><path d="M163.449 321.063h-4.212v18.057h4.212v-18.057Z" fill="#fff" opacity=".9"/><path d="M159.237 319.153h-3.822v19.968h3.822v-19.968Z" fill="#fff"/><path d="M159.237 319.153h-3.822v19.968h3.822v-19.968Z" fill="#000" opacity=".1"/><path d="M169.416 318.833h-5.967v20.288h5.967v-20.288Zm-25.37.867-3.903-1.046-5.251 19.597 3.903 1.045 5.251-19.596Zm31.337 1.363h-5.967v18.057h5.967v-18.057Z" fill="#fff"/><path d="M175.383 321.063h-5.967v18.057h5.967v-18.057Z" fill="#263238" opacity=".2"/><path d="M178.628 319.153h-3.822v19.968h3.822v-19.968Z" fill="#fff"/><path d="M178.628 319.153h-3.822v19.968h3.822v-19.968Z" fill="#000" opacity=".1"/><path d="M141.118 354.455h-5.967l-.81-11.544h7.606l-.82 11.544Zm113.731 0h-5.967l-.82-11.544h7.606l-.82 11.544Z" fill="#263238"/><path d="M261.425 285.004h-132.85a2.863 2.863 0 0 0-2.863 2.863v54.272a2.863 2.863 0 0 0 2.863 2.863h132.85a2.863 2.863 0 0 0 2.862-2.863v-54.272a2.86 2.86 0 0 0-2.862-2.863v0Zm-2.871 5.733v22.222h-127.14v-22.222h127.14ZM131.445 339.3v-22.246h127.14V339.3h-127.14Z" fill="#fff" stroke="#263238" stroke-linecap="round" stroke-linejoin="round" stroke-width=".75"/><path d="M241.784 171.007h-91.923a5.351 5.351 0 0 0-5.35 5.35v19.735a5.351 5.351 0 0 0 5.35 5.35h91.923a5.351 5.351 0 0 0 5.35-5.35v-19.734a5.351 5.351 0 0 0-5.35-5.35Z" fill="#263238" stroke="#263238" stroke-linecap="round" stroke-linejoin="round"/><path d="M240.146 169.369h-91.923a5.35 5.35 0 0 0-5.35 5.35v19.735a5.35 5.35 0 0 0 5.35 5.35h91.923a5.35 5.35 0 0 0 5.351-5.35V174.72a5.35 5.35 0 0 0-5.351-5.35Z" fill="#fff" stroke="#263238" stroke-linecap="round" stroke-linejoin="round"/><path d="M240.146 169.369h-91.923a5.35 5.35 0 0 0-5.35 5.35v19.735a5.35 5.35 0 0 0 5.35 5.35h91.923a5.35 5.35 0 0 0 5.351-5.35V174.72a5.35 5.35 0 0 0-5.351-5.35Z" stroke="#263238" stroke-linecap="round" stroke-linejoin="round"/><path d="M165.594 193.573h-13.517v-17.098h9.01l4.507 4.508v12.59Z" fill="#fff"/><path d="M165.594 193.573h-13.517v-17.098h9.01l4.507 4.508v12.59Z" fill="#fff" opacity=".5"/><path d="M165.594 193.573h-13.517v-17.098h9.01l4.507 4.508v12.59Z" stroke="#263238" stroke-linecap="round" stroke-linejoin="round"/><path d="M161.085 180.984h4.509l-4.509-4.51v4.51Z" fill="#fff" stroke="#263238" stroke-linecap="round" stroke-linejoin="round"/><path d="M155.08 185.546a.858.858 0 0 1 0-1.708h7.51a.86.86 0 0 1 .777.854.855.855 0 0 1-.776.854h-7.51Zm0 3.596a.858.858 0 0 1 0-1.708h5.873a.855.855 0 0 1 .776.854.855.855 0 0 1-.776.854h-5.873Z" fill="#858585" stroke="#263238" stroke-linecap="round" stroke-linejoin="round" stroke-width=".75"/><path d="M199.766 186.529h-25.155a1.772 1.772 0 0 0 0 3.534h25.155v-3.534Z" fill="#fff"/><path d="M174.611 190.063a1.772 1.772 0 0 1 0-3.534h59.904a1.776 1.776 0 0 1 1.327.474 1.77 1.77 0 0 1 .414 1.998 1.77 1.77 0 0 1-1.741 1.07H174.61Z" stroke="#263238" stroke-linecap="round" stroke-linejoin="round"/><path d="M200.335 181.74h-1.896v-.897l1.8-4.267h1.08v4.267h.465v.897h-.468v1.147h-.99v-1.147Zm0-.897v-2.457l-.975 2.465.975-.008Zm1.919.554v-.492h.936v.562c0 .452.195.616.515.616s.515-.164.515-.616v-1.412c0-.452-.203-.624-.515-.624s-.515.172-.515.624v.055h-.936l.18-3.526h2.612v.905h-1.73l-.08 1.505a.935.935 0 0 1 .86-.46c.724 0 1.1.515 1.1 1.443v1.42c0 1.014-.508 1.56-1.483 1.56s-1.46-.546-1.46-1.56Zm3.572-2.317v-1.56a.956.956 0 0 1 .57-.964.953.953 0 0 1 1.094.23.96.96 0 0 1 .247.734v1.56a.969.969 0 0 1-.247.734.968.968 0 0 1-.708.312.97.97 0 0 1-.71-.312.956.956 0 0 1-.246-.734Zm1.28.047v-1.67c0-.272-.125-.389-.32-.389s-.328.117-.328.39v1.67c0 .28.117.397.328.397.21 0 .32-.125.32-.398Zm1.965-2.543h.632l-2.442 6.311h-.63l2.44-6.311Zm-.476 5.39v-1.56a.96.96 0 1 1 1.911 0v1.56a.969.969 0 0 1-.247.734.952.952 0 0 1-.708.312.956.956 0 0 1-.956-1.046Zm1.28.047v-1.669c0-.281-.125-.398-.328-.398s-.32.117-.32.398v1.669c0 .281.117.398.32.398s.327-.117.327-.398Z" fill="#263238"/><path d="M241.784 206.326h-91.923a5.35 5.35 0 0 0-5.35 5.35v19.734a5.35 5.35 0 0 0 5.35 5.35h91.923a5.35 5.35 0 0 0 5.35-5.35v-19.734a5.35 5.35 0 0 0-5.35-5.35Z" fill="#263238" stroke="#263238" stroke-linecap="round" stroke-linejoin="round"/><path d="M240.146 204.688h-91.923a5.35 5.35 0 0 0-5.35 5.35v19.734a5.35 5.35 0 0 0 5.35 5.35h91.923a5.35 5.35 0 0 0 5.351-5.35v-19.734a5.35 5.35 0 0 0-5.351-5.35Z" fill="#fff" stroke="#263238" stroke-linecap="round" stroke-linejoin="round"/><path d="M219.609 221.629h-44.998a1.772 1.772 0 0 0 0 3.534h44.998v-3.534Z" fill="#fff"/><path d="M174.611 225.163a1.772 1.772 0 0 1 0-3.534h59.904a1.776 1.776 0 0 1 1.327.47 1.77 1.77 0 0 1 .414 1.992 1.77 1.77 0 0 1-1.741 1.062H174.61Z" stroke="#263238" stroke-linecap="round" stroke-linejoin="round"/><path d="M198.557 216.528v-.56a1.303 1.303 0 0 1 .647-1.288 1.248 1.248 0 0 1-.608-1.241v-.257a1.513 1.513 0 1 1 3.026 0v.257a1.278 1.278 0 0 1-.616 1.24 1.299 1.299 0 0 1 .655 1.288v.56a1.557 1.557 0 0 1-1.56 1.561 1.557 1.557 0 0 1-1.56-1.56h.016Zm2.113-.055v-.608c0-.476-.195-.71-.56-.71-.368 0-.563.234-.563.71v.608c0 .476.195.71.562.71.366 0 .56-.234.56-.71Zm0-2.846v-.5c0-.413-.179-.632-.522-.632s-.523.219-.523.632v.5c0 .413.18.63.523.63s.483-.217.483-.63h.039Zm1.584 2.87v-.491h.936v.56c0 .454.195.617.515.617.319 0 .514-.163.514-.616v-1.412c-.011-.452-.213-.624-.525-.624s-.514.172-.514.624v.055h-.936l.18-3.526h2.613v.905h-1.73l-.08 1.506a.93.93 0 0 1 .86-.461c.723 0 1.097.515 1.097 1.443v1.42a1.493 1.493 0 0 1-.393 1.117 1.48 1.48 0 0 1-1.678.349 1.487 1.487 0 0 1-.806-.867 1.505 1.505 0 0 1-.079-.6h.016Zm3.572-2.317v-1.56a.956.956 0 0 1 .57-.964.953.953 0 0 1 1.094.23.96.96 0 0 1 .247.734v1.56a.969.969 0 0 1-.247.734.968.968 0 0 1-.708.312.97.97 0 0 1-.71-.312.956.956 0 0 1-.246-.734Zm1.279.047v-1.67c0-.272-.124-.397-.319-.397s-.328.125-.328.398v1.67c0 .28.117.397.328.397.21 0 .319-.125.319-.398Zm1.966-2.543h.632l-2.442 6.31h-.631l2.441-6.31Zm-.476 5.39v-1.56a.96.96 0 1 1 1.911 0v1.56a.969.969 0 0 1-.247.734.952.952 0 0 1-.708.312.956.956 0 0 1-.956-1.046Zm1.279.047v-1.67c0-.28-.124-.397-.327-.397s-.32.117-.32.398v1.67c0 .28.117.397.32.397s.327-.117.327-.398Z" fill="#263238"/><path d="M165.594 228.673h-13.517v-17.098h9.01l4.507 4.508v12.59Z" fill="#fff"/><path d="M165.594 228.673h-13.517v-17.098h9.01l4.507 4.508v12.59Z" fill="#fff" stroke="#263238" stroke-linecap="round" stroke-linejoin="round" opacity=".5"/><path d="M165.594 228.673h-13.517v-17.098h9.01l4.507 4.508v12.59Z" stroke="#263238" stroke-linecap="round" stroke-linejoin="round"/><path d="M155.08 220.646a.858.858 0 0 1 0-1.708h7.51a.86.86 0 0 1 .777.854.855.855 0 0 1-.776.854h-7.51Zm0 3.596a.858.858 0 0 1 0-1.708h5.873a.855.855 0 0 1 .776.854.855.855 0 0 1-.776.854h-5.873Z" fill="#858585" stroke="#263238" stroke-linecap="round" stroke-linejoin="round" stroke-width=".75"/><path d="M161.085 216.083h4.509l-4.509-4.508v4.508Z" fill="#fff" stroke="#263238" stroke-linecap="round" stroke-linejoin="round"/><path d="M254.35 123.849H137.288a5.35 5.35 0 0 0-5.35 5.35v27.199a5.351 5.351 0 0 0 5.35 5.35H254.35a5.351 5.351 0 0 0 5.351-5.35v-27.199a5.35 5.35 0 0 0-5.351-5.35Z" fill="#263238" stroke="#263238" stroke-linecap="round" stroke-linejoin="round"/><path d="M252.712 122.21H135.65a5.35 5.35 0 0 0-5.35 5.351v27.2a5.35 5.35 0 0 0 5.35 5.36h117.062a5.351 5.351 0 0 0 5.35-5.351v-27.2a5.351 5.351 0 0 0-5.35-5.35Z" fill="#fff" stroke="#263238" stroke-linecap="round" stroke-linejoin="round"/><path d="M174.892 156.991h-25.031V125.33h16.685l8.346 8.34v23.321Z" fill="#fff"/><path d="M174.892 156.991h-25.031V125.33h16.685l8.346 8.34v23.321Z" fill="#fff" opacity=".7"/><path d="M174.892 156.991h-25.031V125.33h16.685l8.346 8.34v23.321Z" stroke="#263238" stroke-linecap="round" stroke-linejoin="round"/><path d="M166.545 133.669h8.346l-8.346-8.34v8.34Z" fill="#fff" stroke="#263238" stroke-linecap="round" stroke-linejoin="round"/><path d="M157.248 137.569h-4.914v4.914h4.914v-4.914Zm5.054 0h-4.914v4.914h4.914v-4.914Zm5.062 0h-4.914v4.914h4.914v-4.914Zm5.055 0h-4.914v4.914h4.914v-4.914Zm-15.171 4.914h-4.914v4.914h4.914v-4.914Zm5.054 0h-4.914v4.914h4.914v-4.914Zm5.062 0h-4.914v4.914h4.914v-4.914Zm5.055 0h-4.914v4.914h4.914v-4.914Zm-15.17 4.914h-4.92v4.914h4.91v-4.91Zm5.05 0h-4.92v4.914h4.914v-4.91Zm5.06 0h-4.918v4.914h4.914v-4.91Zm5.051 0H167.5v4.914h4.914v-4.91Z" stroke="#fff" stroke-linecap="round" stroke-linejoin="round" stroke-width=".75"/><path d="m152.427 151.835 4.961-4.555 2.457.117 2.683-4.844 2.38 2.387 2.667-2.8 2.387-4.57" stroke="#fff" stroke-linecap="round" stroke-linejoin="round" stroke-width="2"/><path d="m167.146 138.996 2.816-1.427.57 3.07" stroke="#fff" stroke-linecap="round" stroke-linejoin="round" stroke-width="2"/><path d="M184.735 140.15H183.3v-.95c1.139 0 1.56-.25 1.856-1.085h.905v8.58h-1.35l.024-6.545Zm2.925 4.525v-4.524a2.05 2.05 0 0 1 3.502-1.451c.385.385.6.906.6 1.451v4.535a2.05 2.05 0 0 1-2.05 2.05 2.052 2.052 0 0 1-2.052-2.05Zm2.754.085v-4.68c0-.608-.273-.842-.702-.842-.43 0-.702.234-.702.842v4.68c0 .617.273.85.702.85.43 0 .702-.233.702-.85Zm2.16-.085v-4.524a2.05 2.05 0 0 1 3.502-1.451c.385.385.6.906.6 1.451v4.535a2.05 2.05 0 0 1-2.05 2.05 2.052 2.052 0 0 1-2.052-2.05Zm2.754.085v-4.68c0-.608-.273-.842-.702-.842-.43 0-.702.234-.702.842v4.68c0 .617.273.85.702.85.43 0 .702-.233.702-.85Zm2.183-3.245v-2.145a1.302 1.302 0 0 1 2.605 0v2.145a1.303 1.303 0 0 1-2.605 0Zm1.747.063v-2.27c0-.382-.171-.546-.444-.546s-.445.164-.445.546v2.27c0 .382.164.538.445.538s.444-.156.444-.538Zm2.676-3.463h.866l-3.331 8.58h-.86l3.314-8.58Zm-.655 7.347v-2.153a1.29 1.29 0 0 1 .381-.92 1.296 1.296 0 0 1 .92-.382 1.314 1.314 0 0 1 .922.381 1.315 1.315 0 0 1 .382.92v2.154a1.31 1.31 0 0 1-1.303 1.303 1.309 1.309 0 0 1-.92-.382 1.292 1.292 0 0 1-.382-.921Zm1.747.063v-2.278c0-.382-.172-.538-.445-.538s-.437.156-.437.538v2.278c0 .374.156.538.437.538s.445-.164.445-.538Zm3.042-1.498v-3.393a1.459 1.459 0 0 1 2.917 0v.671h-.936v-.733c0-.414-.203-.585-.499-.585-.297 0-.492.17-.492.585v3.525c0 .414.195.577.492.577.296 0 .499-.163.499-.577v-.967h.936v.897a1.459 1.459 0 0 1-2.917 0Zm3.455-.039v-3.315a1.506 1.506 0 0 1 3.01 0v3.315a1.501 1.501 0 0 1-2.57 1.064 1.506 1.506 0 0 1-.44-1.064Zm2.021.062v-3.44c0-.452-.195-.623-.515-.623s-.52.17-.52.624v3.44c0 .452.2.623.51.623s.515-.17.515-.624Zm1.653-4.875h1.42l.632 4.517.631-4.517h1.412v6.31h-.936v-4.773l-.725 4.774h-.827l-.718-4.774v4.774h-.865l-.024-6.31Zm4.852 0h1.458c.99 0 1.475.554 1.475 1.56v.624c0 1.007-.484 1.56-1.475 1.56h-.468v2.567h-.99v-6.31Zm1.458 2.84c.312 0 .484-.14.484-.593v-.78c0-.453-.172-.593-.484-.593h-.468v1.934l.46.032Zm2.013-2.84h.99v5.406h1.631v.905h-2.62v-6.31Zm3.12 0h2.698v.905h-1.708v1.662h1.35v.904h-1.358v1.935h1.709v.905h-2.69v-6.31Zm4.025.905h-1.03v-.905h3.058v.905h-1.038v5.406h-.99v-5.406Zm2.51-.905h2.7v.905h-1.708v1.662h1.357v.904h-1.357v1.935h1.708v.905h-2.7v-6.31Zm3.269 0h1.514c.99 0 1.474.554 1.474 1.56v3.19c0 1.007-.484 1.56-1.474 1.56h-1.514v-6.31Zm1.49 5.406c.32 0 .507-.164.507-.609v-3.283c0-.45-.187-.61-.507-.61h-.499v4.5h.5Z" fill="#263238"/><path d="M241.784 241.652h-91.923a5.351 5.351 0 0 0-5.35 5.35v19.735a5.35 5.35 0 0 0 5.35 5.35h91.923a5.35 5.35 0 0 0 5.35-5.35v-19.734a5.351 5.351 0 0 0-5.35-5.35Z" fill="#263238" stroke="#263238" stroke-linecap="round" stroke-linejoin="round"/><path d="M240.146 240.014h-91.923a5.35 5.35 0 0 0-5.35 5.35V265.1a5.35 5.35 0 0 0 5.35 5.35h91.923a5.35 5.35 0 0 0 5.351-5.35v-19.734a5.35 5.35 0 0 0-5.351-5.35Z" fill="#fff" stroke="#263238" stroke-linecap="round" stroke-linejoin="round"/><path d="M216.434 256.737H174.61a1.765 1.765 0 0 0-1.762 1.763 1.76 1.76 0 0 0 1.762 1.763h41.824v-3.526Z" fill="#fff"/><path d="M174.61 260.263a1.762 1.762 0 0 1 0-3.526h59.904a1.774 1.774 0 0 1 1.247.516 1.766 1.766 0 0 1 0 2.493 1.757 1.757 0 0 1-1.247.517H174.61Z" stroke="#263238" stroke-linecap="round" stroke-linejoin="round"/><path d="M165.594 263.78h-13.517v-17.097h9.01l4.507 4.5v12.597Z" fill="#fff"/><path d="M165.594 263.78h-13.517v-17.097h9.01l4.507 4.5v12.597Z" fill="#fff" opacity=".5"/><path d="M165.594 263.78h-13.517v-17.097h9.01l4.507 4.5v12.597Z" stroke="#263238" stroke-linecap="round" stroke-linejoin="round"/><path d="M155.08 255.754a.858.858 0 0 1 0-1.708h7.51a.855.855 0 0 1 .777.854.855.855 0 0 1-.776.854h-7.51Zm-.001 3.588a.848.848 0 0 1-.85-.85.852.852 0 0 1 .85-.85h5.874a.85.85 0 1 1 0 1.7h-5.874Z" fill="#858585" stroke="#263238" stroke-linecap="round" stroke-linejoin="round" stroke-width=".75"/><path d="M161.085 251.183h4.509l-4.509-4.5v4.5Z" fill="#fff" stroke="#263238" stroke-linecap="round" stroke-linejoin="round"/><path d="M200.616 247.689h-2.005v-.897h2.972v.866l-1.56 5.46h-1.014l1.607-5.43Zm1.59 3.916v-3.315a1.508 1.508 0 0 1 1.506-1.506 1.506 1.506 0 0 1 1.506 1.506v3.315a1.506 1.506 0 0 1-3.01 0Zm2.021.062v-3.44c0-.452-.203-.624-.515-.624s-.514.172-.514.624v3.44c0 .452.202.616.514.616s.515-.164.515-.616Zm1.599-2.379v-1.56a.954.954 0 0 1 .247-.733.958.958 0 0 1 1.664.733v1.56a.969.969 0 0 1-.247.734.952.952 0 0 1-.708.312.956.956 0 0 1-.956-1.046Zm1.279.047v-1.67c0-.28-.124-.397-.319-.397s-.328.117-.328.398v1.67c0 .272.117.389.328.389.21 0 .319-.125.319-.39Zm1.935-2.543h.632l-2.442 6.302h-.632l2.442-6.302Zm-.476 5.39v-1.56a.969.969 0 0 1 .247-.734.952.952 0 0 1 .708-.312.956.956 0 0 1 .956 1.046v1.56a.96.96 0 1 1-1.911 0Zm1.279.04v-1.663c0-.28-.125-.397-.327-.397-.203 0-.32.117-.32.397v1.662c0 .28.117.398.32.398.202 0 .358-.117.358-.398h-.031Z" fill="#263238"/><path d="m92.383 85.956 20.585-15.912 20.584 15.912H92.383Z" fill="#263238" stroke="#263238" stroke-linecap="round" stroke-linejoin="round"/><path d="M118.349 68.796h-10.764V78h10.764v-9.204Z" fill="#263238" stroke="#263238" stroke-linecap="round" stroke-linejoin="round"/><path d="M112.967 45.926V78" stroke="#263238" stroke-linecap="round" stroke-linejoin="round" stroke-width=".75"/><path d="m256.44 85.956 20.592-15.912 20.585 15.912H256.44Z" fill="#263238" stroke="#263238" stroke-linecap="round" stroke-linejoin="round"/><path d="M282.415 68.796h-10.764V78h10.764v-9.204Z" fill="#263238" stroke="#263238" stroke-linecap="round" stroke-linejoin="round"/><path d="M277.033 44.367V78" stroke="#263238" stroke-linecap="round" stroke-linejoin="round" stroke-width=".75"/><path d="m285.067 334.3-.437 12.87 6.661.32 2.426-13.19h-8.65Z" fill="#fff" stroke="#263238" stroke-linecap="round" stroke-linejoin="round"/><path d="M272.033 351.117c2.246-.78 6.13-2.106 7.589-3.02 1.17-.732 2.8-3.119 4.009-3.789a2.021 2.021 0 0 1 1.607 0c.196.218.324.49.367.78a.662.662 0 0 0 1.21.17c.185-.365.452-.685.78-.935 1.028-.577 3.813-.74 4.725 0 1.514 1.24 2.06 5.515 2.34 7.441.07.422 0 2.762 0 2.762h-24.304v-1.07a2.444 2.444 0 0 1 1.677-2.339v0Z" fill="#fff" stroke="#263238" stroke-linecap="round" stroke-linejoin="round"/><path d="M294.676 354.51h-24.32v-1.07c0-.264.044-.528.132-.779h24.219c0 .82-.031 1.849-.031 1.849Z" fill="#858585" stroke="#263238" stroke-linecap="round" stroke-linejoin="round"/><path d="m289.271 234.523-5.11 104.676 9.36 1.56s5.897-30.296 6.615-40.217c.172-2.34 0-9.4 0-9.4l6.622-32.595s4.36-4.025 4.867-23.19l-22.354-.834Z" fill="#263238" stroke="#263238" stroke-linecap="round" stroke-linejoin="round"/><path d="M303.124 275.036c.358-1.513.78-3.003 1.287-4.485a6.82 6.82 0 0 1 .265-.6 59.438 59.438 0 0 1 1.068-6.59 3.65 3.65 0 0 1 1.24-2.07 3.013 3.013 0 0 1 1.974-1.69 40.62 40.62 0 0 0-1.31-5.952c-.593-2.043-1.56-4-1.85-6.115-.077-.545-.39-1.114-.288-1.177-.67-.26-1.326-.558-1.965-.89l-.117-.092a295.43 295.43 0 0 0-.304 29.67Z" fill="#000" opacity=".7"/><path d="M288.826 294.395a9.347 9.347 0 0 0 4.4-2.394" stroke="#7F7F7F" stroke-linecap="round" stroke-linejoin="round" stroke-width=".75"/><path d="m282.929 341.188 11.318.928.842-3.666-12.16-.952v3.69Zm32.682-8.471 2.411 15.046 6.162-.484-.203-15.405-8.37.843Z" fill="#fff" stroke="#263238" stroke-linecap="round" stroke-linejoin="round"/><path d="M305.292 351.117c2.254-.78 6.138-2.106 7.589-3.02 1.17-.732 2.808-3.119 4.01-3.789a2.04 2.04 0 0 1 1.62 0c.14.145.24.325.29.522a.772.772 0 0 0 .665.564.777.777 0 0 0 .774-.4c.158-.27.37-.503.623-.686 1.029-.578 3.814-.74 4.727 0 1.514 1.24 2.06 5.514 2.34 7.441.063.42 0 2.76 0 2.76H303.63v-1.068a2.45 2.45 0 0 1 1.669-2.324v0Z" fill="#fff" stroke="#263238" stroke-linecap="round" stroke-linejoin="round"/><path d="M327.943 354.51h-24.32v-1.07a2.326 2.326 0 0 1 .125-.779h24.219c0 .82-.024 1.849-.024 1.849Z" fill="#858585" stroke="#263238" stroke-linecap="round" stroke-linejoin="round"/><path d="M302.297 237.682s2.34 13.548 4.493 24.913c1.466 7.706 1.56 30.474 1.56 30.474l7.472 47.01 9.212-1.24s.109-28.937-.928-38.22c-.234-2.066-.617-8.205-.617-8.205s.35-24.554 2.247-32.76c1.357-5.85 4.056-11.996.78-23.985l-24.22 2.013Z" fill="#263238" stroke="#263238" stroke-linecap="round" stroke-linejoin="round"/><path d="M310.37 294.395a6.335 6.335 0 0 0 3.9 2.504" stroke="#7F7F7F" stroke-linecap="round" stroke-linejoin="round" stroke-width=".75"/><path d="m314.277 337.966.531 3.448 11.419-1.225-.078-3.713-11.872 1.49Z" fill="#fff" stroke="#263238" stroke-linecap="round" stroke-linejoin="round"/><path d="m258.827 175.009-2.52-4.236s-.607-6.918-2.011-8.268c-1.404-1.349-4.524-5.319-4.969-4.539-.702 1.248 1.895 3.471 1.895 3.471l.476 2.574s-4.204-3.027-5.39-3.027c0 0-3.354-3.97-4.539-3.978-1.186-.008.483 2.746.483 2.746s-1.13-.866-1.35-.328c-.217.538 1.46 2.38 1.46 2.38s-.648.701.327 2.207a2.757 2.757 0 0 0 .78 2.753c1.295 1.03 8.253 4.969 8.253 4.969l2.34 5.506 4.765-2.23Z" fill="#858585" stroke="#263238" stroke-linecap="round" stroke-linejoin="round"/><path d="M243.282 161.912s.92.375.538 1.724a3.27 3.27 0 0 1 .593 1.779c.093 1.185 6.099.6 7.722 3.12m-8.853-8.08 2.449 2.588" stroke="#263238" stroke-linecap="round" stroke-linejoin="round" stroke-width=".75"/><path d="m284.832 173.94-16.075 12.527-11.014-15.007-5.608 2.808s8.814 24.35 15.483 24.35c7.09 0 20.568-11.387 20.568-11.387s.85-2.176-3.354-13.29Z" fill="#fff" stroke="#263238" stroke-linecap="round" stroke-linejoin="round"/><path d="M269.365 187.66c.376.8.656 1.64.835 2.504" stroke="#263238" stroke-linecap="round" stroke-linejoin="round" stroke-width=".75"/><path d="m284.833 173.94 3.424 45.326v18.83c0-.001 19.726 2.339 39.187-.5l-.67-19.383 1.972-43.204s-9.032-6.529-22.9-6.529c-13.87 0-21.013 5.46-21.013 5.46Z" fill="#fff" stroke="#263238" stroke-linecap="round" stroke-linejoin="round"/><path d="m327.444 237.596-.624-17.371c-.335 8.37-9.57 5.226-11.661 4.836-2.239-.421-4.813 6.958-4.813 6.958s-8.58 1.474-15.295.95c-6.716-.52-6.818-6.652-6.818-6.652v11.778s19.75 2.371 39.211-.499Z" fill="#000" opacity=".2"/><path d="M297.5 218.829a52.07 52.07 0 0 0 23.15-8.338Z" fill="#fff"/><path d="M297.5 218.829a52.07 52.07 0 0 0 23.15-8.338" stroke="#263238" stroke-linecap="round" stroke-linejoin="round" stroke-width=".75"/><path d="M294.06 219.063s.663 0 1.833-.086Z" fill="#fff"/><path d="M294.06 219.063s.663 0 1.833-.086" stroke="#263238" stroke-linecap="round" stroke-linejoin="round" stroke-width=".75"/><path d="m300.737 176.124-3.417-1.24-3.26 3.151 2.387-9.75 2.878-2.262 1.466.928 6.552-.249 5.094.413 2.426-.749 2.59 2.59-5.765 11.021-2.418-4.173-5.335.663-3.198-.343Z" fill="#fff"/><path d="m300.737 176.124-3.417-1.24-3.26 3.151 2.387-9.75 2.878-2.262 1.466.928 6.552-.249 5.094.413 2.426-.749 2.59 2.59-5.765 11.021-2.418-4.173-5.335.663-3.198-.343Z" fill="#fff" opacity=".5"/><path d="m300.737 176.124-3.417-1.24-3.26 3.151 2.387-9.75 2.878-2.262 1.466.928 6.552-.249 5.094.413 2.426-.749 2.59 2.59-5.765 11.021-2.418-4.173-5.335.663-3.198-.343Z" stroke="#263238" stroke-linecap="round" stroke-linejoin="round"/><path d="m312.086 168.925-.78-11.92-7.535 1.335-1.549 5.6-1.56 4.852-.74.078 2.052 11.138 10.873-10.92-.75-.163Z" fill="#858585"/><path d="M293.561 157.833c0 3.026.468 9.797 4.625 10.585 4.306.819 9.243-4.08 11.014-6.038a5.178 5.178 0 0 0 1.021-1.669l.944-2.5a3.235 3.235 0 0 0 1.779-.37h-19.383Z" fill="#263238" stroke="#263238" stroke-linecap="round" stroke-linejoin="round" stroke-width=".5"/><path d="m312.086 168.925-.78-11.92-7.535 1.335-1.549 5.6-1.56 4.852-.74.078 2.052 11.138 10.873-10.92-.75-.163Z" stroke="#263238" stroke-linecap="round" stroke-linejoin="round"/><path d="M298.584 142.529s-3.565-2.714-1.817-4.85c.912-1.11 2.098.35 2.098.35s-.632-3.401 1.903-3.9c2.34-.437 2.246 2.246 2.246 2.246s1.21-2.3 3.323-1.786c1.685.406 1.038 2.792 1.038 2.792s2.246-2.792 4.57-1.56c2.005 1.053.35 3.58.35 3.58s2.388-.842 3.722.5c1.334 1.34 0 3.12 0 3.12s2.63 0 2.746 1.965c.117 1.966-2.036 2.34-2.036 2.34s3.042.983 3.065 3.37c.024 2.387-2.012 1.622-2.012 1.622s1.263 2.247.21 3.44a1.264 1.264 0 0 1-1.021.515 1.274 1.274 0 0 1-1.022-.515s1.318 2.832-.35 3.658c-1.195.585-1.897-.85-1.897-.85s-1.006 2.45-2.223.952c-1.216-1.498-7.254-13.034-7.254-13.034l-5.64-3.955Z" fill="#263238" stroke="#263238" stroke-linecap="round" stroke-linejoin="round" stroke-width=".75"/><path d="m297.554 142.639-2.246 4.68a3.67 3.67 0 0 0-.35 1.55v1.467l-1.241 3.12a3.65 3.65 0 0 0-.156.5c-.398 1.661-2.293 10.584 2.34 12.401 4.09 1.607 9.85-2.27 11.96-3.86a5.117 5.117 0 0 0 1.31-1.458l1.41-2.278a2.948 2.948 0 0 0 3.27-1.147c1.257-1.8 2.707-2.776.984-4.4-1.723-1.62-3.314.976-3.314.976l.234-4.578-1.997-3.51-.102-2.208s-6.536-.725-10.92-3.12l-1.17 1.857Z" fill="#fff" stroke="#263238" stroke-linecap="round" stroke-linejoin="round" stroke-width=".75"/><path d="m297.554 142.639-2.246 4.68a3.67 3.67 0 0 0-.35 1.55v1.467l-1.241 3.12a3.65 3.65 0 0 0-.156.5c-.398 1.661-2.293 10.584 2.34 12.401 4.09 1.607 9.85-2.27 11.96-3.86a5.117 5.117 0 0 0 1.31-1.458l1.41-2.278a2.948 2.948 0 0 0 3.27-1.147c1.257-1.8 2.707-2.776.984-4.4-1.723-1.62-3.314.976-3.314.976l.234-4.578-1.997-3.51-.102-2.208s-6.536-.725-10.92-3.12l-1.17 1.857Z" fill="#858585" stroke="#263238" stroke-linecap="round" stroke-linejoin="round"/><path d="M301.532 158.621c-1.264 2.441-2.98 2.036-4.056 1.427" stroke="#263238" stroke-linecap="round" stroke-linejoin="round" stroke-width=".75"/><path d="M301.555 153.075c-.17.554-.522.936-.779.858-.258-.078-.344-.6-.172-1.154.172-.554.523-.944.78-.858.257.085.343.6.17 1.154Zm-5.21-1.615c-.172.562-.523.944-.78.858-.257-.085-.343-.6-.172-1.154.172-.554.531-.936.78-.85.25.086.344.593.172 1.146Z" fill="#263238"/><path d="M295.971 147.857a1.55 1.55 0 0 1 1.7.608c.122.176.207.375.25.585m2.535.936s1.817-1.91 3.042.117m-5.538 1.849a4.492 4.492 0 0 1-2.886 3.268l1.419 2.254" stroke="#263238" stroke-linecap="round" stroke-linejoin="round" stroke-width=".75"/><path d="m307.016 241.379-.398 2.41a1.561 1.561 0 0 0 1.256 1.755l25.014 4.103a1.562 1.562 0 0 0 1.755-1.256l.39-2.41-28.017-4.602Z" fill="#fff" stroke="#263238" stroke-linecap="round" stroke-linejoin="round" stroke-width=".75"/><path d="m336.154 230.793-25.3-4.152a1.38 1.38 0 0 0-1.586 1.14l-2.508 15.288a1.38 1.38 0 0 0 1.14 1.585l25.3 4.153a1.38 1.38 0 0 0 1.585-1.14l2.508-15.279a1.382 1.382 0 0 0-1.14-1.587Z" fill="#fff"/><path d="m336.154 230.793-25.3-4.152a1.38 1.38 0 0 0-1.586 1.14l-2.508 15.288a1.38 1.38 0 0 0 1.14 1.585l25.3 4.153a1.38 1.38 0 0 0 1.585-1.14l2.508-15.279a1.382 1.382 0 0 0-1.14-1.587Z" fill="#fff" opacity=".5"/><path d="m336.154 230.793-25.3-4.152a1.38 1.38 0 0 0-1.586 1.14l-2.508 15.288a1.38 1.38 0 0 0 1.14 1.585l25.3 4.153a1.38 1.38 0 0 0 1.585-1.14l2.508-15.279a1.382 1.382 0 0 0-1.14-1.587Z" stroke="#263238" stroke-linecap="round" stroke-linejoin="round"/><path d="m326.391 233.641-1.381 4.68-4.68 3.346a55.052 55.052 0 0 1-2.34 6.014.739.739 0 0 0 .258.976.74.74 0 0 0 .35.108c.648 0 1.405-.304 1.818-1.56 0 0 .18 2.465 1.701.96 0 0 .928 2.387 2.378.507 0 0 3.362.5 3.9-1.927.54-2.426 1.334-6.7 1.334-6.7l2.137-5.015-5.475-1.39Z" fill="#858585" stroke="#263238" stroke-linecap="round" stroke-linejoin="round"/><path d="m320.385 246.246.53-3.611m.305 3.845s.366 1.193 1.193.998c.827-.195 2.005.726 4.58-.358" stroke="#263238" stroke-linecap="round" stroke-linejoin="round" stroke-width=".75"/><path d="M328.746 175.009s11.7 32.51 11.482 37.26c-.218 4.75-8.54 25.413-8.54 25.413l-6.428-2.044 4.29-24.235-3.846-16.84s-.873-12.347 3.042-19.554Z" fill="#fff" stroke="#263238" stroke-linecap="round" stroke-linejoin="round"/><path d="M330.993 210.865a3.641 3.641 0 0 1 3.073-.647" stroke="#263238" stroke-linecap="round" stroke-linejoin="round" stroke-width=".75"/><path d="M323.388 236.153a3.184 3.184 0 0 1-.515-1.03 1.777 1.777 0 0 0-.32 3.533 1.784 1.784 0 0 0 2.052-1.466 2.667 2.667 0 0 1-1.217-1.037ZM95.113 167.536l1.42 6.997-15.772.663 2.738-19.39 10.624 1.23.99 10.5Z" fill="#fff"/><path d="m102.18 156.92-13.19 3.9c.165 1.512.478 3.004.936 4.454.78 2.247 5.53 6.24 8.58 6.193 3.05-.046 3.393-9.765 3.393-9.765l1.84-1.022a.856.856 0 0 0 .416-.568.857.857 0 0 0-.15-.688l-1.825-2.504Z" fill="#263238" stroke="#263238" stroke-linecap="round" stroke-linejoin="round" stroke-width=".75"/><path d="m95.113 167.536 1.42 6.997-15.772.663 2.738-19.39 10.624 1.23.99 10.5Z" stroke="#263238" stroke-linecap="round" stroke-linejoin="round"/><path d="M95.839 142.888s3.83.78 3.44-3.377c-.39-4.158-7.528-1.615-11.248-1.147-3.72.468-15.73 4.953-11.48 12.036 0 0-2.5 3.993 6.52 10.693 0 0 4.283-2.012 6.63.93l1.834-3.574 4.68-8.221-.365-7.34Z" fill="#263238" stroke="#263238" stroke-linecap="round" stroke-linejoin="round"/><path d="M95.558 142.264s3.666 2.044 5.772-.515c0-.01.234 5.46-5.772.51Z" fill="#263238" stroke="#263238" stroke-linecap="round" stroke-linejoin="round"/><path d="M95.94 141.695s5.46 5.748 5.273 9.687v3.596l2.886 3.245a.788.788 0 0 1 .1.958.78.78 0 0 1-.242.243l-1.677 1.162s.493 9.204-2.394 9.532c-2.885.328-7.69-3.12-8.65-5.148a28.2 28.2 0 0 1-1.56-5.764 4.362 4.362 0 0 1-3.19-3.697c-.335-3.027 2.715-2.94 3.502-.96l.64 1.615 1.98-.07s-1.13-2.855-.46-3.698c.67-.842 3.308-2.893 2.099-4.85-1.21-1.96-.803-5.29 1.693-5.85Z" fill="#fff" stroke="#263238" stroke-linecap="round" stroke-linejoin="round"/><path d="M99.06 162.388a2.208 2.208 0 0 0 2.34 1.084" stroke="#263238" stroke-linecap="round" stroke-linejoin="round" stroke-width=".75"/><path d="M97.624 151.406s1.24-1.724 2.42-.148" stroke="#263238" stroke-linecap="round" stroke-linejoin="round"/><path d="M99.583 155.002c0 .538-.21.982-.5.99-.288.008-.538-.42-.553-.96-.016-.537.21-.982.499-.99.288-.008.538.398.554.96Z" fill="#263238"/><path d="m74.568 327.787-2.278 19.602 6.778 1.045 3.736-19.375-8.236-1.272Z" fill="#fff" stroke="#263238" stroke-linecap="round" stroke-linejoin="round"/><path d="M71.377 241.176s.273 11.357 4.283 19.344l.912 30.14-4.625 48.562 10.288.983 9.36-50.794 3.12-46.02-23.338-2.215Z" fill="#fff" stroke="#263238" stroke-linecap="round" stroke-linejoin="round"/><path d="m93.264 265.52-.858-5.406-3.9-17.01-.717-.368-16.38-1.56s0 1.864.366 4.618l8.089 4.586a27.05 27.05 0 0 0 1.926 8.385 1.475 1.475 0 0 1-1.482 2.036c-.834-.063-1.56 0-1.56.546 0 1.263 6.1 5.343 6.1 5.343s6.154 19.89 5.936 27.237l.834-4.524 1.646-23.883Z" fill="#000" opacity=".2"/><path d="m95.253 329.074.741 19.719h6.857l.733-19.719h-8.33Z" fill="#fff" stroke="#263238" stroke-linecap="round" stroke-linejoin="round"/><path d="M113.771 351.569a42.65 42.65 0 0 1-6.584-2.62c-1.014-.632-2.433-2.7-3.478-3.284a1.75 1.75 0 0 0-1.39 0c-.498.406-.521 2.52-.521 2.52s-.882-2.153-1.521-2.52c-.89-.5-3.308-.647-4.095 0-1.31 1.069-1.787 4.781-2.044 6.45-.062.367 0 2.395 0 2.395h21.06v-.928a2.117 2.117 0 0 0-1.427-2.013v0Z" fill="#263238" stroke="#263238" stroke-linecap="round" stroke-linejoin="round"/><path d="m109.598 242.112-1.685 45.56-2.816 52.018H94.38s-2.246-39.928-1.685-51.48l-5.624-26.715s-5.904-7.878-4.5-17.433l27.027-1.95Z" fill="#fff" stroke="#263238" stroke-linecap="round" stroke-linejoin="round"/><path d="m93.428 335.821.351 6.256h11.74l.912-6.256H93.428Zm-22.339-.538-.242 6.256 11.685 1.115 1.505-6.14-12.948-1.23Zm56.277-123.162-16.216-10.312 17.09-17.089 16.224 10.311-17.098 17.09Z" fill="#fff" stroke="#263238" stroke-linecap="round" stroke-linejoin="round"/><path d="m128.294 208.595-13.042-8.29 13.744-13.745 13.042 8.292-13.744 13.743Z" fill="#fff" stroke="#263238" stroke-linecap="round" stroke-linejoin="round" stroke-width=".75"/><path d="m129.246 194.36 2.277-2.277-2.925-1.857-2.277 2.27 2.925 1.864Zm-3.533 3.542 2.277-2.278-2.933-1.864-2.27 2.277 2.926 1.865Zm-3.659 3.658 2.27-2.278-2.925-1.864-2.277 2.278 2.932 1.864Z" stroke="#263238" stroke-linecap="round" stroke-linejoin="round" stroke-width=".75"/><path d="m134.823 187.379-2.153 2.161a.962.962 0 0 0 .164 1.49l3.12 2.004a1.795 1.795 0 0 0 2.23-.24l1.99-1.998-5.35-3.417Zm-57.704-13.314 2.816-6.186s16.31-1.825 20.662 11.81l-23.478-5.624Zm-9.26 5.273s-4.024 30.833-2.955 41.76c.842 8.643 6.536 15.96 6.536 15.96l8.44-3.308-4.29-12.651s1.334-22.776 2.597-28.08L67.86 179.338Z" fill="#858585" stroke="#263238" stroke-linecap="round" stroke-linejoin="round"/><path d="m68.999 235.544 2.379 2.847 9.75-3.798-1.264-3.799L69 235.544Z" fill="#858585" stroke="#263238" stroke-linecap="round" stroke-linejoin="round"/><path d="M67.86 179.338s-1.272 17.713 2.34 30.162c3.611 12.45 0 32.893 0 32.893s16.621 10.756 42.12 2.527c0 0-3.159-60.528-7.379-63.898-4.21-3.369-28.03-16.23-37.08-1.684Z" fill="#858585" stroke="#263238" stroke-linecap="round" stroke-linejoin="round"/><path d="M112.32 244.92s-1.084-20.748-2.824-38.626c-3.689-8.954-9.718-20.88-10.038-4.134-.468 24.219 14.438 22.792 2.628 27.012a19.202 19.202 0 0 1-16.286-1.264.969.969 0 0 0-1.408.85.968.968 0 0 0 .207.609c2.964 3.767 7.465 6.115 10.92 7.464a1.518 1.518 0 0 1 .964 1.575 1.517 1.517 0 0 1-1.276 1.335c-11.123 1.646-19.843-4.267-23.845-7.707-.468 5.96-1.24 10.36-1.24 10.36 0-.001 16.7 10.755 42.198 2.526Z" fill="#000" opacity=".2"/><path d="M104.957 181.03a9.92 9.92 0 0 1 5.694 7.691c.842 5.803 6.24 23.626 6.24 23.626l1.8-1.162a7.463 7.463 0 0 1 4.308 7.995s-4.383 8.58-9.173 6.965c-4.92-1.67-7.675-5.694-10.14-12.277-1.302-3.51-5.062-14.087-5.062-14.087" fill="#858585"/><path d="M104.957 181.03a9.92 9.92 0 0 1 5.694 7.691c.842 5.803 6.24 23.626 6.24 23.626l1.8-1.162a7.463 7.463 0 0 1 4.308 7.995s-4.383 8.58-9.173 6.965c-4.92-1.67-7.675-5.694-10.14-12.277-1.302-3.51-5.062-14.087-5.062-14.087" stroke="#263238" stroke-linecap="round" stroke-linejoin="round"/><path d="M119.043 217.511c.029.458.008.92-.062 1.373m-3.159 2.215s1.474-2.34 1.264-7.387a4.68 4.68 0 0 1 1.56 2.098" stroke="#263238" stroke-linecap="round" stroke-linejoin="round" stroke-width=".75"/><path d="m119.862 210.694 5.624-4.01a7.104 7.104 0 0 1 4.992-5.272s2.598-4.29 4.072-3.79c1.474.498-1.755 2.245-2.036 4.492l1.193 1.599s3.9-.687 4.852-1.95c0 0-.21 2.675-1.755 3.12 0 0 0 2.035-1.053 1.965l-7.738 2.184-4.5 8.4-3.651-6.738Z" fill="#fff" stroke="#263238" stroke-linecap="round" stroke-linejoin="round"/><path d="M96.837 230.194a17.17 17.17 0 0 0 2.636-.453m-24.742-12.33s8.292 12.69 20.28 12.86" stroke="#263238" stroke-linecap="round" stroke-linejoin="round" stroke-width=".75"/><path d="M117.437 210.834s5.865 4.43 5.304 9.773l2.113-4.048s-.07-3.408-4.92-7.02l-2.497 1.295Z" fill="#858585" stroke="#263238" stroke-linecap="round" stroke-linejoin="round"/><path d="M94.138 354.51h21.06v-.928c0-.228-.037-.455-.109-.67H94.107c0 .71.031 1.598.031 1.598Z" fill="#fff" stroke="#263238" stroke-linecap="round" stroke-linejoin="round" stroke-width=".75"/><path d="M89.7 351.569a42.666 42.666 0 0 1-6.583-2.62c-1.014-.632-2.434-2.7-3.471-3.284a1.765 1.765 0 0 0-1.397 0c-.499.406-.522 2.52-.522 2.52s-.874-2.153-1.521-2.52c-.89-.5-3.307-.647-4.095 0-1.31 1.069-1.786 4.781-2.044 6.45-.062.367 0 2.395 0 2.395h21.06v-.928a2.12 2.12 0 0 0-1.427-2.013v0Z" fill="#263238" stroke="#263238" stroke-linecap="round" stroke-linejoin="round"/><path d="M70.052 354.51h21.06v-.928c0-.228-.037-.455-.11-.67h-20.98c0 .71.032 1.598.032 1.598Z" fill="#fff" stroke="#263238" stroke-linecap="round" stroke-linejoin="round" stroke-width=".75"/><path d="M101.119 288.514s-2.239 3.86-5.866 2.387m-9.742-1.03s-4.017 3.432-7.34 1.03" stroke="#263238" stroke-linecap="round" stroke-linejoin="round" stroke-width=".75"/><path d="m127.428 189.953.562 2.793h4.976l-4.048-.944.195-1.903-1.685.054Z" fill="#fff"/></svg>