<?xml version="1.0" encoding="utf-8"?>
<!-- Generator: Adobe Illustrator 25.2.0, SVG Export Plug-In . SVG Version: 6.00 Build 0)  -->
<svg version="1.1" id="Layer_1" xmlns="http://www.w3.org/2000/svg" xmlns:xlink="http://www.w3.org/1999/xlink" x="0px" y="0px"
	 viewBox="0 0 42.4 46.3" style="enable-background:new 0 0 42.4 46.3;" xml:space="preserve">
<g>
	<path d="M25,33.4c2.8-0.7,5.2-2.3,7-4.5c2.2-2.8,3.2-6.2,2.7-9.7c-0.4-3.5-2.2-6.6-5-8.8c-2.7-2.1-6.1-3-9.5-2.6
		c-3.4,0.4-6.5,2.1-8.6,4.7c-1.8,2.3-2.8,5-2.9,8c-0.1,4.7-1.7,9.3-4.6,13l-3.1,4c-1.4,1.8-1.1,4.3,0.7,5.7l3,2.4
		c1.8,1.4,4.3,1.1,5.7-0.7l3.1-4C16.3,37.2,20.3,34.6,25,33.4z M10.3,20.5c0.1-2.5,0.9-4.9,2.5-6.9c3.9-4.8,11-5.6,15.8-1.9
		c2.4,1.9,4,4.6,4.4,7.6c0.4,3.1-0.5,6.1-2.4,8.5c-1.6,2-3.7,3.3-6.1,4c-4.9,1.3-9.2,4-12.3,7.8l-6.7-5.3
		C8.5,30.3,10.2,25.5,10.3,20.5z M2.5,38L3,37.4l6.1,6.1l-0.2,0.2c-0.1,0.1-0.2,0.2-0.3,0.3L2.5,38z M4,36.1l0.5-0.6l6.7,5.3
		l-1.1,1.4L4,36.1z M2.6,41.8c-0.7-0.6-1-1.4-0.9-2.3l5.1,5.1c-0.5,0-0.9-0.2-1.3-0.5L2.6,41.8L2.6,41.8z"/>
	<path d="M14.4,16.5c0.2-0.4,0.5-0.8,0.8-1.1c0.3-0.4,0.2-0.9-0.1-1.2c-0.4-0.3-0.9-0.2-1.2,0.1c-0.3,0.4-0.6,0.9-0.9,1.3
		c-0.2,0.4-0.1,0.8,0.2,1.1c0,0,0.1,0,0.1,0.1C13.7,17.1,14.2,16.9,14.4,16.5z"/>
	<path d="M10.4,29.6c0.1,0.1,0.1,0.1,0.2,0.1c0.4,0.2,0.9-0.1,1.1-0.5c1-2.8,1.6-5.7,1.6-8.7c0-0.5,0.1-1,0.2-1.5
		c0.1-0.5-0.2-0.9-0.7-1c-0.5-0.1-0.9,0.2-1,0.7c-0.1,0.6-0.2,1.2-0.2,1.7c-0.1,2.8-0.6,5.5-1.5,8.1C10,29,10.1,29.4,10.4,29.6z"/>
	<path d="M26.8,28.4c-0.2-0.4-0.7-0.6-1.1-0.3c-0.6,0.3-1.2,0.6-1.9,0.7c-0.4,0.1-0.7,0.6-0.6,1c0,0.2,0.2,0.3,0.3,0.4
		c0.2,0.2,0.5,0.2,0.7,0.2c0.8-0.2,1.6-0.5,2.3-0.9C26.9,29.3,27,28.8,26.8,28.4z"/>
	<path d="M26.9,14.1c3.6,2.9,4.2,8.2,1.4,11.8c-0.2,0.2-0.3,0.4-0.5,0.6c-0.3,0.3-0.3,0.9,0,1.2c0,0,0,0,0.1,0.1
		c0.3,0.3,0.8,0.2,1.1-0.1c0.2-0.2,0.4-0.5,0.6-0.7c3.4-4.3,2.7-10.7-1.6-14.1c-0.4-0.3-0.9-0.2-1.2,0.1
		C26.5,13.3,26.5,13.9,26.9,14.1z"/>
	<path d="M30.7,9.3c0.4,0.3,0.9,0.2,1.2-0.1l2.9-3.7c0.3-0.4,0.2-0.9-0.1-1.2c-0.4-0.3-0.9-0.2-1.2,0.1l-2.9,3.7
		C30.3,8.5,30.4,9,30.7,9.3z"/>
	<path d="M23.1,5.4c0,0.3,0.1,0.6,0.3,0.8c0.1,0.1,0.2,0.1,0.4,0.2c0.5,0.1,0.9-0.2,1-0.7L25.4,1c0.1-0.5-0.2-0.9-0.7-1
		c-0.5-0.1-0.9,0.2-1,0.7L23.1,5.4z"/>
	<path d="M29.8,39.3l-1.7-4.4c-0.2-0.4-0.7-0.6-1.1-0.5c-0.4,0.2-0.6,0.7-0.5,1.1l1.7,4.4c0.1,0.1,0.1,0.3,0.3,0.3
		c0.2,0.2,0.5,0.2,0.8,0.1C29.8,40.2,30,39.7,29.8,39.3z"/>
	<path d="M13.4,2.3l1.7,4.4c0.1,0.1,0.1,0.3,0.3,0.3c0.2,0.2,0.5,0.2,0.8,0.1c0.4-0.2,0.6-0.7,0.5-1.1L15,1.7
		c-0.2-0.4-0.7-0.6-1.1-0.5C13.4,1.4,13.2,1.9,13.4,2.3z"/>
	<path d="M37.9,32.7l-3.7-2.9c-0.4-0.3-0.9-0.2-1.2,0.1c-0.3,0.4-0.2,0.9,0.1,1.2l3.7,2.9c0.4,0.3,0.9,0.2,1.2-0.1
		C38.4,33.5,38.3,33,37.9,32.7z"/>
	<path d="M10.1,11.7c0.3-0.4,0.2-0.9-0.1-1.2L6.3,7.6C5.9,7.3,5.4,7.4,5.1,7.7C4.8,8.1,4.9,8.6,5.3,8.9l3.7,2.9
		C9.3,12.1,9.8,12.1,10.1,11.7z"/>
	<path d="M36.4,23.8c0.1,0.1,0.2,0.1,0.4,0.2l4.6,0.7c0.5,0.1,0.9-0.2,1-0.7c0.1-0.5-0.2-0.9-0.7-1l-4.6-0.7c-0.5-0.1-0.9,0.2-1,0.7
		C36.1,23.3,36.2,23.6,36.4,23.8z"/>
	<path d="M6.4,17.7L1.8,17c-0.5-0.1-0.9,0.2-1,0.7c0,0.3,0.1,0.6,0.3,0.8c0.1,0.1,0.2,0.1,0.4,0.2l4.6,0.7c0.5,0.1,0.9-0.2,1-0.7
		C7.2,18.2,6.8,17.8,6.4,17.7z"/>
	<path d="M35.3,15.4c0.1,0.1,0.1,0.3,0.3,0.3c0.2,0.2,0.5,0.2,0.8,0.1l4.4-1.7c0.4-0.2,0.6-0.7,0.5-1.1c-0.2-0.4-0.7-0.6-1.1-0.5
		l-4.4,1.7C35.3,14.5,35.1,15,35.3,15.4z"/>
</g>
</svg>
