<?xml version="1.0" encoding="utf-8"?>
<!-- Generator: Adobe Illustrator 25.2.0, SVG Export Plug-In . SVG Version: 6.00 Build 0)  -->
<svg version="1.1" id="Layer_1" xmlns="http://www.w3.org/2000/svg" xmlns:xlink="http://www.w3.org/1999/xlink" x="0px" y="0px"
	 viewBox="0 0 42.4 24" style="enable-background:new 0 0 42.4 24;" xml:space="preserve">
<style type="text/css">
	.st0{fill:#39515E;}
</style>
<path class="st0" d="M1,0h40.4c0.6,0,1,0.4,1,1v2.2c0,0.6-0.4,1-1,1H1c-0.6,0-1-0.4-1-1V1C0,0.4,0.4,0,1,0z"/>
<path class="st0" d="M1,9.9h40.4c0.6,0,1,0.4,1,1v2.2c0,0.6-0.4,1-1,1H1c-0.6,0-1-0.4-1-1v-2.2C0,10.3,0.4,9.9,1,9.9z"/>
<path class="st0" d="M1,19.8h28c0.6,0,1,0.4,1,1V23c0,0.6-0.4,1-1,1H1c-0.6,0-1-0.4-1-1v-2.2C0,20.2,0.4,19.8,1,19.8z"/>
</svg>
