<svg xmlns="http://www.w3.org/2000/svg" fill="none" width="311" height="311" viewBox="0 0 311 311"><path d="M249.857 270.11a77.244 77.244 0 0 0 23.786-27.07c35.553-66.61 27.523-164.83-40.947-206.958C201.05 16.614 155.5 4.292 121.29 24.29 93.549 40.505 76.543 71.04 62.473 98.817c-8.838 17.497-16.122 36.275-27.02 52.62-14.131 21.199-29.687 49.513-13.982 74.144 21.403 33.55 61.827 48.87 98.482 58.96 39.77 10.94 84.492 12.495 121.227-8.852a115.342 115.342 0 0 0 8.677-5.58Z" fill="#C8C8C8"/><path d="M249.857 270.11a77.244 77.244 0 0 0 23.786-27.07c35.553-66.61 27.523-164.83-40.947-206.958C201.05 16.614 155.5 4.292 121.29 24.29 93.549 40.505 76.543 71.04 62.473 98.817c-8.838 17.497-16.122 36.275-27.02 52.62-14.131 21.199-29.687 49.513-13.982 74.144 21.403 33.55 61.827 48.87 98.482 58.96 39.77 10.94 84.492 12.495 121.227-8.852a115.342 115.342 0 0 0 8.677-5.58Z" fill="#fff" opacity=".7"/><g stroke="#000" stroke-miterlimit="10" opacity=".3"><path d="M281.144 50.052h-64.066v84.138h64.066V50.052Z" opacity=".3"/><path d="M269.388 65.49h-40.554v53.262h40.554V65.49Z" opacity=".3"/></g><path d="M202.069 40.623H32.449v150.984h169.62V40.623Z" fill="#263238" stroke="#263238" stroke-miterlimit="10"/><path d="M198.853 36.947H29.233V187.93h169.62V36.947Z" fill="#fff" stroke="#263238" stroke-linecap="round" stroke-linejoin="round"/><path d="M165.825 97.878h8.434v-8.434h-8.434v8.434Zm11.041 0h8.434v-8.434h-8.434v8.434Z" fill="#fff" stroke="#263238" stroke-linecap="round" stroke-linejoin="round"/><path d="M162.454 94.17h-42.85" stroke="#263238" stroke-linecap="round" stroke-linejoin="round"/><path d="M165.825 117.788h8.434v-8.434h-8.434v8.434Zm11.041 0h8.434v-8.434h-8.434v8.434Z" fill="#fff" stroke="#263238" stroke-linecap="round" stroke-linejoin="round"/><path d="M162.454 114.075h-42.85" stroke="#263238" stroke-linecap="round" stroke-linejoin="round"/><path d="M165.825 137.698h8.434v-8.434h-8.434v8.434Zm11.041 0h8.434v-8.434h-8.434v8.434Z" fill="#fff" stroke="#263238" stroke-linecap="round" stroke-linejoin="round"/><path d="M162.454 133.985h-42.85" stroke="#263238" stroke-linecap="round" stroke-linejoin="round"/><path d="M85.19 97.878h8.434v-8.434h-8.435v8.434Zm11.046 0h8.434v-8.434h-8.434v8.434Z" fill="#fff" stroke="#263238" stroke-linecap="round" stroke-linejoin="round"/><path d="M81.818 94.17h-42.85" stroke="#263238" stroke-linecap="round" stroke-linejoin="round"/><path d="M85.19 117.788h8.434v-8.434h-8.435v8.434Zm11.046 0h8.434v-8.434h-8.434v8.434Z" fill="#fff" stroke="#263238" stroke-linecap="round" stroke-linejoin="round"/><path d="M81.818 114.075h-42.85" stroke="#263238" stroke-linecap="round" stroke-linejoin="round"/><path d="M85.19 137.698h8.434v-8.434h-8.435v8.434Zm11.046 0h8.434v-8.434h-8.434v8.434Z" fill="#fff" stroke="#263238" stroke-linecap="round" stroke-linejoin="round"/><path d="M81.818 133.985h-42.85" stroke="#263238" stroke-linecap="round" stroke-linejoin="round"/><path d="M50.923 166.696H41.63v9.293h9.293v-9.293Zm37.923 0h-9.292v9.293h9.292v-9.293Zm39.429 0h-9.293v9.293h9.293v-9.293Z" fill="#fff" stroke="#263238" stroke-linecap="round" stroke-linejoin="round"/><path d="m99.003 92.267 1.437 2.886 6.96-6.723m-8.397 23.524 1.437 2.88 6.96-6.724M87 132.598l1.442 2.88 6.96-6.724m83.77-36.723 1.438 2.891 6.96-6.725M167.554 112.2l1.437 2.88 6.96-6.718m-8.397 24.067 1.437 2.88 6.96-6.718" stroke="#263238" stroke-linecap="round" stroke-linejoin="round" stroke-width="2"/><path d="M198.853 36.947H29.233v23.586h169.62V36.947Z" fill="#fff" stroke="#263238" stroke-linecap="round" stroke-linejoin="round"/><path d="M198.853 36.947h-6.388V187.93h6.388V36.947Z" fill="#DBDBDB" stroke="#263238" stroke-linecap="round" stroke-linejoin="round"/><path d="M198.853 59.638h-6.388v29.14h6.388v-29.14Z" fill="#949494" stroke="#263238" stroke-linecap="round" stroke-linejoin="round"/><path d="M198.853 36.947H29.233v11.47h169.62v-11.47Z" fill="#DBDBDB" stroke="#263238" stroke-linecap="round" stroke-linejoin="round"/><path d="M104.726 40.287h-66.89v4.777h66.89v-4.777Z" fill="#fff" stroke="#263238" stroke-linecap="round" stroke-linejoin="round"/><path d="M188.839 40.51h5.872m-5.872 2.483h5.872m-5.872 2.488h5.872" stroke="#263238" stroke-linecap="round" stroke-linejoin="round"/><path d="M88.486 70.075c0-1.475.777-2.314 2.195-2.314 1.419 0 2.19.84 2.19 2.314v4.776c0 1.469-.771 2.308-2.19 2.308-1.418 0-2.195-.84-2.195-2.308v-4.776Zm1.45 4.87c0 .653.285.902.745.902s.747-.25.747-.902V69.97c0-.66-.286-.908-.746-.908s-.747.251-.747.91v4.975Zm5.155-4.54v6.648h-1.3v-9.186h1.81l1.487 5.498v-5.498h1.287v9.186H96.89l-1.798-6.649Zm4.317-2.538h1.45v7.874h2.394v1.312h-3.826l-.018-9.186Zm4.466 0h1.443v9.186h-1.443v-9.186Zm3.77 2.537v6.65h-1.282v-9.188h1.81l1.486 5.5v-5.499h1.282v9.186h-1.468l-1.829-6.649Zm5.759 1.338h1.984v1.312h-1.984v2.687h2.488v1.312h-3.931v-9.186h3.937v1.312h-2.488l-.006 2.563Zm5.007-3.876h4.46v1.313h-1.512v7.874h-1.443V69.18h-1.505v-1.313Zm6.537 3.876h1.978v1.312h-1.978v2.687h2.488v1.312h-3.937v-9.186h3.937v1.312h-2.488v2.563Zm5.325-3.981c1.405 0 2.127.84 2.127 2.314v.286h-1.362v-.38c0-.659-.262-.908-.722-.908-.46 0-.72.25-.72.908 0 1.866 2.816 2.246 2.816 4.87 0 1.47-.734 2.308-2.152 2.308-1.42 0-2.13-.84-2.13-2.308v-.566h1.361v.66c.001.653.287.89.748.89.46 0 .746-.237.746-.89 0-1.866-2.818-2.246-2.818-4.87-.043-1.475.697-2.314 2.097-2.314Zm2.55.106h4.46v1.312h-1.506v7.874h-1.424V69.18h-1.512l-.018-1.313Zm-83.958 96.59h-1.462l-.248-1.667h-1.748l-.25 1.667h-1.349l1.468-9.187h2.115l1.474 9.187Zm-3.297-2.917h1.394l-.697-4.647-.697 4.647Zm40.611-4.174v.323c0 .935-.286 1.538-.933 1.855.777.3 1.076.997 1.076 1.967v.753c0 1.418-.746 2.177-2.19 2.177h-2.27v-9.18h2.177c1.5 0 2.14.695 2.14 2.095Zm-2.874-.802v2.425h.566c.535 0 .865-.236.865-.97v-.51c0-.66-.224-.95-.734-.95h-.697Zm0 3.732v2.823h.828c.485 0 .746-.224.746-.908v-.796c0-.858-.274-1.119-.927-1.119h-.647Zm42.676.734v1.244c0 1.474-.734 2.313-2.153 2.313-1.418 0-2.152-.839-2.152-2.313v-4.777c0-1.468.734-2.308 2.152-2.308 1.42-.01 2.153.83 2.153 2.3v.894h-1.363v-1.026c0-.66-.292-.908-.752-.908s-.747.25-.747.908v4.976c0 .66.293.896.747.896s.752-.237.752-.896v-1.313h1.363Z" fill="#263238"/><path d="M39.621 150.375h110.25" stroke="#263238" stroke-linecap="round" stroke-linejoin="round"/><path d="M220.704 37.687h12.173V25.515h-12.173v12.172Zm15.942 0h12.172V25.515h-12.172v12.172Z" stroke="#000" stroke-linecap="round" stroke-linejoin="round" opacity=".3"/><path d="m223.322 30.329 2.078 4.155 6.108-6.724" stroke="#000" stroke-linecap="round" stroke-linejoin="round" stroke-width="2" opacity=".3"/><path d="M36.437 216.276h12.172v-12.173H36.437v12.173Zm15.935 0h12.173v-12.173H52.372v12.173Z" stroke="#000" stroke-linecap="round" stroke-linejoin="round" opacity=".3"/><path d="m39.042 208.917 2.078 4.155 6.108-6.724" stroke="#000" stroke-linecap="round" stroke-linejoin="round" stroke-width="2" opacity=".3"/><path d="M94.102 216.276h12.172v-12.173H94.102v12.173Zm15.942 0h12.173v-12.173h-12.173v12.173Z" stroke="#000" stroke-linecap="round" stroke-linejoin="round" opacity=".3"/><path d="m96.714 208.917 2.078 4.155 6.108-6.724" stroke="#000" stroke-linecap="round" stroke-linejoin="round" stroke-width="2" opacity=".3"/><g stroke="#000" stroke-linecap="round" stroke-linejoin="round" opacity=".3"><path d="M112.98 31.602a7.811 7.811 0 0 0 6.466-8.958 7.812 7.812 0 0 0-8.958-6.466 7.811 7.811 0 0 0-6.466 8.959 7.812 7.812 0 0 0 8.958 6.465Z" opacity=".3"/><path d="m113.919 26.715-2.183-2.824v-4.447" opacity=".3"/></g><g opacity=".3"><path d="M257.558 173.737h-1.157l-.2-1.319h-1.405l-.199 1.319h-1.051l1.17-7.284h1.672l1.17 7.284Zm-2.613-2.308h1.1l-.552-3.688-.548 3.688Zm18.903-3.302v.26a1.427 1.427 0 0 1-.734 1.469 1.48 1.48 0 0 1 .852 1.561v.622a1.537 1.537 0 0 1-.448 1.28 1.548 1.548 0 0 1-1.293.433h-1.798v-7.309h1.729c1.182 0 1.692.548 1.692 1.674Zm-2.276-.622v1.928h.448c.423 0 .684-.187.684-.772v-.404c0-.522-.174-.752-.585-.752h-.547Zm0 2.967v2.24h.653c.385 0 .622-.175.622-.717v-.622c0-.67-.224-.883-.74-.883l-.535-.018Zm18.772.578v.964c0 1.169-.58 1.835-1.705 1.835-1.126-.01-1.71-.67-1.71-1.84v-3.79c-.01-1.17.58-1.838 1.71-1.838 1.12 0 1.7.666 1.7 1.835v.71h-1.088v-.81c0-.522-.23-.715-.59-.715s-.623.193-.623.715v3.938c0 .523.23.711.622.711.39 0 .59-.188.59-.71v-1.012h1.083Z" fill="#000" opacity=".3"/><path d="M259.834 177.711h-8.85v8.85h8.85v-8.85Zm16.465 0h-8.85v8.85h8.85v-8.85Zm16.464 0h-8.85v8.85h8.85v-8.85Z" stroke="#000" stroke-miterlimit="10" opacity=".3"/></g><path d="M50.034 280.248H31.305m263.106 0H56.135" stroke="#263238" stroke-miterlimit="10"/><path d="m222.452 280.037 4.006-60.832 2.948-28.923-8.086-9.025-4.056-2.948s-5.71 4.976-9.76 6.077c-4.048 1.1-7.942 2.214-7.942 2.214s-13.814 25.975-14.928 37.762c-1.113 11.787-2.948 55.45-2.948 55.45l1.536.225h39.23Z" fill="#9E9E9E" stroke="#263238" stroke-miterlimit="10"/><path d="M203.463 229.885s-.691-.355.69-3.912" stroke="#263238" stroke-miterlimit="10"/><path d="M201.839 185.978a119.463 119.463 0 0 1 1.138 14.829s4.15-1.66 7.464-7.464a67.048 67.048 0 0 0 4.715-9.74l-13.317 2.375Z" fill="#263238" stroke="#263238" stroke-miterlimit="10"/><path d="m222.452 280.037 3.602-54.693c-3.533 1.804-10.506 4.783-18.2 4.914-9.218.156-20.632-7.004-20.632-7.004l-2.57 1.008.001.1c-1.107 11.818-2.948 55.45-2.948 55.45l1.536.225h39.21Z" fill="#fff" stroke="#263238" stroke-miterlimit="10"/><path d="M216.456 249.422c0 14.088.485 27.642.622 30.602h27.15c.374-4.391 2.712-31.722 3.913-41.518 1.312-10.705 9.921-26.64 9.921-32.344 0-5.704 1.747-4.802-6.115-8.95-7.862-4.15-25.203-13.106-27.604-14.2-2.4-1.096-5.026-3.733-5.026-3.733s.87 5.461.622 20.308c-.25 14.847-3.49 33.906-3.49 49.835Z" fill="#fff"/><path d="M219.317 179.335c.324 2.584.51 5.184.56 7.787v-7.258c-.348-.318-.56-.529-.56-.529Zm35.703 35.547v1.866c.212-.566.423-1.113.622-1.654v-.224h.081c.08-.205.155-.417.23-.622h-.311v-7.744h2.407v-.622h-2.407v-6.631c-.193-.118-.398-.23-.622-.354v6.985h-6.531v-7.775h5.05l-1.18-.622h-3.88v-2.053l-.622-.329v2.363h-6.53v-5.76l-.623-.323v6.083h-6.531v-7.756h3.254l-1.205-.622h-2.047v-1.05l-.622-.325v1.375h-6.53v-4.696c-.218-.112-.423-.218-.622-.311v5.007h-6.47v.622h6.47v7.775h-6.413v.622h6.415v7.775h-6.53v-2.955c-.125 3.036-.35 6.22-.623 9.461v1.866h-.162l-.055.622h.218v7.8h-.933l-.064.622h1.026v7.775h-1.766l-.056.622h1.825v7.775h-2.426l-.037.622h2.488v7.775h-2.755v.622h2.76v7.775h-2.742v.622h2.737v7.775h-2.612v.622h2.6v14.772h.622v-14.79h6.487v14.772h.622v-14.773h6.526v14.773h.623v-14.773h6.53v14.773h.624v-14.773h4.186c0-.205 0-.41.056-.622h-4.242v-7.756h4.976c0-.205.044-.41.062-.622h-5.038v-7.775h5.747c0-.212.038-.41.063-.622h-5.81v-7.775h6.53v.827l.275-2.382c.087-.697.205-1.418.348-2.158v-4.69h1.163l.187-.626h-1.35v-7.775h4.043c.08-.205.156-.417.236-.622h-4.28v-7.77l6.532-.018Zm-6.531-8.378h6.531v7.775h-6.531v-7.775Zm-22.081 58.138h-6.53v-7.756h6.53v7.756Zm0-8.397h-6.53v-7.775h6.53v7.775Zm0-8.397h-6.53v-7.756h6.53v7.756Zm0-8.397h-6.53v-7.775h6.53v7.775Zm0-8.397h-6.53v-7.756h6.53v7.756Zm0-8.397h-6.53v-7.775h6.53v7.775Zm0-8.397h-6.53v-7.756h6.53v7.756Zm7.153 50.382h-6.52v-7.756h6.53v7.756Zm.011-8.397h-6.53v-7.775h6.53v7.775Zm0-8.397h-6.53v-7.756h6.53v7.756Zm0-8.397h-6.53v-7.775h6.53v7.775Zm0-8.397h-6.53v-7.756h6.53v7.756Zm0-8.397h-6.53v-7.775h6.53v7.775Zm0-8.397h-6.53v-7.756h6.53v7.756Zm0-8.397h-6.53v-7.775h6.53v7.775Zm0-8.397h-6.53v-7.756h6.53v7.756Zm7.152 67.176h-6.531v-7.756h6.53v7.756Zm0-8.397h-6.531v-7.775h6.53v7.775Zm0-8.397h-6.531v-7.756h6.53v7.756Zm0-8.397h-6.531v-7.775h6.53v7.775Zm0-8.397h-6.531v-7.756h6.53v7.756Zm0-8.397h-6.531v-7.775h6.53v7.775Zm0-8.397h-6.531v-7.756h6.53v7.756Zm0-8.397h-6.531v-7.775h6.53v7.775Zm7.153 33.588h-6.53v-7.775h6.53v7.775Zm0-8.397h-6.53v-7.756h6.53v7.756Zm0-8.397h-6.53v-7.775h6.53v7.775Zm0-8.397h-6.53v-7.756h6.53v7.756Zm0-8.397h-6.53v-7.775h6.53v7.775Z" fill="#000" opacity=".2"/><path d="M216.456 249.422c0 14.088.485 27.642.622 30.602h27.15c.374-4.391 2.712-31.722 3.913-41.518 1.312-10.705 9.921-26.64 9.921-32.344 0-5.704 1.747-4.802-6.115-8.95-7.862-4.15-25.203-13.106-27.604-14.2-2.4-1.096-5.026-3.733-5.026-3.733s.87 5.461.622 20.308c-.25 14.847-3.49 33.906-3.49 49.835Z" stroke="#263238" stroke-miterlimit="10"/><path d="M219.317 179.335s.87 5.46.622 20.308c-.05 3.732-.31 7.763-.63 11.918.745-1.027 3.152-4.304 3.73-4.491.653-.218 4.15 3.06 6.985 3.496 2.836.435 3.93.435.876-2.843-3.055-3.278-4.355-12.882-5.46-20.091a27.933 27.933 0 0 0-1.016-4.553h-.074c-2.426-1.119-5.045-3.744-5.045-3.744Z" fill="#263238" stroke="#263238" stroke-miterlimit="10"/><path d="M237.237 246.884c2.01-.914 3.589-1.704 3.589-1.704l.74 5.71s-10.872 4.79-16.95 5.156c-6.076.367-6.63.554-6.63.554l.181-5.524" stroke="#263238" stroke-miterlimit="10"/><path d="M231.794 249.117c1.114-.373 2.42-.902 3.695-1.455m-15.301 2.86c3.18-.08 6.35-.369 9.492-.864m11.886 1.232.367 4.422" stroke="#263238" stroke-miterlimit="10"/><path d="M158.23 280.037h30.553c.07-2.395.952-32.829 1.55-48.36.621-16.173 11.593-40.704 11.593-40.704s1.468-3.46-.087-5.014c-1.555-1.555-5.287-.933-8.086 1.244-2.799 2.177-28.612 13.373-30.167 14.928-1.555 1.555-1.244 6.842-1.866 13.062-.622 6.22-10.885 49.138-10.885 49.138s-2.8.622-3.732 1.244c-.933.622-.933 2.488-.933 2.488s1.244.311 4.976 2.177c3.433 1.717 6.6 8.683 7.084 9.797Z" fill="#fff"/><path d="M197.796 198.088v3.18c.212-.573.417-1.127.622-1.662v-1.518h.585l.242-.622h-.827v-7.756h3.919c.043-.193.093-.404.124-.622h-4.032v-3.906c-.206.03-.41.062-.623.112v3.794h-6.53v-.423l-.623.317v.106h-.21l-1.245.622h1.455v7.775h-6.53v-5.35l-.623.293v5.038h-6.53v-1.984l-.623.293v1.691h-3.613l-1.318.622h4.932v7.794h-6.53v-7.029l-.622.3v6.73h-6.53v-1.568a55.012 55.012 0 0 0-.622 6.842v3.11h-.223l-.055.622h.28v7.787h-1.672l-.131.622h1.804v7.775h-3.49c-.043.205-.092.417-.136.622h3.626v7.775h-5.38c-.05.212-.093.417-.143.622h5.523v7.775h-6.54v-3.42l-.623 2.686v.703h-.16l-.145.622h.305v7.806h-2.127l-.144.622h2.276v7.775h-5.29c-.635.17-1.258.377-1.867.622v3.384c.187.074.392.161.622.267v-3.65h6.525v8.707c.216.311.421.622.62.94v-9.642h6.531v14.773h.622v-14.798h6.531v14.773h.622v-14.773h6.53v14.773h.623v-14.773h6.531v14.773h.622v-14.773h5.107v-.622h-5.107v-7.756h5.368v-.622h-5.368v-7.775h5.636v-.622h-5.636v-7.775h5.915v-.622h-5.915v-7.775h6.22c0-.205 0-.41.031-.622h-6.25v-7.775h6.53v4.597c.162-1.325.367-2.687.622-4.068v-.529h.1c.037-.205.08-.41.118-.622h-.218V214.9h2.084c.056-.204.118-.409.174-.621h-2.258v-7.775h4.665c.076-.205.144-.417.213-.622h-4.877v-7.775l6.531-.02Zm-6.531-8.378h6.531v7.775h-6.531v-7.775Zm-29.234 74.95h-6.53v-7.774h6.54v7.775Zm.01-8.396h-6.54v-7.775h6.531v7.775Zm7.153 8.397h-6.531v-7.775h6.53v7.775Zm0-8.397h-6.531v-7.775h6.53v7.775Zm0-8.397h-6.531v-7.775h6.53v7.775Zm0-8.397h-6.531v-7.775h6.53v7.775Zm0-8.397h-6.531v-7.775h6.53v7.775Zm0-8.397h-6.531V214.9h6.53v7.776Zm0-8.397h-6.531v-7.775h6.53v7.775Zm7.153 50.382h-6.53v-7.775h6.53v7.775Zm0-8.397h-6.53v-7.775h6.53v7.775Zm0-8.397h-6.53v-7.775h6.53v7.775Zm0-8.397h-6.53v-7.775h6.53v7.775Zm0-8.397h-6.53v-7.775h6.53v7.775Zm0-8.397h-6.53V214.9h6.53v7.776Zm0-8.397h-6.53v-7.775h6.53v7.775Zm7.154 50.382h-6.53v-7.775h6.53v7.775Zm0-8.397h-6.53v-7.775h6.53v7.775Zm0-8.397h-6.53v-7.775h6.53v7.775Zm0-8.397h-6.53v-7.775h6.53v7.775Zm0-8.397h-6.53v-7.775h6.53v7.775Zm0-8.397h-6.53V214.9h6.53v7.776Zm0-8.397h-6.53v-7.775h6.53v7.775Zm0-8.397h-6.53v-7.775h6.53v7.775Zm7.154 16.794h-6.531V214.9h6.53v7.776Zm0-8.397h-6.531v-7.775h6.53v7.775Zm0-8.397h-6.531v-7.775h6.53v7.775Z" fill="#000" opacity=".2"/><path d="M158.23 280.037h30.553c.07-2.395.952-32.829 1.55-48.36.621-16.173 11.593-40.704 11.593-40.704s1.468-3.46-.087-5.014c-1.555-1.555-5.287-.933-8.086 1.244-2.799 2.177-28.612 13.373-30.167 14.928-1.555 1.555-1.244 6.842-1.866 13.062-.622 6.22-10.885 49.138-10.885 49.138s-2.8.622-3.732 1.244c-.933.622-.933 2.488-.933 2.488s1.244.311 4.976 2.177c3.433 1.717 6.6 8.683 7.084 9.797Z" stroke="#263238" stroke-miterlimit="10"/><path d="M146.17 268.082s1.244.31 4.976 2.177c3.732 1.866 7.153 9.952 7.153 9.952h6.027c.38-1.132 1.306-5.25-2.917-10.263-4.976-5.909-10.574-5.598-10.574-5.598s-2.8.622-3.732 1.244c-.933.622-.933 2.488-.933 2.488Zm51.912-82.863c-1.337 3.54-4.503 11.544-7.128 15.357-3.421 4.976-9.641 9.02-7.464 10.885 2.177 1.87 8.397-4.04 8.397-4.04s1.555 4.362 1.866 5.606a.46.46 0 0 0 .081.155 195.25 195.25 0 0 1 8.086-22.2s1.468-3.46-.087-5.013c-.802-.807-2.17-1.02-3.75-.74Z" fill="#263238" stroke="#263238" stroke-miterlimit="10"/><path d="M175.367 215.243c.178-1.15.294-2.308.348-3.471m-5.287 69.042s.933-19.904.933-31.411c0-8.29 2.258-22.236 3.526-30.776" stroke="#263238" stroke-miterlimit="10"/><path d="M171.983 245.068s4.976 1.555 7.464 1.866l7.464.933-.566 7.047s-.367-.205-5.965-2.07c-5.598-1.867-9.02-3.422-9.02-3.422" stroke="#263238" stroke-miterlimit="10"/><path d="M186.345 254.896s-.367 13.808-.367 15.674c0 1.866-5.598.622-5.598.622" stroke="#263238" stroke-miterlimit="10"/><path d="M190.811 178.651s5.865 8.434 11.115 12.322c5.25 3.887 9.728-1.555 13.23-7.39 3.502-5.834 5.834-10.113 7.582-15.17 1.748-5.057 0-13.417-6.997-20.03-6.99-6.61-23.34-16.339-27.42-11.282-4.08 5.057-7.97 16.172-5.251 25.67a50.15 50.15 0 0 0 7.75 15.88v.011Z" fill="#9E9E9E" stroke="#263238" stroke-miterlimit="10"/><path d="M188.342 160.507a11.825 11.825 0 0 1 6.786 0" stroke="#263238" stroke-linecap="round" stroke-miterlimit="10" stroke-width="2"/><path d="M193.361 165.713c.187 1.008-.05 1.897-.529 1.984-.479.088-1.007-.659-1.194-1.673-.187-1.014.05-1.897.529-1.984.479-.087 1.007.66 1.194 1.673Zm17.304.268c.181 1.007-.056 1.866-.529 1.984-.472.118-1.007-.66-1.194-1.673-.186-1.014.05-1.897.529-1.985.479-.087 1.008.66 1.194 1.674Z" fill="#263238"/><path d="M197.846 179.696a18.316 18.316 0 0 0 6.997.97c4.087-.193 7.59-3.11 7.59-3.11" stroke="#263238" stroke-miterlimit="10"/><path d="M188.92 141.399s8.64 19.705 9.722 20.246c1.082.54 3.241-5.94 3.241-5.94s2.967 5.393 6.487 7.016c3.52 1.624 4.59-1.076 4.59-1.076a60.346 60.346 0 0 1 5.132 3.24l1.35 1.077 1.349 4.858s-4.05 13.23-2.699 14.853c1.35 1.624 8.907-.54 8.907-.54-.011 0-1.877 2.7.53 2.7s6.75.54 12.957-7.83c6.209-8.375 6.75-21.866 6.75-21.866s2.968 3.235 3.24-.815c.275-4.05-3.506-10.797-3.506-10.797s5.934 5.94 5.4-.268c-.536-6.207-4.05-13.23-5.4-14.847-1.35-1.617-9.455-6.22-9.455-6.22s3.24-.54.815-4.323c-2.426-3.782-11.34-4.858-14.58-4.858s-9.99 1.082-9.99 1.082 4.325-8.372-.265-8.913c-4.591-.54-12.69 8.372-12.69 8.372s-8.085-6.48-10.53-5.13c-2.444 1.35-.808 3.24-.808 3.24s-10.524.808-13.498 5.4c-2.974 4.588.539 7.287.539 7.287s-18.895 12.957-15.928 17.814c2.967 4.858 8.372.274 8.372.274s-7.563 19.438-6.48 20.787c1.08 1.35 6.22-.541 6.22-.541s-.27 15.656 3.78 17.28c4.05 1.623 4.859-1.35 4.859-1.35s2.158 2.158 7.022 2.425c4.864.268 6.475-5.4 6.475-5.4 0 .001-5.4-12.687-5.125-23.212.273-10.524 3.209-14.026 3.209-14.026Z" fill="#263238" stroke="#263238" stroke-miterlimit="10"/><path d="M199.793 164.133s-1.947 10.114-.392 12.254c1.555 2.14 7.003 0 7.389-1.163" fill="#9E9E9E"/><path d="M199.793 164.133s-1.947 10.114-.392 12.254c1.555 2.14 7.003 0 7.389-1.163" stroke="#263238" stroke-miterlimit="10"/><path d="M191.719 170.359c4.242 0 7.681-2.525 7.681-5.641s-3.439-5.642-7.681-5.642c-4.243 0-7.682 2.526-7.682 5.642 0 3.116 3.439 5.641 7.682 5.641Zm18.473-.385c4.243 0 7.682-2.526 7.682-5.642 0-3.115-3.439-5.64-7.682-5.64-4.242 0-7.681 2.525-7.681 5.64 0 3.116 3.439 5.642 7.681 5.642Zm-10.4-5.84s1.555-1.164 2.719.198" stroke="#263238" stroke-miterlimit="10"/><path d="M135.789 271.758s9.765-2.755 12.77-3.253c3.003-.498 9.018 5.007 10.02 8.011 1.001 3.005-.28 3.676-.28 3.676l-20.01-.665-2.51-7.77Z" fill="#9E9E9E" stroke="#263238" stroke-miterlimit="10"/><path d="M139.328 270.788s7.371 2.76 9.212 3.868c1.841 1.108 1.287 3.316.186 4.417a10.399 10.399 0 0 1-4.61 2.214 45.248 45.248 0 0 1-5.155 0c-2.208-.187-4.236.187-6.077.187-1.84 0-7.37-.554-7.37-.554l-1.661-1.107s-3.11.92-5.524 1.866c-2.413.945-1.66-1.107.18-2.582 1.84-1.474 6.45-5.156 7.19-5.523.74-.367 10.133-3.11 10.133-3.11l3.496.324Z" fill="#9E9E9E" stroke="#263238" stroke-miterlimit="10"/><path d="M142.09 271.522s-4.796-2.21-6.083-2.21c-1.288 0-10.5 3.11-11.787 4.05-1.288.94-2.582 9.766-1.661 10.32.921.553 1.661-1.107 1.866-2.208.205-1.1 2.768-7.004 2.768-7.004l-1.866 9.398s.74 1.468 1.474.18c.734-1.287 5.343-10.132 5.71-10.685a6.728 6.728 0 0 1 1.661-1.288s-.92 4.056-1.661 7.924c-.74 3.869-.18 4.976.927 5.157 1.107.18 1.654-2.395 2.208-3.682.553-1.288 2.948-8.665 2.948-8.665" fill="#9E9E9E"/><path d="M142.09 271.522s-4.796-2.21-6.083-2.21c-1.288 0-10.5 3.11-11.787 4.05-1.288.94-2.582 9.766-1.661 10.32.921.553 1.661-1.107 1.866-2.208.205-1.1 2.768-7.004 2.768-7.004l-1.866 9.398s.74 1.468 1.474.18c.734-1.287 5.343-10.132 5.71-10.685a6.728 6.728 0 0 1 1.661-1.288s-.92 4.056-1.661 7.924c-.74 3.869-.18 4.976.927 5.157 1.107.18 1.654-2.395 2.208-3.682.553-1.288 2.948-8.665 2.948-8.665" stroke="#263238" stroke-miterlimit="10"/><path d="M147.414 275.21s-5.524 5.71-6.264 6.998c-.74 1.287-.734 1.474 1.294 1.474s8.291-4.056 8.839-4.61c.547-.553.373-2.207-.92-3.314a3.269 3.269 0 0 0-2.95-.548Zm34.496-.634s-7.37 2.382-9.18 3.732c-1.81 1.349-4.423 2.836-3.857 3.29.566.454 2.382 0 2.948-.454.566-.454 3.173-.908 3.173-.908s3.06-1.816 5.442-3.284c2.382-1.468 4.192-3.06 1.474-2.376Z" fill="#9E9E9E" stroke="#263238" stroke-miterlimit="10"/><path d="M222.595 262.098s-20.526 3.732-27.953 6.339c-7.426 2.606-10.381 4.422-14.094 7.047-3.714 2.625-11.24 7.582-10.12 8.453 1.119.87 5.02-2.183 5.68-2.837.658-.653 5.454-2.618 5.454-2.618l3.209-1.642s-4.833 5.952-6.574 7.464c-1.742 1.511-.566 2.457.746 2.021 1.312-.435 3.788-3.04 3.788-3.04l7.98-5.251c.011 0-3.267 4.59-4.797 5.897-1.53 1.306 1.747 2.407 2.406 1.312.66-1.095 3.93-3.93 3.93-3.93s5.454-2.837 6.767-3.932c1.311-1.095 4.583-4.149 4.583-4.149l24.457 1.966s1.53-.87.66-5.897c-.87-5.026-6.114-7.203-6.114-7.203Z" fill="#9E9E9E" stroke="#263238" stroke-miterlimit="10"/><path d="m239.19 223.447 12.01 29.707-19.437 6.767 5.46 15.942s13.959.037 24.88-.622c10.924-.659 18.587-7.246 16.839-15.102-1.748-7.856-8.298-19.22-13.54-32.761-5.244-13.54-3.62-21.614-6.022-25.763-2.401-4.15-9.174-5.243-9.174-5.243l-3.732-.622" fill="#fff"/><path d="M277.101 268.399v-3.11h1.623c.07-.205.125-.41.174-.622H277.1v-7.78h.933c-.07-.2-.143-.411-.212-.623h-.721v-1.897c-.2-.516-.405-1.045-.622-1.574v3.471h-6.531v-7.775h4.69c-.094-.205-.18-.41-.274-.622h-4.416v-7.775h.87c-.1-.205-.192-.41-.286-.622h-.584v-1.3c-.206-.46-.417-.92-.622-1.387v2.687h-6.531v-7.775h4.354c-.087-.205-.174-.41-.255-.622h-4.1v-7.775h1.164c-.07-.205-.131-.417-.193-.622h-.97v-3.545a72.85 72.85 0 0 1-.622-2.824v6.369h-6.531V214.9h6.27l-.112-.621h-6.158v-7.775h5.106l-.093-.622h-5.013v-7.626a17.85 17.85 0 0 0-1.68-.79h-5.47v-1.393l-.62-.112v1.505h-1.832l-.168.622h2.003v7.794h-4.043l-.162.622h4.21v7.775h-6.263l-.167.622h6.425v7.775h-6.53V215.3l-.623 2.358v4.976h-1.321l-.161.622h1.48v3.937l.623 1.536v-5.43h6.53v7.775h-5.595l.249.622h5.349v7.775h-2.177l.254.622h1.953v4.833l.622 1.536v-6.369h6.5v7.775h-5.965l.255.622h5.71v7.775h-6.531v-2.152l-.621.218v1.934h-5.56l-1.792.622h.2v7.775h-6.531v-5.598l-.622.218v5.35h-.18l.805 2.338v-1.717h6.53v10.574h.623v-10.574h6.53v10.493h.624v-10.48h6.53v10.281h.624v-10.282h6.53v9.952l.623-.05v-9.902h6.53v8.534l.624-.236v-8.298h6.53v3.907c.218-.255.43-.51.623-.772Zm-29.234-3.732h-6.53v-7.78h6.53v7.78Zm7.153 0h-6.531v-7.78h6.53v7.78Zm0-25.19h-6.531V231.7h6.53v7.775Zm0-8.398h-6.531v-7.781h6.53v7.78Zm0-8.397h-6.531v-7.775h6.53v7.775Zm0-8.397h-6.531v-7.781h6.53v7.781Zm0-8.397h-6.531v-7.775h6.53v7.775Zm7.153 58.779h-6.531v-7.78h6.531v7.78Zm0-8.397h-6.531v-7.775h6.531v7.775Zm0-8.397h-6.531v-7.78h6.531v7.78Zm0-8.397h-6.531v-7.775h6.531v7.775Zm0-8.397h-6.531v-7.78h6.531v7.78Zm7.153 33.588h-6.531v-7.78h6.531v7.78Zm0-8.397h-6.531v-7.775h6.531v7.775Zm0-8.397h-6.531v-7.78h6.531v7.78Zm.622 16.794v-7.78h6.531v7.774l-6.53.006Z" fill="#263238" opacity=".2"/><path d="m239.19 223.447 12.01 29.707-19.437 6.767 5.46 15.942s13.959.037 24.88-.622c10.924-.659 18.587-7.246 16.839-15.102-1.748-7.856-8.298-19.22-13.54-32.761-5.244-13.54-3.62-21.614-6.022-25.763-2.401-4.15-9.174-5.243-9.174-5.243l-3.732-.622" stroke="#263238" stroke-miterlimit="10"/><path d="M262.894 250.131a87.09 87.09 0 0 0-11.693 3.017s8.297-5.46 12.881-5.897m4.373 2.619a11.899 11.899 0 0 0-2.6-.087" stroke="#263238" stroke-miterlimit="10"/><path d="M237.442 257.508s4.416 4.223 5.722 7.495c1.307 3.272.828 12.16-.043 13.031-.86.87-17.113.765-19.787-2.575-.698-.87 4.073-2.88 1.672-7.688s-3.496-5.237-3.496-5.237-1.965-1.095 1.748-3.496 12.23-4.142 14.195-1.53Z" fill="#263238" stroke="#263238" stroke-miterlimit="10"/><path d="M276.162 291.183H260.04l-2.016-31.87h20.153l-2.015 31.87Z" fill="#263238" stroke="#263238" stroke-linejoin="round"/><path d="M279.073 259.362h-21.938v4.64h21.938v-4.64Z" fill="#fff" stroke="#263238" stroke-linejoin="round"/><path d="M279.073 259.536h-21.938l2.19-2.75h17.552l2.196 2.75Zm-2.32 22.299.802-12.695h-18.909l.802 12.695h17.304Z" fill="#fff" stroke="#263238" stroke-linejoin="round"/><path d="m183.253 293.304 19.867-5.25v2.687l-19.867 5.567v-3.004Z" fill="#263238" stroke="#263238" stroke-linejoin="round"/><path d="M203.12 288.054H99.252l-20.078 5.25h104.08l19.866-5.25Z" fill="#fff" stroke="#263238" stroke-linejoin="round"/><path d="M183.254 233.281H79.174v63.027h104.08v-63.027Z" fill="#fff" stroke="#263238" stroke-linejoin="round"/><path d="M183.254 242.399c-22.64 1.076-36.126 21.945-56.16 35.927-18.263 12.75-40.816 14.928-47.895 15.27v2.712h104.055v-53.909Z" fill="#263238" stroke="#263238" stroke-linejoin="round"/><path d="M183.254 293.304H79.174v3.004h104.08v-3.004Z" fill="#fff" stroke="#263238" stroke-miterlimit="10"/><path d="M48.36 272.511s-8.67-13.871-1.71-21.677c6.96-7.806 18.206-4.05 20.526 3.178 2.32 7.228-2.6 19.37-2.6 19.37l-16.215-.87Z" fill="#fff" stroke="#263238" stroke-linecap="round" stroke-linejoin="round"/><path d="M48.647 256.612c-1.443 0-6.935-2.021-8.67-4.621-1.736-2.6-2.035-8.385 2.891-8.385 4.927 0 6.65 8.67 6.65 8.67l.286 3.18" fill="#fff"/><path d="M48.647 256.612c-1.443 0-6.935-2.021-8.67-4.621-1.736-2.6-2.035-8.385 2.891-8.385 4.927 0 6.65 8.67 6.65 8.67l.286 3.18" stroke="#263238" stroke-linecap="round" stroke-linejoin="round"/><path d="M53.094 251.213c-1.294-.622-5.306-4.9-5.697-8.005-.392-3.104 1.934-8.403 6.332-6.22 4.397 2.183 2.077 10.73 2.077 10.73l-1.163 2.973" fill="#fff"/><path d="M53.094 251.213c-1.294-.622-5.306-4.9-5.697-8.005-.392-3.104 1.934-8.403 6.332-6.22 4.397 2.183 2.077 10.73 2.077 10.73l-1.163 2.973" stroke="#263238" stroke-linecap="round" stroke-linejoin="round"/><path d="M58.344 252.669c-.722-1.244-1.692-7.023-.299-9.822 1.393-2.8 6.27-5.921 8.708-1.654 2.438 4.267-4.223 10.076-4.223 10.076l-2.619 1.83" fill="#fff"/><path d="M58.344 252.669c-.722-1.244-1.692-7.023-.299-9.822 1.393-2.8 6.27-5.921 8.708-1.654 2.438 4.267-4.223 10.076-4.223 10.076l-2.619 1.83" stroke="#263238" stroke-linecap="round" stroke-linejoin="round"/><path d="M60.066 263.031c-.236-1.43.846-7.177 3.11-9.33 2.265-2.152 7.93-3.389 8.746 1.456.815 4.845-7.464 7.999-7.464 7.999l-3.11.808" fill="#fff"/><path d="M60.066 263.031c-.236-1.43.846-7.177 3.11-9.33 2.265-2.152 7.93-3.389 8.746 1.456.815 4.845-7.464 7.999-7.464 7.999l-3.11.808" stroke="#263238" stroke-linecap="round" stroke-linejoin="round"/><path d="M67.68 267.671H43.97v23.711h23.71v-23.711Z" fill="#263238" stroke="#263238" stroke-linecap="round" stroke-linejoin="round"/></svg>