<svg xmlns="http://www.w3.org/2000/svg" fill="none" width="340" height="340" viewBox="0 0 340 340"><path d="M324.816 156.971c-3.563-17.428-9.819-34.442-17.259-50.082C294.733 79.9 273.72 57.5 246.84 44.2c-65.96-32.64-113.56-19.04-139.4 7.48C81.6 78.2 89.08 123.76 61.2 143.478c-27.88 19.72-47.6 28.56-48.96 64.6-1.36 36.04 16.32 63.24 44.88 72.08 28.56 8.84 71.4 37.4 157.08 21.08s106.76-61.88 112.2-94.52c2.72-16.422 1.782-33.272-1.584-49.749Z" fill="#CBCBCB"/><path d="M324.816 156.971c-3.563-17.428-9.819-34.442-17.259-50.082C294.733 79.9 273.72 57.5 246.84 44.2c-65.96-32.64-113.56-19.04-139.4 7.48C81.6 78.2 89.08 123.76 61.2 143.478c-27.88 19.72-47.6 28.56-48.96 64.6-1.36 36.04 16.32 63.24 44.88 72.08 28.56 8.84 71.4 37.4 157.08 21.08s106.76-61.88 112.2-94.52c2.72-16.422 1.782-33.272-1.584-49.749Z" fill="#fff" opacity=".7"/><path d="M123.978 57.474h-6.161v27.302h6.161V57.474Z" fill="#C9C9C9" stroke="#263238" stroke-linecap="round" stroke-linejoin="round"/><path d="M123.978 61.58h-6.161v2.666h6.161V61.58Zm0 16.94h-6.161v2.665h6.161V78.52Z" fill="#fff" stroke="#263238" stroke-linecap="round" stroke-linejoin="round"/><path d="M131.165 57.474h-8.622v27.302h8.622V57.474Z" fill="#878787" stroke="#263238" stroke-linecap="round" stroke-linejoin="round"/><path d="M130.553 57.474h-6.16v27.302h6.16V57.474Z" fill="#C9C9C9" stroke="#263238" stroke-linecap="round" stroke-linejoin="round"/><path d="M130.553 61.58h-6.16v2.666h6.16V61.58Zm0 16.94h-6.16v2.665h6.16V78.52Z" fill="#fff" stroke="#263238" stroke-linecap="round" stroke-linejoin="round"/><path d="M137.734 57.474h-8.622v27.302h8.622V57.474Z" fill="#878787" stroke="#263238" stroke-linecap="round" stroke-linejoin="round"/><path d="M137.122 57.474h-6.161v27.302h6.161V57.474Z" fill="#C9C9C9" stroke="#263238" stroke-linecap="round" stroke-linejoin="round"/><path d="M137.122 61.58h-6.161v2.666h6.161V61.58Zm0 16.94h-6.161v2.665h6.161V78.52Z" fill="#fff" stroke="#263238" stroke-linecap="round" stroke-linejoin="round"/><path d="M144.303 57.474h-8.622v27.302h8.63V57.474Z" fill="#C9C9C9" stroke="#263238" stroke-linecap="round" stroke-linejoin="round"/><path d="M149.92 85.054h14.47l3.85-3.481h-18.32v3.481Z" fill="#fff" stroke="#263238" stroke-linecap="round" stroke-linejoin="round"/><path d="m166.6 85.231-.462-.795-16.517-.034.476.83H166.6Z" fill="#fff" stroke="#263238" stroke-linecap="round" stroke-linejoin="round"/><path d="m141.542 58.042-5.333 3.084 13.667 23.635 5.334-3.084-13.668-23.635Z" fill="#C9C9C9" stroke="#263238" stroke-linecap="round" stroke-linejoin="round"/><path d="m143.6 61.588-5.333 3.084 1.334 2.308 5.333-3.085-1.334-2.307Zm8.485 14.662-5.334 3.084 1.335 2.307 5.333-3.084-1.334-2.307Z" fill="#fff" stroke="#263238" stroke-linecap="round" stroke-linejoin="round"/><path d="m168.144 81.81-13.077-.033-13.668-23.637 13.077.034 13.668 23.637Z" fill="#C9C9C9" stroke="#263238" stroke-linecap="round" stroke-linejoin="round"/><path d="M175.27 71.23s-2.38-.85-3.06-4.59c-.68-3.74-1.87-9.01-.51-10.2 1.36-1.19 3.91-1.87 4.25.51.34 2.38-.17 6.97.34 7.99.51 1.02 2.21.34 2.21-1.7 0-3.36-1.36-6.8-.877-10.2.68-4.7 5.44-5.216 5.95 0 .285 2.883.367 5.828.367 8.724 0 1.19 2.04 1.87 1.87-1.02-.122-2.04 1.36-4.42 3.4-3.74 2.04.68.34 9.69-.34 11.22-.68 1.53-4.93 1.816-4.93 1.816v3.91l-5.1.17-.17-3.91c-1.038.6-2.203.95-3.4 1.02v0Z" fill="#CBCBCB" stroke="#263238" stroke-linecap="round" stroke-linejoin="round"/><path d="M179.86 63.777c.062.85.102 1.36.102 1.36m.238-14.545s-1.115.775-1.034 3.1c.055 1.415.327 5.332.538 8.195m2.414-3.278.176 5.692M184.607 68a8.68 8.68 0 0 1-1.19.102m4.74-9.663a5.236 5.236 0 0 0-.606 2.41c0 1.36.088 5.17-.775 6.21a2.244 2.244 0 0 1-.755.538m-12.62-1.516a5.506 5.506 0 0 0 1.424 2.72 2.502 2.502 0 0 0 3.02.082m-4.599-12s-1.72 0-1.122 3.01c.26 1.273.498 2.837.804 4.313m6.786 4.14.346 3.707" stroke="#263238" stroke-linecap="round" stroke-linejoin="round"/><path d="m188.53 72.42-.619 5.073-.42 3.454-.491 4.019h-12.233l-.49-4.019-.42-3.454-.62-5.073h15.293Z" fill="#fff" stroke="#263238" stroke-linecap="round" stroke-linejoin="round"/><path d="m187.912 77.493-.422 3.454h-13.212l-.422-3.454h14.056Z" fill="#CBCBCB" stroke="#263238" stroke-linecap="round" stroke-linejoin="round"/><path d="M195.249 84.966h-78.52v5.202h78.52v-5.202Z" fill="#fff" stroke="#263238" stroke-linecap="round" stroke-linejoin="round"/><path d="M195.249 84.966h-18.102v5.202h18.102v-5.202Z" fill="#fff" stroke="#263238" stroke-linecap="round" stroke-linejoin="round"/><path d="M175.386 90.189c8.411 3.1 6.895 8.962 6.895 8.962h7.963v-8.962h-14.858Z" fill="#919191" stroke="#263238" stroke-linecap="round" stroke-linejoin="round"/><path d="M178.072 90.189c8.405 3.1 6.888 8.962 6.888 8.962h7.97v-8.962h-14.858Z" fill="#fff" stroke="#263238" stroke-linecap="round" stroke-linejoin="round"/><path d="M121.496 90.189c8.411 3.1 6.895 8.962 6.895 8.962h7.963v-8.962h-14.858Z" fill="#919191" stroke="#263238" stroke-linecap="round" stroke-linejoin="round"/><path d="M124.182 90.189c8.404 3.1 6.888 8.962 6.888 8.962h7.97v-8.962h-14.858Z" fill="#fff" stroke="#263238" stroke-linecap="round" stroke-linejoin="round"/><path d="M304.667 58.446h-70.42v97.757h70.42V58.446Z" fill="#919191" stroke="#263238" stroke-linecap="round" stroke-linejoin="round"/><path d="M301.614 62.69h-64.307v89.27h64.307V62.69Z" fill="#CBCBCB"/><path d="M301.614 62.69h-64.307v89.27h64.307V62.69Z" fill="#fff" opacity=".5"/><path d="M251.444 145.18a26.542 26.542 0 0 1-6.433 6.8h56.603V62.69h-10.43l-1.361.428c-10.2 3.216-20.74 12.525-26.717 29.444" stroke="#263238" stroke-linecap="round" stroke-linejoin="round"/><path d="M262.113 95.526a96.694 96.694 0 0 0-3.903 24.82c-.374 10.092-2.523 17.347-5.393 22.563m42.507-57.562c-9.35 5.44-20.237 14.58-24.303 28.594-2.183 7.48-.136 14.226 3.91 19.999m2.19 2.815c5.61 6.57 13.6 11.737 20.066 15.211h4.427V82.049a62.424 62.424 0 0 0-4.012 2.04m-49.606 1.87c4.923-10.039 5.44-18 4.876-23.279H237.32v40.841c2.3-3.27 5.114-7.643 8.514-13.505.21-.36.408-.68.605-1.06m7.65 35.66c-.755 4.942-3.026 8.533-5.705 8.533-3.298.001-5.977-5.439-5.977-12.17s2.68-12.173 5.977-12.173c3.298 0 5.977 5.44 5.977 12.172M256.925 96c0 2.591-1.143 4.699-2.564 4.699-1.42 0-2.557-2.108-2.557-4.698 0-2.59 1.143-4.7 2.557-4.7s2.564 2.102 2.564 4.7Z" stroke="#263238" stroke-linecap="round" stroke-linejoin="round"/><path d="M289.551 115.852c2.468 1.176 4.08 3.23 4.08 5.562 0 3.652-4.012 6.616-8.969 6.616-4.958 0-8.963-2.964-8.963-6.616 0-3.652 4.012-6.623 8.963-6.623.79 0 1.578.077 2.352.231" stroke="#263238" stroke-linecap="round" stroke-linejoin="round"/><path d="M288.443 121.414c0 1.53-1.68 2.774-3.76 2.774-2.082 0-3.76-1.244-3.76-2.774s1.685-2.781 3.76-2.781c2.073 0 3.76 1.244 3.76 2.781Zm6.065-16.87c0 2.121-2.1 3.841-4.699 3.841-2.597 0-4.7-1.72-4.7-3.842-.008-2.121 2.093-3.842 4.692-3.842 2.597 0 4.698 1.721 4.698 3.842ZM260.556 83.19c1.77 0 3.203-3.538 3.203-7.901 0-4.364-1.434-7.902-3.203-7.902-1.77 0-3.203 3.538-3.203 7.901 0 4.364 1.434 7.902 3.203 7.902Zm8.758 60.004a4.489 4.489 0 0 1-7.661 3.173 4.484 4.484 0 0 1-.973-4.89 4.49 4.49 0 0 1 7.32-1.457 4.487 4.487 0 0 1 1.314 3.174Zm20.924-66.627a2.785 2.785 0 0 1-1.714 2.575 2.78 2.78 0 1 1 1.714-2.575Zm-17.51 19.645a1.495 1.495 0 1 1-.924-1.377 1.493 1.493 0 0 1 .924 1.377v0Z" stroke="#263238" stroke-linecap="round" stroke-linejoin="round"/><path d="M301.614 62.69h-64.307v89.27h64.307V62.69Z" stroke="#263238" stroke-linecap="round" stroke-linejoin="round"/><path d="M196.513 189.985h-17.469v6.576h17.469v-6.576Z" fill="#263238" stroke="#263238" stroke-linecap="round" stroke-linejoin="round"/><path d="M219.953 190.978h-69.53l3.29-53.897h69.538l-3.29 53.897Z" fill="#919191" stroke="#263238" stroke-linecap="round" stroke-linejoin="round"/><path d="M217.961 190.978h-69.53l3.29-53.897h69.531l-3.29 53.897Z" fill="#263238" stroke="#263238" stroke-linecap="round" stroke-linejoin="round"/><path d="M214.282 187.979h-61.805l2.924-47.906h61.805l-2.924 47.906Z" fill="#fff" stroke="#263238" stroke-linecap="round" stroke-linejoin="round"/><path d="M196.303 180.839h-41.984l2.251-36.917h41.99l-2.257 36.917Z" fill="#919191" stroke="#263238" stroke-linecap="round" stroke-linejoin="round"/><path d="M170.884 164.982s-8.745 3.461-8.799 4.393c-.055.931-1.768 11.464-1.768 11.464h26.003l-2.19-12.131-9.621-3.998-3.625.272Z" fill="#fff" stroke="#263238" stroke-linecap="round" stroke-linejoin="round"/><path d="M171.143 162.847c-.659.173-1.27.49-1.789.93-.68.681-1.51 2.932-1.51 2.932l-.033 2.666 3.447-1.864 3.502-.23 3.278 3.066.42-4.665c.001 0-.502-2.665-1.563-2.8-1.06-.137-5.752-.035-5.752-.035Z" fill="#fff" stroke="#263238" stroke-linecap="round" stroke-linejoin="round"/><path d="m171.034 160.317-.15 4.665 2.061 3.332 3.406-3.468.531-4.264-5.848-.265Z" fill="#fff" stroke="#263238" stroke-linecap="round" stroke-linejoin="round"/><path d="M179.439 154.863c-.245 3.91-2.843 8.65-5.692 8.65-2.85 0-4.87-4.76-4.631-8.65.238-3.89 2.72-7.08 5.59-7.08 2.869.001 4.971 3.177 4.733 7.08Z" fill="#fff" stroke="#263238" stroke-linecap="round" stroke-linejoin="round"/><path d="M169.069 155.38s-.918-2.393-1.299-.53c-.381 1.863 1.496 3.862 1.496 3.862l-.197-3.332Zm10.37-.517s2.251-.945 1.591 1.054a3.946 3.946 0 0 1-2.285 2.53l.694-3.584Zm-5.971.517a1.726 1.726 0 0 0-1.053-1.726 1.726 1.726 0 0 0-.7-.137 2.036 2.036 0 0 0-1.98 1.863 1.743 1.743 0 0 0 .466 1.32c.165.176.365.316.587.41.22.095.46.143.7.14a2.04 2.04 0 0 0 1.98-1.87v0Zm4.53 0a1.729 1.729 0 0 0-1.05-1.724 1.731 1.731 0 0 0-.7-.14 2.036 2.036 0 0 0-1.984 1.864 1.741 1.741 0 0 0 1.754 1.87 2.038 2.038 0 0 0 1.98-1.87v0Z" fill="#fff" stroke="#263238" stroke-linecap="round" stroke-linejoin="round"/><path d="M174.243 146.982s-2.04-1.061-3.57-.394c-1.53.666-2.658 4.263-2.584 5.195.24 1.221.568 2.423.98 3.597l1.618-4.665 4.243-1.863-.687-1.87Z" fill="#263238" stroke="#263238" stroke-linecap="round" stroke-linejoin="round"/><path d="M172.19 147.92s3.36-2.665 6.08-1.36c.832.362 1.52.99 1.954 1.788.435.797.592 1.716.445 2.612-.04.68-.095 3.726-.095 3.726l-1.618.272-.796-2.51a22.89 22.89 0 0 1-2.68-1.264c.001 0-3.596-.47-3.29-3.264Z" fill="#263238" stroke="#263238" stroke-linecap="round" stroke-linejoin="round"/><path d="m173.468 155.38-.238 3.869h.932" fill="#fff"/><path d="m173.468 155.38-.238 3.869h.932m-1.42 1.462h1.998m-1.795 7.61-.74 12.125m11.912-11.73s-2.78 6.27-2.863 7.602c-.08 1.333-.394 4.264-.394 4.264m-18.775-11.2s2.768 4.8 3.128 5.44c.36.64-.082 5.731-.082 5.731" stroke="#263238" stroke-linecap="round" stroke-linejoin="round"/><path d="m185.973 173.244.918-4.135 1.564-1.598 1.476-2.4h.666l-.816 2.536 2.067-1.203 1.333-2.129.775.395-1.904 4.936-3.02 1.462-.522 2-2.537.136Z" fill="#fff" stroke="#263238" stroke-linecap="round" stroke-linejoin="round"/><path d="m188.558 180.839.251-8.262-3.033-.537-2.393 8.8h5.175Zm7.561 3.067h-41.99l.19-3.067h41.984l-.184 3.067Z" fill="#fff" stroke="#263238" stroke-linecap="round" stroke-linejoin="round"/><path d="M155.843 182.043h38.522" stroke="#263238" stroke-linecap="round" stroke-linejoin="round"/><path d="M214.35 153.775h-14.131l.6-9.73h14.13l-.6 9.73Z" fill="#CBCBCB" stroke="#263238" stroke-linecap="round" stroke-linejoin="round"/><path d="M214.35 153.775h-14.131l.102-1.598h14.131l-.102 1.598Zm-4.563-5.433-3.672-2.196-.265 4.393 3.937-2.197Z" fill="#fff" stroke="#263238" stroke-linecap="round" stroke-linejoin="round"/><path d="M213.432 168.837h-14.131l.592-9.724h14.13l-.591 9.724Z" fill="#CBCBCB" stroke="#263238" stroke-linecap="round" stroke-linejoin="round"/><path d="M213.432 168.837h-14.131l.102-1.598h14.124l-.095 1.598Zm-4.563-5.426-3.672-2.196-.265 4.392 3.937-2.196Z" fill="#fff" stroke="#263238" stroke-linecap="round" stroke-linejoin="round"/><path d="M212.507 183.906h-14.124l.592-9.73h14.13l-.598 9.73Z" fill="#CBCBCB" stroke="#263238" stroke-linecap="round" stroke-linejoin="round"/><path d="M212.507 183.906h-14.124l.096-1.598h14.13l-.102 1.598Zm-4.563-5.433-3.665-2.196-.272 4.392 3.937-2.196Z" fill="#fff" stroke="#263238" stroke-linecap="round" stroke-linejoin="round"/><path d="M200.26 155.38h13.723m-13.825 1.605h13.73m-14.559 13.593h13.729m-13.825 1.598h13.73" stroke="#263238" stroke-linecap="round" stroke-linejoin="round"/><path d="M193.243 196.561H182.92a3.882 3.882 0 0 1 3.883-3.883h2.543a3.884 3.884 0 0 1 3.883 3.883h.014Z" fill="#fff" stroke="#263238" stroke-linecap="round" stroke-linejoin="round"/><path d="M178.004 194.446h-50.47v2.115h50.47v-2.115Z" fill="#919191" stroke="#263238" stroke-linecap="round" stroke-linejoin="round"/><path d="M177.99 194.446h-12.682v2.115h12.682v-2.115Z" fill="#fff" stroke="#263238" stroke-linecap="round" stroke-linejoin="round"/><path d="M106.849 92.909V52.727m0 241.278V96.907" stroke="#263238" stroke-linecap="round" stroke-linejoin="round"/><path d="m198.607 210.664 6.12 82.504a1.193 1.193 0 0 0 1.235 1.064 1.187 1.187 0 0 0 1.14-1.166l-.92-82.402h-7.575Z" fill="#919191" stroke="#263238" stroke-linecap="round" stroke-linejoin="round"/><path d="m203.225 210.664 3.23 83.456a1.183 1.183 0 0 0 .625-1.054l-.897-82.402h-2.958Z" fill="#fff" stroke="#263238" stroke-linecap="round" stroke-linejoin="round"/><path d="m237.075 210.664 6.12 82.504a1.189 1.189 0 0 0 2.035.707c.212-.217.333-.506.338-.81l-.918-82.401h-7.575Z" fill="#919191" stroke="#263238" stroke-linecap="round" stroke-linejoin="round"/><path d="m241.332 210.664 3.767 83.334a1.173 1.173 0 0 0 .45-.932l-.9-82.402h-3.317Z" fill="#fff" stroke="#263238" stroke-linecap="round" stroke-linejoin="round"/><path d="m135.673 211.562-6.12 81.6a1.18 1.18 0 0 1-1.183 1.1v0a1.182 1.182 0 0 1-1.21-1.183l.904-81.735 7.61.218Zm-38.433 0-6.12 81.6a1.182 1.182 0 0 1-1.183 1.1v0a1.192 1.192 0 0 1-.842-.354 1.197 1.197 0 0 1-.341-.848l.904-81.736 7.582.238Z" fill="#263238" stroke="#263238" stroke-linecap="round" stroke-linejoin="round"/><path d="M246.901 198.479H87.353v12.852H246.9v-12.852Z" fill="#919191" stroke="#263238" stroke-linecap="round" stroke-linejoin="round"/><path d="M246.901 198.479h-45.723v12.852h45.723v-12.852Z" fill="#fff" stroke="#263238" stroke-linecap="round" stroke-linejoin="round"/><path d="M246.901 200.519H87.353v3.542H246.9v-3.542Z" fill="#263238" stroke="#263238" stroke-linecap="round" stroke-linejoin="round"/><path d="M249.199 196.636H85.054v4.297H249.2v-4.297Z" fill="#919191" stroke="#263238" stroke-linecap="round" stroke-linejoin="round"/><path d="M249.192 196.636h-45.077v4.297h45.077v-4.297Zm-48.395-79.676h-22.154a4.352 4.352 0 0 0-4.352 4.352v8.16a4.345 4.345 0 0 0 4.352 4.352h11.6l-4.344 12.138 8.323-12.138h6.575a4.34 4.34 0 0 0 4.352-4.352v-8.16a4.351 4.351 0 0 0-4.352-4.352Z" fill="#fff" stroke="#263238" stroke-linecap="round" stroke-linejoin="round"/><path d="M183.784 127.248a1.584 1.584 0 1 0 0-3.168 1.584 1.584 0 0 0 0 3.168Zm5.936 0a1.585 1.585 0 1 0 0-3.17 1.585 1.585 0 0 0 0 3.17Zm7.514-1.584a1.587 1.587 0 0 0-.98-1.464 1.581 1.581 0 0 0-1.727.346 1.582 1.582 0 0 0 .248 2.439 1.592 1.592 0 0 0 1.487.143 1.59 1.59 0 0 0 .854-.858c.079-.192.119-.398.118-.606Z" fill="#263238"/><path d="M306 294.44h18.36m-308.04 0h280.16" stroke="#263238" stroke-linecap="round" stroke-linejoin="round"/><path d="M124.195 174.271c-1.992-3.4-7.854-16.49-7.854-16.49a26.97 26.97 0 0 1 .857-4.13c.483-1.36 1.7-5.48 1.455-6.333-.244-.857-3.774-2.435-4.134-2.557-.36-.124.483-2.191-.857-2.681-1.34-.49-1.822.245-1.822.245l-.51 3.399-1.564 2.448a19.867 19.867 0 0 0-2.04-1.36c-1.095-.61-3.652-.854-3.774.125-.123.98 2.04 1.823 2.795 2.435.754.612 1.706 3.529 2.563 4.386.779.85 1.51 1.742 2.19 2.673l.49 1.584s1.665 16.04 1.863 20.033c.197 3.99.795 14.552 1.992 16.143 1.197 1.59 1.4 2.598 4.76 1.4 3.359-1.196 3.985-2.794 4.76-6.384.775-3.591.823-11.54-1.17-14.926Z" fill="#fff" stroke="#263238" stroke-linecap="round" stroke-linejoin="round"/><path d="M125.392 189.217c.796-3.584.796-11.56-1.197-14.96a38.556 38.556 0 0 1-.782-1.428c-4.508-1.313-8.792.829-8.792.829l-1.088.476c.143 1.666.251 3.06.292 3.91.204 3.985.796 14.552 1.993 16.144 1.196 1.591 1.4 2.597 4.76 1.4 3.359-1.196 4.012-2.78 4.814-6.37Z" fill="#CBCBCB" stroke="#263238" stroke-linecap="round" stroke-linejoin="round"/><path d="M109.657 120.36c.49 1.804.765 3.66.816 5.529 0 2.658-.816 4.297.415 5.113 1.23.816 2.25.823 2.04 2.462a4.409 4.409 0 0 1-1.027 2.455s-.408 8.39-.816 9.214c-.408.822-5.732-.204-6.963-.415-1.23-.21-4.706 1.435-6.963-3.067-2.258-4.493-.408-11.252 3.685-14.733a100.089 100.089 0 0 1 8.813-6.55v0Z" fill="#fff" stroke="#263238" stroke-linecap="round" stroke-linejoin="round"/><path d="M110.473 125.855s-1.108-.83-1.693.625m.7 2.761a4.984 4.984 0 0 0 .15 2.475m1.89 7.14a1.36 1.36 0 0 1-1.748-1.02" stroke="#263238" stroke-linecap="round" stroke-linejoin="round"/><path d="M113.839 177.344s-.68 3.114-1.285 4.76c-.605 1.646-11.458 4.665-16.184 5.29a80.442 80.442 0 0 1-9.384.619l.299 8.61s9.153.183 9.8 0c.645-.185 16.054-7.073 16.054-7.073l6.65-.87s2.794-.68 2.903-2.85c.108-2.17-2.36-8.336-3.482-9.295-1.122-.96-3.488-3.502-4.91-1.938-1.42 1.564-.462 2.747-.462 2.747Z" fill="#fff" stroke="#263238" stroke-linecap="round" stroke-linejoin="round"/><path d="M93.432 192.8c0-3.72.952-3.814 2.04-5.29a81.738 81.738 0 0 1-8.466.503l-.224 7.902s5.011.462 8.065.68c-.252.387-1.415-1.401-1.415-3.795Z" fill="#CBCBCB" stroke="#263238" stroke-linecap="round" stroke-linejoin="round"/><path d="M122.985 209.528a31.908 31.908 0 0 0-13.369-8.928l-11.941 5.093a27.328 27.328 0 0 0-3.658-6.365l-2.23-2.72 1.434-7.8s8.595-5.888 9.704-8.438l.04-.082c1.728 2.673 9.22 14.24 10.629 15.362 1.591 1.278 6.365 1.434 8.432-.476 2.067-1.911 3.026-3.183 2.55-6.046 0 0-3.183-6.847-4.937-9.873-1.754-3.026-5.57-13.845-7.48-17.191-1.36-2.393-1.924-4.08-2.89-5.208a18.828 18.828 0 0 0-2.36-3.224c-1.91-2.04-7.167-2.55-8.282-3.026-1.115-.476-1.272-.639-7.636-2.543-6.365-1.904-13.532-3.026-18.626.952 0 0-6.84 8.119-9.52 21.488-2.679 13.37-2.87 26.901-3.182 29.288-.313 2.387-3.026 14.008-3.822 20.692-.79 6.685 6.19 13.396 10.48 15.477 4.307 2.08 22.768 2.387 33.594 0 10.825-2.387 28.015-13.212 28.015-13.212s.634-6.692-4.935-13.22Z" fill="#CBCBCB" stroke="#263238" stroke-linecap="round" stroke-linejoin="round"/><path d="m94.84 180.119-2.183-.075m1.36-3.4a65.49 65.49 0 0 1 8.908 3.753l-5.604-.19" stroke="#263238" stroke-linecap="round" stroke-linejoin="round"/><path d="M123.59 180.662a7.444 7.444 0 0 1 1.129 3.27c-.009 1.504.25 3.517-.38 2.891-.629-.625-.887-2.767-.887-2.767l.13-3.394Z" fill="#fff" stroke="#263238" stroke-linecap="round" stroke-linejoin="round"/><path d="M119.823 178.908s2.353-1.278 3.4.26c1.047 1.535.768 4.602 0 6.119-.77 1.516-1.646.068-1.537-1.28.109-1.345-1.863-5.1-1.863-5.1Z" fill="#fff" stroke="#263238" stroke-linecap="round" stroke-linejoin="round"/><path d="M118.939 177.276s2.36-1.278 3.4.258c1.04 1.537.762 4.597 0 6.12-.762 1.524-1.646.068-1.537-1.278.109-1.346-1.863-5.1-1.863-5.1Z" fill="#fff" stroke="#263238" stroke-linecap="round" stroke-linejoin="round"/><path d="M117.857 175.515s2.36-1.279 3.4.258.769 4.604 0 6.12c-.768 1.517-1.645.068-1.536-1.278.108-1.347-1.864-5.1-1.864-5.1Z" fill="#fff" stroke="#263238" stroke-linecap="round" stroke-linejoin="round"/><path d="M111.887 113.975a13.38 13.38 0 0 1-1.822 6.963c-3.482 5.324-6.753 4.706-8.16 9.01-1.408 4.305-3.51 8.772-1.265 11.26 2.244 2.49 4.08 1.02 4.08 1.02s1.435 3.687-2.251 7.37c-3.685 3.687-10.03 2.252-11.669 1.64a10.88 10.88 0 0 1-2.862-1.64s-1.027 2.87-6.12 2.87c-5.094 0-10.88-3.481-10.88-9.832 0-6.35 3.474-10.642 4.297-13.104.823-2.46-1.435-10.03 2.04-14.735 3.475-4.706 8.84-8.16 12.92-8.16s12.043 2.237 12.077 2.25c.537.293 3.978-1.108 4.909-1.047 3.421.19 4.665 3 4.706 6.134Z" fill="#263238" stroke="#263238" stroke-linecap="round" stroke-linejoin="round"/><path d="M98.6 143.099c.743.1 1.495.1 2.237 0m8.1-25.554a14.377 14.377 0 0 1-1.98 5.134c-3.182 4.998-6.8 6.8-11.131 11.56-2.781 3.08-2.258 6.154 0 7.766m13.17-29.771c.134.75.2 1.51.198 2.27" stroke="#919191" stroke-linecap="round" stroke-linejoin="round"/><path d="M104.72 117.001s-.68 7.038-3.631 11.125c-2.951 4.087-8.84 6.12-8.63 10.445" stroke="#919191" stroke-linecap="round" stroke-linejoin="round"/><path d="M132.124 234.811s4.243 21.801 7.874 32.395c3.631 10.594 7.263 20.284 8.16 21.196.898.911 3.332 4.236 3.332 4.236a6.99 6.99 0 0 1-3.937 1.516c-2.122 0-4.842-2.72-7.27-4.243-2.427-1.523-2.72-2.42-7.568-4.236-4.848-1.816-.904-6.657.306-9.085.7-1.31 1.113-2.754 1.21-4.236a47.962 47.962 0 0 0-9.99-18.469c-7.553-8.473-9.07-28.125-9.07-28.125l14.54-5.44 2.42 14.491Z" fill="#fff" stroke="#263238" stroke-linecap="round" stroke-linejoin="round"/><path d="m147.56 287.314-.877.177s-5.148-6.964-9.078-9.384a8.562 8.562 0 0 0-4.542-1.51c-1.218 2.42-5.148 7.262-.306 9.078 4.84 1.816 5.147 2.72 7.568 4.236 2.421 1.517 5.148 4.244 7.27 4.244a6.999 6.999 0 0 0 3.936-1.517s-2.427-3.332-3.332-4.236a5.1 5.1 0 0 1-.64-1.088v0Z" fill="#CBCBCB" stroke="#263238" stroke-linecap="round" stroke-linejoin="round"/><path d="M145.119 293.291c-2.394-1.652-4.556-5.324-8.453-7.616-3.542-2.081-5.365-2.162-6.12-2.006a3.288 3.288 0 0 0 2.217 2c4.849 1.813 5.148 2.72 7.569 4.233 1.53.98 3.216 2.49 4.787 3.38Zm2.441.864a3.582 3.582 0 0 1 0 0v0Z" fill="#CBCBCB" stroke="#263238" stroke-linecap="round" stroke-linejoin="round"/><path d="M105.141 201.96s14.552-5.154 15.912-1.754c1.36 3.4 7.59 16.082 5.318 21.291-2.27 5.208-18.238-14.96-20.509-15.396-2.27-.435-.986-2.618-.72-4.14Z" fill="#fff" stroke="#263238" stroke-linecap="round" stroke-linejoin="round"/><path d="M119.401 208.604s16.545-1.36 19.72 1.59c3.18 2.952-7.7 38.305-13.6 49.41-9.24 17.367-6.44 21.916-6.44 21.916s.68 2.72 5.218 7.031c4.536 4.311 5.896 4.985 4.305 5.665-1.59.68-8.385 0-9.065-.456-.68-.456-5.664-4.529-10.2-5.89-4.535-1.359-3.855-2.27-1.815-6.35s1.815-.68 4.08-7.704a207.907 207.907 0 0 0 6.419-26.418c1.204-7.283 3.04-15.28 2.523-22.685l-1.136-16.109Z" fill="#fff" stroke="#263238" stroke-linecap="round" stroke-linejoin="round"/><path d="M131.519 219.674a21.969 21.969 0 0 0-8.534-10.145c-7.235-4.618-13.369-8.93-13.369-8.93l-11.94 5.094s2.91 4.937-12.05 7.433c-11.52 1.917-22.093-.864-27.799-4.216-.795 3.95-1.625 8.343-2.04 11.56-.795 6.684 6.21 13.369 10.506 15.443 4.298 2.074 38.924 6.364 48.246.374 16.971-10.86 16.971-16.613 16.971-16.613Z" fill="#263238" stroke="#263238" stroke-linecap="round" stroke-linejoin="round"/><path d="M96.322 209.44c-1.598 1.312-4.712 2.72-10.696 3.692-11.52 1.918-22.094-.863-27.799-4.215a416.354 416.354 0 0 0-.612 3.093c3.91 2.353 12.125 6.338 21.386 5.202 11.05-1.353 15.96-4.372 17.721-7.772Z" fill="#CBCBCB" stroke="#263238" stroke-linecap="round" stroke-linejoin="round"/><path d="M87.496 224.006c-.53.68-1.081 1.36-1.64 2.04m9.97-14.947a103.614 103.614 0 0 1-6.991 11.112m2.006-6.8s-4.08 5.44-8.384 8.616" stroke="#fff" stroke-linecap="round" stroke-linejoin="round"/><path d="M124.29 288.538c-4.535-4.298-5.215-7.018-5.215-7.018a1.468 1.468 0 0 1-.354-.503c-.306.32-1.231.925-3.495.054-1.965-.744-3.828-2.03-5.794-2.893-.47.835-.924 1.36-1.917 3.351-2.04 4.08-2.72 4.991 1.815 6.35 4.536 1.36 9.52 5.44 10.2 5.89.68.451 7.48 1.137 9.065.457 1.584-.68.23-1.374-4.305-5.678Z" fill="#CBCBCB" stroke="#263238" stroke-linecap="round" stroke-linejoin="round"/><path d="M36.346 178.881s24.562-3.074 40.256 1.36l2.387 59.71H42.16c0 .001 2.373-32.075-5.814-61.07Z" fill="#919191" stroke="#263238" stroke-linecap="round" stroke-linejoin="round"/><path d="M76.602 180.241c-15.694-4.434-40.256-1.36-40.256-1.36a165.478 165.478 0 0 1 5.216 29.526 147.22 147.22 0 0 1 37.23 26.52l-2.19-54.686Z" fill="#757575" stroke="#263238" stroke-linecap="round" stroke-linejoin="round"/><path d="M122.917 295.8a1.358 1.358 0 0 1-1.279-.884c-5.44-14.661-6.8-52.72-6.881-54.332a1.359 1.359 0 0 1 1.312-1.407 1.36 1.36 0 0 1 1.408 1.312c0 .394 1.414 39.23 6.71 53.475a1.36 1.36 0 0 1-.801 1.748 1.24 1.24 0 0 1-.469.088Zm-29.614 0a1.356 1.356 0 0 1-1.272-.884c-5.431-14.661-6.791-52.72-6.88-54.332a1.36 1.36 0 0 1 2.72-.095c0 .394 1.415 39.23 6.719 53.475a1.36 1.36 0 0 1-.802 1.748 1.29 1.29 0 0 1-.475.088v0Z" fill="#fff" stroke="#263238" stroke-linecap="round" stroke-linejoin="round"/><path d="M122.55 239.925H41.514v-2.72h78.33a2.72 2.72 0 0 1 2.72 2.72h-.014Z" fill="#919191" stroke="#263238" stroke-linecap="round" stroke-linejoin="round"/><path d="M122.543 239.265H41.514v2.7h81.029v-2.7Z" fill="#fff" stroke="#263238" stroke-linecap="round" stroke-linejoin="round"/><path d="M75.997 295.8a1.366 1.366 0 0 1-1.076-.49 1.365 1.365 0 0 1-.284-1.15c7.69-36.433.68-113.05.585-113.817a1.364 1.364 0 0 1 2.232-1.176c.28.23.454.564.488.924.075.776 7.14 77.792-.633 114.628a1.364 1.364 0 0 1-1.312 1.081Zm-42.16-.993a1.215 1.215 0 0 1-.374-.054 1.357 1.357 0 0 1-.939-1.673c17.68-62.764 2.673-113.3 2.523-113.805a1.36 1.36 0 0 1 2.598-.795c.156.51 15.422 51.768-2.503 115.335a1.359 1.359 0 0 1-1.305.992v0Z" fill="#fff" stroke="#263238" stroke-linecap="round" stroke-linejoin="round"/><path d="M282.458 182.682s-8.357-4.644-8.976 5.882c-.62 10.527-2.162 78.941-2.162 78.941" stroke="#263238" stroke-linecap="round" stroke-linejoin="round" stroke-width="2"/><path d="M269.144 189.489s6.8 15.17 3.72 77.09" stroke="#263238" stroke-linecap="round" stroke-linejoin="round" stroke-width="2"/><path d="M275.842 184.804s-3.203 2.04-5.02-.3c-1.814-2.339 1.232-6.636-1.454-8.472-2.686-1.836-7.33.965-7.33.965s3.57 1.048 3.454 2.999c-.115 1.952-1.836 2.686-2.04 1.836-.204-.85-1.938-5.147-4.835-3.359a7.174 7.174 0 0 0-3.345 4.556s6.752-.73 7.16 1.807c.408 2.537-2.767-.44-5.555-.605-2.788-.163-5.332.245-5.148 1.932a22.196 22.196 0 0 1-.265 4.46 8.315 8.315 0 0 1 5.44-1.918c3.067.183 2.951 2.135.163 1.972-2.788-.163-5.182 2.49-5.182 2.49s2.544 4.344 5.774 6.493c3.23 2.148 4.392 1.36 4.76-.28.367-1.638-.49-5.902 1.462-5.786 1.951.116-3.23 7.358-.742 7.786 2.489.428 4.495-.292 5.148-1.93l.68-1.641s-.87-4.25-.49-5.9c.381-1.654.837.046 1.28 2.039.441 1.992.72 6.752 1.57 6.52.85-.231 3.576-3.701 4.216-5.066.64-1.367-3.59-5.522-3.543-6.358.047-.837 3.31.755 3.821 1.625.37.66.705 1.342 1 2.04 0 0 2.04-1.277 1.986-5.194-.055-3.917-2.965-2.72-2.965-2.72Z" fill="#CBCBCB"/><path d="M275.842 184.804s-3.203 2.04-5.02-.3c-1.814-2.339 1.232-6.636-1.454-8.472-2.686-1.836-7.33.965-7.33.965s3.57 1.048 3.454 2.999c-.115 1.952-1.836 2.686-2.04 1.836-.204-.85-1.938-5.147-4.835-3.359a7.174 7.174 0 0 0-3.345 4.556s6.752-.73 7.16 1.807c.408 2.537-2.767-.44-5.555-.605-2.788-.163-5.332.245-5.148 1.932a22.196 22.196 0 0 1-.265 4.46 8.315 8.315 0 0 1 5.44-1.918c3.067.183 2.951 2.135.163 1.972-2.788-.163-5.182 2.49-5.182 2.49s2.544 4.344 5.774 6.493c3.23 2.148 4.392 1.36 4.76-.28.367-1.638-.49-5.902 1.462-5.786 1.951.116-3.23 7.358-.742 7.786 2.489.428 4.495-.292 5.148-1.93l.68-1.641s-.87-4.25-.49-5.9c.381-1.654.837.046 1.28 2.039.441 1.992.72 6.752 1.57 6.52.85-.231 3.576-3.701 4.216-5.066.64-1.367-3.59-5.522-3.543-6.358.047-.837 3.31.755 3.821 1.625.37.66.705 1.342 1 2.04 0 0 2.04-1.277 1.986-5.194-.055-3.917-2.965-2.72-2.965-2.72Z" fill="#263238" opacity=".3"/><path d="M259.631 193.99c2.087-2.577 5.154-6.065 7.731-7.731m-10.145 10.86s.53-.74 1.401-1.858m10.104-8.37s3.1 4.378 3.672 8.887m-7.194-6.297s.871-.51.544 5.066m1.734-10.275s1.775-1.57.836-4.706m-3.23 7.391-1.264-2.31m-1.394 4.672s-4.013-3.033-6.522-3.183" stroke="#263238" stroke-linecap="round" stroke-linejoin="round"/><path d="M287.239 176.542s-.13 4.596-3.72 4.82c-3.59.225-5.807-5.759-9.48-4.317-3.671 1.441-4.025 7.997-4.025 7.997s3.482-2.863 5.359-1.422c1.876 1.442 1.44 3.672.428 3.319-1.013-.354-6.467-1.57-6.657 2.55a8.71 8.71 0 0 0 2.278 6.46s3.883-7.256 6.71-5.937c2.83 1.32-2.331 2.476-4.398 5.155-2.067 2.68-3.4 5.5-1.57 6.473a26.715 26.715 0 0 1 4.283 3.298s-.49-3.794 1.782-6.738c2.27-2.945 4.14-1.503 2.08 1.176-2.06 2.68-1.04 6.888-1.04 6.888s6.08.415 10.43-1.36c4.353-1.774 4.38-3.46 2.98-4.964-1.411-1.502-6.253-3.53-4.811-5.44 1.44-1.91 5.169 8.249 7.297 6.046 2.13-2.204 2.768-4.7 1.57-6.474l-1.196-1.768s-4.841-2.04-6.242-3.536c-1.401-1.496.62-.802 2.91.11 2.292.91 7.249 3.882 7.603 2.868.353-1.013-1.272-6.12-2.197-7.67-.925-1.55-7.983-.17-8.785-.789-.802-.619 3.013-2.801 4.23-2.72.913.076 1.82.2 2.72.374-.001 0 .108-2.91-3.851-5.528-3.956-2.618-4.697 1.129-4.697 1.129Z" fill="#CBCBCB"/><path d="M287.239 176.542s-.13 4.596-3.72 4.82c-3.59.225-5.807-5.759-9.48-4.317-3.671 1.441-4.025 7.997-4.025 7.997s3.482-2.863 5.359-1.422c1.876 1.442 1.44 3.672.428 3.319-1.013-.354-6.467-1.57-6.657 2.55a8.71 8.71 0 0 0 2.278 6.46s3.883-7.256 6.71-5.937c2.83 1.32-2.331 2.476-4.398 5.155-2.067 2.68-3.4 5.5-1.57 6.473a26.715 26.715 0 0 1 4.283 3.298s-.49-3.794 1.782-6.738c2.27-2.945 4.14-1.503 2.08 1.176-2.06 2.68-1.04 6.888-1.04 6.888s6.08.415 10.43-1.36c4.353-1.774 4.38-3.46 2.98-4.964-1.411-1.502-6.253-3.53-4.811-5.44 1.44-1.91 5.169 8.249 7.297 6.046 2.13-2.204 2.768-4.7 1.57-6.474l-1.196-1.768s-4.841-2.04-6.242-3.536c-1.401-1.496.62-.802 2.91.11 2.292.91 7.249 3.882 7.603 2.868.353-1.013-1.272-6.12-2.197-7.67-.925-1.55-7.983-.17-8.785-.789-.802-.619 3.013-2.801 4.23-2.72.913.076 1.82.2 2.72.374-.001 0 .108-2.91-3.851-5.528-3.956-2.618-4.697 1.129-4.697 1.129Z" fill="#263238" opacity=".2"/><path d="M285.389 199.029c-1.15-3.869-2.564-9.309-2.468-13.008m3.958 17.571s-.381-1.047-.905-2.672m-1.489-15.824s6.494-.122 11.397 2.38M284.69 190.4s.082-1.217 5.44 2.91m-9.085-8.74c0 .002-.367-2.84-4.14-4.037m5.167 8.25-3.174-.314m3.727 4.583s-5.773 1.952-7.63 4.366" stroke="#263238" stroke-linecap="round" stroke-linejoin="round"/><path d="M248.717 207.142s18.265 12.07 17.959 58.82" stroke="#263238" stroke-linecap="round" stroke-linejoin="round" stroke-width="2"/><path d="M271.239 203.953s-.585 5.29-4.76 5.208c-4.176-.08-6.12-7.194-10.527-5.875-4.406 1.319-5.406 8.84-5.406 8.84s4.298-2.978 6.324-1.129c2.027 1.85 1.313 4.373.177 3.87-1.136-.504-7.317-2.428-7.922 2.312a10.07 10.07 0 0 0 2.04 7.663s5.168-8.003 8.303-6.208c3.135 1.795-2.924 2.631-5.563 5.528-2.638 2.897-4.427 6.025-2.427 7.317a30.75 30.75 0 0 1 4.637 4.216s-.21-4.42 2.686-7.609c2.897-3.19 4.93-1.36 2.292 1.557s-1.85 7.847-1.85 7.847 6.984 1.054 12.172-.578c5.189-1.632 5.372-3.577 3.897-5.44-1.476-1.863-6.868-4.665-5.025-6.69 1.842-2.027 5.181 10.01 7.847 7.663 2.665-2.346 3.63-5.155 2.42-7.317l-1.21-2.163s-5.392-2.794-6.868-4.664c-1.475-1.87.789-.864 3.346.401 2.557 1.265 8.003 5.161 8.5 4.032.496-1.13-.891-7.167-1.81-9.064-.917-1.897-9.193-.952-10.063-1.74-.87-.79 3.747-2.945 5.14-2.72 1.039.172 2.067.4 3.081.68 0 0 .395-3.347-3.923-6.747s-5.508.81-5.508.81Z" fill="#CBCBCB"/><path d="M271.239 203.953s-.585 5.29-4.76 5.208c-4.176-.08-6.12-7.194-10.527-5.875-4.406 1.319-5.406 8.84-5.406 8.84s4.298-2.978 6.324-1.129c2.027 1.85 1.313 4.373.177 3.87-1.136-.504-7.317-2.428-7.922 2.312a10.07 10.07 0 0 0 2.04 7.663s5.168-8.003 8.303-6.208c3.135 1.795-2.924 2.631-5.563 5.528-2.638 2.897-4.427 6.025-2.427 7.317a30.75 30.75 0 0 1 4.637 4.216s-.21-4.42 2.686-7.609c2.897-3.19 4.93-1.36 2.292 1.557s-1.85 7.847-1.85 7.847 6.984 1.054 12.172-.578c5.189-1.632 5.372-3.577 3.897-5.44-1.476-1.863-6.868-4.665-5.025-6.69 1.842-2.027 5.181 10.01 7.847 7.663 2.665-2.346 3.63-5.155 2.42-7.317l-1.21-2.163s-5.392-2.794-6.868-4.664c-1.475-1.87.789-.864 3.346.401 2.557 1.265 8.003 5.161 8.5 4.032.496-1.13-.891-7.167-1.81-9.064-.917-1.897-9.193-.952-10.063-1.74-.87-.79 3.747-2.945 5.14-2.72 1.039.172 2.067.4 3.081.68 0 0 .395-3.347-3.923-6.747s-5.508.81-5.508.81Z" fill="#263238" opacity=".3"/><path d="M266.982 229.725c-.98-4.543-2.074-10.969-1.625-15.246m2.917 20.65s-.34-1.253-.796-3.177m-.238-18.4s7.48.476 12.92 3.82m-13.172 2.259s.211-1.394 6.005 3.876m-9.663-10.881s-.157-3.318-4.393-5.06m5.182 10.01-3.631-.66m3.87 5.638s-6.849 1.714-9.222 4.318" stroke="#263238" stroke-linecap="round" stroke-linejoin="round"/><path d="M255.836 243.977s11.764 8.976 13.002 22.29l-2.475-44.587m17.952 15.797c-15.477-2.788-15.477 28.79-15.477 28.79" stroke="#263238" stroke-linecap="round" stroke-linejoin="round" stroke-width="2"/><path d="M270.694 265.962s-8.976-65.321 17-65.321" stroke="#263238" stroke-linecap="round" stroke-linejoin="round" stroke-width="2"/><path d="M278.419 235.6c-2.114-2.38-6.609-2.38-9.248 3.7-2.638 6.078-.265 5.024-.265 5.024s5.02-1.591 8.194-2.645c3.176-1.054 7.4-3.7 7.664-2.115.265 1.584-2.115 3.17-5.025 3.7-2.92.53-10.57 2.644-9.78 4.256.79 1.612 2.64 6.344 2.64 6.344a66.507 66.507 0 0 1 7.131-5.283c3.44-2.115 5.554-1.326 3.705 1.054-1.85 2.38-7.14 5.018-6.08 8.194 1.06 3.175 7.4 7.133 7.4 7.133s.794-6.603 2.644-8.718c1.85-2.114 1.85.266 1.32 3.965a42.959 42.959 0 0 0-.53 4.76l7.397 2.645a52.798 52.798 0 0 1 3.965-5.284l1.36-1.36s-5.815-5.018-6.08-8.16c-.266-3.14 3.964 0 5.283.53 1.32.53 3.434 4.23 3.434 4.23s1.325-6.08 1.59-8.194l.266-2.114s-5.555-2.115-7.67-2.115-3.169 1.584-3.169-.524 2.115-3.441 4.495-3.175a41.33 41.33 0 0 1 6.344 1.584s1.585-1.32 1.054-5.284c-.528-3.964-1.847-3.964-5.016-2.91-3.17 1.054-5.29 3.44-7.67 3.44s-1.054-2.91.53-3.698c1.584-.79 5.55-2.38 6.344-2.646.796-.265-4.23-3.964-6.874-4.494-2.645-.531-6.065 1.36-5.813 3.964.496 5.515-7.433 6.596-9.548 4.196Z" fill="#CBCBCB"/><path d="M295.433 262.813c.081.794.136 1.589.163 2.387m-5.474-21.359a70.002 70.002 0 0 1 4.998 16.38m-5.95-18.492c-1.306-2.815-2.292-4.535-2.292-4.535a7.77 7.77 0 0 0 3.434-3.17 8.839 8.839 0 0 1 2.646-3.174m-15.328 15.32s9.52-3.963 9.52-3.175m5.25-1.835s4.23-2.114 7.93-2.114m-9.487 8.486a36.55 36.55 0 0 0-5.026 5.026 22.872 22.872 0 0 0-3.7 6.073m11.643-10.064s5.556-1.592 8.46 1.054" stroke="#263238" stroke-linecap="round" stroke-linejoin="round"/><path d="M303.804 212.84c-2.877-1.7-6.059-1.741-7.623-3.536s1.503-2.72 3.141-2.04c1.64.68 5.44 2.632 6.154 3.053.714.422.225-5.786-1.108-8.16-1.333-2.373-4.984-3.706-6.8-1.788-3.842 4.032-9.84-1.258-9.432-4.413.408-3.155-2.536-6.549-8.84-4.563-6.303 1.986-3.964 3.094-3.964 3.094s4.488 2.754 7.37 4.454c2.884 1.7 7.644 3.162 6.618 4.4-1.027 1.237-3.781.482-6.086-1.36-2.306-1.843-8.922-6.25-9.602-4.61-.68 1.64-3.06 6.16-3.06 6.16a66.923 66.923 0 0 1 8.67 1.927c3.849 1.21 4.638 3.325 1.632 3.488-3.006.163-8.473-2.094-10.2.782-1.727 2.875-.537 10.26-.537 10.26s5.508-3.726 8.316-3.72c2.81.007 1.013 1.57-2.128 3.598a42.365 42.365 0 0 0-3.937 2.72l2.856 7.323a53.195 53.195 0 0 1 6.589-.476l1.863.136s0-7.684 2.203-9.962c2.203-2.28 2.598 2.99 3.067 4.337.469 1.346-.938 5.365-.938 5.365s5.44-2.985 7.221-4.175l1.775-1.183s-2.04-5.583-3.434-7.174c-1.394-1.592-3.27-1.36-1.68-2.72 1.592-1.36 3.985-.68 5.345 1.32a40.872 40.872 0 0 1 2.958 5.828s2.04.334 4.685-2.665c2.646-3.001 1.782-3.993-1.094-5.693ZM278.8 221.3c-2.115-1.061 2.904-3.176 2.904-3.176 1.856-.259-.796 4.236-2.904 3.175Zm3.556-9.867c-.897-.449 1.802-1.36 1.802-1.36 3.904.727-.904 1.808-1.808 1.36h.006Z" fill="#CBCBCB"/><path d="M278.732 226.685a39.585 39.585 0 0 1-1.693 1.686m12.53-18.135a69.784 69.784 0 0 1-9.105 14.49m10.084-16.598c1.272-2.836 1.918-4.706 1.918-4.706 1.46.64 3.084.822 4.65.517a8.783 8.783 0 0 1 4.13-.088m-12.996 3.583c.598-.523-8.63-5.107-8.63-5.107m13.492 7.881s4.372 1.81 6.8 4.604m-12.629-1.64a36.635 36.635 0 0 0-7.085-.502c-2.387.03-4.755.431-7.018 1.19m15.211 2.203s4.835 3.15 4.76 7.08" stroke="#263238" stroke-linecap="round" stroke-linejoin="round"/><path d="M262.731 249.458c-2.312-1.36-4.875-1.394-6.12-2.842-1.244-1.45 1.204-2.176 2.523-1.632 1.319.544 4.379 2.12 4.957 2.46.578.341.177-4.663-.897-6.547-1.075-1.884-4.012-2.978-5.474-1.442-3.094 3.25-7.922-1.013-7.59-3.55.334-2.536-2.039-5.27-7.132-3.67-5.093 1.597-3.189 2.488-3.189 2.488s3.61 2.216 5.93 3.583c2.318 1.367 6.153 2.55 5.324 3.543-.83.983-3.04.384-4.896-1.105-1.857-1.49-7.18-5.031-7.725-3.712-.544 1.319-2.462 4.949-2.462 4.949 2.357.365 4.688.883 6.977 1.552 3.094.973 3.726 2.673 1.306 2.802-2.42.13-6.8-1.686-8.16.633-1.36 2.318-.436 8.26-.436 8.26s4.434-3.004 6.692-2.999c2.257.008.816 1.266-1.707 2.898a34.12 34.12 0 0 0-3.169 2.19l2.292 5.89c1.758-.237 3.53-.36 5.304-.375l1.502.104s0-6.182 1.775-8.018c1.775-1.836 2.088 2.408 2.462 3.496.374 1.088-.755 4.318-.755 4.318s4.393-2.408 5.814-3.36l1.428-.958s-1.646-4.488-2.76-5.774c-1.116-1.285-2.639-1.088-1.36-2.203 1.278-1.115 3.202-.53 4.297 1.054a33.421 33.421 0 0 1 2.387 4.692s1.638.265 3.767-2.142c2.128-2.407 1.414-3.216-.905-4.59Zm-20.128 6.8c-1.7-.85 2.34-2.55 2.34-2.55 1.489-.204-.64 3.414-2.34 2.557v-.007Zm2.877-7.929c-.728-.367 1.448-1.088 1.448-1.088 3.135.606-.734 1.449-1.448 1.088Z" fill="#CBCBCB"/><path d="M242.563 260.603c-.442.463-.898.918-1.36 1.36m10.084-14.6a56.109 56.109 0 0 1-7.324 11.663m8.113-13.362c1.02-2.278 1.544-3.78 1.544-3.78a6.331 6.331 0 0 0 3.74.414 7.012 7.012 0 0 1 3.318-.068M243.277 241c0-.001 7.432 3.691 6.95 4.08m3.909 2.263s3.516 1.455 5.44 3.706m-10.132-1.32a29.308 29.308 0 0 0-5.698-.4 18.07 18.07 0 0 0-5.644.96m12.24 1.76s3.889 2.534 3.815 5.689" stroke="#263238" stroke-linecap="round" stroke-linejoin="round"/><path d="M253.293 205.816s-2.91 2.114-4.76 0c-1.849-2.115.796-6.345-1.849-7.93-2.646-1.584-6.868 1.32-6.868 1.32s3.434.796 3.434 2.645c0 1.85-1.585 2.645-1.85 1.85-.265-.796-2.115-4.76-4.76-2.904a6.803 6.803 0 0 0-2.904 4.488s6.338-1.054 6.868 1.326c.53 2.38-2.638-.265-5.283-.265-2.645 0-5.025.53-4.76 2.115a20.754 20.754 0 0 1 0 4.229 7.864 7.864 0 0 1 5.025-2.114c2.904 0 2.904 1.85.265 1.85-2.638 0-4.76 2.644-4.76 2.644s2.645 3.965 5.814 5.814c3.17 1.85 4.23 1.054 4.495-.53.265-1.584-.796-5.55 1.054-5.55 1.85.001-2.638 7.134-.265 7.4 2.37.265 4.22-.531 4.76-2.115l.53-1.585s-1.07-3.964-.8-5.548c.262-1.585.792 0 1.32 1.85.52 1.849 1.06 6.337 1.852 6.078.796-.258 3.17-3.706 3.7-5.025.53-1.32-3.7-5.018-3.7-5.814 0-.795 3.17.531 3.7 1.32.53.788 1.053 1.849 1.053 1.849s1.85-1.32 1.585-5.018c-.265-3.7-2.904-2.38-2.904-2.38Z" fill="#CBCBCB"/><path d="M238.483 215.404c1.83-2.55 4.542-6.018 6.881-7.74m-8.99 10.84c.001 0 .47-.734 1.225-1.836m9.085-8.472s3.175 3.964 3.964 8.194m-7.133-5.55c0 .002.788-.528.788 4.76m1.061-9.783s1.585-1.585.531-4.495m-2.646 7.14-1.32-2.114m-1.06 4.495s-3.97-2.645-6.35-2.645" stroke="#263238" stroke-linecap="round" stroke-linejoin="round"/><path d="M279.983 265.03h-20.434v29.41h20.434v-29.41Z" fill="#263238" stroke="#263238" stroke-linecap="round" stroke-linejoin="round" stroke-width="2"/></svg>