<svg xmlns="http://www.w3.org/2000/svg" fill="none" width="382" height="255" viewBox="0 0 382 255"><g filter="url(#a)"><path d="M204.752 110.201a24.76 24.76 0 0 0-30.827 2.566 24.83 24.83 0 0 0-7.524 14.578 24.847 24.847 0 0 0 3.207 16.092m43.955-22.71a25.455 25.455 0 0 0-1.67-3.147m-.443 27.066a24.934 24.934 0 0 0 3.708-18.95m-48.855-19.555a35.44 35.44 0 0 0-4.508 5.55" stroke="#263238" stroke-linecap="round" stroke-linejoin="round" stroke-width=".97"/><path d="M218.413 152.097a34.869 34.869 0 0 0 7.249-22.611 34.853 34.853 0 0 0-8.906-22.01 34.757 34.757 0 0 0-44.143-6.338m-9.28 50.96a34.956 34.956 0 0 1-5.664-31.855m-5.241 40.662a49.077 49.077 0 0 0 7.324 7.538" stroke="#263238" stroke-linecap="round" stroke-linejoin="round" stroke-width=".97"/><path d="M218.534 90.438a48.811 48.811 0 0 0-58.56 2.513 48.935 48.935 0 0 0-16.49 26.157 48.983 48.983 0 0 0 2.476 30.832m90.503-36.832a48.85 48.85 0 0 0-5.027-9.634m-6.77 62.638a48.792 48.792 0 0 0 15.08-35.338m-117.1 0a68.752 68.752 0 0 0 16.2 44.33 68.58 68.58 0 0 0 40.949 23.393" stroke="#263238" stroke-linecap="round" stroke-linejoin="round" stroke-width=".97"/><path d="M246.008 171.641a68.772 68.772 0 0 0 2.084-78.679 68.632 68.632 0 0 0-31.975-26.02 68.53 68.53 0 0 0-41.095-2.988m-52.375 66.82a68.753 68.753 0 0 1 14.668-42.449 68.597 68.597 0 0 1 37.728-24.3m56.393 122.125a68.216 68.216 0 0 0 5.027-4.08m-34.15 16.427a68.057 68.057 0 0 0 22.201-7.854" stroke="#263238" stroke-linecap="round" stroke-linejoin="round" stroke-width=".97"/><path d="M190.903 192.347a26.218 26.218 0 0 1-18.517-7.693 26.282 26.282 0 0 1-7.683-18.542v-8.833a1.427 1.427 0 0 1 1.426-1.428h3.566c.378 0 .741.15 1.008.418a1.432 1.432 0 0 1 0 2.02 1.43 1.43 0 0 1-1.008.41h-2.124v7.403c0 6.2 2.46 12.147 6.838 16.531a23.335 23.335 0 0 0 16.51 6.848c6.192 0 12.13-2.464 16.509-6.848a23.396 23.396 0 0 0 6.838-16.53V158.7h-2.139a1.427 1.427 0 0 1 0-2.856h3.565a1.425 1.425 0 0 1 1.427 1.427v8.833a26.282 26.282 0 0 1-7.69 18.547 26.215 26.215 0 0 1-18.526 7.688Zm27.626 21.95v-2.856a2.852 2.852 0 0 0-1.76-2.64 2.84 2.84 0 0 0-1.092-.216h-49.548a2.84 2.84 0 0 0-2.018.835 2.842 2.842 0 0 0-.834 2.021v2.867h55.252Z" fill="#263238"/><path d="M193.684 212.063c.047-.204.07-.413.07-.622v-20.52h-5.703v20.53c0 .21.024.418.071.622h5.562Z" fill="#263238"/><path d="M208.547 130.774a17.68 17.68 0 0 0-5.061-12.69 17.642 17.642 0 0 0-12.585-5.282 17.631 17.631 0 0 0-12.58 5.283 17.689 17.689 0 0 0-5.06 12.69v35.337a17.682 17.682 0 0 0 5.276 12.301 17.634 17.634 0 0 0 24.746 0 17.686 17.686 0 0 0 5.273-12.301v-35.338Z" stroke="#263238" stroke-linecap="round" stroke-linejoin="round" stroke-width=".97"/><path d="M208.547 130.774a17.68 17.68 0 0 0-5.061-12.69 17.642 17.642 0 0 0-12.585-5.282 17.631 17.631 0 0 0-12.58 5.283 17.689 17.689 0 0 0-5.06 12.69v35.337a17.682 17.682 0 0 0 5.276 12.301 17.634 17.634 0 0 0 24.746 0 17.686 17.686 0 0 0 5.273-12.301v-35.338Z" fill="#E8E8E8"/><path d="M183.594 132.636h-10.339v4.284h10.339a2.142 2.142 0 0 0 0-4.284Zm24.953 0h-10.335c-.567 0-1.11.225-1.512.627a2.146 2.146 0 0 0 0 3.029c.401.402.945.628 1.512.628h10.335v-4.284Zm-17.644 0a2.14 2.14 0 0 0-1.512 3.656 2.137 2.137 0 0 0 3.652-1.514c0-.568-.226-1.113-.627-1.515a2.136 2.136 0 0 0-1.513-.627Zm0 8.66a2.135 2.135 0 0 0-1.976 1.322 2.147 2.147 0 0 0 .464 2.334c.3.3.68.504 1.095.586a2.138 2.138 0 0 0 2.557-2.1 2.144 2.144 0 0 0-2.14-2.142Zm0 8.644a2.14 2.14 0 0 0-2.098 2.56 2.143 2.143 0 0 0 2.917 1.561 2.14 2.14 0 0 0 1.32-1.98 2.14 2.14 0 0 0-2.14-2.142Zm-7.309-8.644h-10.339v4.284h10.339a2.144 2.144 0 0 0 1.513-3.657 2.136 2.136 0 0 0-1.513-.627Zm24.953 0h-10.335a2.144 2.144 0 0 0-1.512 3.656c.401.402.945.628 1.512.628h10.335v-4.284Zm-24.953 8.644h-10.339v4.284h10.339a2.14 2.14 0 0 0 2.14-2.142 2.14 2.14 0 0 0-2.14-2.142Zm24.953 0h-10.335a2.14 2.14 0 0 0-2.139 2.142 2.14 2.14 0 0 0 2.139 2.142h10.335v-4.284Z" fill="#fff"/><path d="M208.547 130.774a17.68 17.68 0 0 0-5.061-12.69 17.642 17.642 0 0 0-12.585-5.282 17.631 17.631 0 0 0-12.58 5.283 17.689 17.689 0 0 0-5.06 12.69v35.337a17.682 17.682 0 0 0 5.276 12.301 17.634 17.634 0 0 0 24.746 0 17.686 17.686 0 0 0 5.273-12.301v-35.338Z" stroke="#263238" stroke-miterlimit="10" stroke-width=".97"/><path d="M173.255 166.112a17.682 17.682 0 0 0 5.273 12.301 17.634 17.634 0 0 0 24.746 0 17.686 17.686 0 0 0 5.273-12.301h-35.292Z" fill="#263238" stroke="#263238" stroke-miterlimit="10" stroke-width=".97"/><path d="M340.58 157.211c22.035-22.063 22.035-57.836 0-79.9-22.034-22.063-57.76-22.063-79.795 0-22.035 22.064-22.035 57.837 0 79.9 22.035 22.064 57.76 22.064 79.795 0Z" fill="#E8E8E8"/><path d="M292.592 93.886h-39.417a3.598 3.598 0 0 0-3.596 3.6v39.47c0 1.988 1.61 3.6 3.596 3.6h39.417a3.598 3.598 0 0 0 3.596-3.6v-39.47c0-1.988-1.61-3.6-3.596-3.6Z" fill="#fff"/><path d="M253.974 140.561h15.555l9.912-46.675h-16.187l-9.896 46.624c.204.032.41.05.616.051v.011Zm32.058-46.675h-3.892l-9.906 46.675h3.891l9.907-46.664Z" fill="#000" opacity=".1"/><path d="M291.792 141.724h-37.818a5.564 5.564 0 0 1-3.923-1.629 5.578 5.578 0 0 1-1.634-3.925V98.287a5.578 5.578 0 0 1 1.631-3.931 5.562 5.562 0 0 1 3.926-1.633h37.818a5.56 5.56 0 0 1 3.93 1.631 5.578 5.578 0 0 1 1.632 3.933v37.883a5.583 5.583 0 0 1-1.636 3.927 5.56 5.56 0 0 1-3.926 1.627Zm-37.818-46.67a3.236 3.236 0 0 0-3.234 3.233v37.883a3.244 3.244 0 0 0 3.234 3.244h37.818a3.234 3.234 0 0 0 3.234-3.244V98.287a3.248 3.248 0 0 0-.947-2.288 3.232 3.232 0 0 0-2.287-.95h-37.818Z" fill="#fff" stroke="#263238" stroke-miterlimit="10" stroke-width=".933"/><path d="M347.411 93.886h-39.417a3.598 3.598 0 0 0-3.596 3.6v39.47c0 1.988 1.61 3.6 3.596 3.6h39.417a3.598 3.598 0 0 0 3.596-3.6v-39.47c0-1.988-1.61-3.6-3.596-3.6Z" fill="#fff"/><path d="M312.863 140.561h15.555l9.907-46.675h-16.182l-9.922 46.624a4.3 4.3 0 0 0 .65.051v.011Zm32.057-46.675h-3.891l-9.912 46.675h3.897l9.906-46.664Z" fill="#000" opacity=".1"/><path d="M346.612 141.724h-37.818a5.562 5.562 0 0 1-3.923-1.629 5.578 5.578 0 0 1-1.634-3.925V98.287a5.566 5.566 0 0 1 5.557-5.564h37.818a5.563 5.563 0 0 1 3.929 1.631 5.578 5.578 0 0 1 1.633 3.933v37.883a5.583 5.583 0 0 1-1.636 3.927 5.562 5.562 0 0 1-3.926 1.627Zm-37.818-46.67a3.235 3.235 0 0 0-3.235 3.233v37.883a3.242 3.242 0 0 0 3.235 3.244h37.818a3.234 3.234 0 0 0 3.234-3.244V98.287a3.232 3.232 0 0 0-3.234-3.233h-37.818Z" fill="#fff" stroke="#263238" stroke-miterlimit="10" stroke-width=".933"/><path d="M302.208 226.17c14.017 0 25.38-1.674 25.38-3.739 0-2.06-11.363-3.73-25.38-3.73s-25.38 1.676-25.38 3.741c0 2.064 11.363 3.738 25.38 3.738Z" fill="#E8E8E8"/><path d="M313.423 200.654s-.066 10.471-1.17 12.195c-1.32 2.04-2.257 4.89 1.237 5.666 3.494.775 5.572 4.635 9.733 4.89 4.161.255 4.584-1.53 2.771-2.963-1.814-1.433-6.418-5.406-7.024-7.338-.606-1.933.57-12.45.57-12.45h-6.117Z" fill="#fff"/><path d="M318.985 206.734c.224-3.086.555-6.08.555-6.08h-6.112s0 2.678-.178 5.55c1.894.335 3.812.512 5.735.53Z" fill="#000" opacity=".1"/><path d="M313.423 200.654s-.066 10.471-1.17 12.195c-1.32 2.04-2.257 4.89 1.237 5.666 3.494.775 5.572 4.635 9.733 4.89 4.161.255 4.584-1.53 2.771-2.963-1.814-1.433-6.418-5.406-7.024-7.338-.606-1.933.57-12.45.57-12.45h-6.117Z" stroke="#263238" stroke-linecap="round" stroke-linejoin="round" stroke-width=".933"/><path d="M325.974 220.442a51.696 51.696 0 0 1-4.83-4.35c-1.45 1.102-5.703.06-6.956-.928-1.528-1.204-1.207-1.82-1.93-2.36l-.026.045c-1.32 2.04-2.257 4.89 1.238 5.666 3.494.775 5.572 4.636 9.733 4.891 4.161.255 4.594-1.556 2.771-2.964Z" fill="#BFBFBF" stroke="#263238" stroke-miterlimit="10" stroke-width=".933"/><path d="M289.928 196.86s-4.584 9.578-6.316 10.746c-2.093 1.397-4.171 3.646-1.304 5.65 2.868 2.005 3.122 6.32 6.825 8.1 3.703 1.78 4.86.275 3.815-1.689-1.044-1.963-3.565-7.339-3.285-9.338.28-1.999 5.918-11.43 5.918-11.43l-5.653-2.039Z" fill="#fff"/><path d="M289.928 196.86s-1.64 3.437-3.326 6.44a17.97 17.97 0 0 0 4.645 3.332c1.757-3.407 4.335-7.717 4.335-7.717l-5.654-2.055Z" fill="#000" opacity=".1"/><path d="M289.928 196.86s-4.584 9.578-6.316 10.746c-2.093 1.397-4.171 3.646-1.304 5.65 2.868 2.005 3.122 6.32 6.825 8.1 3.703 1.78 4.86.275 3.815-1.689-1.044-1.963-3.565-7.339-3.285-9.338.28-1.999 5.918-11.43 5.918-11.43l-5.653-2.039Z" stroke="#263238" stroke-linecap="round" stroke-linejoin="round" stroke-width=".933"/><path d="M292.948 219.642a47.47 47.47 0 0 1-2.546-5.784c-1.809.475-5.567-1.948-5.98-3.427-.8-2.85-.326-2.116-.76-2.881l-.04.03c-2.093 1.398-4.17 3.647-1.304 5.65 2.868 2.005 3.123 6.32 6.825 8.1 3.703 1.78 4.85.275 3.805-1.688Z" fill="#BFBFBF" stroke="#263238" stroke-miterlimit="10" stroke-width=".933"/><path d="M314.162 129.086s7.014 33.66 7.482 44.64c.469 10.98-1.355 30.565-1.355 30.565l-7.787-.51s-.05-5.79-.831-13.847c-.463-4.789-1.92-10.378-1.757-16.029 0 0-7.4-21.976-7.13-31.62.27-9.644 0-12.419 0-12.419l11.378-.78Z" fill="#263238" stroke="#263238" stroke-linecap="round" stroke-linejoin="round" stroke-width=".933"/><path d="M295.413 129.086s-7.273 6.018-3.056 18.15c1.66 4.815 8.068 26.837 8.068 26.837a30.733 30.733 0 0 0-4.43 6.656c-2.924 5.783-5.053 14.79-8.66 19.956l5.338 3.606s17.236-21.635 18.336-28.504c1.1-6.87-4.074-34.339-4.074-34.339l-1.656-11.163-9.866-1.199Z" fill="#263238" stroke="#263238" stroke-linecap="round" stroke-linejoin="round" stroke-width=".933"/><path d="M327.67 106.274a6.754 6.754 0 0 0-1.116-3.188c.534-.703.996-1.458 1.38-2.254.388-.933-.127-2.254-1.202-.673-1.074 1.58-2.256 2.734-1.828 4.707a5.509 5.509 0 0 1-.652 3.708l2.48 1.943 4.946-3.927-4.008-.316Z" fill="#fff" stroke="#263238" stroke-linecap="round" stroke-linejoin="round" stroke-width=".933"/><path d="m329.999 96.186-4.158 1.131a.72.72 0 0 0-.504.883l2.37 8.726a.718.718 0 0 0 .88.505l4.159-1.132a.72.72 0 0 0 .504-.883l-2.37-8.725a.719.719 0 0 0-.88-.505Z" fill="#263238" stroke="#263238" stroke-linecap="round" stroke-linejoin="round" stroke-width=".933"/><path d="m330.91 96.8-5.544 1.508 2.312 8.514 5.544-1.51-2.312-8.513Z" fill="#E8E8E8" stroke="#263238" stroke-linecap="round" stroke-linejoin="round" stroke-width=".933"/><path d="M329.799 99.746a1.024 1.024 0 0 0-1.243-.735 1.02 1.02 0 0 0-.734 1.245c.067.255.398 1.453.51 1.877l1.976-.536c-.112-.393-.448-1.637-.51-1.851Zm-.184 3.233a1.018 1.018 0 0 0 .739-1.157l-1.961.51a1.02 1.02 0 0 0 1.222.647Z" fill="#263238"/><path d="m331.459 104.04-1.284.352-.265-.969a1.588 1.588 0 0 0 .958-1.897l-.143-.51a.093.093 0 0 0-.013-.031.084.084 0 0 0-.055-.033.072.072 0 0 0-.033.003l-.214.056a.075.075 0 0 0-.03.015.09.09 0 0 0-.022.026.09.09 0 0 0-.01.032c0 .012.002.023.006.034a.08.08 0 0 0 .037.052.09.09 0 0 0 .043.01.069.069 0 0 0 .031-.001l.128-.036.117.434a1.408 1.408 0 0 1-.138 1.077 1.413 1.413 0 0 1-1.934.527 1.415 1.415 0 0 1-.663-.86l-.122-.433.127-.031a.089.089 0 0 0 .05-.042.092.092 0 0 0 .011-.065.085.085 0 0 0-.016-.03.082.082 0 0 0-.026-.023.094.094 0 0 0-.032-.01.098.098 0 0 0-.034.002l-.21.056a.085.085 0 0 0-.03.015.096.096 0 0 0-.023.026.092.092 0 0 0-.008.066l.143.51a1.593 1.593 0 0 0 1.782 1.153l.261.969-1.283.347a.152.152 0 0 0-.06.04.157.157 0 0 0-.046.05.167.167 0 0 0-.017.134l.046.168 3.24-.883-.046-.168a.174.174 0 0 0-.148-.126.173.173 0 0 0-.068.005Z" fill="#263238"/><path d="M331.984 98.787c-.51.056-.933.857-.775 1.984.158 1.127 1.192-.097 1.253-.454.061-.357.494-1.627-.478-1.53Zm1.12 1.683a.909.909 0 0 0-.894.69.924.924 0 0 0-.008.401c.097 1.108.31.853.31.853.006.451.098.897.271 1.315.255.483.927-.25.927-.69 0-.438-.07-2.744-.606-2.56Z" fill="#fff" stroke="#263238" stroke-linecap="round" stroke-linejoin="round" stroke-width=".933"/><path d="M332.518 102.382s.881-.26 1.09-.902Z" fill="#fff"/><path d="M332.518 102.382s.881-.26 1.09-.902" stroke="#263238" stroke-linecap="round" stroke-linejoin="round" stroke-width=".933"/><path d="M324.863 107.018a4.96 4.96 0 0 0 .04-2.152c-.427-1.974.749-3.131 1.83-4.707 1.08-1.576 1.588-.26 1.201.673a13.226 13.226 0 0 1-1.38 2.254 5.642 5.642 0 0 1 1.115 3.188v1.484" fill="#fff"/><path d="M324.863 107.018a4.96 4.96 0 0 0 .04-2.152c-.427-1.974.749-3.131 1.83-4.707 1.08-1.576 1.588-.26 1.201.673a13.226 13.226 0 0 1-1.38 2.254 5.642 5.642 0 0 1 1.115 3.188v1.484" stroke="#263238" stroke-linecap="round" stroke-linejoin="round" stroke-width=".933"/><path d="M311.203 94.692c1.772-.373 2.317-.826 2.317-.826-1.33-5.36 3.438-23.39-11.587-24.22-15.025-.832-6.62 24.714-6.62 24.714l1.634.21-.841-5.136 1.956 5.263c5.786.627 9.494.51 11.827.214a28.708 28.708 0 0 1-.097-6.987c.294 2.29.766 4.552 1.411 6.768Z" fill="#263238"/><path d="M301.928 69.967a3.652 3.652 0 0 0-4.503-.51" stroke="#263238" stroke-linecap="round" stroke-linejoin="round" stroke-width=".933"/><path d="M313.372 97.96v-.162c-.03.07-.061.122 0 .163Z" fill="#fff" stroke="#263238" stroke-linecap="round" stroke-linejoin="round" stroke-width=".933"/><path d="m324.252 108.574-7.131 6.63.133-9.935a8.904 8.904 0 0 0-4.014-7.584l.27 26.148c7.004.444 13.243-13.316 13.243-13.316a3.828 3.828 0 0 0-2.5-1.943Z" fill="#fff"/><path d="M316.026 120.625c-1.06.097-1.3-1.933-1.283-3.906a9.028 9.028 0 0 0-.586 2.315 108.574 108.574 0 0 0-.056 6.385c7.976-3.632 8.073-6.86 10.12-10.155-1.304 1.66-6.153 5.16-8.195 5.35Z" fill="#000" opacity=".1"/><path d="m324.252 108.574-7.131 6.63.133-9.935a8.904 8.904 0 0 0-4.014-7.584l.27 26.148c7.004.444 13.243-13.316 13.243-13.316a3.828 3.828 0 0 0-2.5-1.943v0Z" stroke="#263238" stroke-linecap="round" stroke-linejoin="round" stroke-width=".933"/><path d="m322.739 109.431 1.564-1.484 3.428 2.356-.999 1.662-3.993-2.534Z" fill="#E8E8E8" stroke="#263238" stroke-linecap="round" stroke-linejoin="round" stroke-width=".933"/><path d="M316.057 110.16c-2.873 12.75-1.447 21.129-1.447 21.129s-6.932 4.922-21.504.75c0 0 2.65-6.594 1.936-11.623-.433-3.096-3.337-14.224-3.337-14.224s-1.375-4.865-.743-8.792c1.217-.79 3.825-1.744 8.434-2.081.077-.258.13-.523.158-.79.147-1.297.18-2.605.097-3.907a49.97 49.97 0 0 0-.183-2.75h5.562s.073 1.409.251 3.06c.098.975.235 2.04.408 2.959.086.46.197.914.332 1.362 5.551.836 7.64 2.284 8.042 3.544 1.89 5.682 2.618 8.64 2.007 11.363Z" fill="#fff" stroke="#263238" stroke-linecap="round" stroke-linejoin="round" stroke-width=".933"/><path d="M305.284 91.83c-.453 1.02-1.02 1.826-2.979 1.816-1.457 0-2.771-1.29-2.919-1.785.158-1.117 0-1.53-.066-2.795a32.5 32.5 0 0 1 5.602.327c.08.818.2 1.632.362 2.438Z" fill="#263238"/><path d="M308.982 80.912v-1.22c-.413-1.978-2.858-2.08-3.983-2.075a8.648 8.648 0 0 1-3.474-.607 4.98 4.98 0 0 0 1.727 2.152c-4.187-.933-4.513-3.147-4.355-4.34-1.487 5.207-3.418 5.427-3.418 5.427s0 .464.087 1.213a2.128 2.128 0 0 0-1.645 2.26 2.11 2.11 0 0 0 2.037 2.131c.11-.004.219-.02.326-.045.886 3.447 2.705 7.196 6.428 7.048 3.723-.148 5.24-4.034 5.842-7.543.11.01.221.01.331 0a2.098 2.098 0 0 0 1.88-2.29 2.131 2.131 0 0 0-1.783-2.111v0Z" fill="#fff" stroke="#263238" stroke-linecap="round" stroke-linejoin="round" stroke-width=".933"/><path d="m301.525 86.751.642.464a.468.468 0 0 0 .56 0l.591-.454m.652-2.912s.795-1.05 2.379-.311m-5.853.311s-.79-1.05-2.38-.311m5.88 5.064a2.664 2.664 0 0 1-3.133.128" stroke="#263238" stroke-linecap="round" stroke-linejoin="round" stroke-width=".933"/><path d="M310.729 176.904a16.72 16.72 0 0 1-.63 1.647m-6.806-38.81 1.66 1.49a8.583 8.583 0 0 1 2.756 5.11c1.42 9.05 3.703 18.358 3.423 28.19" stroke="#fff" stroke-linecap="round" stroke-linejoin="round" stroke-width=".933"/><path d="m309.578 140.005-2.633 3.77.331-.465" stroke="#fff" stroke-linecap="round" stroke-linejoin="round" stroke-width=".933"/><path d="m299.172 124.884.754.775m-6.21-11.46a26.12 26.12 0 0 0 4.157 9.04" stroke="#263238" stroke-linecap="round" stroke-linejoin="round" stroke-width=".933"/><path d="m293.864 79.711-.565.023.081 2.013.564-.023-.08-2.013Zm17.241-.726-.565.022.08 2.013.566-.022-.08-2.013Z" fill="#fff" stroke="#263238" stroke-linecap="round" stroke-linejoin="round" stroke-width=".933"/><path d="M301.846 70.574a9.275 9.275 0 0 0-6.327 2.859 9.3 9.3 0 0 0-2.576 6.453c.001.046.01.09.028.131a.348.348 0 0 0 .19.18.335.335 0 0 0 .133.02h.596a.336.336 0 0 0 .321-.34 8.027 8.027 0 0 1 2.253-5.523 8.007 8.007 0 0 1 11.052-.444 8.021 8.021 0 0 1 2.688 5.324.33.33 0 0 0 .347.31h.595a.333.333 0 0 0 .32-.356 9.284 9.284 0 0 0-3.066-6.26 9.264 9.264 0 0 0-6.554-2.354v0Zm-6.942 10.368h-.132a2.928 2.928 0 0 0-2.804 3.047 2.932 2.932 0 0 0 3.043 2.808h.127l-.234-5.855Z" fill="#E8E8E8" stroke="#263238" stroke-linecap="round" stroke-linejoin="round" stroke-width=".933"/><path d="M295.693 83.834c.087 2.172.24 3.57-.509 3.616-.75.046-1.064-1.372-1.151-3.57-.087-2.198.112-3.57.86-3.62.75-.052.714 1.401.8 3.574Z" fill="#fff" stroke="#263238" stroke-linecap="round" stroke-linejoin="round" stroke-width=".933"/><path d="M309.624 80.35h.132a2.926 2.926 0 0 1 2.863 3.94 2.928 2.928 0 0 1-2.63 1.915h-.14l-.235-5.855Z" fill="#E8E8E8" stroke="#263238" stroke-linecap="round" stroke-linejoin="round" stroke-width=".933"/><path d="M309.043 83.298c.087 2.173.05 3.57.8 3.57.748 0 .947-1.453.86-3.626-.086-2.172-.402-3.57-1.146-3.544-.743.025-.6 1.428-.514 3.6Z" fill="#fff" stroke="#263238" stroke-linecap="round" stroke-linejoin="round" stroke-width=".933"/><path d="M297.028 81.921s1.94-1.606 3.779-.153m6.87-.168s-2.036-1.443-3.778.153" stroke="#263238" stroke-linecap="round" stroke-linejoin="round" stroke-width=".933"/><path d="M298.663 94.61s1.161 2.917 5.47 3.57c0 0-1.72 3.57-4.074 2.168-2.817-1.673-3.357-5.146-3.357-5.146l1.961-.592Z" fill="#E8E8E8" stroke="#263238" stroke-linecap="round" stroke-linejoin="round" stroke-width=".933"/><path d="M306.558 94.972a3.309 3.309 0 0 1-2.659 3.31s2.093 3.437 3.81 1.53c1.716-1.907.382-4.503.382-4.503l-1.533-.337Zm-.958 10.124a.51.51 0 1 1-1.02 0 .51.51 0 0 1 1.02 0Zm.693 10.042a.512.512 0 0 1-.61.5.506.506 0 0 1-.4-.401.506.506 0 0 1 .217-.523.506.506 0 0 1 .643.063.51.51 0 0 1 .15.361Zm.65 10.28a.512.512 0 0 1-.313.472.505.505 0 0 1-.694-.37.505.505 0 0 1 .216-.525.51.51 0 0 1 .792.424Z" fill="#E8E8E8" stroke="#263238" stroke-linecap="round" stroke-linejoin="round" stroke-width=".933"/><path d="M351.827 57.044H248.626a.867.867 0 0 0-.866.867v1.87c0 .48.388.868.866.868h103.201a.867.867 0 0 0 .866-.867V57.92a.867.867 0 0 0-.866-.868Z" fill="#fff"/><path d="M351.654 60.639H248.799m0-3.596h102.855" stroke="#263238" stroke-linecap="round" stroke-linejoin="round" stroke-width=".933"/><path d="M280.816 81.238s-4.253-.597-4.482.546c-.23 1.142-.102 2.973.63 3.57 1.387 1.132 1.132 3.248 1.132 3.248l3.565-.347.092-1.784a3.609 3.609 0 0 1 .953-1.52c1.283-1.21.774-2.551.555-4.167-.22-1.617-1.284-.898-1.37-.06a9.591 9.591 0 0 0 .183 2.222l-1.258-1.697Z" fill="#fff" stroke="#263238" stroke-linecap="round" stroke-linejoin="round" stroke-width=".933"/><path d="M281.814 82.809s-1.02.209-1.823 1.652Z" fill="#fff"/><path d="M281.814 82.809s-1.02.209-1.823 1.652" stroke="#263238" stroke-linecap="round" stroke-linejoin="round" stroke-width=".933"/><path d="M281.814 83.186h-5.154a2.242 2.242 0 0 1-1.854-.887 1.527 1.527 0 0 1 0-1.775l2.577-3.79a2.38 2.38 0 0 1 2.9-.664c.322.156.606.383.828.665l2.583 3.789a1.533 1.533 0 0 1 0 1.775 2.23 2.23 0 0 1-1.88.887Zm-6.112-2.244a.796.796 0 0 0 0 .928 1.175 1.175 0 0 0 .963.46h5.15a1.157 1.157 0 0 0 .962-.46.79.79 0 0 0 0-.928l-2.577-3.784a1.159 1.159 0 0 0-.973-.47 1.14 1.14 0 0 0-.968.47l-2.582 3.79.025-.006Z" fill="#263238"/><path d="M277.693 81.289c.265 1.346.102 1.826-.509 1.754-.611-.071-1.227-1.724-.382-2.1.846-.378 1.528-.669 1.528-.669a1.98 1.98 0 0 1 1.773-.056c1.212-.423 1.426.46 1.426.46s.876 2.55.147 2.636c-.728.086-1.33-2.127-1.33-2.127s.913 2.428.077 2.468c-.835.041-1.32-2.356-1.32-2.356s.546 2.106-.243 2.178c-.79.071-1.167-2.188-1.167-2.188Zm1.926-21.614h-.835v16.743h.835V59.675Z" fill="#fff" stroke="#263238" stroke-linecap="round" stroke-linejoin="round" stroke-width=".933"/><path d="m280.082 76.158-.545.801a.374.374 0 0 1-.3.146.38.38 0 0 1-.301-.146l-.54-.8c-.132-.19.036-.424.296-.424h1.09c.265 0 .428.255.3.423Zm-.397-5.62h-.891a.443.443 0 0 0-.443.444v3.713c0 .245.198.443.443.443h.891a.443.443 0 0 0 .443-.443v-3.713a.443.443 0 0 0-.443-.444Zm0-14.07h-.891a.443.443 0 0 0-.443.443v3.713c0 .245.198.443.443.443h.891a.443.443 0 0 0 .443-.443V56.91a.443.443 0 0 0-.443-.444Z" fill="#fff" stroke="#263238" stroke-linecap="round" stroke-linejoin="round" stroke-width=".933"/><path d="M269.697 83.186h-5.154a2.238 2.238 0 0 1-1.854-.887 1.527 1.527 0 0 1 0-1.775l2.577-3.79a2.382 2.382 0 0 1 3.733 0l2.577 3.79a1.527 1.527 0 0 1 0 1.775 2.22 2.22 0 0 1-1.88.887Zm-6.112-2.244a.796.796 0 0 0 0 .928 1.157 1.157 0 0 0 .963.46h5.154a1.175 1.175 0 0 0 .968-.46.796.796 0 0 0 0-.928l-2.577-3.784a1.161 1.161 0 0 0-.973-.47 1.14 1.14 0 0 0-.968.47l-2.582 3.79.015-.006Z" fill="#263238"/><path d="M267.502 59.675h-.835v16.743h.835V59.675Z" fill="#fff" stroke="#263238" stroke-linecap="round" stroke-linejoin="round" stroke-width=".933"/><path d="m267.965 76.158-.565.801a.383.383 0 0 1-.6 0l-.54-.8c-.133-.19.035-.424.295-.424h1.09c.264 0 .448.255.32.423Zm-.397-5.62h-.89a.443.443 0 0 0-.444.444v3.713c0 .245.198.443.443.443h.89a.443.443 0 0 0 .444-.443v-3.713a.443.443 0 0 0-.443-.444Zm0-14.07h-.89a.443.443 0 0 0-.444.443v3.713c0 .245.198.443.443.443h.89a.443.443 0 0 0 .444-.443V56.91a.443.443 0 0 0-.443-.444Z" fill="#fff" stroke="#263238" stroke-linecap="round" stroke-linejoin="round" stroke-width=".933"/><path d="M322.209 83.186h-5.154a2.224 2.224 0 0 1-1.854-.887 1.527 1.527 0 0 1 0-1.775l2.577-3.79a2.38 2.38 0 0 1 2.9-.664c.322.156.606.383.828.665l2.578 3.789a1.533 1.533 0 0 1 0 1.775 2.24 2.24 0 0 1-1.875.887Zm-6.112-2.244a.789.789 0 0 0 0 .928 1.157 1.157 0 0 0 .963.46h5.154a1.157 1.157 0 0 0 .963-.46.79.79 0 0 0 0-.928l-2.577-3.784a1.254 1.254 0 0 0-.973-.47 1.24 1.24 0 0 0-.973.47l-2.577 3.79.02-.006Z" fill="#263238"/><path d="M320.009 59.675h-.835v16.743h.835V59.675Z" fill="#fff" stroke="#263238" stroke-linecap="round" stroke-linejoin="round" stroke-width=".933"/><path d="m320.473 76.158-.54.801a.386.386 0 0 1-.468.108.383.383 0 0 1-.133-.108l-.54-.8c-.133-.19.036-.424.295-.424h1.09c.26 0 .428.255.296.423Zm-.392-5.62h-.892a.443.443 0 0 0-.443.444v3.713c0 .245.198.443.443.443h.892a.444.444 0 0 0 .443-.443v-3.713c0-.245-.2-.444-.443-.444Zm0-14.07h-.892a.443.443 0 0 0-.443.443v3.713c0 .245.198.443.443.443h.892a.444.444 0 0 0 .443-.443V56.91c0-.245-.2-.444-.443-.444Z" fill="#fff" stroke="#263238" stroke-linecap="round" stroke-linejoin="round" stroke-width=".933"/><path d="M333.756 83.186h-5.154a2.24 2.24 0 0 1-1.854-.887 1.527 1.527 0 0 1 0-1.775l2.577-3.79a2.382 2.382 0 0 1 3.733 0l2.577 3.79a1.527 1.527 0 0 1 0 1.775 2.22 2.22 0 0 1-1.88.887Zm-6.112-2.244a.796.796 0 0 0 0 .928 1.174 1.174 0 0 0 .963.46h5.154a1.175 1.175 0 0 0 .968-.46.796.796 0 0 0-.011-.928l-2.577-3.784a1.167 1.167 0 0 0-.973-.47 1.14 1.14 0 0 0-.968.47l-2.58 3.79.015-.006Z" fill="#263238"/><path d="M331.561 59.675h-.835v16.743h.835V59.675Z" fill="#fff" stroke="#263238" stroke-linecap="round" stroke-linejoin="round" stroke-width=".933"/><path d="m332.024 76.158-.545.801a.383.383 0 0 1-.6 0l-.54-.8c-.133-.19.035-.424.295-.424h1.09c.265 0 .428.255.3.423Zm-.397-5.62h-.891a.444.444 0 0 0-.444.444v3.713c0 .245.2.443.444.443h.891a.443.443 0 0 0 .443-.443v-3.713a.443.443 0 0 0-.443-.444Zm0-14.07h-.891a.444.444 0 0 0-.444.443v3.713c0 .245.2.443.444.443h.891a.443.443 0 0 0 .443-.443V56.91a.443.443 0 0 0-.443-.444Z" fill="#fff" stroke="#263238" stroke-linecap="round" stroke-linejoin="round" stroke-width=".933"/><path d="m282.212 87.45.27 2.177-5.542.26.463-2.182 4.809-.255Z" fill="#E8E8E8" stroke="#263238" stroke-linecap="round" stroke-linejoin="round" stroke-width=".933"/><path d="M291.608 105.754s-9.62 8.858-11.842 8.996c-.545.036-1.018.377-1.477.066-1.02-.693-2.5-2.162-2.28-8.13.11-3.263 2.08-16.865 2.08-16.865l3.562-.158.866 15.3c3.057-3.172 8.37-7.568 8.375-7.568 1.66 5.314.707 8.36.707 8.36Z" fill="#fff" stroke="#263238" stroke-linecap="round" stroke-linejoin="round" stroke-width=".933"/><path d="M315.873 118.07a7.85 7.85 0 0 1 1.34-2.927Z" fill="#fff"/><path d="M315.873 118.07a7.85 7.85 0 0 1 1.34-2.927m-35.775-6.58c.371-.168 1.258-1.825 1.074-4.656" stroke="#263238" stroke-linecap="round" stroke-linejoin="round" stroke-width=".933"/><path d="M284.855 72.231v-6.094a1.117 1.117 0 0 1 1.11-1.112h9.555a1.116 1.116 0 0 1 1.11 1.112v6.094a1.113 1.113 0 0 1-1.11 1.112h-3.326l.265 2.32h-1.716v2.194l-2.037-3.57h1.665l-.173-.94h-4.238a1.103 1.103 0 0 1-.783-.328 1.103 1.103 0 0 1-.322-.788Z" fill="#fff" stroke="#263238" stroke-linecap="round" stroke-linejoin="round" stroke-width=".933"/><path d="M293.137 67.11h-6.46m8.13 1.73h-8.13m6.877 1.724h-6.876" stroke="#263238" stroke-linecap="round" stroke-linejoin="round" stroke-width=".933"/><path d="M72.346 223.074c13.133 0 23.78-1.57 23.78-3.504 0-1.935-10.647-3.503-23.78-3.503-13.134 0-23.781 1.568-23.781 3.503s10.647 3.504 23.78 3.504Zm-2.084-59.338c22.873 0 41.414-18.566 41.414-41.469 0-22.902-18.541-41.468-41.413-41.468-22.873 0-41.414 18.566-41.414 41.468-.01 22.903 18.531 41.47 41.404 41.47Z" fill="#E8E8E8"/><path d="M51.162 149.384s1.055 6.12-2.506 13h44.521s-2.037-3.208-4.171-13H51.162Z" fill="#fff" stroke="#263238" stroke-linecap="round" stroke-linejoin="round" stroke-width=".874"/><path d="M61.313 150.797a13.27 13.27 0 0 0-11.205 8.16 239.821 239.821 0 0 1-1.452 3.442c-2.71 6.278-.148 15.413 6.78 15.413h31.762c6.28 0 7.996-7.962 6.494-13.96-.968-3.855-2.919-7.726-6.25-10.439-4.452-3.646-17.46-3.31-26.129-2.616Z" fill="#263238" stroke="#263238" stroke-linecap="round" stroke-linejoin="round" stroke-width=".874"/><path d="M30.988 144.06s-5.695 3.447-5.883 5.324h6.983l2.776-1.994-.937 2.004h2.124s2.256-1.754 2.378-3.697l-.23-1.637-4.08-1.816-3.14 1.816Z" fill="#fff" stroke="#263238" stroke-linecap="round" stroke-linejoin="round" stroke-width=".874"/><path d="M97.69 131.396s-.912-6.002-2.913-14.647c-2.002-8.644-5.914-9.323-5.914-9.323h-.035c-5.094-2.193-18.336-3.376-18.336-3.376h-.612s-13.273 1.183-18.335 3.376h-.036s-3.947.694-5.95 9.323c-2 8.63-2.918 14.647-2.918 14.647s-3.616.98-10.125 9.18a21.688 21.688 0 0 0-2.593 4.213s5.002-1.647 8.506.877c0 0 11.48-4.875 12.056-10.016 0-.184.046-.388.071-.607.326 7.803.607 14.32.607 14.32h38.006c0 .001.285-6.517.611-14.32 0 .219.046.423.066.607.581 5.14 13.29 10.904 13.29 10.904 3.483-5.366 8.54-2.402 8.54-2.402L97.69 131.396Z" fill="#fff"/><path d="M50.485 135.66c0-.153.04-.326.061-.51l-.83-18.06s-2.292.47-1.635 6.014c.657 5.544 2.037 4.59 1.268 6.727-.77 2.137-3.76-.31-4.75 1.53-.99 1.841 5.52 1.448 2.83 6.191-2.689 4.743-9.01 8.16-9.01 8.16s11.486-4.9 12.056-10.052Zm39.54 0c0-.153 1.497.112 0 0l.453-15.458s-.112 7.477.688 9.629c.8 2.152 3.754-.31 4.737 1.53.983 1.841-5.522 1.448-2.827 6.191 2.694 4.743 9.005 8.16 9.005 8.16.011 0-11.464-4.9-12.045-10.052Zm-.581 3.52c-.25 5.849-.438 10.199-.438 10.199H54.835c22.92-.009 34.635-10.209 34.635-10.209h-.026Z" fill="#000" opacity=".3"/><path d="M97.69 131.396s-.912-6.002-2.913-14.647c-2.002-8.644-5.914-9.323-5.914-9.323h-.035c-5.094-2.193-18.336-3.376-18.336-3.376h-.612s-13.273 1.183-18.335 3.376h-.036s-3.947.694-5.95 9.323c-2 8.63-2.918 14.647-2.918 14.647s-3.616.98-10.125 9.18a21.688 21.688 0 0 0-2.593 4.213v0s5.002-1.647 8.506.877c0 0 11.48-4.875 12.056-10.016 0-.184.046-.388.071-.607.326 7.803.607 14.32.607 14.32h38.006c0 .001.285-6.517.611-14.32 0 .219.046.423.066.607.581 5.14 13.29 10.904 13.29 10.904 3.483-5.366 8.54-2.402 8.54-2.402L97.69 131.396Z" stroke="#263238" stroke-linecap="round" stroke-linejoin="round" stroke-width=".874"/><path d="M43.858 131.361a7.038 7.038 0 0 1 5.007 1.75m-1.426-15.479s2.353.51 2.893 11.964l-.708-15.035m.739 16.626.107 2.32m46.008-2.146a7.038 7.038 0 0 0-5.007 1.724m-.9-15.453.15-3.06" stroke="#263238" stroke-linecap="round" stroke-linejoin="round" stroke-width=".874"/><path d="M77.302 104.876c-.617 3.09-3.602 4.208-7.197 4.208-3.596 0-6.57-1.112-7.197-4.192h.142a1.86 1.86 0 0 0 1.56-1.418c.05-.146.075-.3.075-.454v-3.626h11.002v3.626a1.8 1.8 0 0 0 .122.663 1.871 1.871 0 0 0 1.493 1.193Z" fill="#fff"/><path d="M75.595 102.107c-1.823 1.795-3.856 2.912-5.817 2.999-2.037.092-4.4-1.58-5.363-3.223.04-.143.059-.29.056-.439v-1.112l11.002.118v.994c0 .235.28.51.122.663Z" fill="#263238"/><path d="M77.302 104.876c-.617 3.09-3.602 4.208-7.197 4.208-3.596 0-6.57-1.112-7.197-4.192h.142a1.86 1.86 0 0 0 1.56-1.418c.05-.146.075-.3.075-.454v-3.626h11.002v3.626a1.8 1.8 0 0 0 .122.663 1.871 1.871 0 0 0 1.493 1.193v0Z" stroke="#263238" stroke-linecap="round" stroke-linejoin="round" stroke-width=".874"/><path d="M62.067 91.606s-3.815-4.32-3.315-10.271c.499-5.952 5.378-5.952 5.378-5.952s5.883-5.197 12.448-1.943c6.566 3.254 6.112 14.535 1.253 17.34l-15.764.826Z" fill="#263238"/><path d="M78.885 88.7c.051-.99.046-1.602.046-1.602-.438-2.632-3.652-2.897-5.129-2.943-6.188-.21-7.818-4.008-7.818-4.008-3.754-1.128-4.818 6.95-4.818 6.95s0 .613.05 1.602a2.812 2.812 0 0 0-2.28 2.887c0 1.612 1.16 2.912 2.596 2.912.146 0 .29-.014.433-.04l.673 3.793c.127.852.927 2.867 1.645 3.346 1.528 1.02 3.947 2.474 5.765 2.474 1.57 0 3.77-1.296 5.394-2.178.907-.51 1.905-2.463 1.992-3.489l.422-3.835c.24-.01.477-.035.714-.07 1.43-.01 2.597-1.31 2.597-2.92a2.819 2.819 0 0 0-2.282-2.889v0Z" fill="#fff" stroke="#263238" stroke-linecap="round" stroke-linejoin="round" stroke-width=".874"/><path d="M59.933 86.251h-.672v2.397h.672v-2.397Zm20.542 0h-.673v2.397h.673v-2.397Z" fill="#fff" stroke="#263238" stroke-linecap="round" stroke-linejoin="round" stroke-width=".874"/><path d="M69.865 75.781c-2.86 0-5.607 1.11-7.666 3.096a11.064 11.064 0 0 0-3.371 7.558.395.395 0 0 0 .397.408h.713a.397.397 0 0 0 .398-.388 9.557 9.557 0 0 1 2.941-6.467 9.533 9.533 0 0 1 13.176 0 9.557 9.557 0 0 1 2.942 6.467.404.404 0 0 0 .402.388h.708a.398.398 0 0 0 .403-.408 11.068 11.068 0 0 0-3.375-7.558 11.04 11.04 0 0 0-7.668-3.096Z" fill="#fff" stroke="#263238" stroke-linecap="round" stroke-linejoin="round" stroke-width=".874"/><path d="M61.08 87.786h-.154a3.487 3.487 0 0 0-3.355 3.491 3.496 3.496 0 0 0 3.355 3.491h.153v-6.982Z" fill="#263238" stroke="#263238" stroke-miterlimit="10" stroke-width=".874"/><path d="M61.91 91.29c0 2.586.111 4.269-.78 4.269-.891-.01-1.197-1.69-1.197-4.27 0-2.59.306-4.28 1.197-4.28s.78 1.66.78 4.271Z" fill="#fff" stroke="#263238" stroke-linecap="round" stroke-linejoin="round" stroke-width=".874"/><path d="M78.656 87.786h.153a3.487 3.487 0 0 1 3.35 3.491 3.496 3.496 0 0 1-3.36 3.491h-.154v-6.982Z" fill="#263238" stroke="#263238" stroke-miterlimit="10" stroke-width=".874"/><path d="M77.82 91.29c0 2.586-.106 4.269.785 4.269.892-.01 1.197-1.69 1.197-4.27 0-2.59-.305-4.28-1.197-4.28-.891 0-.784 1.66-.784 4.271Z" fill="#fff" stroke="#263238" stroke-linecap="round" stroke-linejoin="round" stroke-width=".874"/><path d="M63.906 91.917s1.451 1.79 4.171.378" stroke="#263238" stroke-linecap="round" stroke-linejoin="round" stroke-width=".874"/><path d="M68.077 98.879a3.512 3.512 0 0 0 4.13 0" stroke="#263238" stroke-linecap="round" stroke-linejoin="round" stroke-width=".75"/><path d="M63.503 89.515s2.634-2.01 4.977 0m7.956.067s-2.634-2.04-4.977 0" stroke="#263238" stroke-linecap="round" stroke-linejoin="round" stroke-width=".874"/><path d="M72.055 96.064s.234 1.305-2.154 1.275c-.586 0-1.65-.418-1.686-1.275" stroke="#263238" stroke-linecap="round" stroke-linejoin="round" stroke-width=".75"/><path d="M64.477 92.392c.219.433.713.933 1.818.958 1.105.026 1.299-.413 1.32-.841a3.338 3.338 0 0 1-3.138-.117Z" fill="#263238"/><path d="M76.053 91.917s-1.451 1.79-4.171.378" stroke="#263238" stroke-linecap="round" stroke-linejoin="round" stroke-width=".874"/><path d="M75.483 92.392c-.219.433-.713.933-1.818.958-1.105.026-1.299-.413-1.32-.841a3.331 3.331 0 0 0 3.138-.117Z" fill="#263238"/><path d="M65.383 72.9s-1.34.75-1.192 2.88c0 0-.469-1.437-2.19-.81" stroke="#263238" stroke-linecap="round" stroke-linejoin="round" stroke-width=".874"/><path d="M70.166 110.67a8.509 8.509 0 0 0 8.017-5.656c-.464-.07-.922-.132-1.366-.194a7.808 7.808 0 0 1-6.649 3.725 7.808 7.808 0 0 1-6.65-3.725c-.442.062-.9.123-1.364.194a8.526 8.526 0 0 0 3.11 4.098 8.508 8.508 0 0 0 4.901 1.558Z" fill="#263238" stroke="#263238" stroke-linecap="round" stroke-linejoin="round" stroke-width=".874"/><path d="M89.78 135.063c.224-4.97.45-9.943.677-14.917" stroke="#263238" stroke-linecap="round" stroke-linejoin="round" stroke-width=".874"/><path d="M89.948 84.257v-5.493a1.02 1.02 0 0 0-1.019-1.02h-8.587a1.018 1.018 0 0 0-1.02 1.02v5.493a1.021 1.021 0 0 0 1.02 1.02h2.995l-.24 2.091h1.528v1.974l1.829-3.218H84.95l.158-.847h3.815a1.016 1.016 0 0 0 1.024-1.02v0Z" fill="#fff" stroke="#263238" stroke-linecap="round" stroke-linejoin="round" stroke-width=".874"/><path d="M80.984 79.647h5.822m-5.822 1.555h7.32m-7.32 1.556h6.193" stroke="#263238" stroke-linecap="round" stroke-linejoin="round" stroke-width=".874"/><path d="M116.331 146.727c0 1.622-2.546 2.637-5.674 2.637-3.127 0-5.674-1.02-5.674-2.637s2.547-2.943 5.674-2.943c3.128 0 5.674 1.316 5.674 2.943Z" fill="#fff" stroke="#263238" stroke-linecap="round" stroke-linejoin="round" stroke-width=".874"/><path d="M106.985 148.777c.153-.035.275-.892-1.105-1.53-.958-.438-.983-.902-.433-1.474.55-.57 1.487-1.05 2.21-.841 1.177.336 1.956 2.79 2.48 2.26.79-.205-.162-2.454-1.573-3.193 2.547.632 2.67 3.57 3.84 3.335.897-.173-.652-3.091-1.99-3.953a5.973 5.973 0 0 1 2.189 1.75c.85 1.24.947 1.657 1.528 1.48.754-.24-1.044-2.964-1.268-3.26 1.13.45 1.344 1.397 1.69 1.78.347.382.51 1.02.99.77s.035-1.137-.286-1.658c-1.528-2.473-4.075-2.886-6.5-2.58-1.914.245-4.115 1.05-5.28 2.58a2.394 2.394 0 0 0-.164 2.703c.407.862 1.864 2.24 3.672 1.83Z" fill="#fff" stroke="#263238" stroke-linecap="round" stroke-linejoin="round" stroke-width=".874"/><path d="M117.819 149.384H24.086a.505.505 0 0 0-.504.505v.81c0 .28.226.506.504.506h93.733a.505.505 0 0 0 .504-.505v-.81a.505.505 0 0 0-.504-.506Z" fill="#BFBFBF" stroke="#263238" stroke-miterlimit="10" stroke-width=".874"/><path d="m26.837 149.384-6.897-20.986a.56.56 0 0 1 .265-.658.565.565 0 0 1 .245-.067h21.784l7.757 21.71H26.837Z" fill="#263238"/><path d="m42.83 127.673 7.13 20.492h19.1v.719a.51.51 0 0 1-.509.51H48.738l-6.86-20.874a.63.63 0 0 1 .59-.821l.362-.037Z" fill="#fff" stroke="#263238" stroke-linecap="round" stroke-linejoin="round" stroke-width=".874"/><path d="M32.714 138.531a1.936 1.936 0 0 0-.479-.953 1.085 1.085 0 0 1 .871-.388 1.763 1.763 0 0 1 1.645 1.362 1.065 1.065 0 0 1-1.07 1.361 1.664 1.664 0 0 1-1.059-.413c.147-.3.18-.645.092-.97Z" fill="#fff"/><path d="M76.848 149.384h6.963a7.214 7.214 0 0 0 2.95-5.92v-3.28a.948.948 0 0 0-.94-.949h-10.94a.954.954 0 0 0-.668.278.945.945 0 0 0-.274.67v3.28a7.222 7.222 0 0 0 2.918 5.92v0Z" fill="#fff" stroke="#263238" stroke-linecap="round" stroke-linejoin="round" stroke-width=".874"/><path d="M88.736 140.633a2.004 2.004 0 0 0-1.977-.092v1.183c.302-.05.612.011.871.173.984.572.775 1.74.087 2.928a3.173 3.173 0 0 1-1.528 1.53c-.2.49-.455.957-.759 1.392 1.31.286 2.506-.826 3.443-2.448 1.1-1.907 1.43-3.76-.137-4.666Z" fill="#fff" stroke="#263238" stroke-linecap="round" stroke-linejoin="round" stroke-width=".874"/><path d="M80.474 134.069a8.483 8.483 0 0 0 .372-2.55c0-4.794-4.502-5.36-4.502-10.807m.937 17.585a7.173 7.173 0 0 0 2.084-1.964m.73-11.051a2.641 2.641 0 0 1-.303-1.53m3.81 8.262c-.23-1.5-1.09-2.907-1.94-4.188m-.668 10.527s1.487-.627 2.302-3.458" stroke="#263238" stroke-linecap="round" stroke-linejoin="round" stroke-width=".874"/><path d="M90.08 177.796H51.943a5.046 5.046 0 0 0-5.043 5.05v25.244a5.045 5.045 0 0 0 5.043 5.05H90.08a5.045 5.045 0 0 0 5.042-5.05v-25.245a5.046 5.046 0 0 0-5.042-5.05Z" fill="#fff" stroke="#263238" stroke-miterlimit="10" stroke-width=".874"/><path d="m58.955 202.113.576 10.083.066.086a4.838 4.838 0 0 0 3.934 1.95 4.841 4.841 0 0 0 3.89-2.036v0l.22-10.083h-8.68Z" fill="#fff" stroke="#263238" stroke-linecap="round" stroke-linejoin="round" stroke-width=".874"/><path d="M69.54 222.049a33.784 33.784 0 0 1-11.68 0 5.55 5.55 0 0 1-.922-1.204 5.067 5.067 0 0 1-.188-4.59l2.327-4.156 9.224.102 2.078 3.794a5.107 5.107 0 0 1-.544 5.743c-.093.11-.192.213-.296.311Z" fill="#BFBFBF" stroke="#263238" stroke-miterlimit="10" stroke-width=".874"/><path d="M67.272 216.816c.57.252 1.115.559 1.625.918Z" fill="#BFBFBF"/><path d="M67.272 216.816c.57.252 1.115.559 1.625.918" stroke="#263238" stroke-miterlimit="10" stroke-width=".874"/><path d="M58.573 217.734a9.27 9.27 0 0 1 6.998-1.453" fill="#BFBFBF"/><path d="M58.573 217.734a9.27 9.27 0 0 1 6.998-1.453" stroke="#263238" stroke-miterlimit="10" stroke-width=".874"/><path d="m53.99 160.502 4.074 46.757h10.538c0-.01 1.044-28.56 1.706-47.11a8.17 8.17 0 0 0-2.277-5.99 8.147 8.147 0 0 0-5.892-2.494 8.14 8.14 0 0 0-6.012 2.62 8.159 8.159 0 0 0-2.138 6.206Z" fill="#263238"/><path d="M64.476 152.006a8.148 8.148 0 0 0-2.363-.332v0a8.14 8.14 0 0 0-5.995 2.631 8.153 8.153 0 0 0-2.129 6.197l1.44 17.294m13.44-22.603a8.526 8.526 0 0 0-1.463-1.6s-.638-.51-.923-.675m3.117 24.878c.21-5.788.534-12.56.712-17.64a8.172 8.172 0 0 0-.713-3.668" stroke="#fff" stroke-linecap="round" stroke-linejoin="round" stroke-width=".874"/><path d="m76.1 202.113.575 10.083.066.086a4.838 4.838 0 0 0 3.934 1.95 4.84 4.84 0 0 0 3.89-2.036v0l.213-10.083H76.1Z" fill="#fff" stroke="#263238" stroke-linecap="round" stroke-linejoin="round" stroke-width=".874"/><path d="M86.683 222.049a33.784 33.784 0 0 1-11.679 0 5.471 5.471 0 0 1-.917-1.204 5.05 5.05 0 0 1-.193-4.59l2.333-4.156 9.218.102 2.08 3.794a5.107 5.107 0 0 1-.546 5.743c-.093.11-.192.213-.296.311Z" fill="#BFBFBF" stroke="#263238" stroke-miterlimit="10" stroke-width=".874"/><path d="M84.416 216.816a9.285 9.285 0 0 1 1.625.918Z" fill="#BFBFBF"/><path d="M84.416 216.816a9.285 9.285 0 0 1 1.625.918" stroke="#263238" stroke-miterlimit="10" stroke-width=".874"/><path d="M75.728 217.734a9.29 9.29 0 0 1 3.353-1.43 9.277 9.277 0 0 1 3.65-.023" fill="#BFBFBF"/><path d="M75.728 217.734a9.29 9.29 0 0 1 3.353-1.43 9.277 9.277 0 0 1 3.65-.023" stroke="#263238" stroke-miterlimit="10" stroke-width=".874"/><path d="m71.148 160.502 4.075 46.757h10.538c0-.01 1.044-28.56 1.712-47.11a8.196 8.196 0 0 0-2.3-5.996 8.166 8.166 0 0 0-5.91-2.488 8.144 8.144 0 0 0-7.7 5.508 8.172 8.172 0 0 0-.415 3.32Z" fill="#263238"/><path d="M82.624 152.378a8.143 8.143 0 0 0-3.362-.704 8.144 8.144 0 0 0-7.699 5.508 8.172 8.172 0 0 0-.415 3.32l1.529 17.294m13.344-22.603a8.24 8.24 0 0 0-1.461-1.6m2.638 24.203c.209-5.788.092-12.56.275-17.64a8.194 8.194 0 0 0-.55-3.27" stroke="#fff" stroke-linecap="round" stroke-linejoin="round" stroke-width=".874"/><path d="M212.01 80.922V59.16a3.962 3.962 0 0 0-3.962-3.968h-34.095a3.96 3.96 0 0 0-2.802 1.162 3.971 3.971 0 0 0-1.161 2.806v21.762a3.97 3.97 0 0 0 1.161 2.805 3.96 3.96 0 0 0 2.802 1.162h11.872l-.937 8.28H191v7.801l7.253-12.75h-5.949l.627-3.347h15.117a3.968 3.968 0 0 0 3.962-3.963v0Z" fill="#fff" stroke="#263238" stroke-linecap="round" stroke-linejoin="round" stroke-width="1.025"/><path d="M176.5 62.638h23.052M176.5 68.804h29.001M176.5 74.97h24.539" stroke="#263238" stroke-linecap="round" stroke-linejoin="round" stroke-width="1.025"/><path d="m238.052 174.104 20.598 6.875-5.109 5.12 9.54 9.54-20.593-6.878 5.109-5.12-9.535-9.546Zm-94.104 0-20.598 6.875 5.11 5.12-9.536 9.54 20.598-6.878-5.109-5.12 9.535-9.546Zm46.476-157.713-9.713 19.452h7.233v13.505l9.708-19.452h-7.228V16.391Z" fill="#E8E8E8" stroke="#263238" stroke-linecap="round" stroke-linejoin="round" stroke-width="1.025"/></g><defs><filter id="a" width="390" height="263" x="-4" y="0" color-interpolation-filters="sRGB" filterUnits="userSpaceOnUse"><feFlood flood-opacity="0" result="BackgroundImageFix"/><feColorMatrix in="SourceAlpha" result="hardAlpha" type="matrix" values="0 0 0 0 0 0 0 0 0 0 0 0 0 0 0 0 0 0 127 0"/><feOffset dy="4"/><feGaussianBlur stdDeviation="2"/><feComposite in2="hardAlpha" operator="out"/><feColorMatrix type="matrix" values="0 0 0 0 0 0 0 0 0 0 0 0 0 0 0 0 0 0 0.25 0"/><feBlend in2="BackgroundImageFix" mode="normal" result="effect1_dropShadow_580_773"/><feBlend in="SourceGraphic" in2="effect1_dropShadow_580_773" mode="normal" result="shape"/></filter></defs></svg>