<svg xmlns="http://www.w3.org/2000/svg" fill="none" width="293" height="293" viewBox="0 0 293 293"><g filter="url(#a)"><path d="m250.187 189.694-.457 4.102 7.975-9.323c.954.1 1.913.15 2.872.152m-20.38-23.223a11.953 11.953 0 0 0-1.917 5.274c-.756 6.815 4.588 13.261 12.663 16.244l-.41 3.662m-7.237-28.573c-.52.421-1.013.873-1.477 1.354m31.386-1.354a26.33 26.33 0 0 0-12.242-4.477 26 26 0 0 0-13.63 2.004m18.793 28.538c7.618-1.576 13.39-6.446 14.064-12.763.492-4.418-1.576-8.678-5.274-11.948" stroke="#263238" stroke-linecap="round" stroke-linejoin="round"/><path d="M247.339 162.539a4.983 4.983 0 0 0 3.74-.797l2.847 2.209c-.2.064-.182-.357.03-.369.21-.012.368.182.514.334.67.71 1.794.732 2.75.527.954-.205 1.886-.586 2.86-.551a7.086 7.086 0 0 1 1.692.393c3.915 1.213 7.987 1.823 12.042 2.42m-29.838 0c.586-.035 3.85 0 4.318-.392l.797 1.388.88-.849c.152.586.304 1.172.451 1.723.662.158.586-1.12 1.172-1.5a.795.795 0 0 1 1.037.31c.192.36.285.764.27 1.172l4.008.328.78.065a2.284 2.284 0 0 1 1.171-.909c-.147.926 1.02 1.454 1.946 1.64a249.69 249.69 0 0 0 13.747 2.421m-28.796.977c.37.257.82-.223 1.27-.282.453-.059.822.28 1.22.486.4.206 1.055.12 1.08-.327.092.586.82.797 1.411.879l15.388 2.163M39.848 153.05l6.165 8.299-1.237-10.86a28.624 28.624 0 0 0 4.214-2.51c6.317-4.57 8.86-11.93 6.545-17.85-1.623-4.14-5.426-6.957-10.23-8.12M15.5 139.96a11.928 11.928 0 0 0 .75 5.538c2.496 6.385 10.22 9.61 18.752 8.495M16.666 135.51a17.008 17.008 0 0 0-.674 1.887m27.16-15.786a26.281 26.281 0 0 0-12.926 1.712 26.002 26.002 0 0 0-11.134 8.11" stroke="#263238" stroke-linecap="round" stroke-linejoin="round"/><path d="M22.35 137.64a4.997 4.997 0 0 0 2.93-2.438l3.516.633c-.152.146-.328-.235-.146-.346.181-.111.41 0 .586.059.925.316 1.927-.182 2.678-.809.75-.627 1.394-1.407 2.28-1.817a7.196 7.196 0 0 1 1.68-.445c4.033-.738 7.918-2.098 11.79-3.452m-26.357 13.87c.522-.31 3.41-1.792 3.645-2.343l1.354.861c.129-.386.258-.78.38-1.172l1.202 1.319c.662-.164 0-1.26.316-1.858a.79.79 0 0 1 1.06-.205c.336.225.605.534.78.897l3.698-1.57.727-.305c.04-.504.247-.98.586-1.354.304.897 1.582.814 2.484.55a240.003 240.003 0 0 0 13.297-4.254M25.843 147.7c.45.059.627-.586.996-.844.37-.257.86-.123 1.307-.134.445-.012.99-.381.803-.786.357.475 1.1.323 1.658.123l14.65-5.244" stroke="#263238" stroke-linecap="round" stroke-linejoin="round"/><path d="M218.537 52.517H72.424a5.151 5.151 0 0 0-5.151 5.151v131.628a5.152 5.152 0 0 0 5.15 5.151h146.114a5.151 5.151 0 0 0 5.15-5.151V57.668a5.15 5.15 0 0 0-5.15-5.15Z" fill="#fff"/><path d="M223.688 130.262v59.186a4.997 4.997 0 0 1-4.993 4.998H72.272a4.996 4.996 0 0 1-5-4.998v-11.72h.31v7.9a5.715 5.715 0 0 0 5.721 5.713h141.454a5.728 5.728 0 0 0 4.044-1.66 5.706 5.706 0 0 0 1.676-4.043v-46.59a3.98 3.98 0 0 0-1.166-2.813 3.975 3.975 0 0 0-2.813-1.166H67.273v-4.8h156.415Z" fill="#000" opacity=".2"/><path d="M218.537 52.517H72.424a5.151 5.151 0 0 0-5.151 5.151v131.628a5.152 5.152 0 0 0 5.15 5.151h146.114a5.151 5.151 0 0 0 5.15-5.151V57.668a5.15 5.15 0 0 0-5.15-5.15Z" stroke="#263238" stroke-linecap="round" stroke-linejoin="round"/><path d="M210.069 147.115v-6.78a2.49 2.49 0 0 0-.732-1.775 2.496 2.496 0 0 0-1.776-.733H83.4a2.506 2.506 0 0 0-2.508 2.508v6.78a2.51 2.51 0 0 1-2.508 2.508 2.512 2.512 0 0 0-2.514 2.514v13.38a11.633 11.633 0 0 0 11.632 11.631 1.871 1.871 0 0 1 1.87 1.87v4.007a5.578 5.578 0 0 0 5.578 5.58h101.06a5.58 5.58 0 0 0 5.58-5.58v-4.008a1.869 1.869 0 0 1 1.87-1.869 11.625 11.625 0 0 0 8.225-3.407 11.642 11.642 0 0 0 3.406-8.214v-13.38a2.514 2.514 0 0 0-2.508-2.514 2.514 2.514 0 0 1-2.514-2.508Z" fill="#263238"/><path d="M90.402 141.666H86.06a2.003 2.003 0 0 0-2.004 2.004v1.113c0 2.31 1.869 5.24 4.178 5.24 2.309-.001 4.178-2.93 4.178-5.24v-1.113a2.012 2.012 0 0 0-2.01-2.004v0Zm10.39 0H96.45a2.008 2.008 0 0 0-2.01 2.004v1.113c0 2.31 1.87 5.24 4.178 5.24 2.31-.001 4.178-2.93 4.178-5.24v-1.113a2 2 0 0 0-2.004-2.004v0Zm10.43 0h-4.34a2.005 2.005 0 0 0-2.006 2.004v1.113c0 2.31 1.87 5.24 4.173 5.24 2.303-.001 4.178-2.93 4.178-5.24v-1.113a2 2 0 0 0-2.004-2.004v0Zm10.408 0h-4.342a2.003 2.003 0 0 0-2.004 2.004v1.113c0 2.31 1.869 5.24 4.178 5.24 2.309-.001 4.172-2.93 4.172-5.24v-1.113a2.012 2.012 0 0 0-2.004-2.004v0Zm10.408 0h-4.342a2.005 2.005 0 0 0-2.005 2.004v1.113c0 2.31 1.87 5.24 4.18 5.24 2.307-.001 4.177-2.93 4.177-5.24v-1.113a2.013 2.013 0 0 0-2.01-2.004v0Zm10.413 0h-4.342a2.01 2.01 0 0 0-2.01 2.004v1.113c-.01 2.31 1.86 5.24 4.17 5.24 2.308-.001 4.176-2.93 4.176-5.24v-1.113a2 2 0 0 0-2.004-2.004v0Zm10.407 0h-4.342a2.003 2.003 0 0 0-2.004 2.004v1.113c0 2.31 1.87 5.24 4.172 5.24 2.303-.001 4.178-2.93 4.178-5.24v-1.113a2 2 0 0 0-2.004-2.004v0Zm10.407 0h-4.342a2.004 2.004 0 0 0-2.004 2.004v1.113c0 2.31 1.87 5.24 4.178 5.24 2.31-.001 4.172-2.93 4.172-5.24v-1.113a2 2 0 0 0-2.004-2.004v0Zm10.408-.001h-4.319a2 2 0 0 0-1.85 1.238c-.1.243-.154.503-.154.767v1.113c0 2.31 1.87 5.24 4.178 5.24 2.31-.001 4.178-2.93 4.178-5.24v-1.113a2.006 2.006 0 0 0-2.033-2.005v0Zm10.413.001h-4.342a2.006 2.006 0 0 0-2.01 2.004v1.113c0 2.31 1.87 5.24 4.178 5.24 2.31-.001 4.178-2.93 4.178-5.24v-1.113a2 2 0 0 0-2.004-2.004v0Zm10.407 0h-4.342a2.004 2.004 0 0 0-1.993 2.004v1.113c0 2.31 1.87 5.24 4.171 5.24 2.303-.001 4.178-2.93 4.178-5.24v-1.113a2 2 0 0 0-2.004-2.004v0Zm10.408-.001h-4.332a2.007 2.007 0 0 0-2.004 2.005v1.113c0 2.303 1.857 5.233 4.2 5.233 2.345 0 4.174-2.93 4.174-5.24v-1.112a2.001 2.001 0 0 0-1.255-1.853 2.026 2.026 0 0 0-.773-.14v.004ZM90.413 163.723h-4.35a2.003 2.003 0 0 0-2.004 2.004v1.113c0 2.309 1.87 5.24 4.178 5.24 2.31-.001 4.178-2.931 4.178-5.24v-1.113a2.012 2.012 0 0 0-2.01-2.004v0Zm10.39 0h-4.35a2.008 2.008 0 0 0-2.01 2.004v1.113c.001 2.309 1.871 5.24 4.18 5.24 2.31-.001 4.177-2.931 4.177-5.24v-1.113a2 2 0 0 0-2.004-2.004v0Zm10.43 0h-4.34a2.005 2.005 0 0 0-2.005 2.004v1.113c0 2.309 1.87 5.24 4.173 5.24 2.303-.001 4.178-2.931 4.178-5.24v-1.113a2 2 0 0 0-2.004-2.004v0Zm10.408 0h-4.342a2.003 2.003 0 0 0-2.004 2.004v1.113c0 2.309 1.87 5.24 4.178 5.24 2.31-.001 4.172-2.931 4.172-5.24v-1.113a2.012 2.012 0 0 0-2.004-2.004v0Zm10.408 0H127.7a2.005 2.005 0 0 0-2.005 2.004v1.113c0 2.309 1.87 5.24 4.18 5.24 2.307-.001 4.177-2.931 4.177-5.24v-1.113a2.013 2.013 0 0 0-2.01-2.004v0Zm10.413 0h-4.342a2.01 2.01 0 0 0-2.01 2.004v1.113c0 2.309 1.868 5.24 4.177 5.24 2.31-.001 4.178-2.931 4.178-5.24v-1.113a2 2 0 0 0-2.004-2.004Zm10.407 0h-4.342a2.003 2.003 0 0 0-2.004 2.004v1.113c0 2.309 1.87 5.24 4.172 5.24 2.303-.001 4.178-2.931 4.178-5.24v-1.113a2 2 0 0 0-2.004-2.004v0Zm10.407 0h-4.342a2.004 2.004 0 0 0-2.003 2.004v1.113c0 2.309 1.87 5.24 4.178 5.24 2.31-.001 4.172-2.931 4.172-5.24v-1.113a2 2 0 0 0-2.004-2.004v0Zm10.408 0h-4.318a1.999 1.999 0 0 0-1.85 1.237c-.1.243-.155.503-.155.767v1.113c0 2.309 1.87 5.24 4.178 5.24 2.31-.001 4.178-2.931 4.178-5.24v-1.113a2.01 2.01 0 0 0-2.03-2.004v0Zm10.414 0h-4.342a2.006 2.006 0 0 0-2.01 2.004v1.113c0 2.309 1.87 5.24 4.178 5.24 2.31-.001 4.178-2.931 4.178-5.24v-1.113a2 2 0 0 0-2.004-2.004v0Zm10.407 0h-4.343a2.004 2.004 0 0 0-2.003 2.004v1.113c0 2.309 1.87 5.24 4.172 5.24 2.303-.001 4.178-2.931 4.178-5.24v-1.113a2 2 0 0 0-2.004-2.004Zm10.407 0h-4.34a2.003 2.003 0 0 0-2.005 2.004v1.113c0 2.309 1.87 5.24 4.178 5.24 2.311-.001 4.173-2.931 4.173-5.24v-1.113a2 2 0 0 0-2.004-2.004v0ZM85.2 153.051h-4.33a2.008 2.008 0 0 0-2.004 2.005v1.113c0 2.303 1.87 5.239 4.178 5.239 2.309 0 4.172-2.93 4.172-5.239v-1.113a2.004 2.004 0 0 0-2.016-2.005v0Zm10.408 0h-4.342a2.008 2.008 0 0 0-2.004 2.005v1.113c0 2.303 1.87 5.239 4.178 5.239 2.309 0 4.178-2.93 4.178-5.239v-1.113a2.01 2.01 0 0 0-2.01-2.005v0Zm10.413 0h-4.342a2.01 2.01 0 0 0-2.01 2.005v1.113c0 2.303 1.875 5.239 4.178 5.239s4.178-2.93 4.178-5.239v-1.113a2.005 2.005 0 0 0-2.004-2.005v0Zm10.407 0h-4.342a2.005 2.005 0 0 0-2.004 2.005v1.113c0 2.303 1.869 5.239 4.172 5.239s4.18-2.93 4.18-5.239v-1.113a2.016 2.016 0 0 0-.154-.767 2.002 2.002 0 0 0-1.852-1.25v.001Zm10.408 0h-4.36a2.007 2.007 0 0 0-2.004 2.005v1.113c0 2.303 1.869 5.239 4.178 5.239s4.172-2.93 4.172-5.239v-1.113a2.003 2.003 0 0 0-1.986-2.005v0Zm10.407 0H132.9a2.005 2.005 0 0 0-2.003 2.005v1.113c0 2.303 1.869 5.239 4.178 5.239s4.178-2.93 4.178-5.239v-1.113a2.01 2.01 0 0 0-2.01-2.005v0Zm10.43 0h-4.34a2.007 2.007 0 0 0-2.01 2.005v1.113c-.001 2.303 1.874 5.239 4.177 5.239 2.303 0 4.178-2.93 4.178-5.239v-1.113a2.005 2.005 0 0 0-2.004-2.005v0Zm10.391 0h-4.343a2.005 2.005 0 0 0-2.004 2.005v1.113c-.001 2.303 1.869 5.239 4.172 5.239s4.178-2.93 4.178-5.239v-1.113a2.005 2.005 0 0 0-2.004-2.005Zm10.407 0h-4.343a2.005 2.005 0 0 0-2.004 2.005v1.113c0 2.303 1.87 5.239 4.178 5.239 2.31 0 4.172-2.93 4.172-5.239v-1.113a2.005 2.005 0 0 0-2.004-2.005Zm10.407 0h-4.343a2.005 2.005 0 0 0-2.004 2.005v1.113c0 2.303 1.87 5.239 4.178 5.239 2.31 0 4.18-2.93 4.18-5.239v-1.113a2.011 2.011 0 0 0-2.01-2.005v0Zm10.4 0h-4.34a2.007 2.007 0 0 0-2.01 2.005v1.113c0 2.303 1.874 5.239 4.177 5.239s4.178-2.93 4.178-5.239v-1.113a2.005 2.005 0 0 0-2.004-2.005Zm10.42 0h-4.342a2.008 2.008 0 0 0-1.975 2.005v1.113c0 2.303 1.869 5.239 4.172 5.239s4.178-2.93 4.178-5.239v-1.113a1.996 1.996 0 0 0-.597-1.428 2.014 2.014 0 0 0-1.436-.577v0Zm10.408 0h-4.343a2.005 2.005 0 0 0-2.004 2.005v1.113c0 2.303 1.87 5.239 4.17 5.239 2.31 0 4.173-2.93 4.173-5.239v-1.113a2.005 2.005 0 0 0-2.004-2.005v0Zm-24.87 21.782h-79.51a1.88 1.88 0 0 0-1.88 1.881v5.708a1.88 1.88 0 0 0 1.88 1.881h79.51a1.88 1.88 0 0 0 1.88-1.881v-5.708a1.88 1.88 0 0 0-1.88-1.881Zm10.648.557h-4.343a2.004 2.004 0 0 0-2.004 2.004v1.113c0 2.309 1.869 5.24 4.178 5.24 2.309-.001 4.173-2.931 4.173-5.24v-1.113a2.007 2.007 0 0 0-2.004-2.004Zm-96.462 0h-4.343a2.004 2.004 0 0 0-2.004 2.004v1.113c0 2.309 1.87 5.24 4.178 5.24 2.31-.001 4.18-2.931 4.18-5.24v-1.113a2.013 2.013 0 0 0-2.011-2.004v0Z" fill="#fff" stroke="#263238" stroke-linecap="round" stroke-linejoin="round"/><path d="M90.643 144.847c.21.001.42.02.627.059v-1.236a.872.872 0 0 0-.873-.868h-4.343a.877.877 0 0 0-.867.868v1.113c0 1.6 1.172 3.616 2.555 4.02-.428-1.776.533-3.956 2.9-3.956Zm10.641-.298c.133-.01.266-.01.4 0v-.903a.876.876 0 0 0-.869-.867h-4.342a.875.875 0 0 0-.873.867v1.113c0 1.758 1.39 3.956 2.93 4.102-.71-1.816.223-4.312 2.754-4.312Zm10.718-.153h.088v-.732a.868.868 0 0 0-.867-.868h-4.343a.876.876 0 0 0-.873.868v1.113c0 1.787 1.477 4.102 3.042 4.102.076.006.152.006.228 0-.785-1.852.123-4.483 2.725-4.483Zm9.746-.299c.243-.007.487.013.726.059v-.51a.864.864 0 0 0-.867-.867h-4.342a.868.868 0 0 0-.868.867v1.113c0 1.676 1.29 3.81 2.743 4.102-.996-1.84-.135-4.764 2.608-4.764Zm10.94 0h.223v-.44a.874.874 0 0 0-.873-.866h-4.343a.87.87 0 0 0-.867.867v1.113c0 1.788 1.477 4.102 3.04 4.102.081.006.162.006.242 0-1.026-1.846-.164-4.776 2.578-4.776Zm10.495.059h.135v-.51a.872.872 0 0 0-.867-.867h-4.343a.875.875 0 0 0-.873.867v1.113c0 1.788 1.477 4.102 3.042 4.102.095.01.191.01.287 0-.96-1.845-.088-4.705 2.62-4.705Zm10.044-.059c.167.003.333.014.498.035v-.462a.868.868 0 0 0-.867-.868h-4.342c-.23 0-.45.092-.614.254a.872.872 0 0 0-.254.614v1.113c0 1.758 1.454 4.067 3.007 4.102-1.038-1.84-.182-4.788 2.572-4.788Zm10.906.153v-.586a.868.868 0 0 0-.867-.868h-4.343a.87.87 0 0 0-.867.868v1.113c0 1.787 1.47 4.102 3.042 4.102.157-.002.313-.028.462-.076-.843-1.805.018-4.471 2.573-4.553Zm9.558-.23c.288 0 .576.038.855.112v-.462a.87.87 0 0 0-.873-.868h-4.319a.876.876 0 0 0-.867.868v1.113c0 1.652 1.254 3.74 2.678 4.055-1.096-1.834-.246-4.817 2.526-4.817Zm10.64 0c.21.002.417.02.622.06v-.41a.871.871 0 0 0-.867-.868h-4.342a.873.873 0 0 0-.873.868v1.113c0 1.758 1.406 3.991 2.93 4.102-1.102-1.84-.258-4.864 2.531-4.864Zm10.572.3c.153.002.306.014.458.035v-.685c0-.23-.092-.45-.254-.614a.872.872 0 0 0-.614-.254h-4.342a.878.878 0 0 0-.602.254.859.859 0 0 0-.255.614v1.113c0 1.758 1.405 3.985 2.93 4.102-.85-1.852.046-4.565 2.69-4.565Zm10.865-.135v-.515a.868.868 0 0 0-.867-.868h-4.342c-.23 0-.45.092-.614.254a.872.872 0 0 0-.254.614v1.113c0 1.787 1.471 4.102 3.042 4.102a1.7 1.7 0 0 0 .656-.14c-.832-1.77-.047-4.36 2.38-4.56ZM90.942 165.838a3.1 3.1 0 0 1 .334 0v-.123a.874.874 0 0 0-.874-.867H86.06a.871.871 0 0 0-.867.867v1.113c0 1.788 1.477 4.102 3.041 4.102.108-.002.216-.014.323-.035-1.313-1.781-.516-5.057 2.385-5.057Zm10.196 0c.182.001.365.016.545.047v-.152a.876.876 0 0 0-.868-.868h-4.342a.871.871 0 0 0-.873.868v1.113c0 1.787 1.477 4.102 3.041 4.102h.13c-1.34-1.805-.55-5.11 2.37-5.11Zm10.343.147c.196 0 .392.018.586.052v-.31a.878.878 0 0 0-.254-.614.878.878 0 0 0-.614-.254h-4.342a.873.873 0 0 0-.873.868v1.113c0 1.758 1.453 4.06 3.006 4.102-1.166-1.822-.352-4.957 2.49-4.957Zm10.565.076c.15 0 .302.01.452.029v-.363a.878.878 0 0 0-.254-.614.882.882 0 0 0-.614-.254h-4.342a.881.881 0 0 0-.613.254.86.86 0 0 0-.254.614v1.113c.01 1.787 1.48 4.102 3.05 4.102h.07c-1.125-1.834-.287-4.881 2.514-4.881Zm10.197-.223c.224 0 .448.022.668.064v-.17a.873.873 0 0 0-.873-.867h-4.343a.876.876 0 0 0-.867.868v1.113c0 1.787 1.477 4.102 3.04 4.102-1.335-1.793-.55-5.11 2.375-5.11Zm10.565.07c.171.002.341.015.51.04v-.221a.872.872 0 0 0-.867-.868h-4.343a.876.876 0 0 0-.873.868v1.113c0 1.787 1.477 4.102 3.042 4.102h.111c-1.266-1.817-.457-5.034 2.42-5.034Zm10.794.223h.123v-.41a.864.864 0 0 0-.867-.867h-4.342a.868.868 0 0 0-.868.867v1.113c0 1.787 1.471 4.102 3.036 4.102.114-.002.228-.015.34-.04-1.008-1.829-.17-4.765 2.578-4.765Zm10.478-.223h.035v-.18a.859.859 0 0 0-.254-.615.878.878 0 0 0-.613-.254h-4.325a.876.876 0 0 0-.613.254.878.878 0 0 0-.254.614v1.113c0 1.787 1.47 4.102 3.042 4.102.18-.003.357-.034.527-.094-1.19-1.816-.363-4.94 2.455-4.94Zm10.132-.222h.328a.87.87 0 0 0-.867-.838h-4.319a.87.87 0 0 0-.867.867v1.113c0 1.788 1.477 4.102 3.04 4.102.144-.004.286-.026.423-.064-1.47-1.746-.709-5.18 2.262-5.18Zm10.724.152v-.105a.876.876 0 0 0-.868-.868h-4.342a.87.87 0 0 0-.873.868v1.113c0 1.787 1.477 4.102 3.04 4.102.2-.003.4-.04.587-.106-1.224-1.816-.416-5.004 2.456-5.004Zm10.202 0h.235v-.117a.878.878 0 0 0-.254-.613.859.859 0 0 0-.614-.254h-4.342a.866.866 0 0 0-.867.867v1.113c0 1.787 1.471 4.102 3.035 4.102a1.63 1.63 0 0 0 .411-.058c-1.307-1.794-.504-5.04 2.396-5.04Zm10.255.445h.375v-.586a.866.866 0 0 0-.867-.867h-4.342a.868.868 0 0 0-.868.867v1.114c0 1.787 1.471 4.102 3.042 4.102-.909-1.817-.03-4.63 2.66-4.63Zm-119.397-10.94h.076v-.287a.872.872 0 0 0-.873-.868h-4.33a.87.87 0 0 0-.868.868v1.113c0 1.787 1.47 4.102 3.04 4.102a1.73 1.73 0 0 0 .447-.07c-1.125-1.83-.276-4.858 2.508-4.858Zm10.19 0h.293v-.3a.875.875 0 0 0-.884-.866h-4.34a.871.871 0 0 0-.867.867v1.113c0 1.787 1.477 4.102 3.04 4.102.088-.005.174-.005.26-.011-1.156-1.833-.324-4.915 2.49-4.915Zm10.648 0h.052v-.287a.871.871 0 0 0-.867-.868h-4.342a.884.884 0 0 0-.623.25.873.873 0 0 0-.262.618v1.113c0 1.787 1.477 4.102 3.04 4.102a1.57 1.57 0 0 0 .464-.076c-1.096-1.823-.258-4.852 2.538-4.852Zm10.19-.053h.27v-.223a.87.87 0 0 0-.868-.867h-4.342a.864.864 0 0 0-.867.867v1.114c0 1.787 1.47 4.102 3.035 4.102.107-.003.212-.014.317-.035-1.213-1.823-.393-4.958 2.455-4.958Zm10.138.053c.187 0 .373.015.557.047v-.334a.868.868 0 0 0-.878-.868h-4.377a.87.87 0 0 0-.868.868v1.113c0 1.787 1.47 4.102 3.04 4.102-1.16-1.823-.334-4.928 2.514-4.928Zm10.478-.375c.156 0 .313.01.47.03a.877.877 0 0 0-.87-.81h-4.34a.871.871 0 0 0-.867.868v1.113c0 1.787 1.476 4.102 3.04 4.102.114-.002.225-.016.335-.04-1.523-1.742-.78-5.263 2.233-5.263Zm10.49.445h.392v-.381a.876.876 0 0 0-.868-.867h-4.342a.874.874 0 0 0-.873.867v1.113c-.011 1.788 1.466 4.102 3.03 4.102h.118c-1.094-1.816-.27-4.834 2.533-4.834Zm10.8-.357a.87.87 0 0 0-.867-.868h-4.344a.881.881 0 0 0-.614.254.882.882 0 0 0-.254.614v1.113c0 1.787 1.471 4.102 3.036 4.102.312-.008.618-.092.89-.246-1.183-1.746-.469-4.735 2.151-4.97Zm10.424.234v-.223a.866.866 0 0 0-.867-.867h-4.342a.868.868 0 0 0-.868.867v1.114c0 1.787 1.471 4.102 3.042 4.102.251-.004.5-.062.726-.17-1.072-1.788-.304-4.676 2.31-4.823Zm10.032-.176h.364v-.076a.875.875 0 0 0-.873-.867h-4.343a.87.87 0 0 0-.867.867v1.113c0 1.788 1.477 4.102 3.04 4.102.112 0 .222-.015.33-.04-1.36-1.765-.58-5.1 2.35-5.1Zm10.771.38v-.438a.876.876 0 0 0-.867-.868h-4.343a.872.872 0 0 0-.873.868v1.113c0 1.787 1.477 4.102 3.042 4.102.177-.003.353-.033.52-.088-.954-1.817-.116-4.618 2.521-4.688Zm9.915-.304c.165.003.33.014.493.035v-.17a.87.87 0 0 0-.868-.867h-4.342a.878.878 0 0 0-.613.254.859.859 0 0 0-.254.614v1.113c0 1.787 1.471 4.102 3.035 4.102.055.003.11.003.164 0-1.312-1.81-.515-5.08 2.385-5.08Zm10.495.452c.135-.01.27-.01.405 0v-.586a.87.87 0 0 0-.867-.868h-4.343a.87.87 0 0 0-.867.868v1.113c0 1.758 1.46 4.102 3.024 4.102-.914-1.846-.03-4.63 2.648-4.63Zm-24.588 26.815v-5.778a.708.708 0 0 0-.71-.71h-79.578a.71.71 0 0 0-.71.71v5.778c.001.392.32.71.71.71h79.59a.71.71 0 0 0 .71-.71Zm10.77-4.483v-.586a.878.878 0 0 0-.26-.613.859.859 0 0 0-.617-.254h-4.342a.859.859 0 0 0-.612.254.859.859 0 0 0-.254.613v1.113c0 1.788 1.471 4.102 3.04 4.102.133-.003.261-.02.39-.052-.868-1.83.017-4.56 2.65-4.577Zm-96.97-.375c.17 0 .34.015.51.04v-.245a.87.87 0 0 0-.878-.867h-4.34a.872.872 0 0 0-.869.867v1.113c0 1.788 1.477 4.102 3.042 4.102h.1c-1.249-1.816-.428-5.01 2.431-5.01ZM73.66 55.377H217.3a3.723 3.723 0 0 1 3.72 3.721v32.816H69.94V59.098a3.721 3.721 0 0 1 3.72-3.72Z" fill="#000" opacity=".2"/><path d="M205.557 61.565H85.427a136.534 136.534 0 0 0-5.274-24.524h130.702a131.023 131.023 0 0 0-5.298 24.524Z" fill="#fff"/><path d="M206.741 53.66c-.874 4.77-1.172 7.905-1.172 7.905H85.43s-.305-3.076-1.202-7.905h122.51Z" fill="#000" opacity=".2"/><path d="M205.557 61.565H85.427a136.534 136.534 0 0 0-5.274-24.524h130.702a131.023 131.023 0 0 0-5.298 24.524v0Z" stroke="#263238" stroke-linecap="round" stroke-linejoin="round"/><path d="M203.922 82.216H86.072V130.7h117.85V82.216Z" fill="#263238"/><g fill="#fff" opacity=".4"><path d="m142.058 126.412.621.029a125921 125921 0 0 0 2.344-36.332c-.996 12.13-1.984 24.23-2.965 36.3Zm-2.004-.153.621.053c1.355-12.013 2.709-24.079 4.06-36.197a19237.68 19237.68 0 0 1-4.681 36.144Zm-1.95-.222c.204 0 .415.047.62.07 1.922-11.884 3.856-23.883 5.801-35.998-2.15 12.12-4.29 24.1-6.422 35.92Zm-1.977-.3.627.1c2.493-11.72 5.005-23.635 7.536-35.745a5442.886 5442.886 0 0 1-8.163 35.646Zm-1.968-.368.63.13a6130.56 6130.56 0 0 0 9.26-35.396 3390.71 3390.71 0 0 1-9.901 35.266Zm-1.96-.446.63.16c3.587-11.24 7.279-22.896 10.983-34.986-3.92 12.09-7.83 23.692-11.62 34.826Zm-1.959-.527.641.188c4.101-10.924 8.396-22.42 12.697-34.498-4.518 12.077-9.018 23.51-13.337 34.31Zm-1.915-.598.64.205c4.635-10.548 9.5-21.863 14.398-33.923-5.138 12.06-10.225 23.293-15.036 33.718Zm-1.946-.685.645.234c5.134-10.15 10.591-21.237 16.086-33.279-5.725 12.042-11.409 23.03-16.73 33.045Zm-1.898-.774.644.27c5.603-9.693 11.65-20.51 17.75-32.553-6.347 12.02-12.61 22.778-18.395 32.283Zm-1.88-.867.642.31c6.048-9.17 12.687-19.748 19.397-31.737-6.95 11.99-13.818 22.467-20.04 31.427Zm-1.854-.96.644.35c6.446-8.596 13.695-18.875 21.014-30.835a352.728 352.728 0 0 1-21.658 30.484Z" opacity=".4"/><path d="M118.958 119.456c.21.135.434.258.65.387a306.49 306.49 0 0 0 22.597-29.828 278.705 278.705 0 0 1-23.247 29.441Z" opacity=".4"/><path d="m117.159 118.29.638.439a243.537 243.537 0 0 0 24.15-28.714 222.855 222.855 0 0 1-24.788 28.275Z" opacity=".4"/><path d="M141.712 89.98c-9.428 11.808-18.652 20.815-26.27 27.038l.627.487a197.25 197.25 0 0 0 25.643-27.525Z" opacity=".4"/><path d="M141.478 89.963c-10.044 11.72-19.86 20.287-27.706 25.678l.62.54c7.742-5.73 17.306-14.46 27.086-26.21Z" opacity=".4"/><path d="M141.226 89.945c-10.648 11.632-21.02 19.696-29.042 24.196.193.2.386.4.586.59 7.946-4.86 18.09-13.12 28.456-24.78Z" opacity=".4"/><path d="M141.009 89.922c-11.228 11.515-22.139 19.045-30.29 22.619l.586.64c8.069-3.968 18.734-11.71 29.704-23.26Z" opacity=".4"/><path d="M109.371 110.83c.17.235.346.47.522.697 8.174-3.017 19.338-10.219 30.888-21.623-11.785 11.35-23.188 18.318-31.41 20.926Z" opacity=".4"/><path d="M108.175 109.049c.153.246.311.492.47.738 8.203-2.063 19.853-8.69 31.9-19.924-12.282 11.169-24.136 17.551-32.37 19.186Z" opacity=".4"/><path d="M107.156 107.238c.129.258.263.51.398.768 8.204-1.114 20.252-7.155 32.758-18.137-12.711 10.876-24.952 16.666-33.156 17.369Z" opacity=".4"/><path d="M106.324 105.386c.105.258.217.522.328.78 8.157-.2 20.51-5.644 33.402-16.338-13.04 10.583-25.585 15.763-33.73 15.558Zm37.72 21.108h.616c.187-12.111.383-24.237.586-36.38-.41 12.135-.811 24.26-1.202 36.38Zm1.98.012h.623c-.39-12.111-.782-24.237-1.172-36.38l.55 36.38Zm1.982-.053h.62a83984.11 83984.11 0 0 1-2.93-36.332c.77 12.134 1.54 24.245 2.31 36.332Zm2.01-.123.62-.047a24586.871 24586.871 0 0 1-4.687-36.168c1.344 12.13 2.7 24.202 4.067 36.215Zm1.95-.188.623-.076a78031.305 78031.305 0 0 1-6.447-35.957c1.957 12.13 3.898 24.14 5.824 36.03Zm1.976-.263.627-.094a9829.436 9829.436 0 0 1-8.185-35.676 8331.98 8331.98 0 0 0 7.548 35.77Zm1.969-.334.627-.118a4908.45 4908.45 0 0 1-9.91-35.324 4104.154 4104.154 0 0 0 9.283 35.442Zm1.957-.411.64-.146c-3.798-11.134-7.713-22.778-11.645-34.89a2635.084 2635.084 0 0 0 11.005 35.036Zm1.958-.48.632-.182c-4.324-10.823-8.83-22.268-13.36-34.386 4.307 12.106 8.596 23.598 12.728 34.568Zm1.939-.57.645-.21c-4.846-10.442-9.962-21.682-15.078-33.794 4.91 12.089 9.786 23.416 14.433 34.005Zm1.928-.65.645-.24c-5.333-10.014-11.03-21.048-16.772-33.126 5.515 12.078 10.982 23.188 16.127 33.367Zm1.91-.732c.217-.093.44-.175.65-.27-5.8-9.527-12.094-20.316-18.452-32.376 6.123 12.06 12.177 22.93 17.802 32.646Zm1.893-.814.65-.311c-6.24-8.983-13.137-19.49-20.11-31.526 6.732 12.024 13.39 22.637 19.46 31.837Zm1.858-.92c.217-.111.433-.235.644-.352a354.277 354.277 0 0 1-21.74-30.59c7.36 12.014 14.65 22.32 21.096 30.942Zm1.84-1.014.656-.387a279.39 279.39 0 0 1-23.346-29.552 306.135 306.135 0 0 0 22.69 29.939Z" opacity=".4"/><path d="M148.738 89.998a243.953 243.953 0 0 0 24.255 28.843l.65-.44a223.175 223.175 0 0 1-24.905-28.403Z" opacity=".4"/><path d="M148.973 89.98a196.577 196.577 0 0 0 25.784 27.636c.216-.158.422-.322.633-.486-7.642-6.224-16.936-15.272-26.417-27.15Z" opacity=".4"/><path d="M149.207 89.963c9.845 11.82 19.467 20.586 27.23 26.317.212-.176.43-.352.634-.533-7.876-5.38-17.755-13.971-27.864-25.784Z" opacity=".4"/><path d="M149.43 89.945c10.46 11.72 20.656 20.035 28.626 24.893.205-.193.398-.398.586-.586-8.028-4.494-18.477-12.587-29.212-24.307Z" opacity=".4"/><path d="M149.676 89.922c11.058 11.638 21.805 19.414 29.886 23.352l.586-.645c-8.15-3.533-19.15-11.093-30.472-22.707Z" opacity=".4"/><path d="M181.01 111.609c.181-.234.35-.468.527-.709-8.233-2.55-19.742-9.54-31.644-20.996 11.65 11.503 22.924 18.729 31.117 21.705Z" opacity=".4"/><path d="m182.281 109.846.48-.75c-8.244-1.553-20.21-7.952-32.622-19.215 12.183 11.327 23.903 17.972 32.142 19.965Z" opacity=".4"/><path d="M183.418 108.023c.14-.258.275-.516.41-.779-8.204-.586-20.574-6.382-33.402-17.387 12.588 11.1 24.788 17.152 32.992 18.166Z" opacity=".4"/><path d="M150.602 89.828c13.033 10.817 25.55 16.26 33.695 16.343a36.2 36.2 0 0 0 .34-.791c-8.134.334-20.815-4.852-34.035-15.552Z" opacity=".4"/></g><path d="M128.334 90.988c-2.221 5.696.182 22.268 16.21 22.268 16.026 0 21.845-11.644 21.194-18.84l21.395-3.445s6.558 18.119-7.366 30.794c-13.923 12.675-62.186 11.855-72.388 2.221-10.203-9.634-4.542-28.667-4.542-28.667l25.497-4.33Z" fill="#000" opacity=".2"/><path d="M222.235 66.411v-3.996a.69.69 0 0 1 .486-.662l2.93-.914v-3.997a1.803 1.803 0 0 1 1.805-1.805h3.516a.669.669 0 0 1 .68.633v1.29a.668.668 0 0 1-.662.667h-4.471v3.909a.707.707 0 0 1-.334.586l-2.497 1.512v2.783l-1.453-.006Z" fill="#999" stroke="#263238" stroke-linecap="round" stroke-linejoin="round"/><path d="M226.091 66.411h-3.856v11.533h3.856V66.41Z" fill="#263238"/><path d="M230.914 65.433h-4.823v13.49h4.83v-13.49Z" fill="#757575"/><path d="M230.902 73.648h-4.81v5.274h4.81v-5.274Z" fill="#000" opacity=".2"/><path d="M230.914 65.433h-4.823v13.49h4.83v-13.49Z" stroke="#263238" stroke-linecap="round" stroke-linejoin="round"/><path d="M64.87 77.938h3.856V66.406H64.87v11.532Z" fill="#263238"/><path d="M60.047 78.917h4.823v-13.49h-4.823v13.49Z" fill="#757575"/><path d="M64.876 73.648h-4.823v5.145h4.823v-5.145Z" fill="#000" opacity=".2"/><path d="M60.047 78.917h4.823v-13.49h-4.823v13.49Z" stroke="#263238" stroke-linecap="round" stroke-linejoin="round"/><path d="M68.146 72.863a4.688 4.688 0 0 0-1.383-5.274l-2.836-2.344a1.716 1.716 0 0 0-2.497.305L50.185 81.06a1.686 1.686 0 0 0-.328 1.003v16.66a1.688 1.688 0 0 0 1.711 1.688v0a1.688 1.688 0 0 0 1.688-1.688v-13.53c0-.334.105-.66.299-.932l8.409-11.72a.913.913 0 0 1 1.336-.164l1.547 1.312a2.12 2.12 0 0 0 1.371.504v0a2.08 2.08 0 0 0 1.928-1.33v0Z" fill="#fff" stroke="#263238" stroke-linecap="round" stroke-linejoin="round"/><path d="M65.825 71.346a.803.803 0 1 0 0-1.606.803.803 0 0 0 0 1.606Z" fill="#999" stroke="#263238" stroke-linecap="round" stroke-linejoin="round"/><path d="M218.66 60.839H72.307v22.666H218.66V60.839Z" fill="#263238"/><path d="M216.545 62.544H74.363a.809.809 0 0 0-.808.808v3.669c0 .446.362.808.808.808h142.182a.808.808 0 0 0 .808-.81v-3.67a.809.809 0 0 0-.808-.81Z" fill="#fff" opacity=".2"/><path d="M205.557 88.064H85.427a62.956 62.956 0 0 1-5.274-24.524h130.702c0 11.357-5.298 24.524-5.298 24.524Z" fill="#fff"/><path d="M95.143 86.224s2.631-.14 4.102-1.026c1.47-.884 1.365.798 2.209.91.844.11 2.837-.587 3.891-.587 1.055 0 .252.644 1.442.586 1.189-.059.55.058 1.172-.059l5.092-.85s2.584-.498 3.106-.246c.522.252 1.207 1.495 1.97 1.172.761-.322.356-.586 1.505-.586.71.004 1.416.106 2.098.305 0 0 .105-.299.633-.305h.943s1.998.528 2.315.528c.316 0 2.678-.522 2.76-.528.082-.005 2.344-.586 2.344-.586.48.502 1.088.863 1.758 1.044.856.11 1.758-.118 2.403.17.644.287 2.766-.118 2.766-.118a10.91 10.91 0 0 1 1.51.117c.658.15 1.34.13 1.988-.058a7.57 7.57 0 0 1 3.633-.059c1.905.346 3.657-.52 4.465-.527.809-.006 4.044.357 5.157.357 1.114 0 4.06.4 6.112.17 2.05-.228 3.393.287 4.77.287 1.377 0 2.848-.058 3.165-.058.316 0 1.84-.996 4.02-.756 2.18.24.24-.3 1.582 0s2.402.586 2.97.644a6.76 6.76 0 0 0 1.366-.058l2.344-.17h11.685M92.709 81.7s7.23 0 8.54-.117c1.305-.117 2.002-.785 2.698-.785.7 0 4.22.668 4.22.668a1.174 1.174 0 0 1 1.174-.668c.956 0 .47.088 1.348.44.88.35.422 0 .885.345.69.31 1.42.523 2.167.633 0 0 3.264.152 3.387-.633.123-.785 1.758.633 1.758.633s4.43-.633 6.142-.633c1.713 0 6.003-.346 6.003-.346s3.516.463 3.68.463c.164 0 .745.92 1.372.516.627-.405 1.23-.867 1.974-.75a9.12 9.12 0 0 1 1.995.75l1.635-.867 1.875.117s1.91 1.271 3.276.75a29.94 29.94 0 0 0 3.04-1.418l1.683 1.418h1.104l3.264-.633a1.97 1.97 0 0 0 2.14.633c1.38-.399 14.596 0 17.96 0 3.363 0 4.1-.867 4.1-.867l2.592.867h12.891" stroke="#263238" stroke-linecap="round" stroke-linejoin="round" opacity=".7"/><path d="M206.782 84.677a67.96 67.96 0 0 1-1.225 3.387H85.427s-.586-1.23-1.388-3.387h122.743Zm2.502-8.872a94.244 94.244 0 0 1-1.289 4.993H82.732a69.201 69.201 0 0 1-1.266-4.993h127.818Z" fill="#000" opacity=".2"/><path d="M205.557 88.064H85.427a62.956 62.956 0 0 1-5.274-24.524h130.702c0 11.357-5.298 24.524-5.298 24.524Z" stroke="#263238" stroke-linecap="round" stroke-linejoin="round"/><path d="M72.277 59.672h-3.58v25.01h3.58v-25.01Z" fill="#757575"/><path d="M72.207 77.264H68.72v7.419h3.487v-7.42Z" fill="#000" opacity=".2"/><path d="M72.277 59.672h-3.58v25.01h3.58v-25.01Z" stroke="#263238" stroke-linecap="round" stroke-linejoin="round"/><path d="M222.264 59.672h-3.58v25.01h3.58v-25.01Z" fill="#757575"/><path d="M222.264 77.264h-3.61v7.419h3.61v-7.42Z" fill="#000" opacity=".2"/><path d="M222.264 59.672h-3.58v25.01h3.58v-25.01Z" stroke="#263238" stroke-linecap="round" stroke-linejoin="round"/><path d="M218.713 58.623v18.243H72.248V58.623h-1.406V78.09h149.277V58.623h-1.406Z" fill="#999" stroke="#263238" stroke-linecap="round" stroke-linejoin="round"/><path d="M227.368 89.353v40.91a2.602 2.602 0 0 1-2.602 2.6H66.177a2.601 2.601 0 0 1-2.602-2.6v-40.91a2.602 2.602 0 0 1 2.602-2.602h73.074v2.61s-12.476 10.826-33.988 14.816c3.083 13.953 19.924 24.61 40.247 24.61 20.322 0 37.164-10.67 40.252-24.61-21.54-3.99-34.017-14.814-34.017-14.814v-2.63h73.039a2.608 2.608 0 0 1 1.837.777 2.594 2.594 0 0 1 .75 1.85Z" fill="#fff" stroke="#263238" stroke-linecap="round" stroke-linejoin="round"/><path d="M227.368 89.353v40.91a2.607 2.607 0 0 1-1.61 2.405 2.608 2.608 0 0 1-.998.195H66.177a2.606 2.606 0 0 1-2.608-2.602V89.353a2.614 2.614 0 0 1 2.6-2.607h73.072v2.607s-12.482 10.818-33.988 14.814c3.082 13.953 19.923 24.612 40.252 24.612 20.327 0 37.157-10.67 40.245-24.612-21.54-3.996-34.018-14.814-34.018-14.814v-2.625h73.04a2.61 2.61 0 0 1 2.583 2.625Z" fill="#fff"/><path d="M223.852 89.98v37.768a1.916 1.916 0 0 1-.562 1.35 1.908 1.908 0 0 1-1.354.554h-154.2a1.884 1.884 0 0 1-1.35-.556 1.9 1.9 0 0 1-.555-1.348V89.98a1.91 1.91 0 0 1 1.91-1.916h71.496v1.29s-12.482 10.817-33.988 14.813c3.082 13.953 19.924 24.612 40.252 24.612 20.328 0 37.158-10.67 40.246-24.612-21.54-3.996-34.017-14.814-34.017-14.814v-1.289h70.232a1.918 1.918 0 0 1 1.9 1.916Z" fill="#fff" opacity=".2"/><path d="M227.368 89.353v40.91a2.607 2.607 0 0 1-1.61 2.405 2.608 2.608 0 0 1-.998.195H66.177a2.606 2.606 0 0 1-2.608-2.602V89.353a2.614 2.614 0 0 1 2.6-2.607h73.072v2.607s-12.482 10.818-33.988 14.814c3.082 13.953 19.923 24.612 40.252 24.612 20.327 0 37.157-10.67 40.245-24.612-21.54-3.996-34.018-14.814-34.018-14.814v-2.625h73.04a2.61 2.61 0 0 1 2.583 2.625v0Z" stroke="#263238" stroke-linecap="round" stroke-linejoin="round"/><path d="m174.98 144.988 7.788 21.723s3.369-23.91 5.379-23.91c2.01.001 6.341 13.075 6.341 13.075s2.672-6.82 5.203-7.067c2.532-.246 4.823 16.748 4.823 16.748l.393 37.721-3.194 57.047s-20.375-22.444-26.317-28.228c-5.942-5.784-11.62-18.512-13.262-21.096-1.64-2.584-2.056-16.115-2.056-16.115a14.503 14.503 0 0 0 3.07-9.33s4.782-8.004 4.49-13.911c-.294-5.907-1.032-28.86 7.342-26.657Z" fill="#000" fill-opacity=".7" opacity=".2"/><path d="m236.281 250.222-30.847 16.226c0-.164-4.055-6.733-8.954-14.163a365.421 365.421 0 0 0-6.874-10.097c-3.715-5.233-8.438-9.75-8.842-10.736-1.172-2.93-10.21-13.9-12.23-18.166-2.022-4.266-2.485-17.54-3.376-20.662-.89-3.123 1.665-6.106 3.716-7.56 2.051-1.453 4.2-5.273 4.2-5.273s-2.267-8.837-2.29-13.332c-.023-4.494-1.553-20.182.275-21.647 1.83-1.465 3.464-.85 3.92.159 1.5 3.322 2.849 11.68 4.003 15.529 1.155 3.85 3.323 15.02 4.39 15.822 1.066.802 2.964-2.21 2.964-2.21s.182-9.376.586-13.26l-.586-12.307s-1.095-7.395 1.454-8.098c3.516-.967 4.8 1.242 5.198 2.174.398.93 2.039 6.299 2.039 6.299l.094.369.01.112v.07l.087.338c.066.246.14.539.224.873.78 3.054 2.28 9.166 2.215 10.67-.088 2.036-.797 13.299.205 15.637l1.559-15.558s-2.514-11.99-1.781-13.72c.732-1.727 4.184.183 4.594.863.41.68 3.762 4.793 4.36 6.364l.585 1.57s.826-3.715 2.766-2.748c1.939.966 2.18 5.689 2.314 7.752.135 2.06 1.542 15.328 1.758 15.352.216.023 2.455 6.915 2.149 11.468-.638 9.745 1.05 16.994 1.109 20.733.058 3.738-2.76 12.4-2.76 12.4.099.17 1.939 3.298 2.443 6.047.37 2.016 6.938 9.3 12.306 15.095 3.732 3.997 6.86 7.267 7.025 7.624Z" fill="#fff"/><path d="M196.486 252.296a365.359 365.359 0 0 0-6.874-10.096c-3.715-5.233-8.438-9.75-8.843-10.736-1.172-2.93-10.208-13.9-12.23-18.166-2.03-4.266-2.49-17.54-3.38-20.662-.89-3.124 1.66-6.106 3.711-7.56 2.05-1.453 4.2-5.274 4.2-5.274s-2.268-8.837-2.29-13.33c-.026-4.496-1.555-20.183.273-21.648 1.83-1.465 3.464-.85 3.92.158 1.5 3.323 2.849 11.68 4.003 15.529 1.154 3.85 3.323 15.02 4.39 15.822 1.067.803 2.965-2.21 2.965-2.21s.182-9.375.586-13.26l-.586-12.306s-1.095-7.395 1.455-8.1c3.515-.966 4.799 1.244 5.196 2.175.4.932 2.04 6.3 2.04 6.3l.093.369v.176a50.698 50.698 0 0 1 .31 1.207c-.906-1.436-2.154-2.66-3.825-2.983-4.688-.914-3.674 4.302-3.228 7.43a21.687 21.687 0 0 1-.147 6.24l1.172-.672c-.844 1.506-2.05 14.023-2.05 16.806 0 2.784-2.204 3.71-4.18 2.895-1.974-.814-2.677-13.589-4.177-15.881-1.5-2.29-5.673 2.087-5.86 6.089-.188 4.002 3.545 15.939 2.66 18.752-.885 2.813-.873 13.478-.873 13.478l-1.078-2.748c.07.375 0 1.635-2.256 5.344a11.034 11.034 0 0 0-1.225 9.118c1.377 3.042 8.362 11.058 9.534 11.884 0 0 .85-3.48 3.517-2.555a15.383 15.383 0 0 0-1.957 4.688c-.55 2.555 5.01 4.19 6.75 6.622 1.067 1.494 1.782 6.012 8.275 17.116Zm32.804-9.692c-5.485-5.526-15.136-10.788-14.55-12.165.785-1.863-.211-5.807-1.9-9.006-1.687-3.2.587-8.39.587-8.39l1.043 3.017a25.68 25.68 0 0 0 .287-10.618c-1.066-5.983-1.898-3.88-1.898-3.88s.216-5.39 1.172-8.334c.955-2.94 1.758-10.085.439-14.31-1.318-4.225-4.102-3.428-4.846-1.975-.744 1.454.053 7.12.668 8.978.615 1.858-2.004 4.98-2.057 2.66-.053-2.32-1.043-8.79-1.043-8.79l1.986-12.99-1.986-10.32s.826-3.715 2.766-2.748c1.939.967 2.18 5.69 2.315 7.753.134 2.063 1.54 15.331 1.758 15.354.216.022 2.455 6.914 2.15 11.467-.64 9.744 1.049 16.993 1.108 20.732.047 3.738-2.77 12.4-2.77 12.4.099.17 1.939 3.3 2.443 6.047.369 2.018 6.938 9.302 12.306 15.097l.012.012Zm-22.708-87.677c.112.293.205.533.276.726-1.864-4.33-5.04-2.988-5.602-1.758-.563 1.23 1.33 8.867 1.758 10.05.427 1.184-1.7 10.636-2.01 13.765-.31 3.13-1.137 3.768-1.137 3.768-2.104.159-2.344-5.65-2.344-6.446.04.667.17 1.325.387 1.958l1.558-15.56s-2.572-12-1.84-13.73c.733-1.727 4.184.183 4.595.863.41.68 3.762 4.793 4.359 6.364Z" fill="#fff" opacity=".4"/><path d="M236.281 250.222c-.398-.902-18.7-19.338-19.338-22.725-.515-2.825-2.45-6.053-2.45-6.053.001 0 2.82-8.644 2.76-12.4-.058-3.756-1.757-10.988-1.107-20.733.305-4.553-1.928-11.444-2.15-11.468-.223-.023-1.63-13.29-1.758-15.353-.129-2.063-.37-6.786-2.315-7.753-1.946-.967-2.766 2.748-2.766 2.748l-.586-1.57c-.586-1.57-3.95-5.684-4.36-6.364-.41-.68-3.85-2.596-4.59-.86-.732 1.744 1.84 13.716 1.84 13.716l-1.547 15.575c-1.002-2.344-.293-13.6-.205-15.634.088-2.034-2.666-12.424-2.666-12.424s-1.654-5.344-2.041-6.305c-.386-.961-1.68-3.141-5.197-2.174-2.55.703-1.454 8.098-1.454 8.098l.586 12.305c-.392 3.903-.586 13.262-.586 13.262s-1.898 3.006-2.965 2.21c-1.066-.8-3.235-11.961-4.39-15.824-1.153-3.86-2.501-12.206-4.001-15.53-.456-1.006-2.091-1.621-3.92-.156-1.83 1.465-.305 17.146-.276 21.646.029 4.5 2.29 13.332 2.29 13.332s-2.15 3.797-4.2 5.274c-2.05 1.477-4.606 4.43-3.716 7.56.89 3.13 1.354 16.407 3.376 20.662 2.02 4.254 11.034 15.236 12.23 18.166.404.984 5.127 5.502 8.842 10.735 7.296 10.274 15.822 24.027 15.822 24.26" stroke="#263238" stroke-linecap="round" stroke-linejoin="round"/><path d="M173.075 179.808s1.454 7.202 1.401 8.41c0 0-1.272 5.56-1.284 9.164a36.821 36.821 0 0 0-2.39 4.237c-.493 1.3-1.372 4.5-1.008 6.282" stroke="#263238" stroke-linecap="round" stroke-linejoin="round"/><path d="M170.42 190.45s3.563.03 3.335 1.53m-.563 5.402s-2.285-.99-3.088.34m16.244-23.598s-.164 5.52-1.618 5.08m13.174-2.232s-.422 3.018.715 3.95m8.555-24.425s1.583 7.618 1.946 9.423c.363 1.805-1.8 11.017-1.758 13.414.04 2.396 1.066 5.824.926 7.436m5.204 27.583s-.51 4.975 1.02 7.102m-31.744 2.743s-3.41 3.106-2.163 6.926m24.577-45.65c.053 2.192-1.23 4.747-1.365 7.777m-9.499-9.73c.726 1.799-.856 5.7-1.096 7.16a8.963 8.963 0 0 0 .369 3.4m21.148-4.38c-.293 1.907-1.64 3.266-1.898 9.126m-31.374-15.857c.984 1.072.322 6.194.586 7.032m17.773-36.538s3.352-2.454 6.235.44m-17.779-6.082s.586-.98 3.416-.74 3.334 1.835 3.334 1.835" stroke="#263238" stroke-linecap="round" stroke-linejoin="round"/><path d="M180.013 164.543s-.95-1.401-3.45-.938c-2.503.463-3.617 4.003-3.617 4.003" fill="#fff"/><path d="M180.013 164.543s-.95-1.401-3.45-.938c-2.503.463-3.617 4.003-3.617 4.003m41.067 9.247s-2.086-3.024-4.594-1.729" stroke="#263238" stroke-linecap="round" stroke-linejoin="round"/><path d="M125.141 154.704c3.516 2.725.55 19.449.55 19.449l.31 5.444 6.031-2.625 2.748 11.632s-.07 4.26 2.163 5.86c0 0 .55 9.558 0 16.543-.551 6.985-11.72 15.195-15.57 22.526-3.85 7.331-28.96 28.878-28.96 28.878l-21.26-10.115 15.37-62.08 13.771-17.703 8.163-20.364s1.401 13.302.586 22.268l16.098-19.713Z" fill="#000" fill-opacity=".7" opacity=".2"/><path d="M131.059 191.856c-.533 2.567.75 16.637.527 18.536-.222 1.898-11.415 14.65-11.978 15.616-.562.967-8.045 5.275-9.786 7.33-8.133 9.49-12.575 18.226-16.144 26.987a233.066 233.066 0 0 0-1.987 5.08l-32.276-18.752c2.713-3.363 5.274-6.352 7.618-9.07 4.688-5.515 8.42-9.928 10.249-14.094a23.322 23.322 0 0 1 1.922-3.048c.726-1.031 1.377-1.881 1.377-1.881s-2.34-6.604-1.79-8.678c.546-2.075-.673-19.127-.673-19.127s-1.587-11.61-3.152-14.54a4.827 4.827 0 0 1-.504-2.472c.077-2.678 1.63-6.053 2.39-9.962 1.02-5.274.529-7.882 3.728-6.06 3.2 1.823 1.705 12.893 1.705 12.893l4.836 10.712c1.273-2.59 0-10.15-.063-11.937 0-.293 0-.78-.047-1.412-.101-3.082-.306-9.5-.042-12.031 0-.14 0-.27.046-.386.393-2.614 1.794-10.93 2.684-11.855 1.325-1.371 3.428-2.526 5.41.586 1.107 1.758.632 15.7.632 15.7s4.594-5.54 5.99-6.89c1.394-1.353 5.625-3.826 6.755-.961 1.13 2.866-3.04 11.72-3.04 11.72.873 2.05.979 7.73.979 7.73s1.975 7.096 3.188 7.032h.052c.352-.076.74-1.366 1.143-3.176.996-4.437 2.08-12.026 2.93-12.688l.586-.468a.437.437 0 0 1 .095-.089l.217-.193c2.074-1.845 6.446-5.947 6.446-5.947s.31-1.963 4.137-1.36c3.826.604-1.7 11.896-1.7 11.896-.767 3.592-1.945 12.833-1.945 12.833-.358 3.845-.147 14.176-.147 14.176s1.81-6.013 1.695-8.204c-.12-2.191 3.596-7.56 4.686-8.942 1.09-1.382 5.955-.896 4.6 1.758-1.353 2.655-.802 11.07-1.335 13.648Z" fill="#fff"/><path d="M77.264 223.512a23.245 23.245 0 0 1 1.922-3.047s-1.904 5.274-2.092 8.08c-.123 1.853-4.998 5.058-10.079 9.06 4.717-5.514 8.42-9.926 10.25-14.093Zm1.922-3.047c.727-1.031 1.377-1.881 1.377-1.881s-2.344-6.604-1.8-8.68c.546-2.073-.673-19.126-.673-19.126s-1.588-11.608-3.153-14.538l3.645 6.369s-.357 5.034.68 7.794 2.344 11.181 2.344 11.181-1.535 7.08-1.014 9.628c.522 2.55 2.872 1.623 2.872 1.623s1.154 4.665-4.278 7.63Zm8.503-47.953c2.503 14.721-1.828 10.648-3.392 7.472-1.564-3.176-5.24-9.188-8.004-7.905a4.319 4.319 0 0 0-1.87 1.688c.077-2.678 1.63-6.054 2.39-9.962 1.02-5.274.529-7.882 3.728-6.06 3.2 1.823 1.706 12.892 1.706 12.892l4.833 10.712c1.272-2.59 0-10.15-.064-11.936 0-.293 0-.78-.047-1.413.193 1.354.428 2.86.71 4.512Zm6.142-14.544s-2.712-3.55-5.068-3.369a2.07 2.07 0 0 0-1.834 1.353c0-.139 0-.268.047-.386.392-2.613 1.793-10.928 2.684-11.854 1.324-1.372 3.428-2.526 5.409.586 1.106 1.758.63 15.7.63 15.7 0-.001 4.596-5.545 5.99-6.9 1.396-1.352 5.627-3.825 6.758-.96 1.13 2.866-3.04 11.72-3.04 11.72.873 2.05.978 7.73.978 7.73s1.974 7.096 3.187 7.032c-2.673 5.028-4.455-6.09-4.455-6.09.4-2.296-1.02-7.277-.88-8.59.142-1.312-2.46-5.953-6.843-4.688-4.383 1.266-1.22 18.588-1.22 18.588a9.682 9.682 0 0 0-1.464 4.583c-1.355-1.67-.001-6.446-.001-6.446-1.201-4.57-.88-18.008-.88-18.008Zm20.429 4.295c-1.87 1.964-1.612 6.927-3.516 13.156.997-4.436 2.08-12.025 2.93-12.687l.587-.47Zm16.789 29.593c-.534 2.567.75 16.637.527 18.535-.223 1.9-11.415 14.65-11.978 15.617-.562.967-8.046 5.274-9.786 7.33-8.134 9.49-12.576 18.226-16.144 26.987a115.435 115.435 0 0 1 4.858-13.338c3.85-8.655 5.42-10.196 7.73-12.669 2.308-2.473 2.056-7.73 2.056-7.73a22.14 22.14 0 0 1 5.204-.615c2.93 0 11.603-12.364 14.586-14.533 2.983-2.168 3.516-2.168 0-6.95-3.516-4.781-2.52.768-3.575.586-1.053-.18-1.63 2.128-1.63 2.128-.367-4.876-3.514-10.548-4.176-11.966-.663-1.42 1.605-9.734 1.136-12.05-.47-2.313 2.02-16.407 2.02-16.407 0 .01-.31-5.4-5.21-5.42a3.208 3.208 0 0 0-2.1.637c2.075-1.846 6.446-5.948 6.446-5.948s.31-1.963 4.138-1.36c3.826.605-1.7 11.897-1.7 11.897-.767 3.592-1.945 12.834-1.945 12.834-.358 3.844-.147 14.175-.147 14.175s1.811-6.012 1.696-8.204c-.117-2.192 3.598-7.56 4.688-8.942 1.09-1.383 5.954-.897 4.6 1.758-1.354 2.654-.756 11.08-1.29 13.659Z" fill="#fff" opacity=".4"/><path d="M91.686 265.458c3.978-10.507 8.426-20.762 18.136-32.09 1.758-2.027 9.218-6.334 9.786-7.33.57-.996 11.76-13.724 11.978-15.617.217-1.893-1.06-15.969-.527-18.535.53-2.567-.09-11.029 1.25-13.666 1.348-2.637-3.516-3.117-4.6-1.758-1.084 1.36-4.788 6.774-4.688 8.943.1 2.168-1.693 8.204-1.693 8.204s-.21-10.332.146-14.176c0 0 1.172-9.24 1.945-12.833.001 0 5.521-11.298 1.701-11.896-3.82-.598-4.138 1.36-4.138 1.36s-6.1 5.731-7.307 6.67c-1.207.936-2.854 15.586-4.067 15.861-1.213.276-3.24-7.032-3.24-7.032s-.106-5.678-.979-7.729c0 0 4.166-8.83 3.04-11.72-1.124-2.89-5.355-.387-6.755.96-1.4 1.35-5.99 6.898-5.99 6.898s.474-13.953-.633-15.7c-1.979-3.122-4.1-1.968-5.407-.585-.89.926-2.29 9.24-2.684 11.855-.394 2.614 0 12.036.04 13.83.04 1.793 1.335 9.346.064 11.936l-4.835-10.712s1.5-11.08-1.705-12.892c-3.205-1.81-2.707.803-3.727 6.06-1.02 5.256-3.446 9.528-1.887 12.464 1.56 2.936 3.153 14.538 3.153 14.538s1.207 17.053.674 19.127c-.534 2.075 1.816 8.685 1.816 8.685s-2.707 3.57-3.299 4.928c-2.73 6.206-9.64 12.992-17.855 23.2" stroke="#263238" stroke-linecap="round" stroke-linejoin="round"/><path d="M95.711 160.007a5.758 5.758 0 0 0-.984 3.417c0 2.227 1.46 14.415 1.46 14.415s-1.062 1.254-1.114 2.344m26.276 13.396c.16 2.059.69 4.072 1.565 5.942 1.37 2.708.926 4.202.457 5.802a20.666 20.666 0 0 0-.498 4.272m-35.266-30.672s1.02 3.235-.873 4.77m22.9-5.098s.2 1.272-1.6 1.39m13.684-16.04s-4.512-4.922-8.016-1.213" stroke="#263238" stroke-linecap="round" stroke-linejoin="round"/><path d="M103.435 161.179s-2.08-2.631-3.885-2.473c-1.805.16-4.243 1.26-4.518 2.708m28.725 42.326a10.394 10.394 0 0 1 1.565 3.44m-13.285-23.446c-1.4 2.608-.732 7.032-1.248 8.245M97.2 179.404c.328 1.5-.71 3.944-.867 5.743-.159 1.8 1.312 4.576 1.043 7.102m-9.687-6.704s-1.23 2.825-1.18 4.688c.05 1.864.713 5.948.713 5.948m-8.55-10.771s-.445 2.93.586 4.993 2.034 6.446 2.034 6.446m-.739 21.73a2.8 2.8 0 0 0 2.035-2.398m27.425 11.328c0-.011 1.12 4.132-1.026 6.798m-34.53-61.04s3.154-3.075 5.539-.48m6.986-17.23s2.344-2.454 5.086.17" stroke="#263238" stroke-linecap="round" stroke-linejoin="round"/></g><defs><filter id="a" width="301" height="301" x="-4" y="0" color-interpolation-filters="sRGB" filterUnits="userSpaceOnUse"><feFlood flood-opacity="0" result="BackgroundImageFix"/><feColorMatrix in="SourceAlpha" result="hardAlpha" type="matrix" values="0 0 0 0 0 0 0 0 0 0 0 0 0 0 0 0 0 0 127 0"/><feOffset dy="4"/><feGaussianBlur stdDeviation="2"/><feComposite in2="hardAlpha" operator="out"/><feColorMatrix type="matrix" values="0 0 0 0 0 0 0 0 0 0 0 0 0 0 0 0 0 0 0.25 0"/><feBlend in2="BackgroundImageFix" mode="normal" result="effect1_dropShadow_580_2170"/><feBlend in="SourceGraphic" in2="effect1_dropShadow_580_2170" mode="normal" result="shape"/></filter></defs></svg>