<svg xmlns="http://www.w3.org/2000/svg" xml:space="preserve" x="0" y="0" version="1.1" viewBox="0 0 42.4 46.3"><path d="M25 33.4c2.8-.7 5.2-2.3 7-4.5 2.2-2.8 3.2-6.2 2.7-9.7-.4-3.5-2.2-6.6-5-8.8-2.7-2.1-6.1-3-9.5-2.6-3.4.4-6.5 2.1-8.6 4.7-1.8 2.3-2.8 5-2.9 8-.1 4.7-1.7 9.3-4.6 13l-3.1 4c-1.4 1.8-1.1 4.3.7 5.7l3 2.4c1.8 1.4 4.3 1.1 5.7-.7l3.1-4c2.8-3.7 6.8-6.3 11.5-7.5zM10.3 20.5c.1-2.5.9-4.9 2.5-6.9 3.9-4.8 11-5.6 15.8-1.9 2.4 1.9 4 4.6 4.4 7.6.4 3.1-.5 6.1-2.4 8.5-1.6 2-3.7 3.3-6.1 4-4.9 1.3-9.2 4-12.3 7.8l-6.7-5.3c3-4 4.7-8.8 4.8-13.8zM2.5 38l.5-.6 6.1 6.1-.2.2-.3.3-6.1-6zM4 36.1l.5-.6 6.7 5.3-1.1 1.4L4 36.1zm-1.4 5.7c-.7-.6-1-1.4-.9-2.3l5.1 5.1c-.5 0-.9-.2-1.3-.5l-2.9-2.3z"/><path d="M14.4 16.5c.2-.4.5-.8.8-1.1.3-.4.2-.9-.1-1.2-.4-.3-.9-.2-1.2.1-.3.4-.6.9-.9 1.3-.2.4-.1.8.2 1.1 0 0 .1 0 .1.1.4.3.9.1 1.1-.3zm-4 13.1c.1.1.1.1.2.1.4.2.9-.1 1.1-.5 1-2.8 1.6-5.7 1.6-8.7 0-.5.1-1 .2-1.5s-.2-.9-.7-1c-.5-.1-.9.2-1 .7-.1.6-.2 1.2-.2 1.7-.1 2.8-.6 5.5-1.5 8.1-.1.5 0 .9.3 1.1zm16.4-1.2c-.2-.4-.7-.6-1.1-.3-.6.3-1.2.6-1.9.7-.4.1-.7.6-.6 1 0 .2.2.3.3.4.2.2.5.2.7.2.8-.2 1.6-.5 2.3-.9.4-.2.5-.7.3-1.1zm.1-14.3c3.6 2.9 4.2 8.2 1.4 11.8-.2.2-.3.4-.5.6-.3.3-.3.9 0 1.2l.1.1c.3.3.8.2 1.1-.1.2-.2.4-.5.6-.7 3.4-4.3 2.7-10.7-1.6-14.1-.4-.3-.9-.2-1.2.1-.3.3-.3.9.1 1.1zm3.8-4.8c.4.3.9.2 1.2-.1l2.9-3.7c.3-.4.2-.9-.1-1.2-.4-.3-.9-.2-1.2.1l-2.9 3.7c-.3.4-.2.9.1 1.2zm-7.6-3.9c0 .3.1.6.3.8.1.1.2.1.4.2.5.1.9-.2 1-.7l.6-4.7c.1-.5-.2-.9-.7-1-.5-.1-.9.2-1 .7l-.6 4.7zm6.7 33.9-1.7-4.4c-.2-.4-.7-.6-1.1-.5-.4.2-.6.7-.5 1.1l1.7 4.4c.1.1.1.3.3.3.2.2.5.2.8.1.5-.1.7-.6.5-1zm-16.4-37 1.7 4.4c.1.1.1.3.3.3.2.2.5.2.8.1.4-.2.6-.7.5-1.1L15 1.7c-.2-.4-.7-.6-1.1-.5-.5.2-.7.7-.5 1.1zm24.5 30.4-3.7-2.9c-.4-.3-.9-.2-1.2.1-.3.4-.2.9.1 1.2l3.7 2.9c.4.3.9.2 1.2-.1.4-.4.3-.9-.1-1.2zm-27.8-21c.3-.4.2-.9-.1-1.2L6.3 7.6c-.4-.3-.9-.2-1.2.1-.3.4-.2.9.2 1.2L9 11.8c.3.3.8.3 1.1-.1zm26.3 12.1c.1.1.2.1.4.2l4.6.7c.5.1.9-.2 1-.7.1-.5-.2-.9-.7-1l-4.6-.7c-.5-.1-.9.2-1 .7 0 .3.1.6.3.8zm-30-6.1L1.8 17c-.5-.1-.9.2-1 .7 0 .3.1.6.3.8.1.1.2.1.4.2l4.6.7c.5.1.9-.2 1-.7.1-.5-.3-.9-.7-1zm28.9-2.3c.1.1.1.3.3.3.2.2.5.2.8.1l4.4-1.7c.4-.2.6-.7.5-1.1-.2-.4-.7-.6-1.1-.5l-4.4 1.7c-.5.3-.7.8-.5 1.2z"/></svg>