<?xml version="1.0" encoding="utf-8"?>
<svg version="1.1" id="Layer_1" xmlns="http://www.w3.org/2000/svg" xmlns:xlink="http://www.w3.org/1999/xlink" x="0px" y="0px"
	 viewBox="0 0 35 40" style="enable-background:new 0 0 35 40;" xml:space="preserve">
<style type="text/css">
	.st0{fill:#FFFFFF;}
</style>
<g>
	<g>
		<path class="st0" d="M34.3,15.7l-15-15c-0.2-0.2-0.5-0.4-0.8-0.5c-0.3-0.1-0.6-0.2-1-0.2s-0.7,0.1-1,0.2c-0.3,0.1-0.6,0.3-0.8,0.5
			l-15,15C0.3,16.2,0,16.8,0,17.5s0.3,1.3,0.7,1.8C1.2,19.7,1.8,20,2.5,20s1.3-0.3,1.8-0.7L15,8.5v29c0,0.7,0.3,1.3,0.7,1.8
			c0.5,0.5,1.1,0.7,1.8,0.7s1.3-0.3,1.8-0.7c0.5-0.5,0.7-1.1,0.7-1.8v-29l10.7,10.7c0.5,0.5,1.1,0.7,1.8,0.7s1.3-0.3,1.8-0.7
			c0.5-0.5,0.7-1.1,0.7-1.8S34.7,16.2,34.3,15.7z"/>
	</g>
</g>
</svg>
